<svg width="335" height="93" viewBox="0 0 335 93" fill="none" xmlns="http://www.w3.org/2000/svg">
<g filter="url(#filter0_d)">
<path d="M10.7053 54.904C11.1533 55.32 11.9533 55.72 13.1053 56.104C14.2573 56.488 15.5853 56.824 17.0893 57.112C18.0173 54.968 18.9933 52.792 20.0173 50.584C21.0733 48.344 22.0973 46.168 23.0893 44.056C22.7373 43.512 22.3693 43.08 21.9853 42.76C21.6013 42.408 21.2173 42.2 20.8333 42.136C22.3693 40.696 23.8733 39.816 25.3453 39.496C26.8493 39.176 28.0653 39.192 28.9933 39.544C29.6013 39.768 30.1933 40.344 30.7693 41.272C31.3453 42.2 31.9213 43.368 32.4973 44.776C33.0733 46.184 33.6493 47.752 34.2253 49.48C34.8013 51.208 35.3773 52.968 35.9533 54.76C36.5293 56.52 37.1053 58.264 37.6813 59.992C38.2573 61.688 38.8333 63.208 39.4093 64.552C40.0173 65.896 40.6253 67 41.2333 67.864C41.8413 68.728 42.4493 69.208 43.0573 69.304C42.3853 70.136 41.5853 70.872 40.6573 71.512C39.7613 72.152 38.8493 72.616 37.9213 72.904C36.9933 73.192 36.1133 73.288 35.2813 73.192C34.4493 73.096 33.7773 72.728 33.2653 72.088C32.5933 71.256 31.9213 69.896 31.2493 68.008C30.5773 66.088 29.9053 63.944 29.2333 61.576C27.7613 62.152 26.1933 62.664 24.5293 63.112C22.8653 63.56 21.2493 63.896 19.6813 64.12C19.2333 65.944 18.9773 67.528 18.9133 68.872C18.8493 70.216 19.0093 71.384 19.3933 72.376C19.0093 72.536 18.4973 72.68 17.8573 72.808C17.2173 72.936 16.5613 73 15.8893 73C15.2493 72.968 14.6413 72.824 14.0653 72.568C13.5213 72.28 13.1213 71.816 12.8653 71.176C12.6413 70.632 12.6573 69.752 12.9133 68.536C13.2013 67.288 13.6493 65.8 14.2573 64.072C13.3613 63.88 12.6733 63.56 12.1933 63.112C11.5533 62.536 11.0893 61.896 10.8013 61.192C10.5133 60.456 10.3373 59.72 10.2733 58.984C10.2093 58.216 10.2253 57.48 10.3213 56.776C10.4173 56.072 10.5453 55.448 10.7053 54.904ZM28.2253 58.024C27.7453 56.392 27.2653 54.792 26.7853 53.224C26.3053 51.624 25.8093 50.136 25.2973 48.76C23.8893 52.056 22.6733 55.064 21.6493 57.784C22.8653 57.944 24.0333 58.04 25.1533 58.072C26.3053 58.104 27.3293 58.088 28.2253 58.024Z" fill="url(#paint0_linear)"/>
<path d="M44.0518 47.416C44.4678 47.896 45.1078 48.184 45.9718 48.28C46.8358 48.344 47.8278 48.312 48.9478 48.184C50.0678 48.024 51.2678 47.832 52.5478 47.608C53.8278 47.352 55.0758 47.144 56.2918 46.984C57.5398 46.792 58.6918 46.696 59.7478 46.696C60.8358 46.664 61.7478 46.824 62.4838 47.176C63.2198 47.528 63.7158 48.136 63.9718 49C64.2278 49.832 64.3078 50.776 64.2118 51.832C64.1158 52.856 63.8438 53.88 63.3958 54.904C62.9798 55.928 62.4678 56.776 61.8598 57.448C61.4758 56.616 60.8838 56.008 60.0838 55.624C59.3158 55.24 58.4038 55 57.3478 54.904C56.2918 54.776 55.1398 54.76 53.8918 54.856C52.6438 54.92 51.3798 55 50.0998 55.096C50.4838 56.408 50.7078 57.704 50.7718 58.984C50.8678 60.232 50.8838 61.416 50.8198 62.536C50.7878 63.656 50.7238 64.712 50.6278 65.704C50.5638 66.664 50.5638 67.544 50.6278 68.344C50.7238 69.144 50.9478 69.832 51.2998 70.408C51.6518 70.984 52.2438 71.432 53.0758 71.752C52.6598 72.104 51.9398 72.424 50.9158 72.712C49.9238 73 48.8518 73.112 47.6998 73.048C46.5798 72.984 45.5078 72.696 44.4838 72.184C43.4918 71.672 42.8038 70.792 42.4198 69.544C42.1318 68.648 42.0998 67.64 42.3238 66.52C42.5478 65.4 42.8678 64.216 43.2838 62.968C43.7318 61.688 44.1958 60.392 44.6758 59.08C45.1878 57.736 45.5878 56.424 45.8758 55.144C45.0758 54.952 44.4358 54.6 43.9558 54.088C43.4758 53.544 43.1558 52.904 42.9958 52.168C42.8358 51.432 42.8358 50.648 42.9958 49.816C43.1878 48.984 43.5398 48.184 44.0518 47.416Z" fill="url(#paint1_linear)"/>
<path d="M71.6165 65.224C71.4245 66.472 71.3125 67.72 71.2805 68.968C71.2805 70.216 71.4245 71.384 71.7125 72.472C72.0005 73.56 72.4485 74.504 73.0565 75.304C73.6965 76.104 74.5765 76.68 75.6965 77.032C75.0565 78.28 74.2565 79.304 73.2965 80.104C72.3685 80.904 71.3925 81.464 70.3685 81.784C69.3445 82.136 68.3525 82.216 67.3925 82.024C66.4325 81.864 65.6165 81.432 64.9445 80.728C64.1125 79.832 63.6325 78.632 63.5045 77.128C63.3765 75.656 63.4085 74.008 63.6005 72.184C63.8245 70.328 64.1125 68.376 64.4645 66.328C64.8485 64.28 65.1365 62.248 65.3285 60.232C65.4565 58.952 65.5685 57.784 65.6645 56.728C65.7605 55.672 65.7605 54.728 65.6645 53.896C65.6005 53.064 65.4085 52.376 65.0885 51.832C64.7685 51.256 64.2405 50.824 63.5045 50.536C64.0165 49.576 64.6885 48.792 65.5205 48.184C66.3845 47.544 67.2485 47.096 68.1125 46.84C69.0085 46.584 69.8405 46.52 70.6085 46.648C71.4085 46.744 72.0165 47.048 72.4325 47.56C72.7525 47.976 72.9605 48.376 73.0565 48.76C73.1525 49.112 73.1685 49.496 73.1045 49.912C73.0405 50.296 72.9125 50.712 72.7205 51.16C72.5605 51.608 72.3845 52.104 72.1925 52.648C72.9605 50.984 73.9525 49.688 75.1685 48.76C76.3845 47.8 77.6645 47.176 79.0085 46.888C80.3525 46.6 81.6805 46.616 82.9925 46.936C84.3365 47.256 85.4885 47.832 86.4485 48.664C87.5365 49.624 88.4005 50.872 89.0405 52.408C89.6805 53.944 90.0805 55.592 90.2405 57.352C90.4005 59.08 90.3205 60.84 90.0005 62.632C89.6805 64.424 89.1045 66.056 88.2725 67.528C87.4725 69 86.4165 70.232 85.1045 71.224C83.7925 72.216 82.2245 72.792 80.4005 72.952C79.0565 73.08 77.8565 72.968 76.8005 72.616C75.7765 72.232 74.9125 71.688 74.2085 70.984C73.5045 70.28 72.9765 69.448 72.6245 68.488C72.2725 67.528 72.1125 66.504 72.1445 65.416L71.6165 65.224ZM83.8085 56.344C83.1365 55.576 82.2405 55.064 81.1205 54.808C80.0005 54.552 78.8485 54.632 77.6645 55.048C76.4805 55.464 75.3605 56.232 74.3045 57.352C73.2805 58.472 72.5125 60.008 72.0005 61.96C72.5125 62.664 73.1525 63.224 73.9205 63.64C74.7205 64.024 75.5525 64.312 76.4165 64.504C77.2805 64.664 78.1445 64.712 79.0085 64.648C79.8725 64.552 80.6565 64.376 81.3605 64.12C82.2565 63.8 82.9765 63.32 83.5205 62.68C84.0965 62.04 84.4805 61.352 84.6725 60.616C84.8965 59.88 84.9285 59.128 84.7685 58.36C84.6405 57.592 84.3205 56.92 83.8085 56.344Z" fill="url(#paint2_linear)"/>
<path d="M96.8158 48.664C97.6478 47.992 98.4798 47.544 99.3118 47.32C100.176 47.096 100.96 47.048 101.664 47.176C103.776 46.536 105.824 46.392 107.808 46.744C109.792 47.096 111.568 47.976 113.136 49.384C114.384 50.472 115.328 51.88 115.968 53.608C116.608 55.304 116.944 57.096 116.976 58.984C117.008 60.84 116.704 62.68 116.064 64.504C115.456 66.328 114.48 67.912 113.136 69.256C111.888 70.504 110.464 71.448 108.864 72.088C107.264 72.696 105.632 73 103.968 73C102.336 73 100.752 72.68 99.2158 72.04C97.6798 71.4 96.3678 70.44 95.2798 69.16C93.8398 67.528 92.8798 65.72 92.3998 63.736C91.9198 61.752 91.8078 59.816 92.0638 57.928C92.3198 56.008 92.8638 54.232 93.6958 52.6C94.5598 50.936 95.5998 49.624 96.8158 48.664ZM99.6478 58.216C99.4878 58.152 99.2958 58.008 99.0718 57.784C98.8798 57.56 98.6878 57.272 98.4958 56.92C98.1118 57.848 97.8878 58.664 97.8238 59.368C97.7918 60.072 97.9838 60.824 98.3998 61.624C98.8798 62.552 99.5678 63.288 100.464 63.832C101.392 64.376 102.384 64.728 103.44 64.888C104.496 65.048 105.536 65.048 106.56 64.888C107.584 64.696 108.432 64.36 109.104 63.88C109.776 63.4 110.304 62.84 110.688 62.2C111.104 61.56 111.36 60.904 111.456 60.232C111.584 59.56 111.552 58.904 111.36 58.264C111.168 57.592 110.832 56.984 110.352 56.44C109.616 55.64 108.72 55.112 107.664 54.856C106.608 54.568 105.552 54.52 104.496 54.712C103.44 54.904 102.464 55.304 101.568 55.912C100.672 56.488 100.032 57.256 99.6478 58.216Z" fill="url(#paint3_linear)"/>
<path d="M121.323 51.976C120.811 51.592 120.411 51.016 120.123 50.248C119.835 49.448 119.691 48.6 119.691 47.704C119.723 46.776 119.899 45.864 120.219 44.968C120.571 44.04 121.099 43.256 121.803 42.616C122.731 41.784 123.931 41.144 125.403 40.696C126.907 40.248 128.459 40.04 130.059 40.072C131.691 40.072 133.275 40.328 134.811 40.84C136.379 41.352 137.723 42.136 138.843 43.192C140.667 44.984 141.979 46.952 142.779 49.096C143.579 51.208 143.979 53.336 143.979 55.48C143.979 57.592 143.627 59.624 142.923 61.576C142.251 63.528 141.339 65.224 140.187 66.664C138.779 68.424 137.131 69.832 135.243 70.888C133.387 71.944 131.515 72.648 129.627 73C127.771 73.352 125.995 73.384 124.299 73.096C122.635 72.808 121.291 72.2 120.267 71.272C119.403 70.504 118.811 69.608 118.491 68.584C118.203 67.56 118.155 66.536 118.347 65.512C118.539 64.456 118.955 63.448 119.595 62.488C120.235 61.528 121.067 60.728 122.091 60.088C122.379 61.496 123.035 62.6 124.059 63.4C125.115 64.2 126.331 64.696 127.707 64.888C129.083 65.08 130.555 64.952 132.123 64.504C133.691 64.056 135.147 63.304 136.491 62.248C137.035 61.832 137.483 61.384 137.835 60.904C138.187 60.424 138.491 59.912 138.747 59.368C137.851 59.368 136.683 59.352 135.243 59.32C133.835 59.288 132.379 59.272 130.875 59.272C129.371 59.272 127.931 59.336 126.555 59.464C125.211 59.56 124.171 59.752 123.435 60.04C123.339 59.176 123.355 58.312 123.483 57.448C123.611 56.584 123.851 55.8 124.203 55.096C124.555 54.36 125.019 53.736 125.595 53.224C126.171 52.712 126.843 52.376 127.611 52.216C128.187 52.088 128.891 52.072 129.723 52.168C130.587 52.264 131.499 52.392 132.459 52.552C133.419 52.712 134.411 52.904 135.435 53.128C136.491 53.32 137.515 53.464 138.507 53.56C137.931 52.344 137.147 51.32 136.155 50.488C135.195 49.72 134.043 49.112 132.699 48.664C131.355 48.216 129.963 48.024 128.523 48.088C127.115 48.12 125.755 48.44 124.443 49.048C123.163 49.656 122.123 50.632 121.323 51.976Z" fill="url(#paint4_linear)"/>
<path d="M145.313 49.672C145.601 49.192 146.065 48.744 146.705 48.328C147.345 47.88 148.065 47.512 148.865 47.224C149.697 46.936 150.561 46.728 151.457 46.6C152.353 46.472 153.201 46.456 154.001 46.552C154.801 46.648 155.505 46.872 156.113 47.224C156.721 47.544 157.153 48.024 157.409 48.664C157.729 49.464 157.857 50.296 157.793 51.16C157.761 51.992 157.617 52.84 157.361 53.704C157.105 54.536 156.753 55.384 156.305 56.248C155.889 57.112 155.457 57.976 155.009 58.84C156.161 57.88 157.249 56.856 158.273 55.768C159.329 54.68 160.209 53.608 160.913 52.552C161.649 51.464 162.161 50.424 162.449 49.432C162.769 48.408 162.785 47.496 162.497 46.696C163.745 46.504 164.929 46.504 166.049 46.696C167.201 46.856 168.177 47.192 168.977 47.704C169.809 48.216 170.433 48.856 170.849 49.624C171.265 50.392 171.361 51.256 171.137 52.216C170.945 53.144 170.433 54.008 169.601 54.808C168.769 55.608 167.777 56.344 166.625 57.016C165.505 57.688 164.289 58.296 162.977 58.84C161.697 59.352 160.481 59.8 159.329 60.184C160.673 61.528 161.937 62.584 163.121 63.352C164.337 64.12 165.457 64.632 166.481 64.888C167.505 65.144 168.449 65.176 169.313 64.984C170.177 64.76 170.945 64.344 171.617 63.736C171.713 64.728 171.633 65.736 171.377 66.76C171.121 67.784 170.705 68.728 170.129 69.592C169.585 70.456 168.897 71.208 168.065 71.848C167.265 72.456 166.353 72.84 165.329 73C164.497 73.16 163.537 73.144 162.449 72.952C161.393 72.728 160.289 72.28 159.137 71.608C157.985 70.904 156.833 69.928 155.681 68.68C154.561 67.432 153.505 65.848 152.513 63.928C152.097 65.08 151.969 66.168 152.129 67.192C152.289 68.216 152.977 69.128 154.193 69.928C153.617 70.824 152.881 71.544 151.985 72.088C151.121 72.6 150.241 72.904 149.345 73C148.449 73.096 147.601 72.968 146.801 72.616C146.033 72.264 145.457 71.656 145.073 70.792C144.625 69.8 144.449 68.648 144.545 67.336C144.641 65.992 144.849 64.6 145.169 63.16C145.521 61.688 145.889 60.232 146.273 58.792C146.657 57.32 146.929 55.976 147.089 54.76C147.281 53.512 147.265 52.44 147.041 51.544C146.817 50.648 146.241 50.024 145.313 49.672Z" fill="url(#paint5_linear)"/>
<path d="M177.206 48.664C178.038 47.992 178.87 47.544 179.702 47.32C180.566 47.096 181.35 47.048 182.054 47.176C184.166 46.536 186.214 46.392 188.198 46.744C190.182 47.096 191.958 47.976 193.526 49.384C194.774 50.472 195.718 51.88 196.358 53.608C196.998 55.304 197.334 57.096 197.366 58.984C197.398 60.84 197.094 62.68 196.454 64.504C195.846 66.328 194.87 67.912 193.526 69.256C192.278 70.504 190.854 71.448 189.254 72.088C187.654 72.696 186.022 73 184.358 73C182.726 73 181.142 72.68 179.606 72.04C178.07 71.4 176.758 70.44 175.67 69.16C174.23 67.528 173.27 65.72 172.79 63.736C172.31 61.752 172.198 59.816 172.454 57.928C172.71 56.008 173.254 54.232 174.086 52.6C174.95 50.936 175.99 49.624 177.206 48.664ZM180.038 58.216C179.878 58.152 179.686 58.008 179.462 57.784C179.27 57.56 179.078 57.272 178.886 56.92C178.502 57.848 178.278 58.664 178.214 59.368C178.182 60.072 178.374 60.824 178.79 61.624C179.27 62.552 179.958 63.288 180.854 63.832C181.782 64.376 182.774 64.728 183.83 64.888C184.886 65.048 185.926 65.048 186.95 64.888C187.974 64.696 188.822 64.36 189.494 63.88C190.166 63.4 190.694 62.84 191.078 62.2C191.494 61.56 191.75 60.904 191.846 60.232C191.974 59.56 191.942 58.904 191.75 58.264C191.558 57.592 191.222 56.984 190.742 56.44C190.006 55.64 189.11 55.112 188.054 54.856C186.998 54.568 185.942 54.52 184.886 54.712C183.83 54.904 182.854 55.304 181.958 55.912C181.062 56.488 180.422 57.256 180.038 58.216Z" fill="url(#paint6_linear)"/>
<path d="M198.498 46.792C198.402 44.776 198.642 43.16 199.218 41.944C199.826 40.696 200.77 39.944 202.05 39.688C203.202 39.464 204.53 39.352 206.034 39.352C207.57 39.32 209.154 39.336 210.786 39.4C212.418 39.464 214.034 39.544 215.634 39.64C217.266 39.736 218.77 39.784 220.146 39.784C221.522 39.752 222.706 39.64 223.698 39.448C224.69 39.224 225.362 38.856 225.714 38.344C225.714 39.336 225.634 40.328 225.474 41.32C225.346 42.312 225.09 43.24 224.706 44.104C224.354 44.968 223.89 45.768 223.314 46.504C222.738 47.208 222.018 47.768 221.154 48.184L220.77 48.376C220.514 49.976 220.306 51.672 220.146 53.464C220.018 55.256 219.922 57.032 219.858 58.792C219.826 60.552 219.842 62.248 219.906 63.88C219.97 65.48 220.082 66.904 220.242 68.152C220.434 69.4 220.674 70.424 220.962 71.224C221.25 71.992 221.586 72.408 221.97 72.472C221.01 72.792 219.986 72.968 218.898 73C217.81 73.032 216.77 72.936 215.778 72.712C214.818 72.488 213.954 72.12 213.186 71.608C212.45 71.096 211.938 70.456 211.65 69.688C211.362 68.92 211.266 67.704 211.362 66.04C211.49 64.376 211.746 62.536 212.13 60.52C212.514 58.472 212.994 56.392 213.57 54.28C214.146 52.136 214.77 50.232 215.442 48.568C214.098 48.344 212.674 48.056 211.17 47.704C209.698 47.32 208.21 47 206.706 46.744C207.186 48.184 207.474 49.768 207.57 51.496C207.698 53.192 207.73 54.92 207.666 56.68C207.634 58.408 207.57 60.104 207.474 61.768C207.41 63.432 207.41 64.952 207.474 66.328C207.57 67.672 207.794 68.84 208.146 69.832C208.498 70.792 209.09 71.432 209.922 71.752C209.506 72.104 208.786 72.424 207.762 72.712C206.77 73 205.698 73.112 204.546 73.048C203.426 72.984 202.354 72.696 201.33 72.184C200.338 71.672 199.65 70.792 199.266 69.544C199.042 68.872 198.978 68.008 199.074 66.952C199.17 65.896 199.33 64.712 199.554 63.4C199.81 62.088 200.114 60.696 200.466 59.224C200.85 57.72 201.202 56.216 201.522 54.712C201.874 53.208 202.178 51.736 202.434 50.296C202.722 48.856 202.914 47.512 203.01 46.264C202.178 46.2 201.378 46.216 200.61 46.312C199.842 46.376 199.138 46.536 198.498 46.792Z" fill="url(#paint7_linear)"/>
<path d="M229.425 48.664C230.257 47.992 231.089 47.544 231.921 47.32C232.785 47.096 233.569 47.048 234.273 47.176C236.385 46.536 238.433 46.392 240.417 46.744C242.401 47.096 244.177 47.976 245.745 49.384C246.993 50.472 247.937 51.88 248.577 53.608C249.217 55.304 249.553 57.096 249.585 58.984C249.617 60.84 249.313 62.68 248.673 64.504C248.065 66.328 247.089 67.912 245.745 69.256C244.497 70.504 243.073 71.448 241.473 72.088C239.873 72.696 238.241 73 236.577 73C234.945 73 233.361 72.68 231.825 72.04C230.289 71.4 228.977 70.44 227.889 69.16C226.449 67.528 225.489 65.72 225.009 63.736C224.529 61.752 224.417 59.816 224.673 57.928C224.929 56.008 225.473 54.232 226.305 52.6C227.169 50.936 228.209 49.624 229.425 48.664ZM232.257 58.216C232.097 58.152 231.905 58.008 231.681 57.784C231.489 57.56 231.297 57.272 231.105 56.92C230.721 57.848 230.497 58.664 230.433 59.368C230.401 60.072 230.593 60.824 231.009 61.624C231.489 62.552 232.177 63.288 233.073 63.832C234.001 64.376 234.993 64.728 236.049 64.888C237.105 65.048 238.145 65.048 239.169 64.888C240.193 64.696 241.041 64.36 241.713 63.88C242.385 63.4 242.913 62.84 243.297 62.2C243.713 61.56 243.969 60.904 244.065 60.232C244.193 59.56 244.161 58.904 243.969 58.264C243.777 57.592 243.441 56.984 242.961 56.44C242.225 55.64 241.329 55.112 240.273 54.856C239.217 54.568 238.161 54.52 237.105 54.712C236.049 54.904 235.073 55.304 234.177 55.912C233.281 56.488 232.641 57.256 232.257 58.216Z" fill="url(#paint8_linear)"/>
<path d="M251.677 53.992C251.581 51.976 251.821 50.36 252.397 49.144C253.005 47.896 253.949 47.144 255.229 46.888C256.381 46.664 257.677 46.552 259.117 46.552C260.557 46.52 262.045 46.536 263.581 46.6C265.117 46.664 266.637 46.744 268.141 46.84C269.645 46.936 271.021 46.984 272.269 46.984C273.517 46.952 274.604 46.84 275.533 46.648C276.461 46.424 277.101 46.056 277.453 45.544C277.453 47.304 277.213 49.016 276.733 50.68C276.253 52.312 275.373 53.64 274.093 54.664C273.677 56.936 273.405 59.128 273.277 61.24C273.181 63.32 273.197 65.176 273.325 66.808C273.485 68.44 273.757 69.768 274.141 70.792C274.525 71.784 275.021 72.344 275.629 72.472C274.669 72.792 273.645 72.968 272.557 73C271.469 73.032 270.429 72.936 269.437 72.712C268.477 72.488 267.613 72.12 266.845 71.608C266.109 71.096 265.597 70.456 265.309 69.688C265.021 68.952 264.909 68.072 264.973 67.048C265.037 65.992 265.213 64.856 265.501 63.64C265.821 62.424 266.221 61.16 266.701 59.848C267.212 58.504 267.789 57.176 268.429 55.864C267.309 55.736 266.141 55.528 264.925 55.24C263.709 54.952 262.461 54.648 261.181 54.328C261.373 55.352 261.661 56.616 262.045 58.12C262.429 59.624 262.685 61.176 262.813 62.776C262.941 64.376 262.829 65.928 262.477 67.432C262.125 68.936 261.309 70.216 260.029 71.272C258.621 72.424 257.245 73.032 255.901 73.096C254.589 73.16 253.405 72.92 252.349 72.376C251.293 71.832 250.413 71.096 249.709 70.168C249.005 69.24 248.589 68.36 248.461 67.528C249.869 67.656 251.005 67.48 251.869 67C252.765 66.52 253.469 65.864 253.981 65.032C254.493 64.168 254.861 63.192 255.085 62.104C255.309 61.016 255.469 59.928 255.565 58.84C255.661 57.752 255.741 56.728 255.805 55.768C255.869 54.808 255.997 54.04 256.189 53.464C255.357 53.4 254.557 53.416 253.789 53.512C253.053 53.576 252.349 53.736 251.677 53.992Z" fill="url(#paint9_linear)"/>
<path d="M284.574 72.616C282.558 72.68 280.814 72.296 279.342 71.464C277.87 70.6 276.926 69.464 276.51 68.056C276.414 67.864 276.334 67.64 276.27 67.384C276.238 67.096 276.254 66.728 276.318 66.28C276.318 66.216 276.318 66.184 276.318 66.184C276.35 66.152 276.366 66.104 276.366 66.04C276.398 65.784 276.446 65.544 276.51 65.32C276.606 65.096 276.718 64.856 276.846 64.6C277.838 61.72 278.478 59.304 278.766 57.352C279.054 55.4 279.118 53.832 278.958 52.648C278.798 51.432 278.462 50.568 277.95 50.056C277.438 49.512 276.878 49.24 276.27 49.24C276.782 48.472 277.454 47.864 278.286 47.416C279.118 46.968 279.982 46.712 280.878 46.648C281.774 46.552 282.606 46.664 283.374 46.984C284.174 47.272 284.766 47.768 285.15 48.472C285.63 49.368 285.742 50.632 285.486 52.264C285.23 53.864 284.782 55.624 284.142 57.544C285.23 56.68 286.302 55.8 287.358 54.904C288.446 53.976 289.39 53.064 290.19 52.168C291.022 51.24 291.662 50.328 292.11 49.432C292.59 48.504 292.782 47.576 292.686 46.648C293.71 46.648 294.734 46.776 295.758 47.032C296.814 47.256 297.742 47.608 298.542 48.088C299.374 48.536 300.014 49.08 300.462 49.72C300.91 50.36 301.054 51.064 300.894 51.832C300.766 52.376 300.19 53.208 299.166 54.328C299.134 55.256 299.118 56.312 299.118 57.496C299.15 58.68 299.198 59.896 299.262 61.144C299.358 62.392 299.486 63.608 299.646 64.792C299.806 65.944 300.014 66.984 300.27 67.912C300.558 68.808 300.91 69.528 301.326 70.072C301.742 70.584 302.254 70.808 302.862 70.744C302.382 71.544 301.694 72.12 300.798 72.472C299.902 72.824 298.974 73 298.014 73C297.086 72.968 296.222 72.776 295.422 72.424C294.654 72.072 294.142 71.576 293.886 70.936C293.214 69.304 293.054 67.48 293.406 65.464C293.758 63.416 294.334 61.048 295.134 58.36C293.822 59.64 292.462 60.968 291.054 62.344C289.646 63.72 288.398 65.064 287.31 66.376C286.222 67.656 285.39 68.84 284.814 69.928C284.27 71.016 284.19 71.912 284.574 72.616Z" fill="url(#paint10_linear)"/>
<path d="M322.529 57.784C321.921 56.664 321.137 55.832 320.177 55.288C319.217 54.712 318.193 54.376 317.105 54.28C316.017 54.184 314.945 54.312 313.889 54.664C312.833 54.984 311.921 55.464 311.153 56.104C310.545 56.584 310.065 57.144 309.713 57.784C309.393 58.424 309.185 59.08 309.089 59.752C309.025 60.392 309.073 61.016 309.233 61.624C309.393 62.2 309.665 62.68 310.049 63.064C310.913 63.96 311.921 64.568 313.073 64.888C314.257 65.176 315.441 65.224 316.625 65.032C317.809 64.84 318.929 64.44 319.985 63.832C321.041 63.192 321.889 62.392 322.529 61.432C322.817 61.784 323.105 62.328 323.393 63.064C323.713 63.768 323.937 64.568 324.065 65.464C324.225 66.328 324.241 67.224 324.113 68.152C323.985 69.048 323.601 69.848 322.961 70.552C322.385 71.224 321.505 71.8 320.321 72.28C319.169 72.728 317.857 72.968 316.385 73C314.913 73.064 313.377 72.872 311.777 72.424C310.177 71.976 308.657 71.176 307.217 70.024C306.097 69.096 305.169 67.912 304.433 66.472C303.729 65.032 303.313 63.464 303.185 61.768C303.089 60.04 303.329 58.248 303.905 56.392C304.481 54.536 305.505 52.744 306.977 51.016C308.161 49.576 309.537 48.504 311.105 47.8C312.673 47.064 314.225 46.648 315.761 46.552C317.297 46.456 318.737 46.648 320.081 47.128C321.457 47.608 322.561 48.344 323.393 49.336C323.873 49.944 324.209 50.616 324.401 51.352C324.625 52.056 324.689 52.792 324.593 53.56C324.529 54.296 324.321 55.032 323.969 55.768C323.649 56.504 323.169 57.176 322.529 57.784Z" fill="url(#paint11_linear)"/>
<path fill-rule="evenodd" clip-rule="evenodd" d="M210.465 36.4139V32.9766H207.758V41.5703H210.465V36.4139Z" fill="url(#paint12_linear)"/>
<path fill-rule="evenodd" clip-rule="evenodd" d="M210.465 36.4139V32.9766H207.758V41.5703H210.465V36.4139Z" fill="url(#paint13_linear)"/>
<path fill-rule="evenodd" clip-rule="evenodd" d="M219.811 36.5869C219.238 36.8659 218.844 37.453 218.844 38.1326C218.844 38.8122 219.238 39.3995 219.811 39.6785C220.383 39.3995 220.777 38.8122 220.777 38.1326C220.777 37.453 220.383 36.8659 219.811 36.5869V36.5869Z" fill="#1A936F"/>
<path d="M207.887 35.125H207.897C208.134 35.125 208.327 34.9325 208.327 34.6953C208.327 34.458 208.134 34.2656 207.897 34.2656H207.887C207.649 34.2656 207.457 34.458 207.457 34.6953C207.457 34.9326 207.649 35.125 207.887 35.125Z" fill="black"/>
<path d="M203.6 41.1406H203.59C203.353 41.1406 203.16 41.333 203.16 41.5703C203.16 41.8076 203.353 42 203.59 42H203.6C203.837 42 204.03 41.8076 204.03 41.5703C204.03 41.333 203.837 41.1406 203.6 41.1406Z" fill="black"/>
<path d="M222.496 41.1406H222.486C222.249 41.1406 222.056 41.333 222.056 41.5703C222.056 41.8076 222.249 42 222.486 42H222.496C222.733 42 222.926 41.8076 222.926 41.5703C222.926 41.333 222.733 41.1406 222.496 41.1406Z" fill="black"/>
<path fill-rule="evenodd" clip-rule="evenodd" d="M221.251 41.1406H219.488V40.2379C220.468 40.0384 221.207 39.1703 221.207 38.1326C221.207 36.948 220.243 35.984 219.059 35.984C217.874 35.984 216.91 36.948 216.91 38.1326C216.91 39.1701 217.649 40.0382 218.629 40.2379V41.1406H210.895V32.9766L210.035 32.5469H205.309C205.071 32.5469 204.879 32.7392 204.879 32.9766V41.1406H204.834C204.597 41.1406 204.405 41.333 204.405 41.5703C204.405 41.8076 204.597 42 204.834 42H221.251C221.489 42 221.681 41.8076 221.681 41.5703C221.681 41.333 221.489 41.1406 221.251 41.1406ZM219.059 36.8434C218.348 36.8434 217.77 37.4218 217.77 38.1326C217.77 38.6927 218.129 39.1704 218.629 39.3479V38.992C218.629 38.7549 218.821 38.5623 219.058 38.5623C219.296 38.5623 219.488 38.7549 219.488 38.992V39.3479C219.988 39.1704 220.348 38.6929 220.348 38.1326C220.348 37.4218 219.769 36.8434 219.059 36.8434ZM210.035 33.4062H205.738V41.1406H210.035V40.2811H207.887C207.649 40.2811 207.457 40.0887 207.457 39.8514C207.457 39.6142 207.649 39.4217 207.887 39.4217H210.035V38.5625H207.887C207.649 38.5625 207.457 38.37 207.457 38.1328C207.457 37.8955 207.649 37.7031 207.887 37.7031H210.035V36.8436H207.887C207.649 36.8436 207.457 36.6512 207.457 36.4139C207.457 36.1767 207.649 35.9842 207.887 35.9842H210.035V35.125H209.131C208.894 35.125 208.702 34.9325 208.702 34.6953C208.702 34.458 208.894 34.2656 209.131 34.2656H210.035V33.4062Z" fill="black"/>
<path fill-rule="evenodd" clip-rule="evenodd" d="M267.535 44.4139V40.9766H270.242V49.5703H267.535V44.4139Z" fill="url(#paint14_linear)"/>
<path fill-rule="evenodd" clip-rule="evenodd" d="M267.535 44.4139V40.9766H270.242V49.5703H267.535V44.4139Z" fill="url(#paint15_linear)"/>
<path fill-rule="evenodd" clip-rule="evenodd" d="M258.189 44.5869C258.762 44.8659 259.156 45.453 259.156 46.1326C259.156 46.8122 258.762 47.3995 258.189 47.6785C257.617 47.3995 257.223 46.8122 257.223 46.1326C257.223 45.453 257.617 44.8659 258.189 44.5869Z" fill="#1A936F"/>
<path d="M270.113 43.125H270.103C269.866 43.125 269.674 42.9325 269.674 42.6953C269.674 42.458 269.866 42.2656 270.103 42.2656H270.113C270.351 42.2656 270.543 42.458 270.543 42.6953C270.543 42.9326 270.351 43.125 270.113 43.125Z" fill="black"/>
<path d="M274.4 49.1406H274.41C274.647 49.1406 274.84 49.333 274.84 49.5703C274.84 49.8076 274.647 50 274.41 50H274.4C274.163 50 273.97 49.8076 273.97 49.5703C273.97 49.333 274.163 49.1406 274.4 49.1406Z" fill="black"/>
<path d="M255.504 49.1406H255.514C255.751 49.1406 255.944 49.333 255.944 49.5703C255.944 49.8076 255.751 50 255.514 50H255.504C255.267 50 255.074 49.8076 255.074 49.5703C255.074 49.333 255.267 49.1406 255.504 49.1406Z" fill="black"/>
<path fill-rule="evenodd" clip-rule="evenodd" d="M256.749 49.1406H258.512V48.2379C257.532 48.0384 256.793 47.1703 256.793 46.1326C256.793 44.948 257.757 43.984 258.941 43.984C260.126 43.984 261.09 44.948 261.09 46.1326C261.09 47.1701 260.351 48.0382 259.371 48.2379V49.1406H267.105V40.9766L267.965 40.5469H272.691C272.929 40.5469 273.121 40.7392 273.121 40.9766V49.1406H273.166C273.403 49.1406 273.595 49.333 273.595 49.5703C273.595 49.8076 273.403 50 273.166 50H256.749C256.511 50 256.319 49.8076 256.319 49.5703C256.319 49.333 256.511 49.1406 256.749 49.1406ZM258.941 44.8434C259.652 44.8434 260.23 45.4218 260.23 46.1326C260.23 46.6927 259.871 47.1704 259.371 47.3479V46.992C259.371 46.7549 259.179 46.5623 258.942 46.5623C258.704 46.5623 258.512 46.7549 258.512 46.992V47.3479C258.012 47.1704 257.652 46.6929 257.652 46.1326C257.652 45.4218 258.231 44.8434 258.941 44.8434ZM267.965 41.4062H272.262V49.1406H267.965V48.2811H270.113C270.351 48.2811 270.543 48.0887 270.543 47.8514C270.543 47.6142 270.351 47.4217 270.113 47.4217H267.965V46.5625H270.113C270.351 46.5625 270.543 46.37 270.543 46.1328C270.543 45.8955 270.351 45.7031 270.113 45.7031H267.965V44.8436H270.113C270.351 44.8436 270.543 44.6512 270.543 44.4139C270.543 44.1767 270.351 43.9842 270.113 43.9842H267.965V43.125H268.869C269.106 43.125 269.298 42.9325 269.298 42.6953C269.298 42.458 269.106 42.2656 268.869 42.2656H267.965V41.4062Z" fill="black"/>
<path d="M69.7972 12.4515C69.9166 12.2214 69.9091 11.9808 69.7805 11.914C69.6519 11.8473 69.4509 11.9797 69.3315 12.2098L60.4668 29.291C60.3474 29.5211 60.3548 29.7618 60.4834 29.8285C60.612 29.8952 60.8131 29.7628 60.9325 29.5327L69.7972 12.4515Z" fill="black"/>
<path d="M62.7952 30.4994C63.034 30.0392 63.0192 29.558 62.762 29.4245L59.5022 27.7328C59.245 27.5993 58.8429 27.8641 58.604 28.3243L58.1716 29.1576C57.9328 29.6177 57.9477 30.099 58.2049 30.2325L61.4647 31.9242C61.7219 32.0577 62.124 31.7928 62.3628 31.3327L62.7952 30.4994Z" fill="black"/>
<path d="M62.4218 31.2873C62.5124 31.0744 62.4932 30.8715 62.3777 30.8116C62.2376 30.7388 62.0147 30.9041 61.9026 31.1618C60.3374 34.7608 59.1064 37.0915 56.7573 41.059C56.6157 41.2981 56.6122 41.5688 56.7505 41.6406C56.8686 41.7019 57.0505 41.595 57.1731 41.3922C59.6237 37.3386 60.8419 35.0015 62.4218 31.2873Z" fill="black"/>
<path d="M60.8619 30.2652C60.9112 30.1551 60.9035 30.0465 60.8435 30.0153C60.7749 29.9798 60.666 30.0578 60.608 30.1828C58.6873 34.3168 57.4526 36.6548 55.2216 40.5594C55.1535 40.6786 55.1529 40.8115 55.2211 40.8469C55.2815 40.8782 55.3754 40.8211 55.437 40.7165C57.755 36.7801 58.9951 34.4363 60.8619 30.2652Z" fill="black"/>
<path d="M61.5633 30.6253C61.6111 30.5162 61.6029 30.4095 61.5436 30.3787C61.4745 30.3428 61.3646 30.4223 61.307 30.5487C59.4566 34.6087 58.2221 36.9553 55.9229 40.9205C55.8536 41.04 55.8523 41.1745 55.9209 41.2101C55.9808 41.2412 56.0737 41.1853 56.1353 41.0821C58.5112 37.105 59.751 34.7568 61.5633 30.6253Z" fill="black"/>
<path d="M59.4697 29.5371C59.5166 29.428 59.5078 29.3222 59.4486 29.2914C59.3791 29.2554 59.2687 29.3352 59.2106 29.4622C57.3297 33.5761 56.1146 35.9272 53.8297 39.831C53.7593 39.9513 53.7576 40.0874 53.8269 40.1233C53.8861 40.1541 53.9779 40.1 54.0399 39.9986C56.4452 36.0658 57.6733 33.7155 59.4697 29.5371Z" fill="black"/>
<path d="M60.1637 29.9019C60.2128 29.7923 60.2052 29.6841 60.1454 29.6531C60.0768 29.6175 59.9677 29.6961 59.9102 29.8215C58.0189 33.9425 56.7861 36.2671 54.5243 40.1966C54.4557 40.3157 54.4547 40.4491 54.523 40.4846C54.5832 40.5158 54.6768 40.4591 54.7382 40.3549C57.0605 36.4208 58.2948 34.0729 60.1637 29.9019Z" fill="black"/>
<path d="M58.6821 29.3645C58.7797 29.1478 58.7636 28.9359 58.6453 28.8745C58.5078 28.8032 58.2898 28.9619 58.1771 29.2139C56.4281 33.125 55.2247 35.4469 53.0321 39.1281C52.8908 39.3654 52.8865 39.6353 53.024 39.7067C53.1422 39.768 53.3245 39.6595 53.4456 39.4551C55.6789 35.6877 56.8853 33.3566 58.6821 29.3645Z" fill="black"/>
<path d="M54.6751 35.9707C52.8728 36.4265 51.5391 38.0588 51.5391 40.0028C51.5391 41.9467 52.8728 43.5791 54.6751 44.035C56.4774 43.5791 57.8113 41.9468 57.8113 40.0028C57.8113 38.0588 56.4774 36.4265 54.6751 35.9707Z" fill="#FFC943"/>
<path d="M58.8383 43.1818C57.0359 43.6376 55.7021 45.2699 55.7021 47.2139C55.7021 49.1579 57.0359 50.7902 58.8383 51.2461C60.6406 50.7902 61.9744 49.1579 61.9744 47.2139C61.9744 45.2699 60.6406 43.6376 58.8383 43.1818Z" fill="#FFC943"/>
<path d="M50.5161 43.1819C48.7138 43.6377 47.38 45.27 47.38 47.214C47.38 49.158 48.7138 50.7903 50.5161 51.2462C52.3184 50.7903 53.6523 49.158 53.6523 47.214C53.6523 45.27 52.3184 43.6377 50.5161 43.1819Z" fill="#FFC943"/>
<path d="M56.462 47.2139C56.462 46.0259 57.2867 45.0313 58.3948 44.7697C58.2087 44.7257 58.0149 44.7016 57.8153 44.7016C56.4279 44.7016 55.3031 45.8265 55.3031 47.2139C55.3031 48.6013 56.4279 49.7261 57.8153 49.7261C58.0149 49.7261 58.2087 49.7021 58.3948 49.6581C57.2867 49.3964 56.462 48.4018 56.462 47.2139Z" fill="white"/>
<path d="M52.299 40.0028C52.299 38.8148 53.1237 37.8202 54.2316 37.5584C54.0456 37.5146 53.8517 37.4905 53.6523 37.4905C52.2648 37.4905 51.1401 38.6152 51.1401 40.0028C51.1401 41.3902 52.2648 42.5149 53.6523 42.5149C53.8517 42.5149 54.0456 42.491 54.2316 42.447C53.1237 42.1853 52.299 41.1906 52.299 40.0028Z" fill="white"/>
<path d="M48.1399 47.2139C48.1399 46.0259 48.9647 45.0313 50.0726 44.7697C49.8866 44.7257 49.6927 44.7016 49.4933 44.7016C48.1057 44.7016 46.981 45.8265 46.981 47.2139C46.981 48.6013 48.1057 49.7261 49.4933 49.7261C49.6927 49.7261 49.8866 49.7021 50.0726 49.6581C48.9647 49.3964 48.1399 48.4018 48.1399 47.2139Z" fill="white"/>
<path d="M56.1644 40.0028C56.1644 38.8149 55.3396 37.8203 54.2316 37.5585C53.1237 37.8203 52.2989 38.8149 52.2989 40.0028C52.2989 41.1907 53.1237 42.1854 54.2316 42.447C55.3396 42.1854 56.1644 41.1907 56.1644 40.0028Z" fill="#D8902A"/>
<path d="M60.3275 47.2139C60.3275 46.026 59.5027 45.0314 58.3947 44.7697C57.2867 45.0314 56.462 46.026 56.462 47.2139C56.462 48.4019 57.2867 49.3965 58.3947 49.6582C59.5027 49.3965 60.3275 48.4019 60.3275 47.2139Z" fill="#D8902A"/>
<path d="M52.0053 47.2139C52.0053 46.026 51.1806 45.0314 50.0725 44.7697C48.9646 45.0314 48.1399 46.026 48.1399 47.2139C48.1399 48.4019 48.9646 49.3965 50.0725 49.6582C51.1806 49.3965 52.0053 48.4019 52.0053 47.2139Z" fill="#D8902A"/>
<path d="M58.9762 47.2139C58.9762 47.8551 58.4564 48.3748 57.8153 48.3748C57.1742 48.3748 56.6544 47.8551 56.6544 47.2139C56.6544 46.5728 57.1742 46.053 57.8153 46.053C58.4564 46.053 58.9762 46.5728 58.9762 47.2139Z" fill="#FFC943"/>
<path d="M54.813 40.0029C54.813 40.644 54.2933 41.1636 53.6523 41.1636C53.0111 41.1636 52.4914 40.644 52.4914 40.0029C52.4914 39.3617 53.0111 38.842 53.6523 38.842C54.2933 38.842 54.813 39.3617 54.813 40.0029Z" fill="#FFC943"/>
<path d="M50.654 47.2139C50.654 47.8551 50.1342 48.3748 49.4932 48.3748C48.8521 48.3748 48.3323 47.8551 48.3323 47.2139C48.3323 46.5728 48.8521 46.0531 49.4932 46.0531C50.1342 46.0531 50.654 46.5728 50.654 47.2139Z" fill="#FFC943"/>
<path d="M53.6562 36.1859H53.6605C53.8472 36.1859 53.9986 36.0345 53.9986 35.8477C53.9986 35.661 53.8472 35.5096 53.6605 35.5096H53.6562C53.4695 35.5096 53.3181 35.661 53.3181 35.8477C53.3181 36.0345 53.4695 36.1859 53.6562 36.1859Z" fill="black"/>
<path d="M54.6353 50.394C54.7013 50.4599 54.7879 50.4929 54.8745 50.4929C54.961 50.4929 55.0475 50.4599 55.1135 50.394C55.2456 50.2619 55.2456 50.0478 55.1135 49.9157L55.1105 49.9127C54.9785 49.7807 54.7644 49.7807 54.6323 49.9127C54.5003 50.0447 54.5003 50.2589 54.6323 50.3909L54.6353 50.394Z" fill="black"/>
<path d="M52.1961 49.9186C52.064 50.0507 52.064 50.2648 52.1961 50.3969C52.2621 50.4629 52.3486 50.4959 52.4351 50.4959C52.5216 50.4959 52.6082 50.4629 52.6742 50.3969L52.6772 50.394C52.8092 50.2619 52.8092 50.0478 52.6772 49.9157C52.5452 49.7836 52.331 49.7836 52.199 49.9157L52.1961 49.9186Z" fill="black"/>
<path d="M57.8153 50.0589C58.5441 50.0589 59.273 49.7814 59.8279 49.2265C60.569 48.4855 60.8425 47.401 60.542 46.3961C60.4886 46.2171 60.3001 46.1155 60.1212 46.169C59.9423 46.2225 59.8407 46.411 59.8942 46.5898C60.1233 47.3562 59.9148 48.1833 59.3497 48.7484C58.5036 49.5944 57.1269 49.5944 56.2809 48.7484C55.4348 47.9022 55.4348 46.5255 56.2809 45.6795C56.8718 45.0886 57.7302 44.89 58.5214 45.1613C58.698 45.222 58.8903 45.1279 58.951 44.9512C59.0116 44.7746 58.9174 44.5823 58.7408 44.5217C57.7034 44.1658 56.5777 44.4263 55.8026 45.2012C54.6928 46.311 54.6928 48.1167 55.8026 49.2265C56.3576 49.7814 57.0865 50.0589 57.8153 50.0589Z" fill="black"/>
<path d="M59.3508 45.6806C59.4167 45.746 59.5028 45.7786 59.5888 45.7786C59.6758 45.7786 59.7629 45.7452 59.8291 45.6785C59.9605 45.5458 59.9594 45.3317 59.8268 45.2002L59.8223 45.1957C59.6904 45.0637 59.4763 45.0637 59.3442 45.1957C59.2121 45.3278 59.2121 45.5419 59.3442 45.674L59.3508 45.6806Z" fill="black"/>
<path d="M57.8153 45.7288C56.9986 45.7288 56.3342 46.3932 56.3342 47.21C56.3342 48.0266 56.9986 48.691 57.8153 48.691C58.632 48.691 59.2964 48.0265 59.2964 47.21C59.2964 46.3933 58.632 45.7288 57.8153 45.7288ZM57.8153 48.0148C57.3715 48.0148 57.0105 47.6536 57.0105 47.21C57.0105 46.7662 57.3715 46.405 57.8153 46.405C58.2591 46.405 58.6201 46.7662 58.6201 47.21C58.6201 47.6536 58.2591 48.0148 57.8153 48.0148Z" fill="black"/>
<path d="M54.7572 42.5993C54.807 42.5993 54.8577 42.5882 54.9055 42.5649C55.8906 42.083 56.5025 41.1028 56.5025 40.0068C56.5025 38.4374 55.2257 37.1605 53.6562 37.1605C52.0868 37.1605 50.81 38.4374 50.81 40.0068C50.81 41.0547 51.3833 42.0153 52.3065 42.5132C52.4708 42.602 52.6759 42.5405 52.7647 42.3762C52.8533 42.2118 52.7919 42.0068 52.6276 41.918C51.9236 41.5382 51.4862 40.8059 51.4862 40.0068C51.4862 38.8102 52.4597 37.8368 53.6562 37.8368C54.8528 37.8368 55.8263 38.8102 55.8263 40.0068C55.8263 40.8425 55.3596 41.5899 54.6083 41.9574C54.4406 42.0396 54.3711 42.242 54.4531 42.4098C54.5119 42.5297 54.6321 42.5993 54.7572 42.5993Z" fill="black"/>
<path d="M53.6562 42.1768C53.4695 42.1768 53.3181 42.3281 53.3181 42.5149C53.3181 42.7017 53.4695 42.853 53.6562 42.853H53.664C53.8508 42.853 54.0022 42.7017 54.0022 42.5149C54.0022 42.3281 53.8508 42.1768 53.664 42.1768H53.6562Z" fill="black"/>
<path d="M55.1402 40.0097C55.1402 39.614 54.9861 39.2421 54.7065 38.9624C54.4267 38.6826 54.0547 38.5285 53.6592 38.5285C53.2636 38.5285 52.8916 38.6826 52.6119 38.9624C52.0344 39.5399 52.0344 40.4794 52.6119 41.0569C52.9006 41.3457 53.2798 41.4901 53.6592 41.4901C54.0384 41.49 54.4177 41.3456 54.7065 41.0569C54.9861 40.7772 55.1402 40.4053 55.1402 40.0097ZM54.2282 40.5787C53.9145 40.8925 53.4038 40.8925 53.09 40.5787C52.7762 40.265 52.7762 39.7544 53.09 39.4405C53.242 39.2885 53.4441 39.2049 53.6592 39.2049C53.8741 39.2049 54.0761 39.2886 54.2282 39.4405C54.3802 39.5926 54.4639 39.7947 54.4639 40.0097C54.4639 40.2246 54.3802 40.4267 54.2282 40.5787Z" fill="black"/>
<path d="M51.5098 49.2265C52.6195 48.1167 52.6195 46.3111 51.5098 45.2014C50.7688 44.4602 49.6842 44.1866 48.6793 44.4872C48.5004 44.5407 48.3988 44.7292 48.4523 44.908C48.5058 45.087 48.6943 45.1887 48.8731 45.1351C49.6395 44.9059 50.4666 45.1145 51.0316 45.6795C51.8776 46.5256 51.8776 47.9024 51.0316 48.7484C50.6086 49.1716 50.0529 49.383 49.4972 49.383C48.9415 49.3829 48.3857 49.1714 47.9628 48.7485C47.3718 48.1574 47.1733 47.299 47.4446 46.5079C47.5052 46.3312 47.4112 46.1389 47.2346 46.0783C47.058 46.0178 46.8656 46.1118 46.8049 46.2884C46.4491 47.3257 46.7096 48.4516 47.4845 49.2266C48.0394 49.7815 48.7684 50.0589 49.4972 50.0589C50.226 50.0589 50.9549 49.7814 51.5098 49.2265Z" fill="black"/>
<path d="M47.7182 45.7841C47.8047 45.7841 47.8912 45.7511 47.9572 45.6851L47.9628 45.6795C48.0949 45.5474 48.0949 45.3333 47.9628 45.2012C47.8307 45.0693 47.6166 45.0693 47.4845 45.2012L47.4789 45.2068C47.347 45.3389 47.347 45.553 47.4789 45.6851C47.545 45.7511 47.6316 45.7841 47.7182 45.7841Z" fill="black"/>
<path d="M49.4932 48.695C50.3098 48.695 50.9743 48.0306 50.9743 47.2139C50.9743 46.3973 50.3098 45.7329 49.4932 45.7329C48.6766 45.7329 48.012 46.3973 48.012 47.2139C48.012 48.0306 48.6766 48.695 49.4932 48.695ZM49.4932 46.4091C49.9369 46.4091 50.298 46.7701 50.298 47.2139C50.298 47.6577 49.9369 48.0187 49.4932 48.0187C49.0494 48.0187 48.6883 47.6577 48.6883 47.2139C48.6883 46.7701 49.0494 46.4091 49.4932 46.4091Z" fill="black"/>
<path d="M61.9744 51.0348H60.1881C60.476 50.8557 60.7473 50.6419 60.9954 50.394C61.8447 49.5445 62.3125 48.4151 62.3125 47.2139C62.3125 46.0128 61.8448 44.8833 60.9954 44.0339C60.1459 43.1846 59.0166 42.7167 57.8153 42.7167C57.6118 42.7167 57.4105 42.7305 57.2121 42.7569C57.8018 41.9961 58.1534 41.0418 58.1534 40.0068C58.1534 37.9534 56.7662 36.1622 54.7799 35.6512C54.5991 35.6047 54.4147 35.7135 54.3682 35.8943C54.3217 36.0753 54.4305 36.2596 54.6113 36.3061C56.2987 36.7403 57.4772 38.2621 57.4772 40.0068C57.4772 42.1136 55.7631 43.8277 53.6562 43.8277C51.5494 43.8277 49.8353 42.1136 49.8353 40.0068C49.8353 38.2621 51.0138 36.7403 52.7011 36.3062C52.882 36.2596 52.9908 36.0753 52.9443 35.8945C52.8978 35.7137 52.7134 35.6048 52.5326 35.6512C50.5463 36.1622 49.1591 37.9534 49.1591 40.0068C49.1591 41.0418 49.5107 41.9961 50.1005 42.7569C49.9022 42.7305 49.7007 42.7167 49.4972 42.7167C48.296 42.7167 47.1666 43.1844 46.3171 44.0339C45.4678 44.8833 45 46.0126 45 47.2139C45 48.4152 45.4678 49.5445 46.3171 50.394C46.5652 50.6419 46.8365 50.8557 47.1244 51.0348H45.3381C45.1514 51.0348 45 51.1862 45 51.373C45 51.5597 45.1514 51.7111 45.3381 51.7111H61.9744C62.1611 51.7111 62.3125 51.5597 62.3125 51.373C62.3125 51.1862 62.1611 51.0348 61.9744 51.0348ZM54.2566 44.4638C54.0077 44.7853 53.8072 45.1344 53.6562 45.5005C53.5053 45.1344 53.3048 44.7853 53.0559 44.4638C53.2523 44.4901 53.4527 44.504 53.6562 44.504C53.8598 44.504 54.0602 44.4901 54.2566 44.4638ZM46.7954 49.9157C45.3056 48.4259 45.3056 46.0019 46.7954 44.5122C48.2852 43.0222 50.7092 43.0222 52.199 44.5122C52.9121 45.2251 53.2933 46.1639 53.3176 47.1188C53.3163 47.185 53.3163 47.251 53.3177 47.3172C53.3011 47.9494 53.1278 48.5822 52.7892 49.1552C52.6943 49.316 52.7476 49.5234 52.9085 49.6184C53.0693 49.7133 53.2766 49.66 53.3716 49.4991C53.4811 49.3138 53.5758 49.1229 53.6562 48.9284C53.7367 49.1229 53.8314 49.3138 53.9409 49.4991C54.0359 49.66 54.2432 49.7132 54.404 49.6184C54.5647 49.5234 54.6181 49.316 54.5231 49.1552C54.1846 48.5822 54.0114 47.9492 53.9946 47.3172C53.9961 47.251 53.9962 47.185 53.9948 47.1188C54.0192 46.1639 54.4004 45.2251 55.1135 44.5122C56.6033 43.0222 59.0273 43.0222 60.5171 44.5122C62.0068 46.0019 62.0068 48.4259 60.5171 49.9157C59.7993 50.6334 58.8528 51.015 57.8912 51.0348H57.7337C57.0944 51.0215 56.4535 50.8485 55.8739 50.506C55.7132 50.411 55.5058 50.4644 55.4108 50.6253C55.3309 50.7604 55.3563 50.9283 55.4618 51.0348H51.8507C51.9562 50.9283 51.9816 50.7604 51.9016 50.6253C51.8067 50.4644 51.5993 50.411 51.4386 50.506C50.8594 50.8482 50.2192 51.0214 49.5804 51.0348H49.4202C48.459 51.0148 47.5129 50.6332 46.7954 49.9157Z" fill="black"/>
<path d="M141.974 27.4C141.974 27.9856 141.883 28.5641 141.718 29.1316C141.584 29.5958 141.4 30.0526 141.176 30.5C140.949 30.9535 140.681 31.3972 140.382 31.8289C139.918 32.4989 139.378 33.1402 138.8 33.7443C135.812 36.8676 131.79 39 131.79 39C131.79 39 128.739 35.9723 127.067 32.0733C126.78 31.4042 126.533 30.7095 126.35 30C126.129 29.1483 126 28.2754 126 27.4C126.062 26.9173 126.162 26.4507 126.296 26C126.589 25.0157 127.042 24.1075 127.603 23.2738C128.4 22.0886 129.416 21.0541 130.5 20.1661C130.814 19.9089 131.133 19.6641 131.455 19.4314C131.706 19.25 131.958 19.0761 132.209 18.9094C132.817 18.5068 133.422 18.147 134 17.8295C134.815 17.3815 135.577 17.0175 136.216 16.7357C137.336 16.2417 138.08 16 138.08 16C138.08 16 138.758 16.6161 139.551 17.8295C139.822 18.2451 140.107 18.7309 140.382 19.286C140.655 19.835 140.918 20.4518 141.15 21.1357C141.345 21.71 141.518 22.3315 141.657 23C141.755 23.4763 141.836 23.9763 141.894 24.5C141.913 24.6643 141.929 24.831 141.943 25C141.982 25.4812 142.002 25.9812 142 26.5C141.999 26.794 141.99 27.094 141.974 27.4Z" fill="#1A936F"/>
<path d="M131.79 39L131.832 38.8272L133 34M131.79 39L129.698 33.3754M131.79 39C131.79 39 128.739 35.9723 127.067 32.0733M131.79 39C131.79 39 135.812 36.8676 138.8 33.7443M138.08 16L137.104 19.286M138.08 16C138.08 16 137.336 16.2417 136.216 16.7357M138.08 16C138.08 16 138.758 16.6161 139.551 17.8295M136 23L135 26M136 23L137.104 19.286M136 23L135.279 21.1357M136 23L137.428 21.79M140.382 19.286C140.107 18.7309 139.822 18.2451 139.551 17.8295M140.382 19.286L138.855 20.5801M140.382 19.286C140.655 19.835 140.918 20.4518 141.15 21.1357M135 26L134 28.5M135 26L133.683 24.2928M135 26L136.332 25.3996M141.657 23C141.518 22.3315 141.345 21.71 141.15 21.1357M141.657 23C141.755 23.4763 141.836 23.9763 141.894 24.5M141.657 23L140.382 23.5744M133.5 30.5L134 28.5M133.5 30.5L133.25 32M133.5 30.5L136.408 29.1316M142 26.5C141.999 26.794 141.99 27.094 141.974 27.4C141.974 27.9856 141.883 28.5641 141.718 29.1316M142 26.5L140.731 27.0972M142 26.5C142.002 25.9812 141.982 25.4812 141.943 25M133 34L133.25 32M133 34L134.792 33.4729M140.382 31.8289C139.918 32.4989 139.378 33.1402 138.8 33.7443M140.382 31.8289L139.069 32.2151M140.382 31.8289C140.681 31.3972 140.949 30.9535 141.176 30.5M134 28.5L127.603 23.2738M127.603 23.2738C128.4 22.0886 129.416 21.0541 130.5 20.1661M127.603 23.2738C127.042 24.1075 126.589 25.0157 126.296 26M130.5 20.1661L131.336 21.2495M130.5 20.1661C130.814 19.9089 131.133 19.6641 131.455 19.4314M134 17.8295C134.815 17.3815 135.577 17.0175 136.216 16.7357M134 17.8295L134.453 19M134 17.8295C133.422 18.147 132.817 18.5068 132.209 18.9094M133.25 32L131.25 27L132.12 29.1762L129 29M126.296 26C126.162 26.4507 126.062 26.9173 126 27.4C126 28.2754 126.129 29.1483 126.35 30C126.533 30.7095 126.78 31.4042 127.067 32.0733M126.296 26H130L132.5 28M129 31.5L129.286 32.2698M129.698 33.3754L131.25 31.2533M129.698 33.3754L129.286 32.2698M129.286 32.2698L127.067 32.0733M137.882 28.4379L138.5 27M137.882 28.4379L139 27.9117M137.882 28.4379L136.408 29.1316M139 27.9117L138.5 29.5M139 27.9117L140.087 27.4M136.408 29.1316L139 30M140.087 27.4L141.718 29.1316M140.087 27.4L140.731 27.0972M141.718 29.1316C141.584 29.5958 141.4 30.0526 141.176 30.5M140.731 27.0972L141.943 25M141.943 25C141.929 24.831 141.913 24.6643 141.894 24.5M137.296 32.7364L138.8 33.7443M137.296 32.7364L139.069 32.2151M137.296 32.7364L135.5 33.2647M139.069 32.2151L141.176 30.5M135.5 33.2647L136.126 31.8289M135.5 33.2647L134.792 33.4729M134.792 33.4729L136 35M133 23.4071L133.5 21M133 23.4071L133.683 24.2928M133 23.4071L131.598 21.5899M133.683 24.2928H130.64M131.598 21.5899L129.5 22.5M131.598 21.5899L131.336 21.2495M131.336 21.2495L131.455 19.4314M131.455 19.4314C131.706 19.25 131.958 19.0761 132.209 18.9094M137.104 19.286L136.216 16.7357M137.104 19.286L139.551 17.8295M138.855 20.5801L141.15 21.1357M138.855 20.5801L137.428 21.79M141.15 21.1357L140.382 23.5744M139.249 20.1661L139.5 19M134.721 19.6935L133.5 19.5M134.721 19.6935L134.453 19M134.721 19.6935L135.279 21.1357M134.453 19L135.5 17.5M135.279 21.1357L132.209 18.9094M137.428 21.79L137.964 22.395M138.5 23L137.964 22.395M137.964 22.395L137.665 24.7991M137.665 24.7991L138.08 24.6118M137.665 24.7991L136.332 25.3996M138.08 24.6118L141.894 24.5M138.08 24.6118L140.382 23.5744M136.332 25.3996L136.77 26M137.5 27L137.037 26.3658M137.037 26.3658L138 26.5L136.77 26M137.037 26.3658L136.77 26M136.77 26L136.126 28.2379" stroke="#114B5F" stroke-width="0.2"/>
</g>
<defs>
<filter id="filter0_d" x="0.234863" y="0.826477" width="334.402" height="91.2992" filterUnits="userSpaceOnUse" color-interpolation-filters="sRGB">
<feFlood flood-opacity="0" result="BackgroundImageFix"/>
<feColorMatrix in="SourceAlpha" type="matrix" values="0 0 0 0 0 0 0 0 0 0 0 0 0 0 0 0 0 0 127 0"/>
<feOffset/>
<feGaussianBlur stdDeviation="5"/>
<feColorMatrix type="matrix" values="0 0 0 0 0 0 0 0 0 0 0 0 0 0 0 0 0 0 1 0"/>
<feBlend mode="normal" in2="BackgroundImageFix" result="effect1_dropShadow"/>
<feBlend mode="normal" in="SourceGraphic" in2="effect1_dropShadow" result="shape"/>
</filter>
<linearGradient id="paint0_linear" x1="167.436" y1="38.344" x2="167.436" y2="82.1256" gradientUnits="userSpaceOnUse">
<stop offset="0.169792" stop-color="#FFB600"/>
<stop offset="0.684492" stop-color="#88D498"/>
</linearGradient>
<linearGradient id="paint1_linear" x1="167.436" y1="38.344" x2="167.436" y2="82.1256" gradientUnits="userSpaceOnUse">
<stop offset="0.169792" stop-color="#FFB600"/>
<stop offset="0.684492" stop-color="#88D498"/>
</linearGradient>
<linearGradient id="paint2_linear" x1="167.436" y1="38.344" x2="167.436" y2="82.1256" gradientUnits="userSpaceOnUse">
<stop offset="0.169792" stop-color="#FFB600"/>
<stop offset="0.684492" stop-color="#88D498"/>
</linearGradient>
<linearGradient id="paint3_linear" x1="167.436" y1="38.344" x2="167.436" y2="82.1256" gradientUnits="userSpaceOnUse">
<stop offset="0.169792" stop-color="#FFB600"/>
<stop offset="0.684492" stop-color="#88D498"/>
</linearGradient>
<linearGradient id="paint4_linear" x1="167.436" y1="38.344" x2="167.436" y2="82.1256" gradientUnits="userSpaceOnUse">
<stop offset="0.169792" stop-color="#FFB600"/>
<stop offset="0.684492" stop-color="#88D498"/>
</linearGradient>
<linearGradient id="paint5_linear" x1="167.436" y1="38.344" x2="167.436" y2="82.1256" gradientUnits="userSpaceOnUse">
<stop offset="0.169792" stop-color="#FFB600"/>
<stop offset="0.684492" stop-color="#88D498"/>
</linearGradient>
<linearGradient id="paint6_linear" x1="167.436" y1="38.344" x2="167.436" y2="82.1256" gradientUnits="userSpaceOnUse">
<stop offset="0.169792" stop-color="#FFB600"/>
<stop offset="0.684492" stop-color="#88D498"/>
</linearGradient>
<linearGradient id="paint7_linear" x1="167.436" y1="38.344" x2="167.436" y2="82.1256" gradientUnits="userSpaceOnUse">
<stop offset="0.169792" stop-color="#FFB600"/>
<stop offset="0.684492" stop-color="#88D498"/>
</linearGradient>
<linearGradient id="paint8_linear" x1="167.436" y1="38.344" x2="167.436" y2="82.1256" gradientUnits="userSpaceOnUse">
<stop offset="0.169792" stop-color="#FFB600"/>
<stop offset="0.684492" stop-color="#88D498"/>
</linearGradient>
<linearGradient id="paint9_linear" x1="167.436" y1="38.344" x2="167.436" y2="82.1256" gradientUnits="userSpaceOnUse">
<stop offset="0.169792" stop-color="#FFB600"/>
<stop offset="0.684492" stop-color="#88D498"/>
</linearGradient>
<linearGradient id="paint10_linear" x1="167.436" y1="38.344" x2="167.436" y2="82.1256" gradientUnits="userSpaceOnUse">
<stop offset="0.169792" stop-color="#FFB600"/>
<stop offset="0.684492" stop-color="#88D498"/>
</linearGradient>
<linearGradient id="paint11_linear" x1="167.436" y1="38.344" x2="167.436" y2="82.1256" gradientUnits="userSpaceOnUse">
<stop offset="0.169792" stop-color="#FFB600"/>
<stop offset="0.684492" stop-color="#88D498"/>
</linearGradient>
<linearGradient id="paint12_linear" x1="209.111" y1="32.9766" x2="209.111" y2="41.5703" gradientUnits="userSpaceOnUse">
<stop offset="0.169792" stop-color="#FFB600"/>
<stop offset="0.684492" stop-color="#88D498"/>
</linearGradient>
<linearGradient id="paint13_linear" x1="209.111" y1="32.9766" x2="209.111" y2="41.5703" gradientUnits="userSpaceOnUse">
<stop stop-color="white"/>
<stop offset="1" stop-color="white" stop-opacity="0"/>
</linearGradient>
<linearGradient id="paint14_linear" x1="268.889" y1="40.9766" x2="268.889" y2="49.5703" gradientUnits="userSpaceOnUse">
<stop offset="0.169792" stop-color="#FFB600"/>
<stop offset="0.684492" stop-color="#88D498"/>
</linearGradient>
<linearGradient id="paint15_linear" x1="268.889" y1="40.9766" x2="268.889" y2="49.5703" gradientUnits="userSpaceOnUse">
<stop stop-color="white"/>
<stop offset="1" stop-color="white" stop-opacity="0"/>
</linearGradient>
</defs>
</svg>
