<svg width="375" height="132" viewBox="0 0 375 132" fill="none" xmlns="http://www.w3.org/2000/svg">
<g filter="url(#filter0_d)">
<path d="M30.7052 73.904C31.1533 74.32 31.9533 74.72 33.1053 75.104C34.2573 75.488 35.5853 75.824 37.0893 76.112C38.0173 73.968 38.9933 71.792 40.0173 69.584C41.0733 67.344 42.0973 65.168 43.0893 63.056C42.7373 62.512 42.3693 62.08 41.9853 61.76C41.6013 61.408 41.2173 61.2 40.8333 61.136C42.3693 59.696 43.8733 58.816 45.3453 58.496C46.8493 58.176 48.0653 58.192 48.9933 58.544C49.6013 58.768 50.1933 59.344 50.7693 60.272C51.3453 61.2 51.9213 62.368 52.4973 63.776C53.0733 65.184 53.6493 66.752 54.2253 68.48C54.8013 70.208 55.3773 71.968 55.9532 73.76C56.5293 75.52 57.1053 77.264 57.6813 78.992C58.2573 80.688 58.8333 82.208 59.4093 83.552C60.0173 84.896 60.6253 86 61.2333 86.864C61.8413 87.728 62.4493 88.208 63.0573 88.304C62.3853 89.136 61.5853 89.872 60.6573 90.512C59.7613 91.152 58.8493 91.616 57.9213 91.904C56.9933 92.192 56.1133 92.288 55.2812 92.192C54.4493 92.096 53.7773 91.728 53.2653 91.088C52.5933 90.256 51.9213 88.896 51.2493 87.008C50.5773 85.088 49.9053 82.944 49.2333 80.576C47.7613 81.152 46.1933 81.664 44.5293 82.112C42.8653 82.56 41.2493 82.896 39.6813 83.12C39.2333 84.944 38.9773 86.528 38.9133 87.872C38.8493 89.216 39.0093 90.384 39.3933 91.376C39.0093 91.536 38.4973 91.68 37.8573 91.808C37.2173 91.936 36.5613 92 35.8893 92C35.2493 91.968 34.6413 91.824 34.0653 91.568C33.5213 91.28 33.1213 90.816 32.8652 90.176C32.6413 89.632 32.6573 88.752 32.9133 87.536C33.2013 86.288 33.6493 84.8 34.2573 83.072C33.3613 82.88 32.6733 82.56 32.1933 82.112C31.5533 81.536 31.0892 80.896 30.8012 80.192C30.5132 79.456 30.3372 78.72 30.2732 77.984C30.2092 77.216 30.2252 76.48 30.3212 75.776C30.4172 75.072 30.5452 74.448 30.7052 73.904ZM48.2253 77.024C47.7453 75.392 47.2653 73.792 46.7853 72.224C46.3053 70.624 45.8093 69.136 45.2973 67.76C43.8893 71.056 42.6733 74.064 41.6493 76.784C42.8653 76.944 44.0333 77.04 45.1533 77.072C46.3053 77.104 47.3293 77.088 48.2253 77.024ZM64.0518 66.416C64.4678 66.896 65.1078 67.184 65.9718 67.28C66.8358 67.344 67.8278 67.312 68.9478 67.184C70.0678 67.024 71.2678 66.832 72.5478 66.608C73.8278 66.352 75.0758 66.144 76.2918 65.984C77.5398 65.792 78.6918 65.696 79.7478 65.696C80.8358 65.664 81.7478 65.824 82.4838 66.176C83.2198 66.528 83.7158 67.136 83.9718 68C84.2278 68.832 84.3078 69.776 84.2118 70.832C84.1158 71.856 83.8438 72.88 83.3958 73.904C82.9798 74.928 82.4678 75.776 81.8598 76.448C81.4758 75.616 80.8838 75.008 80.0838 74.624C79.3158 74.24 78.4038 74 77.3478 73.904C76.2918 73.776 75.1398 73.76 73.8918 73.856C72.6438 73.92 71.3798 74 70.0998 74.096C70.4838 75.408 70.7078 76.704 70.7718 77.984C70.8678 79.232 70.8838 80.416 70.8198 81.536C70.7878 82.656 70.7238 83.712 70.6278 84.704C70.5638 85.664 70.5638 86.544 70.6278 87.344C70.7238 88.144 70.9478 88.832 71.2998 89.408C71.6518 89.984 72.2438 90.432 73.0758 90.752C72.6598 91.104 71.9398 91.424 70.9158 91.712C69.9238 92 68.8518 92.112 67.6998 92.048C66.5798 91.984 65.5078 91.696 64.4838 91.184C63.4918 90.672 62.8038 89.792 62.4198 88.544C62.1318 87.648 62.0998 86.64 62.3238 85.52C62.5478 84.4 62.8678 83.216 63.2838 81.968C63.7318 80.688 64.1958 79.392 64.6758 78.08C65.1878 76.736 65.5878 75.424 65.8758 74.144C65.0758 73.952 64.4358 73.6 63.9558 73.088C63.4758 72.544 63.1558 71.904 62.9958 71.168C62.8358 70.432 62.8358 69.648 62.9958 68.816C63.1878 67.984 63.5398 67.184 64.0518 66.416ZM91.6165 84.224C91.4245 85.472 91.3125 86.72 91.2805 87.968C91.2805 89.216 91.4245 90.384 91.7125 91.472C92.0005 92.56 92.4485 93.504 93.0565 94.304C93.6965 95.104 94.5765 95.68 95.6965 96.032C95.0565 97.28 94.2565 98.304 93.2965 99.104C92.3685 99.904 91.3925 100.464 90.3685 100.784C89.3445 101.136 88.3525 101.216 87.3925 101.024C86.4325 100.864 85.6165 100.432 84.9445 99.728C84.1125 98.832 83.6325 97.632 83.5045 96.128C83.3765 94.656 83.4085 93.008 83.6005 91.184C83.8245 89.328 84.1125 87.376 84.4645 85.328C84.8485 83.28 85.1365 81.248 85.3285 79.232C85.4565 77.952 85.5685 76.784 85.6645 75.728C85.7605 74.672 85.7605 73.728 85.6645 72.896C85.6005 72.064 85.4085 71.376 85.0885 70.832C84.7685 70.256 84.2405 69.824 83.5045 69.536C84.0165 68.576 84.6885 67.792 85.5205 67.184C86.3845 66.544 87.2485 66.096 88.1125 65.84C89.0085 65.584 89.8405 65.52 90.6085 65.648C91.4085 65.744 92.0165 66.048 92.4325 66.56C92.7525 66.976 92.9605 67.376 93.0565 67.76C93.1525 68.112 93.1685 68.496 93.1045 68.912C93.0405 69.296 92.9125 69.712 92.7205 70.16C92.5605 70.608 92.3845 71.104 92.1925 71.648C92.9605 69.984 93.9525 68.688 95.1685 67.76C96.3845 66.8 97.6645 66.176 99.0085 65.888C100.353 65.6 101.681 65.616 102.993 65.936C104.337 66.256 105.489 66.832 106.449 67.664C107.537 68.624 108.401 69.872 109.041 71.408C109.681 72.944 110.081 74.592 110.241 76.352C110.401 78.08 110.321 79.84 110.001 81.632C109.681 83.424 109.105 85.056 108.273 86.528C107.473 88 106.417 89.232 105.105 90.224C103.793 91.216 102.225 91.792 100.401 91.952C99.0565 92.08 97.8565 91.968 96.8005 91.616C95.7765 91.232 94.9125 90.688 94.2085 89.984C93.5045 89.28 92.9765 88.448 92.6245 87.488C92.2725 86.528 92.1125 85.504 92.1445 84.416L91.6165 84.224ZM103.809 75.344C103.137 74.576 102.241 74.064 101.121 73.808C100.001 73.552 98.8485 73.632 97.6645 74.048C96.4805 74.464 95.3605 75.232 94.3045 76.352C93.2805 77.472 92.5125 79.008 92.0005 80.96C92.5125 81.664 93.1525 82.224 93.9205 82.64C94.7205 83.024 95.5525 83.312 96.4165 83.504C97.2805 83.664 98.1445 83.712 99.0085 83.648C99.8725 83.552 100.657 83.376 101.361 83.12C102.257 82.8 102.977 82.32 103.521 81.68C104.097 81.04 104.481 80.352 104.673 79.616C104.897 78.88 104.929 78.128 104.769 77.36C104.641 76.592 104.321 75.92 103.809 75.344ZM116.816 67.664C117.648 66.992 118.48 66.544 119.312 66.32C120.176 66.096 120.96 66.048 121.664 66.176C123.776 65.536 125.824 65.392 127.808 65.744C129.792 66.096 131.568 66.976 133.136 68.384C134.384 69.472 135.328 70.88 135.968 72.608C136.608 74.304 136.944 76.096 136.976 77.984C137.008 79.84 136.704 81.68 136.064 83.504C135.456 85.328 134.48 86.912 133.136 88.256C131.888 89.504 130.464 90.448 128.864 91.088C127.264 91.696 125.632 92 123.968 92C122.336 92 120.752 91.68 119.216 91.04C117.68 90.4 116.368 89.44 115.28 88.16C113.84 86.528 112.88 84.72 112.4 82.736C111.92 80.752 111.808 78.816 112.064 76.928C112.32 75.008 112.864 73.232 113.696 71.6C114.56 69.936 115.6 68.624 116.816 67.664ZM119.648 77.216C119.488 77.152 119.296 77.008 119.072 76.784C118.88 76.56 118.688 76.272 118.496 75.92C118.112 76.848 117.888 77.664 117.824 78.368C117.792 79.072 117.984 79.824 118.4 80.624C118.88 81.552 119.568 82.288 120.464 82.832C121.392 83.376 122.384 83.728 123.44 83.888C124.496 84.048 125.536 84.048 126.56 83.888C127.584 83.696 128.432 83.36 129.104 82.88C129.776 82.4 130.304 81.84 130.688 81.2C131.104 80.56 131.36 79.904 131.456 79.232C131.584 78.56 131.552 77.904 131.36 77.264C131.168 76.592 130.832 75.984 130.352 75.44C129.616 74.64 128.72 74.112 127.664 73.856C126.608 73.568 125.552 73.52 124.496 73.712C123.44 73.904 122.464 74.304 121.568 74.912C120.672 75.488 120.032 76.256 119.648 77.216ZM141.323 70.976C140.811 70.592 140.411 70.016 140.123 69.248C139.835 68.448 139.691 67.6 139.691 66.704C139.723 65.776 139.899 64.864 140.219 63.968C140.571 63.04 141.099 62.256 141.803 61.616C142.731 60.784 143.931 60.144 145.403 59.696C146.907 59.248 148.459 59.04 150.059 59.072C151.691 59.072 153.275 59.328 154.811 59.84C156.379 60.352 157.723 61.136 158.843 62.192C160.667 63.984 161.979 65.952 162.779 68.096C163.579 70.208 163.979 72.336 163.979 74.48C163.979 76.592 163.627 78.624 162.923 80.576C162.251 82.528 161.339 84.224 160.187 85.664C158.779 87.424 157.131 88.832 155.243 89.888C153.387 90.944 151.515 91.648 149.627 92C147.771 92.352 145.995 92.384 144.299 92.096C142.635 91.808 141.291 91.2 140.267 90.272C139.403 89.504 138.811 88.608 138.491 87.584C138.203 86.56 138.155 85.536 138.347 84.512C138.539 83.456 138.955 82.448 139.595 81.488C140.235 80.528 141.067 79.728 142.091 79.088C142.379 80.496 143.035 81.6 144.059 82.4C145.115 83.2 146.331 83.696 147.707 83.888C149.083 84.08 150.555 83.952 152.123 83.504C153.691 83.056 155.147 82.304 156.491 81.248C157.035 80.832 157.483 80.384 157.835 79.904C158.187 79.424 158.491 78.912 158.747 78.368C157.851 78.368 156.683 78.352 155.243 78.32C153.835 78.288 152.379 78.272 150.875 78.272C149.371 78.272 147.931 78.336 146.555 78.464C145.211 78.56 144.171 78.752 143.435 79.04C143.339 78.176 143.355 77.312 143.483 76.448C143.611 75.584 143.851 74.8 144.203 74.096C144.555 73.36 145.019 72.736 145.595 72.224C146.171 71.712 146.843 71.376 147.611 71.216C148.187 71.088 148.891 71.072 149.723 71.168C150.587 71.264 151.499 71.392 152.459 71.552C153.419 71.712 154.411 71.904 155.435 72.128C156.491 72.32 157.515 72.464 158.507 72.56C157.931 71.344 157.147 70.32 156.155 69.488C155.195 68.72 154.043 68.112 152.699 67.664C151.355 67.216 149.963 67.024 148.523 67.088C147.115 67.12 145.755 67.44 144.443 68.048C143.163 68.656 142.123 69.632 141.323 70.976ZM165.313 68.672C165.601 68.192 166.065 67.744 166.705 67.328C167.345 66.88 168.065 66.512 168.865 66.224C169.697 65.936 170.561 65.728 171.457 65.6C172.353 65.472 173.201 65.456 174.001 65.552C174.801 65.648 175.505 65.872 176.113 66.224C176.721 66.544 177.153 67.024 177.409 67.664C177.729 68.464 177.857 69.296 177.793 70.16C177.761 70.992 177.617 71.84 177.361 72.704C177.105 73.536 176.753 74.384 176.305 75.248C175.889 76.112 175.457 76.976 175.009 77.84C176.161 76.88 177.249 75.856 178.273 74.768C179.329 73.68 180.209 72.608 180.913 71.552C181.649 70.464 182.161 69.424 182.449 68.432C182.769 67.408 182.785 66.496 182.497 65.696C183.745 65.504 184.929 65.504 186.049 65.696C187.201 65.856 188.177 66.192 188.977 66.704C189.809 67.216 190.433 67.856 190.849 68.624C191.265 69.392 191.361 70.256 191.137 71.216C190.945 72.144 190.433 73.008 189.601 73.808C188.769 74.608 187.777 75.344 186.625 76.016C185.505 76.688 184.289 77.296 182.977 77.84C181.697 78.352 180.481 78.8 179.329 79.184C180.673 80.528 181.937 81.584 183.121 82.352C184.337 83.12 185.457 83.632 186.481 83.888C187.505 84.144 188.449 84.176 189.313 83.984C190.177 83.76 190.945 83.344 191.617 82.736C191.713 83.728 191.633 84.736 191.377 85.76C191.121 86.784 190.705 87.728 190.129 88.592C189.585 89.456 188.897 90.208 188.065 90.848C187.265 91.456 186.353 91.84 185.329 92C184.497 92.16 183.537 92.144 182.449 91.952C181.393 91.728 180.289 91.28 179.137 90.608C177.985 89.904 176.833 88.928 175.681 87.68C174.561 86.432 173.505 84.848 172.513 82.928C172.097 84.08 171.969 85.168 172.129 86.192C172.289 87.216 172.977 88.128 174.193 88.928C173.617 89.824 172.881 90.544 171.985 91.088C171.121 91.6 170.241 91.904 169.345 92C168.449 92.096 167.601 91.968 166.801 91.616C166.033 91.264 165.457 90.656 165.073 89.792C164.625 88.8 164.449 87.648 164.545 86.336C164.641 84.992 164.849 83.6 165.169 82.16C165.521 80.688 165.889 79.232 166.273 77.792C166.657 76.32 166.929 74.976 167.089 73.76C167.281 72.512 167.265 71.44 167.041 70.544C166.817 69.648 166.241 69.024 165.313 68.672ZM197.206 67.664C198.038 66.992 198.87 66.544 199.702 66.32C200.566 66.096 201.35 66.048 202.054 66.176C204.166 65.536 206.214 65.392 208.198 65.744C210.182 66.096 211.958 66.976 213.526 68.384C214.774 69.472 215.718 70.88 216.358 72.608C216.998 74.304 217.334 76.096 217.366 77.984C217.398 79.84 217.094 81.68 216.454 83.504C215.846 85.328 214.87 86.912 213.526 88.256C212.278 89.504 210.854 90.448 209.254 91.088C207.654 91.696 206.022 92 204.358 92C202.726 92 201.142 91.68 199.606 91.04C198.07 90.4 196.758 89.44 195.67 88.16C194.23 86.528 193.27 84.72 192.79 82.736C192.31 80.752 192.198 78.816 192.454 76.928C192.71 75.008 193.254 73.232 194.086 71.6C194.95 69.936 195.99 68.624 197.206 67.664ZM200.038 77.216C199.878 77.152 199.686 77.008 199.462 76.784C199.27 76.56 199.078 76.272 198.886 75.92C198.502 76.848 198.278 77.664 198.214 78.368C198.182 79.072 198.374 79.824 198.79 80.624C199.27 81.552 199.958 82.288 200.854 82.832C201.782 83.376 202.774 83.728 203.83 83.888C204.886 84.048 205.926 84.048 206.95 83.888C207.974 83.696 208.822 83.36 209.494 82.88C210.166 82.4 210.694 81.84 211.078 81.2C211.494 80.56 211.75 79.904 211.846 79.232C211.974 78.56 211.942 77.904 211.75 77.264C211.558 76.592 211.222 75.984 210.742 75.44C210.006 74.64 209.11 74.112 208.054 73.856C206.998 73.568 205.942 73.52 204.886 73.712C203.83 73.904 202.854 74.304 201.958 74.912C201.062 75.488 200.422 76.256 200.038 77.216ZM218.498 65.792C218.402 63.776 218.642 62.16 219.218 60.944C219.826 59.696 220.77 58.944 222.05 58.688C223.202 58.464 224.53 58.352 226.034 58.352C227.57 58.32 229.154 58.336 230.786 58.4C232.418 58.464 234.034 58.544 235.634 58.64C237.266 58.736 238.77 58.784 240.146 58.784C241.522 58.752 242.706 58.64 243.698 58.448C244.69 58.224 245.362 57.856 245.714 57.344C245.714 58.336 245.634 59.328 245.474 60.32C245.346 61.312 245.09 62.24 244.706 63.104C244.354 63.968 243.89 64.768 243.314 65.504C242.738 66.208 242.018 66.768 241.154 67.184L240.77 67.376C240.514 68.976 240.306 70.672 240.146 72.464C240.018 74.256 239.922 76.032 239.858 77.792C239.826 79.552 239.842 81.248 239.906 82.88C239.97 84.48 240.082 85.904 240.242 87.152C240.434 88.4 240.674 89.424 240.962 90.224C241.25 90.992 241.586 91.408 241.97 91.472C241.01 91.792 239.986 91.968 238.898 92C237.81 92.032 236.77 91.936 235.778 91.712C234.818 91.488 233.954 91.12 233.186 90.608C232.45 90.096 231.938 89.456 231.65 88.688C231.362 87.92 231.266 86.704 231.362 85.04C231.49 83.376 231.746 81.536 232.13 79.52C232.514 77.472 232.994 75.392 233.57 73.28C234.146 71.136 234.77 69.232 235.442 67.568C234.098 67.344 232.674 67.056 231.17 66.704C229.698 66.32 228.21 66 226.706 65.744C227.186 67.184 227.474 68.768 227.57 70.496C227.698 72.192 227.73 73.92 227.666 75.68C227.634 77.408 227.57 79.104 227.474 80.768C227.41 82.432 227.41 83.952 227.474 85.328C227.57 86.672 227.794 87.84 228.146 88.832C228.498 89.792 229.09 90.432 229.922 90.752C229.506 91.104 228.786 91.424 227.762 91.712C226.77 92 225.698 92.112 224.546 92.048C223.426 91.984 222.354 91.696 221.33 91.184C220.338 90.672 219.65 89.792 219.266 88.544C219.042 87.872 218.978 87.008 219.074 85.952C219.17 84.896 219.33 83.712 219.554 82.4C219.81 81.088 220.114 79.696 220.466 78.224C220.85 76.72 221.202 75.216 221.522 73.712C221.874 72.208 222.178 70.736 222.434 69.296C222.722 67.856 222.914 66.512 223.01 65.264C222.178 65.2 221.378 65.216 220.61 65.312C219.842 65.376 219.138 65.536 218.498 65.792ZM249.425 67.664C250.257 66.992 251.089 66.544 251.921 66.32C252.785 66.096 253.569 66.048 254.273 66.176C256.385 65.536 258.433 65.392 260.417 65.744C262.401 66.096 264.177 66.976 265.745 68.384C266.993 69.472 267.937 70.88 268.577 72.608C269.217 74.304 269.553 76.096 269.585 77.984C269.617 79.84 269.313 81.68 268.673 83.504C268.065 85.328 267.089 86.912 265.745 88.256C264.497 89.504 263.073 90.448 261.473 91.088C259.873 91.696 258.241 92 256.577 92C254.945 92 253.361 91.68 251.825 91.04C250.289 90.4 248.977 89.44 247.889 88.16C246.449 86.528 245.489 84.72 245.009 82.736C244.529 80.752 244.417 78.816 244.673 76.928C244.929 75.008 245.473 73.232 246.305 71.6C247.169 69.936 248.209 68.624 249.425 67.664ZM252.257 77.216C252.097 77.152 251.905 77.008 251.681 76.784C251.489 76.56 251.297 76.272 251.105 75.92C250.721 76.848 250.497 77.664 250.433 78.368C250.401 79.072 250.593 79.824 251.009 80.624C251.489 81.552 252.177 82.288 253.073 82.832C254.001 83.376 254.993 83.728 256.049 83.888C257.105 84.048 258.145 84.048 259.169 83.888C260.193 83.696 261.041 83.36 261.713 82.88C262.385 82.4 262.913 81.84 263.297 81.2C263.713 80.56 263.969 79.904 264.065 79.232C264.193 78.56 264.161 77.904 263.969 77.264C263.777 76.592 263.441 75.984 262.961 75.44C262.225 74.64 261.329 74.112 260.273 73.856C259.217 73.568 258.161 73.52 257.105 73.712C256.049 73.904 255.073 74.304 254.177 74.912C253.281 75.488 252.641 76.256 252.257 77.216ZM271.677 72.992C271.581 70.976 271.821 69.36 272.396 68.144C273.005 66.896 273.949 66.144 275.229 65.888C276.381 65.664 277.677 65.552 279.117 65.552C280.557 65.52 282.045 65.536 283.581 65.6C285.117 65.664 286.637 65.744 288.141 65.84C289.645 65.936 291.021 65.984 292.269 65.984C293.517 65.952 294.605 65.84 295.533 65.648C296.461 65.424 297.101 65.056 297.453 64.544C297.453 66.304 297.213 68.016 296.733 69.68C296.253 71.312 295.373 72.64 294.093 73.664C293.677 75.936 293.405 78.128 293.277 80.24C293.181 82.32 293.197 84.176 293.325 85.808C293.485 87.44 293.757 88.768 294.141 89.792C294.525 90.784 295.021 91.344 295.629 91.472C294.669 91.792 293.645 91.968 292.557 92C291.469 92.032 290.429 91.936 289.437 91.712C288.477 91.488 287.613 91.12 286.845 90.608C286.109 90.096 285.597 89.456 285.309 88.688C285.021 87.952 284.909 87.072 284.973 86.048C285.037 84.992 285.213 83.856 285.501 82.64C285.821 81.424 286.221 80.16 286.701 78.848C287.213 77.504 287.789 76.176 288.429 74.864C287.309 74.736 286.141 74.528 284.924 74.24C283.709 73.952 282.461 73.648 281.181 73.328C281.373 74.352 281.661 75.616 282.045 77.12C282.429 78.624 282.685 80.176 282.812 81.776C282.941 83.376 282.829 84.928 282.477 86.432C282.125 87.936 281.309 89.216 280.029 90.272C278.621 91.424 277.245 92.032 275.901 92.096C274.589 92.16 273.405 91.92 272.349 91.376C271.293 90.832 270.412 90.096 269.708 89.168C269.004 88.24 268.588 87.36 268.46 86.528C269.868 86.656 271.005 86.48 271.869 86C272.765 85.52 273.469 84.864 273.98 84.032C274.493 83.168 274.861 82.192 275.085 81.104C275.309 80.016 275.469 78.928 275.565 77.84C275.661 76.752 275.741 75.728 275.805 74.768C275.869 73.808 275.997 73.04 276.189 72.464C275.357 72.4 274.557 72.416 273.789 72.512C273.053 72.576 272.349 72.736 271.677 72.992ZM304.574 91.616C302.558 91.68 300.814 91.296 299.342 90.464C297.87 89.6 296.926 88.464 296.51 87.056C296.414 86.864 296.334 86.64 296.27 86.384C296.238 86.096 296.254 85.728 296.318 85.28C296.318 85.216 296.318 85.184 296.318 85.184C296.35 85.152 296.366 85.104 296.366 85.04C296.398 84.784 296.446 84.544 296.51 84.32C296.606 84.096 296.718 83.856 296.846 83.6C297.838 80.72 298.478 78.304 298.766 76.352C299.054 74.4 299.118 72.832 298.958 71.648C298.798 70.432 298.462 69.568 297.95 69.056C297.438 68.512 296.878 68.24 296.27 68.24C296.782 67.472 297.454 66.864 298.286 66.416C299.118 65.968 299.982 65.712 300.878 65.648C301.774 65.552 302.606 65.664 303.374 65.984C304.174 66.272 304.766 66.768 305.15 67.472C305.63 68.368 305.742 69.632 305.486 71.264C305.23 72.864 304.782 74.624 304.142 76.544C305.23 75.68 306.302 74.8 307.358 73.904C308.446 72.976 309.39 72.064 310.19 71.168C311.022 70.24 311.662 69.328 312.11 68.432C312.59 67.504 312.782 66.576 312.686 65.648C313.71 65.648 314.734 65.776 315.758 66.032C316.814 66.256 317.742 66.608 318.542 67.088C319.374 67.536 320.014 68.08 320.462 68.72C320.91 69.36 321.054 70.064 320.894 70.832C320.766 71.376 320.19 72.208 319.166 73.328C319.134 74.256 319.118 75.312 319.118 76.496C319.15 77.68 319.198 78.896 319.262 80.144C319.358 81.392 319.486 82.608 319.646 83.792C319.806 84.944 320.014 85.984 320.27 86.912C320.558 87.808 320.91 88.528 321.326 89.072C321.742 89.584 322.254 89.808 322.862 89.744C322.382 90.544 321.694 91.12 320.798 91.472C319.902 91.824 318.974 92 318.014 92C317.086 91.968 316.222 91.776 315.422 91.424C314.654 91.072 314.142 90.576 313.886 89.936C313.214 88.304 313.054 86.48 313.406 84.464C313.758 82.416 314.334 80.048 315.134 77.36C313.822 78.64 312.462 79.968 311.054 81.344C309.646 82.72 308.398 84.064 307.31 85.376C306.222 86.656 305.39 87.84 304.814 88.928C304.27 90.016 304.19 90.912 304.574 91.616ZM342.529 76.784C341.921 75.664 341.137 74.832 340.177 74.288C339.217 73.712 338.193 73.376 337.105 73.28C336.017 73.184 334.945 73.312 333.889 73.664C332.833 73.984 331.921 74.464 331.153 75.104C330.545 75.584 330.065 76.144 329.713 76.784C329.393 77.424 329.185 78.08 329.089 78.752C329.025 79.392 329.073 80.016 329.233 80.624C329.393 81.2 329.665 81.68 330.049 82.064C330.913 82.96 331.921 83.568 333.073 83.888C334.257 84.176 335.441 84.224 336.625 84.032C337.809 83.84 338.929 83.44 339.985 82.832C341.041 82.192 341.889 81.392 342.529 80.432C342.817 80.784 343.105 81.328 343.393 82.064C343.713 82.768 343.937 83.568 344.065 84.464C344.225 85.328 344.241 86.224 344.113 87.152C343.985 88.048 343.601 88.848 342.961 89.552C342.385 90.224 341.505 90.8 340.321 91.28C339.169 91.728 337.857 91.968 336.385 92C334.913 92.064 333.377 91.872 331.777 91.424C330.177 90.976 328.657 90.176 327.217 89.024C326.097 88.096 325.169 86.912 324.433 85.472C323.729 84.032 323.313 82.464 323.185 80.768C323.089 79.04 323.329 77.248 323.905 75.392C324.481 73.536 325.505 71.744 326.977 70.016C328.161 68.576 329.537 67.504 331.105 66.8C332.673 66.064 334.225 65.648 335.761 65.552C337.297 65.456 338.737 65.648 340.081 66.128C341.457 66.608 342.561 67.344 343.393 68.336C343.873 68.944 344.209 69.616 344.401 70.352C344.625 71.056 344.689 71.792 344.593 72.56C344.529 73.296 344.321 74.032 343.969 74.768C343.649 75.504 343.169 76.176 342.529 76.784Z" fill="url(#paint0_linear)"/>
<path d="M30.7052 73.904C31.1533 74.32 31.9533 74.72 33.1053 75.104C34.2573 75.488 35.5853 75.824 37.0893 76.112C38.0173 73.968 38.9933 71.792 40.0173 69.584C41.0733 67.344 42.0973 65.168 43.0893 63.056C42.7373 62.512 42.3693 62.08 41.9853 61.76C41.6013 61.408 41.2173 61.2 40.8333 61.136C42.3693 59.696 43.8733 58.816 45.3453 58.496C46.8493 58.176 48.0653 58.192 48.9933 58.544C49.6013 58.768 50.1933 59.344 50.7693 60.272C51.3453 61.2 51.9213 62.368 52.4973 63.776C53.0733 65.184 53.6493 66.752 54.2253 68.48C54.8013 70.208 55.3773 71.968 55.9532 73.76C56.5293 75.52 57.1053 77.264 57.6813 78.992C58.2573 80.688 58.8333 82.208 59.4093 83.552C60.0173 84.896 60.6253 86 61.2333 86.864C61.8413 87.728 62.4493 88.208 63.0573 88.304C62.3853 89.136 61.5853 89.872 60.6573 90.512C59.7613 91.152 58.8493 91.616 57.9213 91.904C56.9933 92.192 56.1133 92.288 55.2812 92.192C54.4493 92.096 53.7773 91.728 53.2653 91.088C52.5933 90.256 51.9213 88.896 51.2493 87.008C50.5773 85.088 49.9053 82.944 49.2333 80.576C47.7613 81.152 46.1933 81.664 44.5293 82.112C42.8653 82.56 41.2493 82.896 39.6813 83.12C39.2333 84.944 38.9773 86.528 38.9133 87.872C38.8493 89.216 39.0093 90.384 39.3933 91.376C39.0093 91.536 38.4973 91.68 37.8573 91.808C37.2173 91.936 36.5613 92 35.8893 92C35.2493 91.968 34.6413 91.824 34.0653 91.568C33.5213 91.28 33.1213 90.816 32.8652 90.176C32.6413 89.632 32.6573 88.752 32.9133 87.536C33.2013 86.288 33.6493 84.8 34.2573 83.072C33.3613 82.88 32.6733 82.56 32.1933 82.112C31.5533 81.536 31.0892 80.896 30.8012 80.192C30.5132 79.456 30.3372 78.72 30.2732 77.984C30.2092 77.216 30.2252 76.48 30.3212 75.776C30.4172 75.072 30.5452 74.448 30.7052 73.904ZM48.2253 77.024C47.7453 75.392 47.2653 73.792 46.7853 72.224C46.3053 70.624 45.8093 69.136 45.2973 67.76C43.8893 71.056 42.6733 74.064 41.6493 76.784C42.8653 76.944 44.0333 77.04 45.1533 77.072C46.3053 77.104 47.3293 77.088 48.2253 77.024ZM64.0518 66.416C64.4678 66.896 65.1078 67.184 65.9718 67.28C66.8358 67.344 67.8278 67.312 68.9478 67.184C70.0678 67.024 71.2678 66.832 72.5478 66.608C73.8278 66.352 75.0758 66.144 76.2918 65.984C77.5398 65.792 78.6918 65.696 79.7478 65.696C80.8358 65.664 81.7478 65.824 82.4838 66.176C83.2198 66.528 83.7158 67.136 83.9718 68C84.2278 68.832 84.3078 69.776 84.2118 70.832C84.1158 71.856 83.8438 72.88 83.3958 73.904C82.9798 74.928 82.4678 75.776 81.8598 76.448C81.4758 75.616 80.8838 75.008 80.0838 74.624C79.3158 74.24 78.4038 74 77.3478 73.904C76.2918 73.776 75.1398 73.76 73.8918 73.856C72.6438 73.92 71.3798 74 70.0998 74.096C70.4838 75.408 70.7078 76.704 70.7718 77.984C70.8678 79.232 70.8838 80.416 70.8198 81.536C70.7878 82.656 70.7238 83.712 70.6278 84.704C70.5638 85.664 70.5638 86.544 70.6278 87.344C70.7238 88.144 70.9478 88.832 71.2998 89.408C71.6518 89.984 72.2438 90.432 73.0758 90.752C72.6598 91.104 71.9398 91.424 70.9158 91.712C69.9238 92 68.8518 92.112 67.6998 92.048C66.5798 91.984 65.5078 91.696 64.4838 91.184C63.4918 90.672 62.8038 89.792 62.4198 88.544C62.1318 87.648 62.0998 86.64 62.3238 85.52C62.5478 84.4 62.8678 83.216 63.2838 81.968C63.7318 80.688 64.1958 79.392 64.6758 78.08C65.1878 76.736 65.5878 75.424 65.8758 74.144C65.0758 73.952 64.4358 73.6 63.9558 73.088C63.4758 72.544 63.1558 71.904 62.9958 71.168C62.8358 70.432 62.8358 69.648 62.9958 68.816C63.1878 67.984 63.5398 67.184 64.0518 66.416ZM91.6165 84.224C91.4245 85.472 91.3125 86.72 91.2805 87.968C91.2805 89.216 91.4245 90.384 91.7125 91.472C92.0005 92.56 92.4485 93.504 93.0565 94.304C93.6965 95.104 94.5765 95.68 95.6965 96.032C95.0565 97.28 94.2565 98.304 93.2965 99.104C92.3685 99.904 91.3925 100.464 90.3685 100.784C89.3445 101.136 88.3525 101.216 87.3925 101.024C86.4325 100.864 85.6165 100.432 84.9445 99.728C84.1125 98.832 83.6325 97.632 83.5045 96.128C83.3765 94.656 83.4085 93.008 83.6005 91.184C83.8245 89.328 84.1125 87.376 84.4645 85.328C84.8485 83.28 85.1365 81.248 85.3285 79.232C85.4565 77.952 85.5685 76.784 85.6645 75.728C85.7605 74.672 85.7605 73.728 85.6645 72.896C85.6005 72.064 85.4085 71.376 85.0885 70.832C84.7685 70.256 84.2405 69.824 83.5045 69.536C84.0165 68.576 84.6885 67.792 85.5205 67.184C86.3845 66.544 87.2485 66.096 88.1125 65.84C89.0085 65.584 89.8405 65.52 90.6085 65.648C91.4085 65.744 92.0165 66.048 92.4325 66.56C92.7525 66.976 92.9605 67.376 93.0565 67.76C93.1525 68.112 93.1685 68.496 93.1045 68.912C93.0405 69.296 92.9125 69.712 92.7205 70.16C92.5605 70.608 92.3845 71.104 92.1925 71.648C92.9605 69.984 93.9525 68.688 95.1685 67.76C96.3845 66.8 97.6645 66.176 99.0085 65.888C100.353 65.6 101.681 65.616 102.993 65.936C104.337 66.256 105.489 66.832 106.449 67.664C107.537 68.624 108.401 69.872 109.041 71.408C109.681 72.944 110.081 74.592 110.241 76.352C110.401 78.08 110.321 79.84 110.001 81.632C109.681 83.424 109.105 85.056 108.273 86.528C107.473 88 106.417 89.232 105.105 90.224C103.793 91.216 102.225 91.792 100.401 91.952C99.0565 92.08 97.8565 91.968 96.8005 91.616C95.7765 91.232 94.9125 90.688 94.2085 89.984C93.5045 89.28 92.9765 88.448 92.6245 87.488C92.2725 86.528 92.1125 85.504 92.1445 84.416L91.6165 84.224ZM103.809 75.344C103.137 74.576 102.241 74.064 101.121 73.808C100.001 73.552 98.8485 73.632 97.6645 74.048C96.4805 74.464 95.3605 75.232 94.3045 76.352C93.2805 77.472 92.5125 79.008 92.0005 80.96C92.5125 81.664 93.1525 82.224 93.9205 82.64C94.7205 83.024 95.5525 83.312 96.4165 83.504C97.2805 83.664 98.1445 83.712 99.0085 83.648C99.8725 83.552 100.657 83.376 101.361 83.12C102.257 82.8 102.977 82.32 103.521 81.68C104.097 81.04 104.481 80.352 104.673 79.616C104.897 78.88 104.929 78.128 104.769 77.36C104.641 76.592 104.321 75.92 103.809 75.344ZM116.816 67.664C117.648 66.992 118.48 66.544 119.312 66.32C120.176 66.096 120.96 66.048 121.664 66.176C123.776 65.536 125.824 65.392 127.808 65.744C129.792 66.096 131.568 66.976 133.136 68.384C134.384 69.472 135.328 70.88 135.968 72.608C136.608 74.304 136.944 76.096 136.976 77.984C137.008 79.84 136.704 81.68 136.064 83.504C135.456 85.328 134.48 86.912 133.136 88.256C131.888 89.504 130.464 90.448 128.864 91.088C127.264 91.696 125.632 92 123.968 92C122.336 92 120.752 91.68 119.216 91.04C117.68 90.4 116.368 89.44 115.28 88.16C113.84 86.528 112.88 84.72 112.4 82.736C111.92 80.752 111.808 78.816 112.064 76.928C112.32 75.008 112.864 73.232 113.696 71.6C114.56 69.936 115.6 68.624 116.816 67.664ZM119.648 77.216C119.488 77.152 119.296 77.008 119.072 76.784C118.88 76.56 118.688 76.272 118.496 75.92C118.112 76.848 117.888 77.664 117.824 78.368C117.792 79.072 117.984 79.824 118.4 80.624C118.88 81.552 119.568 82.288 120.464 82.832C121.392 83.376 122.384 83.728 123.44 83.888C124.496 84.048 125.536 84.048 126.56 83.888C127.584 83.696 128.432 83.36 129.104 82.88C129.776 82.4 130.304 81.84 130.688 81.2C131.104 80.56 131.36 79.904 131.456 79.232C131.584 78.56 131.552 77.904 131.36 77.264C131.168 76.592 130.832 75.984 130.352 75.44C129.616 74.64 128.72 74.112 127.664 73.856C126.608 73.568 125.552 73.52 124.496 73.712C123.44 73.904 122.464 74.304 121.568 74.912C120.672 75.488 120.032 76.256 119.648 77.216ZM141.323 70.976C140.811 70.592 140.411 70.016 140.123 69.248C139.835 68.448 139.691 67.6 139.691 66.704C139.723 65.776 139.899 64.864 140.219 63.968C140.571 63.04 141.099 62.256 141.803 61.616C142.731 60.784 143.931 60.144 145.403 59.696C146.907 59.248 148.459 59.04 150.059 59.072C151.691 59.072 153.275 59.328 154.811 59.84C156.379 60.352 157.723 61.136 158.843 62.192C160.667 63.984 161.979 65.952 162.779 68.096C163.579 70.208 163.979 72.336 163.979 74.48C163.979 76.592 163.627 78.624 162.923 80.576C162.251 82.528 161.339 84.224 160.187 85.664C158.779 87.424 157.131 88.832 155.243 89.888C153.387 90.944 151.515 91.648 149.627 92C147.771 92.352 145.995 92.384 144.299 92.096C142.635 91.808 141.291 91.2 140.267 90.272C139.403 89.504 138.811 88.608 138.491 87.584C138.203 86.56 138.155 85.536 138.347 84.512C138.539 83.456 138.955 82.448 139.595 81.488C140.235 80.528 141.067 79.728 142.091 79.088C142.379 80.496 143.035 81.6 144.059 82.4C145.115 83.2 146.331 83.696 147.707 83.888C149.083 84.08 150.555 83.952 152.123 83.504C153.691 83.056 155.147 82.304 156.491 81.248C157.035 80.832 157.483 80.384 157.835 79.904C158.187 79.424 158.491 78.912 158.747 78.368C157.851 78.368 156.683 78.352 155.243 78.32C153.835 78.288 152.379 78.272 150.875 78.272C149.371 78.272 147.931 78.336 146.555 78.464C145.211 78.56 144.171 78.752 143.435 79.04C143.339 78.176 143.355 77.312 143.483 76.448C143.611 75.584 143.851 74.8 144.203 74.096C144.555 73.36 145.019 72.736 145.595 72.224C146.171 71.712 146.843 71.376 147.611 71.216C148.187 71.088 148.891 71.072 149.723 71.168C150.587 71.264 151.499 71.392 152.459 71.552C153.419 71.712 154.411 71.904 155.435 72.128C156.491 72.32 157.515 72.464 158.507 72.56C157.931 71.344 157.147 70.32 156.155 69.488C155.195 68.72 154.043 68.112 152.699 67.664C151.355 67.216 149.963 67.024 148.523 67.088C147.115 67.12 145.755 67.44 144.443 68.048C143.163 68.656 142.123 69.632 141.323 70.976ZM165.313 68.672C165.601 68.192 166.065 67.744 166.705 67.328C167.345 66.88 168.065 66.512 168.865 66.224C169.697 65.936 170.561 65.728 171.457 65.6C172.353 65.472 173.201 65.456 174.001 65.552C174.801 65.648 175.505 65.872 176.113 66.224C176.721 66.544 177.153 67.024 177.409 67.664C177.729 68.464 177.857 69.296 177.793 70.16C177.761 70.992 177.617 71.84 177.361 72.704C177.105 73.536 176.753 74.384 176.305 75.248C175.889 76.112 175.457 76.976 175.009 77.84C176.161 76.88 177.249 75.856 178.273 74.768C179.329 73.68 180.209 72.608 180.913 71.552C181.649 70.464 182.161 69.424 182.449 68.432C182.769 67.408 182.785 66.496 182.497 65.696C183.745 65.504 184.929 65.504 186.049 65.696C187.201 65.856 188.177 66.192 188.977 66.704C189.809 67.216 190.433 67.856 190.849 68.624C191.265 69.392 191.361 70.256 191.137 71.216C190.945 72.144 190.433 73.008 189.601 73.808C188.769 74.608 187.777 75.344 186.625 76.016C185.505 76.688 184.289 77.296 182.977 77.84C181.697 78.352 180.481 78.8 179.329 79.184C180.673 80.528 181.937 81.584 183.121 82.352C184.337 83.12 185.457 83.632 186.481 83.888C187.505 84.144 188.449 84.176 189.313 83.984C190.177 83.76 190.945 83.344 191.617 82.736C191.713 83.728 191.633 84.736 191.377 85.76C191.121 86.784 190.705 87.728 190.129 88.592C189.585 89.456 188.897 90.208 188.065 90.848C187.265 91.456 186.353 91.84 185.329 92C184.497 92.16 183.537 92.144 182.449 91.952C181.393 91.728 180.289 91.28 179.137 90.608C177.985 89.904 176.833 88.928 175.681 87.68C174.561 86.432 173.505 84.848 172.513 82.928C172.097 84.08 171.969 85.168 172.129 86.192C172.289 87.216 172.977 88.128 174.193 88.928C173.617 89.824 172.881 90.544 171.985 91.088C171.121 91.6 170.241 91.904 169.345 92C168.449 92.096 167.601 91.968 166.801 91.616C166.033 91.264 165.457 90.656 165.073 89.792C164.625 88.8 164.449 87.648 164.545 86.336C164.641 84.992 164.849 83.6 165.169 82.16C165.521 80.688 165.889 79.232 166.273 77.792C166.657 76.32 166.929 74.976 167.089 73.76C167.281 72.512 167.265 71.44 167.041 70.544C166.817 69.648 166.241 69.024 165.313 68.672ZM197.206 67.664C198.038 66.992 198.87 66.544 199.702 66.32C200.566 66.096 201.35 66.048 202.054 66.176C204.166 65.536 206.214 65.392 208.198 65.744C210.182 66.096 211.958 66.976 213.526 68.384C214.774 69.472 215.718 70.88 216.358 72.608C216.998 74.304 217.334 76.096 217.366 77.984C217.398 79.84 217.094 81.68 216.454 83.504C215.846 85.328 214.87 86.912 213.526 88.256C212.278 89.504 210.854 90.448 209.254 91.088C207.654 91.696 206.022 92 204.358 92C202.726 92 201.142 91.68 199.606 91.04C198.07 90.4 196.758 89.44 195.67 88.16C194.23 86.528 193.27 84.72 192.79 82.736C192.31 80.752 192.198 78.816 192.454 76.928C192.71 75.008 193.254 73.232 194.086 71.6C194.95 69.936 195.99 68.624 197.206 67.664ZM200.038 77.216C199.878 77.152 199.686 77.008 199.462 76.784C199.27 76.56 199.078 76.272 198.886 75.92C198.502 76.848 198.278 77.664 198.214 78.368C198.182 79.072 198.374 79.824 198.79 80.624C199.27 81.552 199.958 82.288 200.854 82.832C201.782 83.376 202.774 83.728 203.83 83.888C204.886 84.048 205.926 84.048 206.95 83.888C207.974 83.696 208.822 83.36 209.494 82.88C210.166 82.4 210.694 81.84 211.078 81.2C211.494 80.56 211.75 79.904 211.846 79.232C211.974 78.56 211.942 77.904 211.75 77.264C211.558 76.592 211.222 75.984 210.742 75.44C210.006 74.64 209.11 74.112 208.054 73.856C206.998 73.568 205.942 73.52 204.886 73.712C203.83 73.904 202.854 74.304 201.958 74.912C201.062 75.488 200.422 76.256 200.038 77.216ZM218.498 65.792C218.402 63.776 218.642 62.16 219.218 60.944C219.826 59.696 220.77 58.944 222.05 58.688C223.202 58.464 224.53 58.352 226.034 58.352C227.57 58.32 229.154 58.336 230.786 58.4C232.418 58.464 234.034 58.544 235.634 58.64C237.266 58.736 238.77 58.784 240.146 58.784C241.522 58.752 242.706 58.64 243.698 58.448C244.69 58.224 245.362 57.856 245.714 57.344C245.714 58.336 245.634 59.328 245.474 60.32C245.346 61.312 245.09 62.24 244.706 63.104C244.354 63.968 243.89 64.768 243.314 65.504C242.738 66.208 242.018 66.768 241.154 67.184L240.77 67.376C240.514 68.976 240.306 70.672 240.146 72.464C240.018 74.256 239.922 76.032 239.858 77.792C239.826 79.552 239.842 81.248 239.906 82.88C239.97 84.48 240.082 85.904 240.242 87.152C240.434 88.4 240.674 89.424 240.962 90.224C241.25 90.992 241.586 91.408 241.97 91.472C241.01 91.792 239.986 91.968 238.898 92C237.81 92.032 236.77 91.936 235.778 91.712C234.818 91.488 233.954 91.12 233.186 90.608C232.45 90.096 231.938 89.456 231.65 88.688C231.362 87.92 231.266 86.704 231.362 85.04C231.49 83.376 231.746 81.536 232.13 79.52C232.514 77.472 232.994 75.392 233.57 73.28C234.146 71.136 234.77 69.232 235.442 67.568C234.098 67.344 232.674 67.056 231.17 66.704C229.698 66.32 228.21 66 226.706 65.744C227.186 67.184 227.474 68.768 227.57 70.496C227.698 72.192 227.73 73.92 227.666 75.68C227.634 77.408 227.57 79.104 227.474 80.768C227.41 82.432 227.41 83.952 227.474 85.328C227.57 86.672 227.794 87.84 228.146 88.832C228.498 89.792 229.09 90.432 229.922 90.752C229.506 91.104 228.786 91.424 227.762 91.712C226.77 92 225.698 92.112 224.546 92.048C223.426 91.984 222.354 91.696 221.33 91.184C220.338 90.672 219.65 89.792 219.266 88.544C219.042 87.872 218.978 87.008 219.074 85.952C219.17 84.896 219.33 83.712 219.554 82.4C219.81 81.088 220.114 79.696 220.466 78.224C220.85 76.72 221.202 75.216 221.522 73.712C221.874 72.208 222.178 70.736 222.434 69.296C222.722 67.856 222.914 66.512 223.01 65.264C222.178 65.2 221.378 65.216 220.61 65.312C219.842 65.376 219.138 65.536 218.498 65.792ZM249.425 67.664C250.257 66.992 251.089 66.544 251.921 66.32C252.785 66.096 253.569 66.048 254.273 66.176C256.385 65.536 258.433 65.392 260.417 65.744C262.401 66.096 264.177 66.976 265.745 68.384C266.993 69.472 267.937 70.88 268.577 72.608C269.217 74.304 269.553 76.096 269.585 77.984C269.617 79.84 269.313 81.68 268.673 83.504C268.065 85.328 267.089 86.912 265.745 88.256C264.497 89.504 263.073 90.448 261.473 91.088C259.873 91.696 258.241 92 256.577 92C254.945 92 253.361 91.68 251.825 91.04C250.289 90.4 248.977 89.44 247.889 88.16C246.449 86.528 245.489 84.72 245.009 82.736C244.529 80.752 244.417 78.816 244.673 76.928C244.929 75.008 245.473 73.232 246.305 71.6C247.169 69.936 248.209 68.624 249.425 67.664ZM252.257 77.216C252.097 77.152 251.905 77.008 251.681 76.784C251.489 76.56 251.297 76.272 251.105 75.92C250.721 76.848 250.497 77.664 250.433 78.368C250.401 79.072 250.593 79.824 251.009 80.624C251.489 81.552 252.177 82.288 253.073 82.832C254.001 83.376 254.993 83.728 256.049 83.888C257.105 84.048 258.145 84.048 259.169 83.888C260.193 83.696 261.041 83.36 261.713 82.88C262.385 82.4 262.913 81.84 263.297 81.2C263.713 80.56 263.969 79.904 264.065 79.232C264.193 78.56 264.161 77.904 263.969 77.264C263.777 76.592 263.441 75.984 262.961 75.44C262.225 74.64 261.329 74.112 260.273 73.856C259.217 73.568 258.161 73.52 257.105 73.712C256.049 73.904 255.073 74.304 254.177 74.912C253.281 75.488 252.641 76.256 252.257 77.216ZM271.677 72.992C271.581 70.976 271.821 69.36 272.396 68.144C273.005 66.896 273.949 66.144 275.229 65.888C276.381 65.664 277.677 65.552 279.117 65.552C280.557 65.52 282.045 65.536 283.581 65.6C285.117 65.664 286.637 65.744 288.141 65.84C289.645 65.936 291.021 65.984 292.269 65.984C293.517 65.952 294.605 65.84 295.533 65.648C296.461 65.424 297.101 65.056 297.453 64.544C297.453 66.304 297.213 68.016 296.733 69.68C296.253 71.312 295.373 72.64 294.093 73.664C293.677 75.936 293.405 78.128 293.277 80.24C293.181 82.32 293.197 84.176 293.325 85.808C293.485 87.44 293.757 88.768 294.141 89.792C294.525 90.784 295.021 91.344 295.629 91.472C294.669 91.792 293.645 91.968 292.557 92C291.469 92.032 290.429 91.936 289.437 91.712C288.477 91.488 287.613 91.12 286.845 90.608C286.109 90.096 285.597 89.456 285.309 88.688C285.021 87.952 284.909 87.072 284.973 86.048C285.037 84.992 285.213 83.856 285.501 82.64C285.821 81.424 286.221 80.16 286.701 78.848C287.213 77.504 287.789 76.176 288.429 74.864C287.309 74.736 286.141 74.528 284.924 74.24C283.709 73.952 282.461 73.648 281.181 73.328C281.373 74.352 281.661 75.616 282.045 77.12C282.429 78.624 282.685 80.176 282.812 81.776C282.941 83.376 282.829 84.928 282.477 86.432C282.125 87.936 281.309 89.216 280.029 90.272C278.621 91.424 277.245 92.032 275.901 92.096C274.589 92.16 273.405 91.92 272.349 91.376C271.293 90.832 270.412 90.096 269.708 89.168C269.004 88.24 268.588 87.36 268.46 86.528C269.868 86.656 271.005 86.48 271.869 86C272.765 85.52 273.469 84.864 273.98 84.032C274.493 83.168 274.861 82.192 275.085 81.104C275.309 80.016 275.469 78.928 275.565 77.84C275.661 76.752 275.741 75.728 275.805 74.768C275.869 73.808 275.997 73.04 276.189 72.464C275.357 72.4 274.557 72.416 273.789 72.512C273.053 72.576 272.349 72.736 271.677 72.992ZM304.574 91.616C302.558 91.68 300.814 91.296 299.342 90.464C297.87 89.6 296.926 88.464 296.51 87.056C296.414 86.864 296.334 86.64 296.27 86.384C296.238 86.096 296.254 85.728 296.318 85.28C296.318 85.216 296.318 85.184 296.318 85.184C296.35 85.152 296.366 85.104 296.366 85.04C296.398 84.784 296.446 84.544 296.51 84.32C296.606 84.096 296.718 83.856 296.846 83.6C297.838 80.72 298.478 78.304 298.766 76.352C299.054 74.4 299.118 72.832 298.958 71.648C298.798 70.432 298.462 69.568 297.95 69.056C297.438 68.512 296.878 68.24 296.27 68.24C296.782 67.472 297.454 66.864 298.286 66.416C299.118 65.968 299.982 65.712 300.878 65.648C301.774 65.552 302.606 65.664 303.374 65.984C304.174 66.272 304.766 66.768 305.15 67.472C305.63 68.368 305.742 69.632 305.486 71.264C305.23 72.864 304.782 74.624 304.142 76.544C305.23 75.68 306.302 74.8 307.358 73.904C308.446 72.976 309.39 72.064 310.19 71.168C311.022 70.24 311.662 69.328 312.11 68.432C312.59 67.504 312.782 66.576 312.686 65.648C313.71 65.648 314.734 65.776 315.758 66.032C316.814 66.256 317.742 66.608 318.542 67.088C319.374 67.536 320.014 68.08 320.462 68.72C320.91 69.36 321.054 70.064 320.894 70.832C320.766 71.376 320.19 72.208 319.166 73.328C319.134 74.256 319.118 75.312 319.118 76.496C319.15 77.68 319.198 78.896 319.262 80.144C319.358 81.392 319.486 82.608 319.646 83.792C319.806 84.944 320.014 85.984 320.27 86.912C320.558 87.808 320.91 88.528 321.326 89.072C321.742 89.584 322.254 89.808 322.862 89.744C322.382 90.544 321.694 91.12 320.798 91.472C319.902 91.824 318.974 92 318.014 92C317.086 91.968 316.222 91.776 315.422 91.424C314.654 91.072 314.142 90.576 313.886 89.936C313.214 88.304 313.054 86.48 313.406 84.464C313.758 82.416 314.334 80.048 315.134 77.36C313.822 78.64 312.462 79.968 311.054 81.344C309.646 82.72 308.398 84.064 307.31 85.376C306.222 86.656 305.39 87.84 304.814 88.928C304.27 90.016 304.19 90.912 304.574 91.616ZM342.529 76.784C341.921 75.664 341.137 74.832 340.177 74.288C339.217 73.712 338.193 73.376 337.105 73.28C336.017 73.184 334.945 73.312 333.889 73.664C332.833 73.984 331.921 74.464 331.153 75.104C330.545 75.584 330.065 76.144 329.713 76.784C329.393 77.424 329.185 78.08 329.089 78.752C329.025 79.392 329.073 80.016 329.233 80.624C329.393 81.2 329.665 81.68 330.049 82.064C330.913 82.96 331.921 83.568 333.073 83.888C334.257 84.176 335.441 84.224 336.625 84.032C337.809 83.84 338.929 83.44 339.985 82.832C341.041 82.192 341.889 81.392 342.529 80.432C342.817 80.784 343.105 81.328 343.393 82.064C343.713 82.768 343.937 83.568 344.065 84.464C344.225 85.328 344.241 86.224 344.113 87.152C343.985 88.048 343.601 88.848 342.961 89.552C342.385 90.224 341.505 90.8 340.321 91.28C339.169 91.728 337.857 91.968 336.385 92C334.913 92.064 333.377 91.872 331.777 91.424C330.177 90.976 328.657 90.176 327.217 89.024C326.097 88.096 325.169 86.912 324.433 85.472C323.729 84.032 323.313 82.464 323.185 80.768C323.089 79.04 323.329 77.248 323.905 75.392C324.481 73.536 325.505 71.744 326.977 70.016C328.161 68.576 329.537 67.504 331.105 66.8C332.673 66.064 334.225 65.648 335.761 65.552C337.297 65.456 338.737 65.648 340.081 66.128C341.457 66.608 342.561 67.344 343.393 68.336C343.873 68.944 344.209 69.616 344.401 70.352C344.625 71.056 344.689 71.792 344.593 72.56C344.529 73.296 344.321 74.032 343.969 74.768C343.649 75.504 343.169 76.176 342.529 76.784Z" fill="url(#paint1_linear)"/>
<path d="M161.974 46.4C161.974 46.9856 161.883 47.5641 161.718 48.1316C161.584 48.5958 161.4 49.0526 161.176 49.5C160.949 49.9535 160.681 50.3972 160.382 50.8289C159.918 51.4989 159.378 52.1402 158.8 52.7443C155.812 55.8676 151.79 58 151.79 58C151.79 58 148.739 54.9723 147.067 51.0733C146.78 50.4042 146.533 49.7095 146.35 49C146.129 48.1483 146 47.2754 146 46.4C146.062 45.9173 146.162 45.4507 146.296 45C146.589 44.0157 147.042 43.1075 147.603 42.2738C148.4 41.0886 149.416 40.0541 150.5 39.1661C150.814 38.9089 151.133 38.6641 151.455 38.4314C151.706 38.25 151.958 38.0761 152.209 37.9094C152.817 37.5068 153.422 37.147 154 36.8295C154.815 36.3815 155.577 36.0175 156.216 35.7357C157.336 35.2417 158.08 35 158.08 35C158.08 35 158.758 35.6161 159.551 36.8295C159.822 37.2451 160.107 37.7309 160.382 38.286C160.655 38.835 160.918 39.4518 161.15 40.1357C161.345 40.71 161.518 41.3315 161.657 42C161.755 42.4763 161.836 42.9763 161.894 43.5C161.913 43.6643 161.929 43.831 161.943 44C161.982 44.4812 162.002 44.9812 162 45.5C161.999 45.794 161.99 46.094 161.974 46.4Z" fill="#1A936F"/>
<path d="M151.79 58C153.095 47.7878 154.383 42.6563 158.08 35M151.79 58C151.79 58 148.739 54.9723 147.067 51.0733C146.78 50.4042 146.533 49.7095 146.35 49C146.129 48.1483 146 47.2754 146 46.4C146.062 45.9173 146.162 45.4507 146.296 45C146.589 44.0157 147.042 43.1075 147.603 42.2738C148.4 41.0886 149.416 40.0541 150.5 39.1661C150.814 38.9089 151.133 38.6641 151.455 38.4314C151.706 38.25 151.958 38.0761 152.209 37.9094C152.817 37.5068 153.422 37.147 154 36.8295C154.815 36.3815 155.577 36.0175 156.216 35.7357C157.336 35.2417 158.08 35 158.08 35M151.79 58C151.79 58 155.812 55.8676 158.8 52.7443C159.378 52.1402 159.918 51.4989 160.382 50.8289C160.681 50.3972 160.949 49.9535 161.176 49.5C161.4 49.0526 161.584 48.5958 161.718 48.1316C161.883 47.5641 161.974 46.9856 161.974 46.4C161.99 46.094 161.999 45.794 162 45.5C162.002 44.9812 161.982 44.4812 161.943 44C161.929 43.831 161.913 43.6643 161.894 43.5C161.836 42.9763 161.755 42.4763 161.657 42C161.518 41.3315 161.345 40.71 161.15 40.1357C160.918 39.4518 160.655 38.835 160.382 38.286C160.107 37.7309 159.822 37.2451 159.551 36.8295C158.758 35.6161 158.08 35 158.08 35" stroke="#114B5F" stroke-width="0.2"/>
<path fill-rule="evenodd" clip-rule="evenodd" d="M230.465 55.4139V51.9766H227.758V60.5703H230.465V55.4139Z" fill="url(#paint2_linear)"/>
<path fill-rule="evenodd" clip-rule="evenodd" d="M230.465 55.4139V51.9766H227.758V60.5703H230.465V55.4139Z" fill="url(#paint3_linear)"/>
<path fill-rule="evenodd" clip-rule="evenodd" d="M239.811 55.5869C239.238 55.8659 238.844 56.453 238.844 57.1326C238.844 57.8122 239.238 58.3995 239.811 58.6785C240.383 58.3995 240.777 57.8122 240.777 57.1326C240.777 56.453 240.383 55.8659 239.811 55.5869Z" fill="#1A936F"/>
<path d="M227.887 54.125H227.897C228.134 54.125 228.326 53.9325 228.326 53.6953C228.326 53.458 228.134 53.2656 227.897 53.2656H227.887C227.649 53.2656 227.457 53.458 227.457 53.6953C227.457 53.9326 227.649 54.125 227.887 54.125Z" fill="black"/>
<path d="M223.6 60.1406H223.59C223.353 60.1406 223.16 60.333 223.16 60.5703C223.16 60.8076 223.353 61 223.59 61H223.6C223.837 61 224.03 60.8076 224.03 60.5703C224.03 60.333 223.837 60.1406 223.6 60.1406Z" fill="black"/>
<path d="M242.496 60.1406H242.486C242.249 60.1406 242.056 60.333 242.056 60.5703C242.056 60.8076 242.249 61 242.486 61H242.496C242.733 61 242.926 60.8076 242.926 60.5703C242.926 60.333 242.733 60.1406 242.496 60.1406Z" fill="black"/>
<path fill-rule="evenodd" clip-rule="evenodd" d="M241.251 60.1406H239.488V59.2379C240.468 59.0384 241.207 58.1703 241.207 57.1326C241.207 55.948 240.243 54.984 239.059 54.984C237.874 54.984 236.91 55.948 236.91 57.1326C236.91 58.1701 237.649 59.0382 238.629 59.2379V60.1406H235.191H230.895V51.9766L230.035 51.5469H225.309C225.071 51.5469 224.879 51.7392 224.879 51.9766V60.1406H224.834C224.597 60.1406 224.405 60.333 224.405 60.5703C224.405 60.8076 224.597 61 224.834 61H241.251C241.489 61 241.681 60.8076 241.681 60.5703C241.681 60.333 241.489 60.1406 241.251 60.1406ZM239.059 55.8434C238.348 55.8434 237.77 56.4218 237.77 57.1326C237.77 57.6927 238.129 58.1704 238.629 58.3479V57.992C238.629 57.7549 238.821 57.5623 239.058 57.5623C239.296 57.5623 239.488 57.7549 239.488 57.992V58.3479C239.989 58.1704 240.348 57.6929 240.348 57.1326C240.348 56.4218 239.769 55.8434 239.059 55.8434ZM230.035 52.4062H225.738V60.1406H230.035V59.2811H227.887C227.649 59.2811 227.457 59.0887 227.457 58.8514C227.457 58.6142 227.649 58.4217 227.887 58.4217H230.035V57.5625H227.887C227.649 57.5625 227.457 57.37 227.457 57.1328C227.457 56.8955 227.649 56.7031 227.887 56.7031H230.035V55.8436H227.887C227.649 55.8436 227.457 55.6512 227.457 55.4139C227.457 55.1767 227.649 54.9842 227.887 54.9842H230.035V54.125H229.132C228.894 54.125 228.702 53.9325 228.702 53.6953C228.702 53.458 228.894 53.2656 229.132 53.2656H230.035V52.4062Z" fill="black"/>
<path fill-rule="evenodd" clip-rule="evenodd" d="M287.535 63.4139V59.9766H290.242V68.5703H287.535V63.4139Z" fill="url(#paint4_linear)"/>
<path fill-rule="evenodd" clip-rule="evenodd" d="M287.535 63.4139V59.9766H290.242V68.5703H287.535V63.4139Z" fill="url(#paint5_linear)"/>
<path fill-rule="evenodd" clip-rule="evenodd" d="M278.189 63.5869C278.762 63.8659 279.156 64.453 279.156 65.1326C279.156 65.8122 278.762 66.3995 278.189 66.6785C277.617 66.3995 277.223 65.8122 277.223 65.1326C277.223 64.453 277.617 63.8659 278.189 63.5869Z" fill="#1A936F"/>
<path d="M290.113 62.125H290.103C289.866 62.125 289.674 61.9325 289.674 61.6953C289.674 61.458 289.866 61.2656 290.103 61.2656H290.113C290.351 61.2656 290.543 61.458 290.543 61.6953C290.543 61.9326 290.351 62.125 290.113 62.125Z" fill="black"/>
<path d="M294.4 68.1406H294.41C294.647 68.1406 294.84 68.333 294.84 68.5703C294.84 68.8076 294.647 69 294.41 69H294.4C294.163 69 293.97 68.8076 293.97 68.5703C293.97 68.333 294.163 68.1406 294.4 68.1406Z" fill="black"/>
<path d="M275.504 68.1406H275.514C275.751 68.1406 275.944 68.333 275.944 68.5703C275.944 68.8076 275.751 69 275.514 69H275.504C275.267 69 275.074 68.8076 275.074 68.5703C275.074 68.333 275.267 68.1406 275.504 68.1406Z" fill="black"/>
<path fill-rule="evenodd" clip-rule="evenodd" d="M276.749 68.1406H278.512V67.2379C277.532 67.0384 276.793 66.1703 276.793 65.1326C276.793 63.948 277.757 62.984 278.941 62.984C280.126 62.984 281.09 63.948 281.09 65.1326C281.09 66.1701 280.351 67.0382 279.371 67.2379V68.1406H282.809H287.105V59.9766L287.965 59.5469H292.691C292.929 59.5469 293.121 59.7392 293.121 59.9766V68.1406H293.166C293.403 68.1406 293.595 68.333 293.595 68.5703C293.595 68.8076 293.403 69 293.166 69H276.749C276.511 69 276.319 68.8076 276.319 68.5703C276.319 68.333 276.511 68.1406 276.749 68.1406ZM278.941 63.8434C279.652 63.8434 280.23 64.4218 280.23 65.1326C280.23 65.6927 279.871 66.1704 279.371 66.3479V65.992C279.371 65.7549 279.179 65.5623 278.942 65.5623C278.704 65.5623 278.512 65.7549 278.512 65.992V66.3479C278.011 66.1704 277.652 65.6929 277.652 65.1326C277.652 64.4218 278.231 63.8434 278.941 63.8434ZM287.965 60.4062H292.262V68.1406H287.965V67.2811H290.113C290.351 67.2811 290.543 67.0887 290.543 66.8514C290.543 66.6142 290.351 66.4217 290.113 66.4217H287.965V65.5625H290.113C290.351 65.5625 290.543 65.37 290.543 65.1328C290.543 64.8955 290.351 64.7031 290.113 64.7031H287.965V63.8436H290.113C290.351 63.8436 290.543 63.6512 290.543 63.4139C290.543 63.1767 290.351 62.9842 290.113 62.9842H287.965V62.125H288.868C289.106 62.125 289.298 61.9325 289.298 61.6953C289.298 61.458 289.106 61.2656 288.868 61.2656H287.965V60.4062Z" fill="black"/>
<path d="M89.7972 31.4515C89.9166 31.2214 89.9091 30.9808 89.7805 30.914C89.6519 30.8473 89.4509 30.9797 89.3315 31.2098L80.4668 48.291C80.3474 48.5211 80.3548 48.7618 80.4834 48.8285C80.612 48.8952 80.8131 48.7628 80.9325 48.5327L89.7972 31.4515Z" fill="black"/>
<path d="M82.7952 49.4994C83.034 49.0392 83.0192 48.558 82.762 48.4245L79.5022 46.7328C79.245 46.5993 78.8429 46.8641 78.604 47.3243L78.1716 48.1576C77.9328 48.6177 77.9477 49.099 78.2049 49.2325L81.4647 50.9242C81.7219 51.0577 82.124 50.7928 82.3628 50.3327L82.7952 49.4994Z" fill="black"/>
<path d="M82.4218 50.2873C82.5124 50.0744 82.4932 49.8715 82.3777 49.8116C82.2376 49.7388 82.0147 49.9041 81.9026 50.1618C80.3374 53.7608 79.1064 56.0915 76.7573 60.059C76.6157 60.2981 76.6122 60.5688 76.7505 60.6406C76.8686 60.7019 77.0505 60.595 77.1731 60.3922C79.6237 56.3386 80.8419 54.0015 82.4218 50.2873Z" fill="black"/>
<path d="M80.8619 49.2652C80.9112 49.1551 80.9035 49.0465 80.8435 49.0153C80.7749 48.9798 80.666 49.0578 80.608 49.1828C78.6873 53.3168 77.4526 55.6548 75.2216 59.5594C75.1535 59.6786 75.1529 59.8115 75.2211 59.8469C75.2815 59.8782 75.3754 59.8211 75.437 59.7165C77.755 55.7801 78.9951 53.4363 80.8619 49.2652Z" fill="black"/>
<path d="M81.5633 49.6253C81.6111 49.5162 81.6029 49.4095 81.5436 49.3787C81.4745 49.3428 81.3646 49.4223 81.307 49.5487C79.4566 53.6087 78.2221 55.9553 75.9229 59.9205C75.8536 60.04 75.8523 60.1745 75.9209 60.2101C75.9808 60.2412 76.0737 60.1853 76.1353 60.0821C78.5112 56.105 79.751 53.7568 81.5633 49.6253Z" fill="black"/>
<path d="M79.4697 48.5371C79.5166 48.428 79.5078 48.3222 79.4486 48.2914C79.3791 48.2554 79.2687 48.3352 79.2106 48.4622C77.3297 52.5761 76.1146 54.9272 73.8297 58.831C73.7593 58.9513 73.7576 59.0874 73.8269 59.1233C73.8861 59.1541 73.9779 59.1 74.0399 58.9986C76.4452 55.0658 77.6733 52.7155 79.4697 48.5371Z" fill="black"/>
<path d="M80.1637 48.9019C80.2128 48.7923 80.2052 48.6841 80.1454 48.6531C80.0768 48.6175 79.9677 48.6961 79.9102 48.8215C78.0189 52.9425 76.7861 55.2671 74.5243 59.1966C74.4557 59.3157 74.4547 59.4491 74.523 59.4846C74.5832 59.5158 74.6768 59.4591 74.7382 59.3549C77.0605 55.4208 78.2948 53.0729 80.1637 48.9019Z" fill="black"/>
<path d="M78.6821 48.3645C78.7797 48.1478 78.7636 47.9359 78.6453 47.8745C78.5078 47.8032 78.2898 47.9619 78.1771 48.2139C76.4281 52.125 75.2247 54.4469 73.0321 58.1281C72.8908 58.3654 72.8865 58.6353 73.024 58.7067C73.1422 58.768 73.3245 58.6595 73.4456 58.4551C75.6789 54.6877 76.8853 52.3566 78.6821 48.3645Z" fill="black"/>
<path d="M74.6751 54.9707C72.8728 55.4265 71.5391 57.0588 71.5391 59.0028C71.5391 60.9467 72.8728 62.5791 74.6751 63.035C76.4774 62.5791 77.8113 60.9468 77.8113 59.0028C77.8113 57.0588 76.4774 55.4265 74.6751 54.9707Z" fill="#FFC943"/>
<path d="M76.1644 59.0028C76.1644 57.8149 75.3397 56.8203 74.2316 56.5585C73.1237 56.8203 72.299 57.8149 72.299 59.0028C72.299 60.1907 73.1237 61.1854 74.2316 61.447C75.3397 61.1854 76.1644 60.1907 76.1644 59.0028Z" fill="#D8902A"/>
<path d="M78.8383 62.1818C77.0359 62.6376 75.7021 64.2699 75.7021 66.2139C75.7021 68.1579 77.0359 69.7902 78.8383 70.246C80.6406 69.7902 81.9744 68.1579 81.9744 66.2139C81.9744 64.2699 80.6406 62.6376 78.8383 62.1818Z" fill="#FFC943"/>
<path d="M80.3275 66.214C80.3275 65.026 79.5027 64.0314 78.3948 63.7698C77.2867 64.0314 76.462 65.026 76.462 66.214C76.462 67.402 77.2867 68.3965 78.3948 68.6582C79.5027 68.3965 80.3275 67.402 80.3275 66.214Z" fill="#D8902A"/>
<path d="M78.9762 66.2139C78.9762 66.8551 78.4564 67.3748 77.8153 67.3748C77.1742 67.3748 76.6544 66.8551 76.6544 66.2139C76.6544 65.5728 77.1742 65.053 77.8153 65.053C78.4564 65.053 78.9762 65.5728 78.9762 66.2139Z" fill="#FFC943"/>
<path d="M74.813 59.0029C74.813 59.644 74.2933 60.1636 73.6523 60.1636C73.0111 60.1636 72.4914 59.644 72.4914 59.0029C72.4914 58.3617 73.0111 57.842 73.6523 57.842C74.2933 57.842 74.813 58.3617 74.813 59.0029Z" fill="#FFC943"/>
<path d="M70.5161 62.1819C68.7138 62.6377 67.38 64.27 67.38 66.214C67.38 68.158 68.7138 69.7903 70.5161 70.2461C72.3184 69.7903 73.6523 68.158 73.6523 66.214C73.6523 64.27 72.3184 62.6377 70.5161 62.1819Z" fill="#FFC943"/>
<path d="M76.4619 66.2139C76.4619 65.0259 77.2867 64.0313 78.3947 63.7697C78.2086 63.7257 78.0149 63.7017 77.8153 63.7017C76.4279 63.7017 75.303 64.8265 75.303 66.2139C75.303 67.6013 76.4279 68.7261 77.8153 68.7261C78.0149 68.7261 78.2086 68.7021 78.3947 68.6581C77.2867 68.3965 76.4619 67.4019 76.4619 66.2139Z" fill="white"/>
<path d="M72.299 59.0028C72.299 57.8149 73.1237 56.8203 74.2316 56.5585C74.0457 56.5146 73.8518 56.4906 73.6523 56.4906C72.2648 56.4906 71.1401 57.6153 71.1401 59.0028C71.1401 60.3903 72.2648 61.5149 73.6523 61.5149C73.8518 61.5149 74.0457 61.491 74.2316 61.4471C73.1237 61.1854 72.299 60.1907 72.299 59.0028Z" fill="white"/>
<path d="M68.1399 66.2139C68.1399 65.0259 68.9647 64.0313 70.0726 63.7697C69.8866 63.7257 69.6927 63.7017 69.4933 63.7017C68.1057 63.7017 66.981 64.8265 66.981 66.2139C66.981 67.6013 68.1057 68.7261 69.4933 68.7261C69.6927 68.7261 69.8866 68.7021 70.0726 68.6581C68.9647 68.3965 68.1399 67.4019 68.1399 66.2139Z" fill="white"/>
<path d="M72.0053 66.214C72.0053 65.026 71.1806 64.0314 70.0725 63.7698C68.9646 64.0314 68.1399 65.026 68.1399 66.214C68.1399 67.402 68.9646 68.3965 70.0725 68.6582C71.1806 68.3965 72.0053 67.402 72.0053 66.214Z" fill="#D8902A"/>
<path d="M70.654 66.2139C70.654 66.8551 70.1342 67.3748 69.4932 67.3748C68.8521 67.3748 68.3323 66.8551 68.3323 66.2139C68.3323 65.5728 68.8521 65.053 69.4932 65.053C70.1342 65.053 70.654 65.5728 70.654 66.2139Z" fill="#FFC943"/>
<path d="M73.6562 55.1859H73.6605C73.8472 55.1859 73.9986 55.0345 73.9986 54.8477C73.9986 54.661 73.8472 54.5096 73.6605 54.5096H73.6562C73.4695 54.5096 73.3181 54.661 73.3181 54.8477C73.3181 55.0345 73.4695 55.1859 73.6562 55.1859Z" fill="black"/>
<path d="M74.6353 69.394C74.7013 69.4599 74.7879 69.4929 74.8745 69.4929C74.961 69.4929 75.0475 69.4599 75.1135 69.394C75.2456 69.2619 75.2456 69.0478 75.1135 68.9157L75.1105 68.9127C74.9785 68.7807 74.7644 68.7807 74.6323 68.9127C74.5003 69.0447 74.5003 69.2589 74.6323 69.3909L74.6353 69.394Z" fill="black"/>
<path d="M72.1961 68.9186C72.064 69.0507 72.064 69.2648 72.1961 69.3969C72.2621 69.4629 72.3486 69.4959 72.4351 69.4959C72.5216 69.4959 72.6082 69.4629 72.6742 69.3969L72.6772 69.394C72.8092 69.2619 72.8092 69.0478 72.6772 68.9157C72.5452 68.7836 72.3311 68.7836 72.199 68.9157L72.1961 68.9186Z" fill="black"/>
<path d="M77.8153 69.0589C78.5441 69.0589 79.273 68.7814 79.8279 68.2265C80.569 67.4855 80.8425 66.401 80.542 65.3961C80.4886 65.2171 80.3001 65.1155 80.1212 65.169C79.9423 65.2225 79.8407 65.411 79.8942 65.5898C80.1233 66.3562 79.9148 67.1833 79.3497 67.7484C78.5036 68.5944 77.1269 68.5944 76.2809 67.7484C75.4348 66.9022 75.4348 65.5255 76.2809 64.6795C76.8718 64.0886 77.7302 63.89 78.5214 64.1613C78.698 64.222 78.8903 64.1279 78.951 63.9512C79.0116 63.7746 78.9174 63.5823 78.7408 63.5217C77.7034 63.1658 76.5777 63.4263 75.8026 64.2012C74.6928 65.311 74.6928 67.1167 75.8026 68.2265C76.3576 68.7814 77.0865 69.0589 77.8153 69.0589Z" fill="black"/>
<path d="M79.3508 64.6806C79.4167 64.746 79.5028 64.7786 79.5888 64.7786C79.6758 64.7786 79.7629 64.7452 79.8291 64.6785C79.9605 64.5458 79.9594 64.3317 79.8268 64.2002L79.8223 64.1957C79.6904 64.0637 79.4763 64.0637 79.3442 64.1957C79.2121 64.3278 79.2121 64.5419 79.3442 64.674L79.3508 64.6806Z" fill="black"/>
<path d="M77.8153 64.7288C76.9986 64.7288 76.3342 65.3932 76.3342 66.21C76.3342 67.0266 76.9986 67.691 77.8153 67.691C78.632 67.691 79.2964 67.0265 79.2964 66.21C79.2964 65.3933 78.632 64.7288 77.8153 64.7288ZM77.8153 67.0148C77.3715 67.0148 77.0105 66.6536 77.0105 66.21C77.0105 65.7662 77.3715 65.405 77.8153 65.405C78.2591 65.405 78.6201 65.7662 78.6201 66.21C78.6201 66.6536 78.2591 67.0148 77.8153 67.0148Z" fill="black"/>
<path d="M74.7572 61.5993C74.807 61.5993 74.8577 61.5882 74.9055 61.5649C75.8906 61.083 76.5025 60.1028 76.5025 59.0068C76.5025 57.4374 75.2257 56.1605 73.6562 56.1605C72.0868 56.1605 70.81 57.4374 70.81 59.0068C70.81 60.0547 71.3833 61.0153 72.3065 61.5132C72.4708 61.602 72.6759 61.5405 72.7647 61.3762C72.8533 61.2118 72.7919 61.0068 72.6276 60.918C71.9236 60.5382 71.4862 59.8059 71.4862 59.0068C71.4862 57.8102 72.4597 56.8368 73.6562 56.8368C74.8528 56.8368 75.8263 57.8102 75.8263 59.0068C75.8263 59.8425 75.3596 60.5899 74.6083 60.9574C74.4406 61.0396 74.3711 61.242 74.4531 61.4098C74.5119 61.5297 74.6321 61.5993 74.7572 61.5993Z" fill="black"/>
<path d="M73.6562 61.1768C73.4695 61.1768 73.3181 61.3281 73.3181 61.5149C73.3181 61.7017 73.4695 61.853 73.6562 61.853H73.664C73.8508 61.853 74.0022 61.7017 74.0022 61.5149C74.0022 61.3281 73.8508 61.1768 73.664 61.1768H73.6562Z" fill="black"/>
<path d="M75.1402 59.0097C75.1402 58.614 74.9861 58.2421 74.7065 57.9624C74.4267 57.6826 74.0547 57.5285 73.6592 57.5285C73.2636 57.5285 72.8916 57.6826 72.6119 57.9624C72.0344 58.5399 72.0344 59.4794 72.6119 60.0569C72.9006 60.3457 73.2798 60.4901 73.6592 60.4901C74.0384 60.49 74.4177 60.3456 74.7065 60.0569C74.9861 59.7772 75.1402 59.4053 75.1402 59.0097ZM74.2282 59.5787C73.9145 59.8925 73.4038 59.8925 73.09 59.5787C72.7762 59.265 72.7762 58.7544 73.09 58.4405C73.242 58.2885 73.4441 58.2049 73.6592 58.2049C73.8741 58.2049 74.0761 58.2886 74.2282 58.4405C74.3802 58.5926 74.4639 58.7947 74.4639 59.0097C74.4639 59.2246 74.3802 59.4267 74.2282 59.5787Z" fill="black"/>
<path d="M71.5098 68.2265C72.6195 67.1167 72.6195 65.3111 71.5098 64.2014C70.7688 63.4602 69.6842 63.1866 68.6793 63.4872C68.5004 63.5407 68.3988 63.7292 68.4523 63.908C68.5058 64.087 68.6943 64.1887 68.8731 64.1351C69.6395 63.9059 70.4666 64.1145 71.0316 64.6795C71.8776 65.5256 71.8776 66.9024 71.0316 67.7484C70.6086 68.1716 70.0529 68.383 69.4972 68.383C68.9415 68.3829 68.3857 68.1714 67.9628 67.7485C67.3718 67.1574 67.1733 66.299 67.4446 65.5079C67.5052 65.3312 67.4112 65.1389 67.2346 65.0783C67.058 65.0178 66.8656 65.1118 66.8049 65.2884C66.4491 66.3257 66.7096 67.4516 67.4845 68.2266C68.0394 68.7815 68.7684 69.0589 69.4972 69.0589C70.226 69.0589 70.9549 68.7814 71.5098 68.2265Z" fill="black"/>
<path d="M67.7182 64.7841C67.8047 64.7841 67.8912 64.7511 67.9572 64.6851L67.9628 64.6795C68.0949 64.5474 68.0949 64.3333 67.9628 64.2012C67.8307 64.0693 67.6166 64.0693 67.4845 64.2012L67.4789 64.2068C67.347 64.3389 67.347 64.553 67.4789 64.6851C67.545 64.7511 67.6316 64.7841 67.7182 64.7841Z" fill="black"/>
<path d="M69.4932 67.695C70.3098 67.695 70.9743 67.0306 70.9743 66.2139C70.9743 65.3973 70.3098 64.7329 69.4932 64.7329C68.6766 64.7329 68.012 65.3973 68.012 66.2139C68.012 67.0306 68.6766 67.695 69.4932 67.695ZM69.4932 65.4091C69.9369 65.4091 70.298 65.7701 70.298 66.2139C70.298 66.6577 69.9369 67.0187 69.4932 67.0187C69.0494 67.0187 68.6883 66.6577 68.6883 66.2139C68.6883 65.7701 69.0494 65.4091 69.4932 65.4091Z" fill="black"/>
<path d="M81.9744 70.0348H80.1881C80.476 69.8557 80.7473 69.6419 80.9954 69.394C81.8447 68.5445 82.3125 67.4151 82.3125 66.2139C82.3125 65.0128 81.8448 63.8833 80.9954 63.0339C80.1459 62.1846 79.0166 61.7167 77.8153 61.7167C77.6118 61.7167 77.4105 61.7305 77.2121 61.7569C77.8018 60.9961 78.1534 60.0418 78.1534 59.0068C78.1534 56.9534 76.7662 55.1622 74.7799 54.6512C74.5991 54.6047 74.4147 54.7135 74.3682 54.8943C74.3217 55.0753 74.4305 55.2596 74.6113 55.3061C76.2987 55.7403 77.4772 57.2621 77.4772 59.0068C77.4772 61.1136 75.7631 62.8277 73.6562 62.8277C71.5494 62.8277 69.8353 61.1136 69.8353 59.0068C69.8353 57.2621 71.0138 55.7403 72.7011 55.3062C72.882 55.2596 72.9908 55.0753 72.9443 54.8945C72.8978 54.7137 72.7134 54.6048 72.5326 54.6512C70.5463 55.1622 69.1591 56.9534 69.1591 59.0068C69.1591 60.0418 69.5107 60.9961 70.1005 61.7569C69.9022 61.7305 69.7007 61.7167 69.4972 61.7167C68.296 61.7167 67.1666 62.1844 66.3171 63.0339C65.4678 63.8833 65 65.0126 65 66.2139C65 67.4152 65.4678 68.5445 66.3171 69.394C66.5652 69.6419 66.8365 69.8557 67.1244 70.0348H65.3381C65.1514 70.0348 65 70.1862 65 70.373C65 70.5597 65.1514 70.7111 65.3381 70.7111H81.9744C82.1611 70.7111 82.3125 70.5597 82.3125 70.373C82.3125 70.1862 82.1611 70.0348 81.9744 70.0348ZM74.2566 63.4638C74.0077 63.7853 73.8072 64.1344 73.6562 64.5005C73.5053 64.1344 73.3048 63.7853 73.0559 63.4638C73.2523 63.4901 73.4527 63.504 73.6562 63.504C73.8598 63.504 74.0602 63.4901 74.2566 63.4638ZM66.7954 68.9157C65.3056 67.4259 65.3056 65.0019 66.7954 63.5122C68.2852 62.0222 70.7092 62.0222 72.199 63.5122C72.9121 64.2251 73.2933 65.1639 73.3176 66.1188C73.3163 66.185 73.3163 66.251 73.3177 66.3172C73.3011 66.9494 73.1278 67.5822 72.7892 68.1552C72.6943 68.316 72.7476 68.5234 72.9085 68.6184C73.0693 68.7133 73.2766 68.66 73.3716 68.4991C73.4811 68.3138 73.5758 68.1229 73.6562 67.9284C73.7367 68.1229 73.8314 68.3138 73.9409 68.4991C74.0359 68.66 74.2432 68.7132 74.404 68.6184C74.5647 68.5234 74.6181 68.316 74.5231 68.1552C74.1846 67.5822 74.0114 66.9492 73.9946 66.3172C73.9961 66.251 73.9962 66.185 73.9948 66.1188C74.0192 65.1639 74.4004 64.2251 75.1135 63.5122C76.6033 62.0222 79.0273 62.0222 80.5171 63.5122C82.0068 65.0019 82.0068 67.4259 80.5171 68.9157C79.7993 69.6334 78.8528 70.015 77.8912 70.0348H77.7337C77.0944 70.0215 76.4535 69.8485 75.8739 69.506C75.7132 69.411 75.5058 69.4644 75.4108 69.6253C75.3309 69.7604 75.3563 69.9283 75.4618 70.0348H71.8507C71.9562 69.9283 71.9816 69.7604 71.9016 69.6253C71.8067 69.4644 71.5993 69.411 71.4386 69.506C70.8594 69.8482 70.2192 70.0214 69.5804 70.0348H69.4202C68.459 70.0148 67.5129 69.6332 66.7954 68.9157Z" fill="black"/>
</g>
<defs>
<filter id="filter0_d" x="0.234863" y="0.896729" width="375.765" height="133.103" filterUnits="userSpaceOnUse" color-interpolation-filters="sRGB">
<feFlood flood-opacity="0" result="BackgroundImageFix"/>
<feColorMatrix in="SourceAlpha" type="matrix" values="0 0 0 0 0 0 0 0 0 0 0 0 0 0 0 0 0 0 127 0"/>
<feOffset/>
<feGaussianBlur stdDeviation="15"/>
<feColorMatrix type="matrix" values="0 0 0 0 0 0 0 0 0 0 0 0 0 0 0 0 0 0 1 0"/>
<feBlend mode="normal" in2="BackgroundImageFix" result="effect1_dropShadow"/>
<feBlend mode="normal" in="SourceGraphic" in2="effect1_dropShadow" result="shape"/>
</filter>
<linearGradient id="paint0_linear" x1="188.5" y1="56" x2="188.5" y2="104" gradientUnits="userSpaceOnUse">
<stop offset="0.169792" stop-color="#FFB600"/>
<stop offset="0.684492" stop-color="#88D498"/>
</linearGradient>
<linearGradient id="paint1_linear" x1="188.5" y1="56" x2="188.5" y2="104" gradientUnits="userSpaceOnUse">
<stop stop-color="white"/>
<stop offset="1" stop-color="white" stop-opacity="0"/>
</linearGradient>
<linearGradient id="paint2_linear" x1="229.111" y1="51.9766" x2="229.111" y2="60.5703" gradientUnits="userSpaceOnUse">
<stop offset="0.169792" stop-color="#FFB600"/>
<stop offset="0.684492" stop-color="#88D498"/>
</linearGradient>
<linearGradient id="paint3_linear" x1="229.111" y1="51.9766" x2="229.111" y2="60.5703" gradientUnits="userSpaceOnUse">
<stop stop-color="white"/>
<stop offset="1" stop-color="white" stop-opacity="0"/>
</linearGradient>
<linearGradient id="paint4_linear" x1="288.889" y1="59.9766" x2="288.889" y2="68.5703" gradientUnits="userSpaceOnUse">
<stop offset="0.169792" stop-color="#FFB600"/>
<stop offset="0.684492" stop-color="#88D498"/>
</linearGradient>
<linearGradient id="paint5_linear" x1="288.889" y1="59.9766" x2="288.889" y2="68.5703" gradientUnits="userSpaceOnUse">
<stop stop-color="white"/>
<stop offset="1" stop-color="white" stop-opacity="0"/>
</linearGradient>
</defs>
</svg>