<svg width="316" height="74" viewBox="0 0 316 74" fill="none" xmlns="http://www.w3.org/2000/svg">
<path d="M0.70525 43.904C1.15325 44.32 1.95325 44.72 3.10525 45.104C4.25725 45.488 5.58525 45.824 7.08925 46.112C8.01725 43.968 8.99325 41.792 10.0173 39.584C11.0733 37.344 12.0973 35.168 13.0893 33.056C12.7373 32.512 12.3693 32.08 11.9853 31.76C11.6013 31.408 11.2173 31.2 10.8333 31.136C12.3693 29.696 13.8733 28.816 15.3453 28.496C16.8493 28.176 18.0653 28.192 18.9933 28.544C19.6013 28.768 20.1933 29.344 20.7693 30.272C21.3453 31.2 21.9213 32.368 22.4973 33.776C23.0733 35.184 23.6493 36.752 24.2253 38.48C24.8013 40.208 25.3773 41.968 25.9532 43.76C26.5293 45.52 27.1053 47.264 27.6813 48.992C28.2573 50.688 28.8333 52.208 29.4093 53.552C30.0173 54.896 30.6253 56 31.2333 56.864C31.8413 57.728 32.4493 58.208 33.0573 58.304C32.3853 59.136 31.5853 59.872 30.6573 60.512C29.7613 61.152 28.8493 61.616 27.9213 61.904C26.9933 62.192 26.1133 62.288 25.2812 62.192C24.4493 62.096 23.7773 61.728 23.2653 61.088C22.5933 60.256 21.9213 58.896 21.2493 57.008C20.5773 55.088 19.9053 52.944 19.2333 50.576C17.7613 51.152 16.1933 51.664 14.5293 52.112C12.8653 52.56 11.2493 52.896 9.68125 53.12C9.23325 54.944 8.97725 56.528 8.91325 57.872C8.84925 59.216 9.00925 60.384 9.39325 61.376C9.00925 61.536 8.49725 61.68 7.85725 61.808C7.21725 61.936 6.56125 62 5.88925 62C5.24925 61.968 4.64125 61.824 4.06525 61.568C3.52125 61.28 3.12125 60.816 2.86525 60.176C2.64125 59.632 2.65725 58.752 2.91325 57.536C3.20125 56.288 3.64925 54.8 4.25725 53.072C3.36125 52.88 2.67325 52.56 2.19325 52.112C1.55325 51.536 1.08925 50.896 0.80125 50.192C0.51325 49.456 0.33725 48.72 0.27325 47.984C0.20925 47.216 0.22525 46.48 0.32125 45.776C0.41725 45.072 0.54525 44.448 0.70525 43.904ZM18.2253 47.024C17.7453 45.392 17.2653 43.792 16.7853 42.224C16.3053 40.624 15.8093 39.136 15.2973 37.76C13.8893 41.056 12.6733 44.064 11.6493 46.784C12.8653 46.944 14.0333 47.04 15.1533 47.072C16.3053 47.104 17.3293 47.088 18.2253 47.024ZM34.0518 36.416C34.4678 36.896 35.1078 37.184 35.9718 37.28C36.8358 37.344 37.8278 37.312 38.9478 37.184C40.0678 37.024 41.2678 36.832 42.5478 36.608C43.8278 36.352 45.0758 36.144 46.2918 35.984C47.5398 35.792 48.6918 35.696 49.7478 35.696C50.8358 35.664 51.7478 35.824 52.4838 36.176C53.2198 36.528 53.7158 37.136 53.9718 38C54.2278 38.832 54.3078 39.776 54.2118 40.832C54.1158 41.856 53.8438 42.88 53.3958 43.904C52.9798 44.928 52.4678 45.776 51.8598 46.448C51.4758 45.616 50.8838 45.008 50.0838 44.624C49.3158 44.24 48.4038 44 47.3478 43.904C46.2918 43.776 45.1398 43.76 43.8918 43.856C42.6438 43.92 41.3798 44 40.0998 44.096C40.4838 45.408 40.7078 46.704 40.7718 47.984C40.8678 49.232 40.8838 50.416 40.8198 51.536C40.7878 52.656 40.7238 53.712 40.6278 54.704C40.5638 55.664 40.5638 56.544 40.6278 57.344C40.7238 58.144 40.9478 58.832 41.2998 59.408C41.6518 59.984 42.2438 60.432 43.0758 60.752C42.6598 61.104 41.9398 61.424 40.9158 61.712C39.9238 62 38.8518 62.112 37.6998 62.048C36.5798 61.984 35.5078 61.696 34.4838 61.184C33.4918 60.672 32.8038 59.792 32.4198 58.544C32.1318 57.648 32.0998 56.64 32.3238 55.52C32.5478 54.4 32.8678 53.216 33.2838 51.968C33.7318 50.688 34.1958 49.392 34.6758 48.08C35.1878 46.736 35.5878 45.424 35.8758 44.144C35.0758 43.952 34.4358 43.6 33.9558 43.088C33.4758 42.544 33.1558 41.904 32.9958 41.168C32.8358 40.432 32.8358 39.648 32.9958 38.816C33.1878 37.984 33.5398 37.184 34.0518 36.416ZM61.6165 54.224C61.4245 55.472 61.3125 56.72 61.2805 57.968C61.2805 59.216 61.4245 60.384 61.7125 61.472C62.0005 62.56 62.4485 63.504 63.0565 64.304C63.6965 65.104 64.5765 65.68 65.6965 66.032C65.0565 67.28 64.2565 68.304 63.2965 69.104C62.3685 69.904 61.3925 70.464 60.3685 70.784C59.3445 71.136 58.3525 71.216 57.3925 71.024C56.4325 70.864 55.6165 70.432 54.9445 69.728C54.1125 68.832 53.6325 67.632 53.5045 66.128C53.3765 64.656 53.4085 63.008 53.6005 61.184C53.8245 59.328 54.1125 57.376 54.4645 55.328C54.8485 53.28 55.1365 51.248 55.3285 49.232C55.4565 47.952 55.5685 46.784 55.6645 45.728C55.7605 44.672 55.7605 43.728 55.6645 42.896C55.6005 42.064 55.4085 41.376 55.0885 40.832C54.7685 40.256 54.2405 39.824 53.5045 39.536C54.0165 38.576 54.6885 37.792 55.5205 37.184C56.3845 36.544 57.2485 36.096 58.1125 35.84C59.0085 35.584 59.8405 35.52 60.6085 35.648C61.4085 35.744 62.0165 36.048 62.4325 36.56C62.7525 36.976 62.9605 37.376 63.0565 37.76C63.1525 38.112 63.1685 38.496 63.1045 38.912C63.0405 39.296 62.9125 39.712 62.7205 40.16C62.5605 40.608 62.3845 41.104 62.1925 41.648C62.9605 39.984 63.9525 38.688 65.1685 37.76C66.3845 36.8 67.6645 36.176 69.0085 35.888C70.3525 35.6 71.6805 35.616 72.9925 35.936C74.3365 36.256 75.4885 36.832 76.4485 37.664C77.5365 38.624 78.4005 39.872 79.0405 41.408C79.6805 42.944 80.0805 44.592 80.2405 46.352C80.4005 48.08 80.3205 49.84 80.0005 51.632C79.6805 53.424 79.1045 55.056 78.2725 56.528C77.4725 58 76.4165 59.232 75.1045 60.224C73.7925 61.216 72.2245 61.792 70.4005 61.952C69.0565 62.08 67.8565 61.968 66.8005 61.616C65.7765 61.232 64.9125 60.688 64.2085 59.984C63.5045 59.28 62.9765 58.448 62.6245 57.488C62.2725 56.528 62.1125 55.504 62.1445 54.416L61.6165 54.224ZM73.8085 45.344C73.1365 44.576 72.2405 44.064 71.1205 43.808C70.0005 43.552 68.8485 43.632 67.6645 44.048C66.4805 44.464 65.3605 45.232 64.3045 46.352C63.2805 47.472 62.5125 49.008 62.0005 50.96C62.5125 51.664 63.1525 52.224 63.9205 52.64C64.7205 53.024 65.5525 53.312 66.4165 53.504C67.2805 53.664 68.1445 53.712 69.0085 53.648C69.8725 53.552 70.6565 53.376 71.3605 53.12C72.2565 52.8 72.9765 52.32 73.5205 51.68C74.0965 51.04 74.4805 50.352 74.6725 49.616C74.8965 48.88 74.9285 48.128 74.7685 47.36C74.6405 46.592 74.3205 45.92 73.8085 45.344ZM86.8158 37.664C87.6478 36.992 88.4798 36.544 89.3118 36.32C90.1758 36.096 90.9598 36.048 91.6638 36.176C93.7758 35.536 95.8238 35.392 97.8078 35.744C99.7918 36.096 101.568 36.976 103.136 38.384C104.384 39.472 105.328 40.88 105.968 42.608C106.608 44.304 106.944 46.096 106.976 47.984C107.008 49.84 106.704 51.68 106.064 53.504C105.456 55.328 104.48 56.912 103.136 58.256C101.888 59.504 100.464 60.448 98.8638 61.088C97.2638 61.696 95.6318 62 93.9678 62C92.3358 62 90.7518 61.68 89.2158 61.04C87.6798 60.4 86.3678 59.44 85.2798 58.16C83.8398 56.528 82.8798 54.72 82.3998 52.736C81.9198 50.752 81.8078 48.816 82.0638 46.928C82.3198 45.008 82.8638 43.232 83.6958 41.6C84.5598 39.936 85.5998 38.624 86.8158 37.664ZM89.6478 47.216C89.4878 47.152 89.2958 47.008 89.0718 46.784C88.8798 46.56 88.6878 46.272 88.4958 45.92C88.1118 46.848 87.8878 47.664 87.8238 48.368C87.7918 49.072 87.9838 49.824 88.3997 50.624C88.8798 51.552 89.5678 52.288 90.4638 52.832C91.3918 53.376 92.3838 53.728 93.4398 53.888C94.4958 54.048 95.5358 54.048 96.5598 53.888C97.5838 53.696 98.4318 53.36 99.1038 52.88C99.7758 52.4 100.304 51.84 100.688 51.2C101.104 50.56 101.36 49.904 101.456 49.232C101.584 48.56 101.552 47.904 101.36 47.264C101.168 46.592 100.832 45.984 100.352 45.44C99.6158 44.64 98.7198 44.112 97.6638 43.856C96.6078 43.568 95.5518 43.52 94.4958 43.712C93.4398 43.904 92.4638 44.304 91.5678 44.912C90.6718 45.488 90.0318 46.256 89.6478 47.216ZM111.323 40.976C110.811 40.592 110.411 40.016 110.123 39.248C109.835 38.448 109.691 37.6 109.691 36.704C109.723 35.776 109.899 34.864 110.219 33.968C110.571 33.04 111.099 32.256 111.803 31.616C112.731 30.784 113.931 30.144 115.403 29.696C116.907 29.248 118.459 29.04 120.059 29.072C121.691 29.072 123.275 29.328 124.811 29.84C126.379 30.352 127.723 31.136 128.843 32.192C130.667 33.984 131.979 35.952 132.779 38.096C133.579 40.208 133.979 42.336 133.979 44.48C133.979 46.592 133.627 48.624 132.923 50.576C132.251 52.528 131.339 54.224 130.187 55.664C128.779 57.424 127.131 58.832 125.243 59.888C123.387 60.944 121.515 61.648 119.627 62C117.771 62.352 115.995 62.384 114.299 62.096C112.635 61.808 111.291 61.2 110.267 60.272C109.403 59.504 108.811 58.608 108.491 57.584C108.203 56.56 108.155 55.536 108.347 54.512C108.539 53.456 108.955 52.448 109.595 51.488C110.235 50.528 111.067 49.728 112.091 49.088C112.379 50.496 113.035 51.6 114.059 52.4C115.115 53.2 116.331 53.696 117.707 53.888C119.083 54.08 120.555 53.952 122.123 53.504C123.691 53.056 125.147 52.304 126.491 51.248C127.035 50.832 127.483 50.384 127.835 49.904C128.187 49.424 128.491 48.912 128.747 48.368C127.851 48.368 126.683 48.352 125.243 48.32C123.835 48.288 122.379 48.272 120.875 48.272C119.371 48.272 117.931 48.336 116.555 48.464C115.211 48.56 114.171 48.752 113.435 49.04C113.339 48.176 113.355 47.312 113.483 46.448C113.611 45.584 113.851 44.8 114.203 44.096C114.555 43.36 115.019 42.736 115.595 42.224C116.171 41.712 116.843 41.376 117.611 41.216C118.187 41.088 118.891 41.072 119.723 41.168C120.587 41.264 121.499 41.392 122.459 41.552C123.419 41.712 124.411 41.904 125.435 42.128C126.491 42.32 127.515 42.464 128.507 42.56C127.931 41.344 127.147 40.32 126.155 39.488C125.195 38.72 124.043 38.112 122.699 37.664C121.355 37.216 119.963 37.024 118.523 37.088C117.115 37.12 115.755 37.44 114.443 38.048C113.163 38.656 112.123 39.632 111.323 40.976ZM135.313 38.672C135.601 38.192 136.065 37.744 136.705 37.328C137.345 36.88 138.065 36.512 138.865 36.224C139.697 35.936 140.561 35.728 141.457 35.6C142.353 35.472 143.201 35.456 144.001 35.552C144.801 35.648 145.505 35.872 146.113 36.224C146.721 36.544 147.153 37.024 147.409 37.664C147.729 38.464 147.857 39.296 147.793 40.16C147.761 40.992 147.617 41.84 147.361 42.704C147.105 43.536 146.753 44.384 146.305 45.248C145.889 46.112 145.457 46.976 145.009 47.84C146.161 46.88 147.249 45.856 148.273 44.768C149.329 43.68 150.209 42.608 150.913 41.552C151.649 40.464 152.161 39.424 152.449 38.432C152.769 37.408 152.785 36.496 152.497 35.696C153.745 35.504 154.929 35.504 156.049 35.696C157.201 35.856 158.177 36.192 158.977 36.704C159.809 37.216 160.433 37.856 160.849 38.624C161.265 39.392 161.361 40.256 161.137 41.216C160.945 42.144 160.433 43.008 159.601 43.808C158.769 44.608 157.777 45.344 156.625 46.016C155.505 46.688 154.289 47.296 152.977 47.84C151.697 48.352 150.481 48.8 149.329 49.184C150.673 50.528 151.937 51.584 153.121 52.352C154.337 53.12 155.457 53.632 156.481 53.888C157.505 54.144 158.449 54.176 159.313 53.984C160.177 53.76 160.945 53.344 161.617 52.736C161.713 53.728 161.633 54.736 161.377 55.76C161.121 56.784 160.705 57.728 160.129 58.592C159.585 59.456 158.897 60.208 158.065 60.848C157.265 61.456 156.353 61.84 155.329 62C154.497 62.16 153.537 62.144 152.449 61.952C151.393 61.728 150.289 61.28 149.137 60.608C147.985 59.904 146.833 58.928 145.681 57.68C144.561 56.432 143.505 54.848 142.513 52.928C142.097 54.08 141.969 55.168 142.129 56.192C142.289 57.216 142.977 58.128 144.193 58.928C143.617 59.824 142.881 60.544 141.985 61.088C141.121 61.6 140.241 61.904 139.345 62C138.449 62.096 137.601 61.968 136.801 61.616C136.033 61.264 135.457 60.656 135.073 59.792C134.625 58.8 134.449 57.648 134.545 56.336C134.641 54.992 134.849 53.6 135.169 52.16C135.521 50.688 135.889 49.232 136.273 47.792C136.657 46.32 136.929 44.976 137.089 43.76C137.281 42.512 137.265 41.44 137.041 40.544C136.817 39.648 136.241 39.024 135.313 38.672ZM167.206 37.664C168.038 36.992 168.87 36.544 169.702 36.32C170.566 36.096 171.35 36.048 172.054 36.176C174.166 35.536 176.214 35.392 178.198 35.744C180.182 36.096 181.958 36.976 183.526 38.384C184.774 39.472 185.718 40.88 186.358 42.608C186.998 44.304 187.334 46.096 187.366 47.984C187.398 49.84 187.094 51.68 186.454 53.504C185.846 55.328 184.87 56.912 183.526 58.256C182.278 59.504 180.854 60.448 179.254 61.088C177.654 61.696 176.022 62 174.358 62C172.726 62 171.142 61.68 169.606 61.04C168.07 60.4 166.758 59.44 165.67 58.16C164.23 56.528 163.27 54.72 162.79 52.736C162.31 50.752 162.198 48.816 162.454 46.928C162.71 45.008 163.254 43.232 164.086 41.6C164.95 39.936 165.99 38.624 167.206 37.664ZM170.038 47.216C169.878 47.152 169.686 47.008 169.462 46.784C169.27 46.56 169.078 46.272 168.886 45.92C168.502 46.848 168.278 47.664 168.214 48.368C168.182 49.072 168.374 49.824 168.79 50.624C169.27 51.552 169.958 52.288 170.854 52.832C171.782 53.376 172.774 53.728 173.83 53.888C174.886 54.048 175.926 54.048 176.95 53.888C177.974 53.696 178.822 53.36 179.494 52.88C180.166 52.4 180.694 51.84 181.078 51.2C181.494 50.56 181.75 49.904 181.846 49.232C181.974 48.56 181.942 47.904 181.75 47.264C181.558 46.592 181.222 45.984 180.742 45.44C180.006 44.64 179.11 44.112 178.054 43.856C176.998 43.568 175.942 43.52 174.886 43.712C173.83 43.904 172.854 44.304 171.958 44.912C171.062 45.488 170.422 46.256 170.038 47.216ZM188.498 35.792C188.402 33.776 188.642 32.16 189.218 30.944C189.826 29.696 190.77 28.944 192.05 28.688C193.202 28.464 194.53 28.352 196.034 28.352C197.57 28.32 199.154 28.336 200.786 28.4C202.418 28.464 204.034 28.544 205.634 28.64C207.266 28.736 208.77 28.784 210.146 28.784C211.522 28.752 212.706 28.64 213.698 28.448C214.69 28.224 215.362 27.856 215.714 27.344C215.714 28.336 215.634 29.328 215.474 30.32C215.346 31.312 215.09 32.24 214.706 33.104C214.354 33.968 213.89 34.768 213.314 35.504C212.738 36.208 212.018 36.768 211.154 37.184L210.77 37.376C210.514 38.976 210.306 40.672 210.146 42.464C210.018 44.256 209.922 46.032 209.858 47.792C209.826 49.552 209.842 51.248 209.906 52.88C209.97 54.48 210.082 55.904 210.242 57.152C210.434 58.4 210.674 59.424 210.962 60.224C211.25 60.992 211.586 61.408 211.97 61.472C211.01 61.792 209.986 61.968 208.898 62C207.81 62.032 206.77 61.936 205.778 61.712C204.818 61.488 203.954 61.12 203.186 60.608C202.45 60.096 201.938 59.456 201.65 58.688C201.362 57.92 201.266 56.704 201.362 55.04C201.49 53.376 201.746 51.536 202.13 49.52C202.514 47.472 202.994 45.392 203.57 43.28C204.146 41.136 204.77 39.232 205.442 37.568C204.098 37.344 202.674 37.056 201.17 36.704C199.698 36.32 198.21 36 196.706 35.744C197.186 37.184 197.474 38.768 197.57 40.496C197.698 42.192 197.73 43.92 197.666 45.68C197.634 47.408 197.57 49.104 197.474 50.768C197.41 52.432 197.41 53.952 197.474 55.328C197.57 56.672 197.794 57.84 198.146 58.832C198.498 59.792 199.09 60.432 199.922 60.752C199.506 61.104 198.786 61.424 197.762 61.712C196.77 62 195.698 62.112 194.546 62.048C193.426 61.984 192.354 61.696 191.33 61.184C190.338 60.672 189.65 59.792 189.266 58.544C189.042 57.872 188.978 57.008 189.074 55.952C189.17 54.896 189.33 53.712 189.554 52.4C189.81 51.088 190.114 49.696 190.466 48.224C190.85 46.72 191.202 45.216 191.522 43.712C191.874 42.208 192.178 40.736 192.434 39.296C192.722 37.856 192.914 36.512 193.01 35.264C192.178 35.2 191.378 35.216 190.61 35.312C189.842 35.376 189.138 35.536 188.498 35.792ZM219.425 37.664C220.257 36.992 221.089 36.544 221.921 36.32C222.785 36.096 223.569 36.048 224.273 36.176C226.385 35.536 228.433 35.392 230.417 35.744C232.401 36.096 234.177 36.976 235.745 38.384C236.993 39.472 237.937 40.88 238.577 42.608C239.217 44.304 239.553 46.096 239.585 47.984C239.617 49.84 239.313 51.68 238.673 53.504C238.065 55.328 237.089 56.912 235.745 58.256C234.497 59.504 233.073 60.448 231.473 61.088C229.873 61.696 228.241 62 226.577 62C224.945 62 223.361 61.68 221.825 61.04C220.289 60.4 218.977 59.44 217.889 58.16C216.449 56.528 215.489 54.72 215.009 52.736C214.529 50.752 214.417 48.816 214.673 46.928C214.929 45.008 215.473 43.232 216.305 41.6C217.169 39.936 218.209 38.624 219.425 37.664ZM222.257 47.216C222.097 47.152 221.905 47.008 221.681 46.784C221.489 46.56 221.297 46.272 221.105 45.92C220.721 46.848 220.497 47.664 220.433 48.368C220.401 49.072 220.593 49.824 221.009 50.624C221.489 51.552 222.177 52.288 223.073 52.832C224.001 53.376 224.993 53.728 226.049 53.888C227.105 54.048 228.145 54.048 229.169 53.888C230.193 53.696 231.041 53.36 231.713 52.88C232.385 52.4 232.913 51.84 233.297 51.2C233.713 50.56 233.969 49.904 234.065 49.232C234.193 48.56 234.161 47.904 233.969 47.264C233.777 46.592 233.441 45.984 232.961 45.44C232.225 44.64 231.329 44.112 230.273 43.856C229.217 43.568 228.161 43.52 227.105 43.712C226.049 43.904 225.073 44.304 224.177 44.912C223.281 45.488 222.641 46.256 222.257 47.216ZM241.677 42.992C241.581 40.976 241.821 39.36 242.396 38.144C243.005 36.896 243.949 36.144 245.229 35.888C246.381 35.664 247.677 35.552 249.117 35.552C250.557 35.52 252.045 35.536 253.581 35.6C255.117 35.664 256.637 35.744 258.141 35.84C259.645 35.936 261.021 35.984 262.269 35.984C263.517 35.952 264.605 35.84 265.533 35.648C266.461 35.424 267.101 35.056 267.453 34.544C267.453 36.304 267.213 38.016 266.733 39.68C266.253 41.312 265.373 42.64 264.093 43.664C263.677 45.936 263.405 48.128 263.277 50.24C263.181 52.32 263.197 54.176 263.325 55.808C263.485 57.44 263.757 58.768 264.141 59.792C264.525 60.784 265.021 61.344 265.629 61.472C264.669 61.792 263.645 61.968 262.557 62C261.469 62.032 260.429 61.936 259.437 61.712C258.477 61.488 257.613 61.12 256.845 60.608C256.109 60.096 255.597 59.456 255.309 58.688C255.021 57.952 254.909 57.072 254.973 56.048C255.037 54.992 255.213 53.856 255.501 52.64C255.821 51.424 256.221 50.16 256.701 48.848C257.213 47.504 257.789 46.176 258.429 44.864C257.309 44.736 256.141 44.528 254.924 44.24C253.709 43.952 252.461 43.648 251.181 43.328C251.373 44.352 251.661 45.616 252.045 47.12C252.429 48.624 252.685 50.176 252.812 51.776C252.941 53.376 252.829 54.928 252.477 56.432C252.125 57.936 251.309 59.216 250.029 60.272C248.621 61.424 247.245 62.032 245.901 62.096C244.589 62.16 243.405 61.92 242.349 61.376C241.293 60.832 240.412 60.096 239.708 59.168C239.004 58.24 238.588 57.36 238.46 56.528C239.868 56.656 241.005 56.48 241.869 56C242.765 55.52 243.469 54.864 243.98 54.032C244.493 53.168 244.861 52.192 245.085 51.104C245.309 50.016 245.469 48.928 245.565 47.84C245.661 46.752 245.741 45.728 245.805 44.768C245.869 43.808 245.997 43.04 246.189 42.464C245.357 42.4 244.557 42.416 243.789 42.512C243.053 42.576 242.349 42.736 241.677 42.992ZM274.574 61.616C272.558 61.68 270.814 61.296 269.342 60.464C267.87 59.6 266.926 58.464 266.51 57.056C266.414 56.864 266.334 56.64 266.27 56.384C266.238 56.096 266.254 55.728 266.318 55.28C266.318 55.216 266.318 55.184 266.318 55.184C266.35 55.152 266.366 55.104 266.366 55.04C266.398 54.784 266.446 54.544 266.51 54.32C266.606 54.096 266.718 53.856 266.846 53.6C267.838 50.72 268.478 48.304 268.766 46.352C269.054 44.4 269.118 42.832 268.958 41.648C268.798 40.432 268.462 39.568 267.95 39.056C267.438 38.512 266.878 38.24 266.27 38.24C266.782 37.472 267.454 36.864 268.286 36.416C269.118 35.968 269.982 35.712 270.878 35.648C271.774 35.552 272.606 35.664 273.374 35.984C274.174 36.272 274.766 36.768 275.15 37.472C275.63 38.368 275.742 39.632 275.486 41.264C275.23 42.864 274.782 44.624 274.142 46.544C275.23 45.68 276.302 44.8 277.358 43.904C278.446 42.976 279.39 42.064 280.19 41.168C281.022 40.24 281.662 39.328 282.11 38.432C282.59 37.504 282.782 36.576 282.686 35.648C283.71 35.648 284.734 35.776 285.758 36.032C286.814 36.256 287.742 36.608 288.542 37.088C289.374 37.536 290.014 38.08 290.462 38.72C290.91 39.36 291.054 40.064 290.894 40.832C290.766 41.376 290.19 42.208 289.166 43.328C289.134 44.256 289.118 45.312 289.118 46.496C289.15 47.68 289.198 48.896 289.262 50.144C289.358 51.392 289.486 52.608 289.646 53.792C289.806 54.944 290.014 55.984 290.27 56.912C290.558 57.808 290.91 58.528 291.326 59.072C291.742 59.584 292.254 59.808 292.862 59.744C292.382 60.544 291.694 61.12 290.798 61.472C289.902 61.824 288.974 62 288.014 62C287.086 61.968 286.222 61.776 285.422 61.424C284.654 61.072 284.142 60.576 283.886 59.936C283.214 58.304 283.054 56.48 283.406 54.464C283.758 52.416 284.334 50.048 285.134 47.36C283.822 48.64 282.462 49.968 281.054 51.344C279.646 52.72 278.398 54.064 277.31 55.376C276.222 56.656 275.39 57.84 274.814 58.928C274.27 60.016 274.19 60.912 274.574 61.616ZM312.529 46.784C311.921 45.664 311.137 44.832 310.177 44.288C309.217 43.712 308.193 43.376 307.105 43.28C306.017 43.184 304.945 43.312 303.889 43.664C302.833 43.984 301.921 44.464 301.153 45.104C300.545 45.584 300.065 46.144 299.713 46.784C299.393 47.424 299.185 48.08 299.089 48.752C299.025 49.392 299.073 50.016 299.233 50.624C299.393 51.2 299.665 51.68 300.049 52.064C300.913 52.96 301.921 53.568 303.073 53.888C304.257 54.176 305.441 54.224 306.625 54.032C307.809 53.84 308.929 53.44 309.985 52.832C311.041 52.192 311.889 51.392 312.529 50.432C312.817 50.784 313.105 51.328 313.393 52.064C313.713 52.768 313.937 53.568 314.065 54.464C314.225 55.328 314.241 56.224 314.113 57.152C313.985 58.048 313.601 58.848 312.961 59.552C312.385 60.224 311.505 60.8 310.321 61.28C309.169 61.728 307.857 61.968 306.385 62C304.913 62.064 303.377 61.872 301.777 61.424C300.177 60.976 298.657 60.176 297.217 59.024C296.097 58.096 295.169 56.912 294.433 55.472C293.729 54.032 293.313 52.464 293.185 50.768C293.089 49.04 293.329 47.248 293.905 45.392C294.481 43.536 295.505 41.744 296.977 40.016C298.161 38.576 299.537 37.504 301.105 36.8C302.673 36.064 304.225 35.648 305.761 35.552C307.297 35.456 308.737 35.648 310.081 36.128C311.457 36.608 312.561 37.344 313.393 38.336C313.873 38.944 314.209 39.616 314.401 40.352C314.625 41.056 314.689 41.792 314.593 42.56C314.529 43.296 314.321 44.032 313.969 44.768C313.649 45.504 313.169 46.176 312.529 46.784Z" fill="url(#paint0_linear)"/>
<path d="M131.974 16.4C131.974 16.9856 131.883 17.5641 131.718 18.1316C131.584 18.5958 131.4 19.0526 131.176 19.5C130.949 19.9535 130.681 20.3972 130.382 20.8289C129.918 21.4989 129.378 22.1402 128.8 22.7443C125.812 25.8676 121.79 28 121.79 28C121.79 28 118.739 24.9723 117.067 21.0733C116.78 20.4042 116.533 19.7095 116.35 19C116.129 18.1483 116 17.2754 116 16.4C116.062 15.9173 116.162 15.4507 116.296 15C116.589 14.0157 117.042 13.1075 117.603 12.2738C118.4 11.0886 119.416 10.0541 120.5 9.16605C120.814 8.90892 121.133 8.66408 121.455 8.4314C121.706 8.25003 121.958 8.07606 122.209 7.90943C122.817 7.50677 123.422 7.14701 124 6.82949C124.815 6.38147 125.577 6.01751 126.216 5.73567C127.336 5.24174 128.08 5 128.08 5C128.08 5 128.758 5.61611 129.551 6.82949C129.822 7.24514 130.107 7.73088 130.382 8.28595C130.655 8.83495 130.918 9.45177 131.15 10.1357C131.345 10.71 131.518 11.3315 131.657 12C131.755 12.4763 131.836 12.9763 131.894 13.5C131.913 13.6643 131.929 13.831 131.943 14C131.982 14.4812 132.002 14.9812 132 15.5C131.999 15.794 131.99 16.094 131.974 16.4Z" fill="#1A936F"/>
<path d="M121.79 28L121.832 27.8272M121.79 28C121.79 28 118.739 24.9723 117.067 21.0733C116.78 20.4042 116.533 19.7095 116.35 19C116.129 18.1483 116 17.2754 116 16.4C116.062 15.9173 116.162 15.4507 116.296 15C116.589 14.0157 117.042 13.1075 117.603 12.2738C118.4 11.0886 119.416 10.0541 120.5 9.16605C120.814 8.90892 121.133 8.66408 121.455 8.4314C121.706 8.25003 121.958 8.07606 122.209 7.90943C122.817 7.50677 123.422 7.14701 124 6.82949C124.815 6.38147 125.577 6.01751 126.216 5.73567C127.336 5.24174 128.08 5 128.08 5C128.08 5 128.758 5.61611 129.551 6.82949C129.822 7.24514 130.107 7.73088 130.382 8.28595C130.655 8.83495 130.918 9.45177 131.15 10.1357C131.345 10.71 131.518 11.3315 131.657 12C131.755 12.4763 131.836 12.9763 131.894 13.5C131.913 13.6643 131.929 13.831 131.943 14C131.982 14.4812 132.002 14.9812 132 15.5C131.999 15.794 131.99 16.094 131.974 16.4C131.974 16.9856 131.883 17.5641 131.718 18.1316C131.584 18.5958 131.4 19.0526 131.176 19.5C130.949 19.9535 130.681 20.3972 130.382 20.8289C129.918 21.4989 129.378 22.1402 128.8 22.7443C125.812 25.8676 121.79 28 121.79 28Z" stroke="#114B5F" stroke-width="0.2"/>
<path fill-rule="evenodd" clip-rule="evenodd" d="M200.465 25.4139V21.9766H197.758V30.5703H200.465V25.4139Z" fill="url(#paint1_linear)"/>
<path fill-rule="evenodd" clip-rule="evenodd" d="M200.465 25.4139V21.9766H197.758V30.5703H200.465V25.4139Z" fill="url(#paint2_linear)"/>
<path fill-rule="evenodd" clip-rule="evenodd" d="M209.811 25.5869C209.238 25.8659 208.844 26.453 208.844 27.1326C208.844 27.8122 209.238 28.3995 209.811 28.6785C210.383 28.3995 210.777 27.8122 210.777 27.1326C210.777 26.453 210.383 25.8659 209.811 25.5869V25.5869Z" fill="#1A936F"/>
<path d="M197.887 24.125H197.897C198.134 24.125 198.326 23.9325 198.326 23.6953C198.326 23.458 198.134 23.2656 197.897 23.2656H197.887C197.649 23.2656 197.457 23.458 197.457 23.6953C197.457 23.9326 197.649 24.125 197.887 24.125Z" fill="black"/>
<path d="M193.6 30.1406H193.59C193.353 30.1406 193.16 30.333 193.16 30.5703C193.16 30.8076 193.353 31 193.59 31H193.6C193.837 31 194.03 30.8076 194.03 30.5703C194.03 30.333 193.837 30.1406 193.6 30.1406Z" fill="black"/>
<path d="M212.496 30.1406H212.486C212.249 30.1406 212.056 30.333 212.056 30.5703C212.056 30.8076 212.249 31 212.486 31H212.496C212.733 31 212.926 30.8076 212.926 30.5703C212.926 30.333 212.733 30.1406 212.496 30.1406Z" fill="black"/>
<path fill-rule="evenodd" clip-rule="evenodd" d="M211.251 30.1406H209.488V29.2379C210.468 29.0384 211.207 28.1703 211.207 27.1326C211.207 25.948 210.243 24.984 209.059 24.984C207.874 24.984 206.91 25.948 206.91 27.1326C206.91 28.1701 207.649 29.0382 208.629 29.2379V30.1406H205.191H200.895V21.9766L200.035 21.5469H195.309C195.071 21.5469 194.879 21.7392 194.879 21.9766V30.1406H194.834C194.597 30.1406 194.405 30.333 194.405 30.5703C194.405 30.8076 194.597 31 194.834 31H211.251C211.489 31 211.681 30.8076 211.681 30.5703C211.681 30.333 211.489 30.1406 211.251 30.1406ZM209.059 25.8434C208.348 25.8434 207.77 26.4218 207.77 27.1326C207.77 27.6927 208.129 28.1704 208.629 28.3479V27.992C208.629 27.7549 208.821 27.5623 209.058 27.5623C209.296 27.5623 209.488 27.7549 209.488 27.992V28.3479C209.988 28.1704 210.348 27.6929 210.348 27.1326C210.348 26.4218 209.769 25.8434 209.059 25.8434ZM200.035 22.4062H195.738V30.1406H200.035V29.2811H197.887C197.649 29.2811 197.457 29.0887 197.457 28.8514C197.457 28.6142 197.649 28.4217 197.887 28.4217H200.035V27.5625H197.887C197.649 27.5625 197.457 27.37 197.457 27.1328C197.457 26.8955 197.649 26.7031 197.887 26.7031H200.035V25.8436H197.887C197.649 25.8436 197.457 25.6512 197.457 25.4139C197.457 25.1767 197.649 24.9842 197.887 24.9842H200.035V24.125H199.131C198.894 24.125 198.702 23.9325 198.702 23.6953C198.702 23.458 198.894 23.2656 199.131 23.2656H200.035V22.4062Z" fill="black"/>
<path fill-rule="evenodd" clip-rule="evenodd" d="M257.535 33.4139V29.9766H260.242V38.5703H257.535V33.4139Z" fill="url(#paint3_linear)"/>
<path fill-rule="evenodd" clip-rule="evenodd" d="M257.535 33.4139V29.9766H260.242V38.5703H257.535V33.4139Z" fill="url(#paint4_linear)"/>
<path fill-rule="evenodd" clip-rule="evenodd" d="M248.189 33.5869C248.762 33.8659 249.156 34.453 249.156 35.1326C249.156 35.8122 248.762 36.3995 248.189 36.6785C247.617 36.3995 247.223 35.8122 247.223 35.1326C247.223 34.453 247.617 33.8659 248.189 33.5869V33.5869Z" fill="#1A936F"/>
<path d="M260.113 32.125H260.103C259.866 32.125 259.674 31.9325 259.674 31.6953C259.674 31.458 259.866 31.2656 260.103 31.2656H260.113C260.351 31.2656 260.543 31.458 260.543 31.6953C260.543 31.9326 260.351 32.125 260.113 32.125Z" fill="black"/>
<path d="M264.4 38.1406H264.41C264.647 38.1406 264.84 38.333 264.84 38.5703C264.84 38.8076 264.647 39 264.41 39H264.4C264.163 39 263.97 38.8076 263.97 38.5703C263.97 38.333 264.163 38.1406 264.4 38.1406Z" fill="black"/>
<path d="M245.504 38.1406H245.514C245.751 38.1406 245.944 38.333 245.944 38.5703C245.944 38.8076 245.751 39 245.514 39H245.504C245.267 39 245.074 38.8076 245.074 38.5703C245.074 38.333 245.267 38.1406 245.504 38.1406Z" fill="black"/>
<path fill-rule="evenodd" clip-rule="evenodd" d="M246.749 38.1406H248.512V37.2379C247.532 37.0384 246.793 36.1703 246.793 35.1326C246.793 33.948 247.757 32.984 248.941 32.984C250.126 32.984 251.09 33.948 251.09 35.1326C251.09 36.1701 250.351 37.0382 249.371 37.2379V38.1406H252.809H257.105V29.9766L257.965 29.5469H262.691C262.929 29.5469 263.121 29.7392 263.121 29.9766V38.1406H263.166C263.403 38.1406 263.595 38.333 263.595 38.5703C263.595 38.8076 263.403 39 263.166 39H246.749C246.511 39 246.319 38.8076 246.319 38.5703C246.319 38.333 246.511 38.1406 246.749 38.1406ZM248.941 33.8434C249.652 33.8434 250.23 34.4218 250.23 35.1326C250.23 35.6927 249.871 36.1704 249.371 36.3479V35.992C249.371 35.7549 249.179 35.5623 248.942 35.5623C248.704 35.5623 248.512 35.7549 248.512 35.992V36.3479C248.012 36.1704 247.652 35.6929 247.652 35.1326C247.652 34.4218 248.231 33.8434 248.941 33.8434ZM257.965 30.4062H262.262V38.1406H257.965V37.2811H260.113C260.351 37.2811 260.543 37.0887 260.543 36.8514C260.543 36.6142 260.351 36.4217 260.113 36.4217H257.965V35.5625H260.113C260.351 35.5625 260.543 35.37 260.543 35.1328C260.543 34.8955 260.351 34.7031 260.113 34.7031H257.965V33.8436H260.113C260.351 33.8436 260.543 33.6512 260.543 33.4139C260.543 33.1767 260.351 32.9842 260.113 32.9842H257.965V32.125H258.869C259.106 32.125 259.298 31.9325 259.298 31.6953C259.298 31.458 259.106 31.2656 258.869 31.2656H257.965V30.4062Z" fill="black"/>
<path d="M59.7972 1.45148C59.9166 1.22139 59.9091 0.980761 59.7805 0.914023C59.6519 0.847286 59.4509 0.979709 59.3315 1.2098L50.4668 18.291C50.3474 18.5211 50.3548 18.7618 50.4834 18.8285C50.612 18.8952 50.8131 18.7628 50.9325 18.5327L59.7972 1.45148Z" fill="black"/>
<path d="M52.7952 19.4994C53.034 19.0392 53.0192 18.558 52.762 18.4245L49.5022 16.7328C49.245 16.5993 48.8429 16.8641 48.604 17.3243L48.1716 18.1576C47.9328 18.6177 47.9477 19.099 48.2049 19.2325L51.4647 20.9242C51.7219 21.0577 52.124 20.7928 52.3628 20.3327L52.7952 19.4994Z" fill="black"/>
<path d="M52.4218 20.2873C52.5124 20.0744 52.4932 19.8715 52.3777 19.8116C52.2376 19.7388 52.0147 19.9041 51.9026 20.1618C50.3374 23.7608 49.1064 26.0915 46.7573 30.059C46.6157 30.2981 46.6122 30.5688 46.7505 30.6406C46.8686 30.7019 47.0505 30.595 47.1731 30.3922C49.6237 26.3386 50.8419 24.0015 52.4218 20.2873Z" fill="black"/>
<path d="M50.8619 19.2652C50.9112 19.1551 50.9035 19.0465 50.8435 19.0153C50.7749 18.9798 50.666 19.0578 50.608 19.1828C48.6873 23.3168 47.4526 25.6548 45.2216 29.5594C45.1535 29.6786 45.1529 29.8115 45.2211 29.8469C45.2815 29.8783 45.3754 29.8211 45.437 29.7165C47.755 25.7801 48.9951 23.4363 50.8619 19.2652Z" fill="black"/>
<path d="M51.5633 19.6253C51.6111 19.5162 51.6029 19.4095 51.5436 19.3787C51.4745 19.3428 51.3646 19.4223 51.307 19.5487C49.4566 23.6087 48.2221 25.9553 45.9229 29.9205C45.8536 30.04 45.8523 30.1745 45.9209 30.2101C45.9808 30.2412 46.0737 30.1853 46.1353 30.0821C48.5112 26.105 49.751 23.7568 51.5633 19.6253Z" fill="black"/>
<path d="M49.4697 18.5371C49.5166 18.428 49.5078 18.3222 49.4486 18.2914C49.3791 18.2554 49.2687 18.3352 49.2106 18.4622C47.3297 22.5761 46.1146 24.9272 43.8297 28.831C43.7593 28.9513 43.7576 29.0874 43.8269 29.1233C43.8861 29.1541 43.9779 29.1 44.0399 28.9986C46.4452 25.0658 47.6733 22.7155 49.4697 18.5371Z" fill="black"/>
<path d="M50.1637 18.9019C50.2128 18.7923 50.2052 18.6841 50.1454 18.6531C50.0768 18.6175 49.9677 18.6961 49.9102 18.8215C48.0189 22.9425 46.7861 25.2671 44.5243 29.1966C44.4557 29.3157 44.4547 29.4491 44.523 29.4846C44.5832 29.5158 44.6768 29.4591 44.7382 29.3549C47.0605 25.4208 48.2948 23.0729 50.1637 18.9019Z" fill="black"/>
<path d="M48.6821 18.3645C48.7797 18.1478 48.7636 17.9359 48.6453 17.8745C48.5078 17.8032 48.2898 17.9619 48.1771 18.2139C46.4281 22.125 45.2247 24.4469 43.0321 28.1281C42.8908 28.3654 42.8865 28.6353 43.024 28.7067C43.1422 28.768 43.3245 28.6595 43.4456 28.4551C45.6789 24.6877 46.8853 22.3566 48.6821 18.3645Z" fill="black"/>
<path d="M44.6751 24.9707C42.8728 25.4265 41.5391 27.0588 41.5391 29.0028C41.5391 30.9467 42.8728 32.5791 44.6751 33.035C46.4774 32.5791 47.8113 30.9468 47.8113 29.0028C47.8113 27.0588 46.4774 25.4265 44.6751 24.9707Z" fill="#FFC943"/>
<path d="M46.1644 29.0028C46.1644 27.8149 45.3397 26.8203 44.2316 26.5585C43.1237 26.8203 42.299 27.8149 42.299 29.0028C42.299 30.1907 43.1237 31.1854 44.2316 31.447C45.3397 31.1854 46.1644 30.1907 46.1644 29.0028V29.0028Z" fill="#D8902A"/>
<path d="M48.8383 32.1818C47.0359 32.6376 45.7021 34.2699 45.7021 36.2139C45.7021 38.1579 47.0359 39.7902 48.8383 40.246C50.6406 39.7902 51.9744 38.1579 51.9744 36.2139C51.9744 34.2699 50.6406 32.6376 48.8383 32.1818V32.1818Z" fill="#FFC943"/>
<path d="M50.3275 36.214C50.3275 35.026 49.5027 34.0314 48.3948 33.7698C47.2867 34.0314 46.462 35.026 46.462 36.214C46.462 37.402 47.2867 38.3965 48.3948 38.6582C49.5027 38.3965 50.3275 37.402 50.3275 36.214V36.214Z" fill="#D8902A"/>
<path d="M48.9762 36.2139C48.9762 36.8551 48.4564 37.3748 47.8153 37.3748C47.1742 37.3748 46.6544 36.8551 46.6544 36.2139C46.6544 35.5728 47.1742 35.053 47.8153 35.053C48.4564 35.053 48.9762 35.5728 48.9762 36.2139V36.2139Z" fill="#FFC943"/>
<path d="M44.813 29.0029C44.813 29.644 44.2933 30.1636 43.6523 30.1636C43.0111 30.1636 42.4914 29.644 42.4914 29.0029C42.4914 28.3617 43.0111 27.842 43.6523 27.842C44.2933 27.842 44.813 28.3617 44.813 29.0029Z" fill="#FFC943"/>
<path d="M40.5161 32.1819C38.7138 32.6377 37.38 34.27 37.38 36.214C37.38 38.158 38.7138 39.7903 40.5161 40.2461C42.3184 39.7903 43.6523 38.158 43.6523 36.214C43.6523 34.27 42.3184 32.6377 40.5161 32.1819V32.1819Z" fill="#FFC943"/>
<path d="M46.4619 36.2139C46.4619 35.0259 47.2867 34.0313 48.3947 33.7697C48.2086 33.7257 48.0149 33.7017 47.8153 33.7017C46.4279 33.7017 45.303 34.8265 45.303 36.2139C45.303 37.6013 46.4279 38.7261 47.8153 38.7261C48.0149 38.7261 48.2086 38.7021 48.3947 38.6581C47.2867 38.3965 46.4619 37.4019 46.4619 36.2139V36.2139Z" fill="white"/>
<path d="M42.299 29.0028C42.299 27.8149 43.1237 26.8203 44.2316 26.5585C44.0457 26.5146 43.8518 26.4906 43.6523 26.4906C42.2648 26.4906 41.1401 27.6153 41.1401 29.0028C41.1401 30.3903 42.2648 31.5149 43.6523 31.5149C43.8518 31.5149 44.0457 31.491 44.2316 31.4471C43.1237 31.1854 42.299 30.1907 42.299 29.0028Z" fill="white"/>
<path d="M38.1399 36.2139C38.1399 35.0259 38.9647 34.0313 40.0726 33.7697C39.8866 33.7257 39.6927 33.7017 39.4933 33.7017C38.1057 33.7017 36.981 34.8265 36.981 36.2139C36.981 37.6013 38.1057 38.7261 39.4933 38.7261C39.6927 38.7261 39.8866 38.7021 40.0726 38.6581C38.9647 38.3965 38.1399 37.4019 38.1399 36.2139V36.2139Z" fill="white"/>
<path d="M42.0053 36.214C42.0053 35.026 41.1806 34.0314 40.0725 33.7698C38.9646 34.0314 38.1399 35.026 38.1399 36.214C38.1399 37.402 38.9646 38.3965 40.0725 38.6582C41.1806 38.3965 42.0053 37.402 42.0053 36.214V36.214Z" fill="#D8902A"/>
<path d="M40.654 36.2139C40.654 36.8551 40.1342 37.3748 39.4932 37.3748C38.8521 37.3748 38.3323 36.8551 38.3323 36.2139C38.3323 35.5728 38.8521 35.053 39.4932 35.053C40.1342 35.053 40.654 35.5728 40.654 36.2139V36.2139Z" fill="#FFC943"/>
<path d="M43.6562 25.1859H43.6605C43.8472 25.1859 43.9986 25.0345 43.9986 24.8477C43.9986 24.661 43.8472 24.5096 43.6605 24.5096H43.6562C43.4695 24.5096 43.3181 24.661 43.3181 24.8477C43.3181 25.0345 43.4695 25.1859 43.6562 25.1859Z" fill="black"/>
<path d="M44.6353 39.394C44.7013 39.4599 44.7879 39.4929 44.8745 39.4929C44.961 39.4929 45.0475 39.4599 45.1135 39.394C45.2456 39.2619 45.2456 39.0478 45.1135 38.9157L45.1105 38.9127C44.9785 38.7807 44.7644 38.7807 44.6323 38.9127C44.5003 39.0447 44.5003 39.2589 44.6323 39.3909L44.6353 39.394Z" fill="black"/>
<path d="M42.1961 38.9186C42.064 39.0507 42.064 39.2648 42.1961 39.3969C42.2621 39.4629 42.3486 39.4959 42.4351 39.4959C42.5216 39.4959 42.6082 39.4629 42.6742 39.3969L42.6772 39.394C42.8092 39.2619 42.8092 39.0478 42.6772 38.9157C42.5452 38.7836 42.3311 38.7836 42.199 38.9157L42.1961 38.9186Z" fill="black"/>
<path d="M47.8153 39.0589C48.5441 39.0589 49.273 38.7814 49.8279 38.2265C50.569 37.4855 50.8425 36.401 50.542 35.3961C50.4886 35.2171 50.3001 35.1155 50.1212 35.169C49.9423 35.2225 49.8407 35.411 49.8942 35.5898C50.1233 36.3562 49.9148 37.1833 49.3497 37.7484C48.5036 38.5944 47.1269 38.5944 46.2809 37.7484C45.4348 36.9022 45.4348 35.5255 46.2809 34.6795C46.8718 34.0886 47.7302 33.89 48.5214 34.1613C48.698 34.222 48.8903 34.1279 48.951 33.9512C49.0116 33.7746 48.9174 33.5823 48.7408 33.5217C47.7034 33.1658 46.5777 33.4263 45.8026 34.2012C44.6928 35.311 44.6928 37.1167 45.8026 38.2265C46.3576 38.7814 47.0865 39.0589 47.8153 39.0589Z" fill="black"/>
<path d="M49.3508 34.6806C49.4167 34.746 49.5028 34.7786 49.5888 34.7786C49.6758 34.7786 49.7629 34.7452 49.8291 34.6785C49.9605 34.5458 49.9594 34.3317 49.8268 34.2002L49.8223 34.1957C49.6904 34.0637 49.4763 34.0637 49.3442 34.1957C49.2121 34.3278 49.2121 34.5419 49.3442 34.674L49.3508 34.6806Z" fill="black"/>
<path d="M47.8153 34.7288C46.9986 34.7288 46.3342 35.3932 46.3342 36.21C46.3342 37.0266 46.9986 37.691 47.8153 37.691C48.632 37.691 49.2964 37.0265 49.2964 36.21C49.2964 35.3933 48.632 34.7288 47.8153 34.7288ZM47.8153 37.0148C47.3715 37.0148 47.0105 36.6536 47.0105 36.21C47.0105 35.7662 47.3715 35.405 47.8153 35.405C48.2591 35.405 48.6201 35.7662 48.6201 36.21C48.6201 36.6536 48.2591 37.0148 47.8153 37.0148Z" fill="black"/>
<path d="M44.7572 31.5993C44.807 31.5993 44.8577 31.5882 44.9055 31.5649C45.8906 31.083 46.5025 30.1028 46.5025 29.0068C46.5025 27.4374 45.2257 26.1605 43.6563 26.1605C42.0868 26.1605 40.81 27.4374 40.81 29.0068C40.81 30.0547 41.3833 31.0153 42.3065 31.5132C42.4708 31.602 42.6759 31.5405 42.7647 31.3762C42.8533 31.2118 42.7919 31.0068 42.6276 30.918C41.9236 30.5382 41.4862 29.8059 41.4862 29.0068C41.4862 27.8102 42.4597 26.8368 43.6563 26.8368C44.8528 26.8368 45.8263 27.8102 45.8263 29.0068C45.8263 29.8425 45.3596 30.5899 44.6083 30.9574C44.4406 31.0396 44.3711 31.242 44.4531 31.4098C44.5119 31.5297 44.6321 31.5993 44.7572 31.5993Z" fill="black"/>
<path d="M43.6562 31.1768C43.4695 31.1768 43.3181 31.3281 43.3181 31.5149C43.3181 31.7017 43.4695 31.853 43.6562 31.853H43.664C43.8508 31.853 44.0022 31.7017 44.0022 31.5149C44.0022 31.3281 43.8508 31.1768 43.664 31.1768H43.6562Z" fill="black"/>
<path d="M45.1402 29.0097C45.1402 28.614 44.9861 28.2421 44.7065 27.9624C44.4267 27.6826 44.0547 27.5285 43.6592 27.5285C43.2636 27.5285 42.8916 27.6826 42.6119 27.9624C42.0344 28.5399 42.0344 29.4794 42.6119 30.0569C42.9006 30.3457 43.2798 30.4901 43.6592 30.4901C44.0384 30.49 44.4177 30.3456 44.7065 30.0569C44.9861 29.7772 45.1402 29.4053 45.1402 29.0097ZM44.2282 29.5787C43.9145 29.8925 43.4038 29.8925 43.09 29.5787C42.7762 29.265 42.7762 28.7544 43.09 28.4405C43.242 28.2885 43.4441 28.2049 43.6592 28.2049C43.8741 28.2049 44.0761 28.2886 44.2282 28.4405C44.3802 28.5926 44.4639 28.7947 44.4639 29.0097C44.4639 29.2246 44.3802 29.4267 44.2282 29.5787Z" fill="black"/>
<path d="M41.5098 38.2265C42.6195 37.1167 42.6195 35.3111 41.5098 34.2014C40.7688 33.4602 39.6842 33.1866 38.6793 33.4872C38.5004 33.5407 38.3988 33.7292 38.4523 33.908C38.5058 34.087 38.6943 34.1887 38.8731 34.1351C39.6395 33.9059 40.4666 34.1145 41.0316 34.6795C41.8776 35.5256 41.8776 36.9024 41.0316 37.7484C40.6086 38.1716 40.0529 38.383 39.4972 38.383C38.9415 38.3829 38.3857 38.1714 37.9628 37.7485C37.3718 37.1574 37.1733 36.299 37.4446 35.5079C37.5052 35.3312 37.4112 35.1389 37.2346 35.0783C37.058 35.0178 36.8656 35.1118 36.8049 35.2884C36.4491 36.3257 36.7096 37.4516 37.4845 38.2266C38.0394 38.7815 38.7684 39.0589 39.4972 39.0589C40.226 39.0589 40.9549 38.7814 41.5098 38.2265Z" fill="black"/>
<path d="M37.7182 34.7841C37.8047 34.7841 37.8912 34.7511 37.9572 34.6851L37.9628 34.6795C38.0949 34.5474 38.0949 34.3333 37.9628 34.2012C37.8307 34.0693 37.6166 34.0693 37.4845 34.2012L37.4789 34.2068C37.347 34.3389 37.347 34.553 37.4789 34.6851C37.545 34.7511 37.6316 34.7841 37.7182 34.7841Z" fill="black"/>
<path d="M39.4932 37.695C40.3098 37.695 40.9743 37.0306 40.9743 36.2139C40.9743 35.3973 40.3098 34.7329 39.4932 34.7329C38.6766 34.7329 38.012 35.3973 38.012 36.2139C38.012 37.0306 38.6766 37.695 39.4932 37.695ZM39.4932 35.4091C39.9369 35.4091 40.298 35.7701 40.298 36.2139C40.298 36.6577 39.9369 37.0187 39.4932 37.0187C39.0494 37.0187 38.6883 36.6577 38.6883 36.2139C38.6883 35.7701 39.0494 35.4091 39.4932 35.4091Z" fill="black"/>
<path d="M51.9744 40.0348H50.1881C50.476 39.8557 50.7473 39.6419 50.9954 39.394C51.8446 38.5445 52.3125 37.4151 52.3125 36.2139C52.3125 35.0128 51.8448 33.8833 50.9954 33.0339C50.1459 32.1846 49.0166 31.7167 47.8153 31.7167C47.6118 31.7167 47.4105 31.7305 47.2121 31.7569C47.8018 30.9961 48.1534 30.0418 48.1534 29.0068C48.1534 26.9534 46.7662 25.1622 44.7799 24.6512C44.5991 24.6047 44.4147 24.7135 44.3682 24.8943C44.3217 25.0753 44.4305 25.2596 44.6113 25.3061C46.2987 25.7403 47.4772 27.2621 47.4772 29.0068C47.4772 31.1136 45.7631 32.8277 43.6562 32.8277C41.5494 32.8277 39.8353 31.1136 39.8353 29.0068C39.8353 27.2621 41.0138 25.7403 42.7011 25.3062C42.882 25.2596 42.9908 25.0753 42.9443 24.8945C42.8978 24.7137 42.7134 24.6048 42.5326 24.6512C40.5463 25.1622 39.1591 26.9534 39.1591 29.0068C39.1591 30.0418 39.5107 30.9961 40.1005 31.7569C39.9022 31.7305 39.7007 31.7167 39.4972 31.7167C38.296 31.7167 37.1666 32.1844 36.3171 33.0339C35.4678 33.8833 35 35.0126 35 36.2139C35 37.4152 35.4678 38.5445 36.3171 39.394C36.5652 39.6419 36.8365 39.8557 37.1244 40.0348H35.3381C35.1514 40.0348 35 40.1862 35 40.373C35 40.5597 35.1514 40.7111 35.3381 40.7111H51.9744C52.1611 40.7111 52.3125 40.5597 52.3125 40.373C52.3125 40.1862 52.1611 40.0348 51.9744 40.0348ZM44.2566 33.4638C44.0077 33.7853 43.8072 34.1344 43.6562 34.5005C43.5053 34.1344 43.3048 33.7853 43.0559 33.4638C43.2523 33.4901 43.4527 33.504 43.6562 33.504C43.8598 33.504 44.0602 33.4901 44.2566 33.4638ZM36.7954 38.9157C35.3056 37.4259 35.3056 35.0019 36.7954 33.5122C38.2852 32.0222 40.7092 32.0222 42.199 33.5122C42.9121 34.2251 43.2933 35.1639 43.3176 36.1188C43.3163 36.185 43.3163 36.251 43.3177 36.3172C43.3011 36.9494 43.1278 37.5822 42.7892 38.1552C42.6943 38.316 42.7476 38.5234 42.9085 38.6184C43.0693 38.7133 43.2766 38.66 43.3716 38.4991C43.4811 38.3138 43.5758 38.1229 43.6562 37.9284C43.7367 38.1229 43.8314 38.3138 43.9409 38.4991C44.0359 38.66 44.2432 38.7132 44.404 38.6184C44.5647 38.5234 44.6181 38.316 44.5231 38.1552C44.1846 37.5822 44.0114 36.9492 43.9946 36.3172C43.9961 36.251 43.9962 36.185 43.9948 36.1188C44.0192 35.1639 44.4004 34.2251 45.1135 33.5122C46.6033 32.0222 49.0273 32.0222 50.5171 33.5122C52.0068 35.0019 52.0068 37.4259 50.5171 38.9157C49.7993 39.6334 48.8528 40.015 47.8912 40.0348H47.7337C47.0944 40.0215 46.4535 39.8485 45.8739 39.506C45.7132 39.411 45.5058 39.4644 45.4108 39.6253C45.3309 39.7604 45.3563 39.9283 45.4618 40.0348H41.8507C41.9562 39.9283 41.9816 39.7604 41.9016 39.6253C41.8067 39.4644 41.5993 39.411 41.4386 39.506C40.8594 39.8482 40.2192 40.0214 39.5804 40.0348H39.4202C38.459 40.0148 37.5129 39.6332 36.7954 38.9157Z" fill="black"/>
<defs>
<linearGradient id="paint0_linear" x1="158.5" y1="26" x2="158.5" y2="74" gradientUnits="userSpaceOnUse">
<stop offset="0.169792" stop-color="#FFB600"/>
<stop offset="0.684492" stop-color="#88D498"/>
</linearGradient>
<linearGradient id="paint1_linear" x1="199.111" y1="21.9766" x2="199.111" y2="30.5703" gradientUnits="userSpaceOnUse">
<stop offset="0.169792" stop-color="#FFB600"/>
<stop offset="0.684492" stop-color="#88D498"/>
</linearGradient>
<linearGradient id="paint2_linear" x1="199.111" y1="21.9766" x2="199.111" y2="30.5703" gradientUnits="userSpaceOnUse">
<stop stop-color="white"/>
<stop offset="1" stop-color="white" stop-opacity="0"/>
</linearGradient>
<linearGradient id="paint3_linear" x1="258.889" y1="29.9766" x2="258.889" y2="38.5703" gradientUnits="userSpaceOnUse">
<stop offset="0.169792" stop-color="#FFB600"/>
<stop offset="0.684492" stop-color="#88D498"/>
</linearGradient>
<linearGradient id="paint4_linear" x1="258.889" y1="29.9766" x2="258.889" y2="38.5703" gradientUnits="userSpaceOnUse">
<stop stop-color="white"/>
<stop offset="1" stop-color="white" stop-opacity="0"/>
</linearGradient>
</defs>
</svg>
