<svg width="335" height="92" viewBox="0 0 335 92" fill="none" xmlns="http://www.w3.org/2000/svg">
<g filter="url(#filter0_d)">
<path d="M10.7052 53.904C11.1533 54.32 11.9533 54.72 13.1053 55.104C14.2573 55.488 15.5853 55.824 17.0893 56.112C18.0173 53.968 18.9933 51.792 20.0173 49.584C21.0733 47.344 22.0973 45.168 23.0893 43.056C22.7373 42.512 22.3693 42.08 21.9853 41.76C21.6013 41.408 21.2173 41.2 20.8333 41.136C22.3693 39.696 23.8733 38.816 25.3453 38.496C26.8493 38.176 28.0653 38.192 28.9933 38.544C29.6013 38.768 30.1933 39.344 30.7693 40.272C31.3453 41.2 31.9213 42.368 32.4973 43.776C33.0733 45.184 33.6493 46.752 34.2253 48.48C34.8013 50.208 35.3773 51.968 35.9532 53.76C36.5293 55.52 37.1053 57.264 37.6813 58.992C38.2573 60.688 38.8333 62.208 39.4093 63.552C40.0173 64.896 40.6253 66 41.2333 66.864C41.8413 67.728 42.4493 68.208 43.0573 68.304C42.3853 69.136 41.5853 69.872 40.6573 70.512C39.7613 71.152 38.8493 71.616 37.9213 71.904C36.9933 72.192 36.1133 72.288 35.2812 72.192C34.4493 72.096 33.7773 71.728 33.2653 71.088C32.5933 70.256 31.9213 68.896 31.2493 67.008C30.5773 65.088 29.9053 62.944 29.2333 60.576C27.7613 61.152 26.1933 61.664 24.5293 62.112C22.8653 62.56 21.2493 62.896 19.6813 63.12C19.2333 64.944 18.9773 66.528 18.9133 67.872C18.8493 69.216 19.0093 70.384 19.3933 71.376C19.0093 71.536 18.4973 71.68 17.8573 71.808C17.2173 71.936 16.5613 72 15.8893 72C15.2493 71.968 14.6413 71.824 14.0653 71.568C13.5213 71.28 13.1213 70.816 12.8652 70.176C12.6413 69.632 12.6573 68.752 12.9133 67.536C13.2013 66.288 13.6493 64.8 14.2573 63.072C13.3613 62.88 12.6733 62.56 12.1933 62.112C11.5533 61.536 11.0892 60.896 10.8012 60.192C10.5132 59.456 10.3372 58.72 10.2732 57.984C10.2092 57.216 10.2252 56.48 10.3212 55.776C10.4172 55.072 10.5452 54.448 10.7052 53.904ZM28.2253 57.024C27.7453 55.392 27.2653 53.792 26.7853 52.224C26.3053 50.624 25.8093 49.136 25.2973 47.76C23.8893 51.056 22.6733 54.064 21.6493 56.784C22.8653 56.944 24.0333 57.04 25.1533 57.072C26.3053 57.104 27.3293 57.088 28.2253 57.024ZM44.0518 46.416C44.4678 46.896 45.1078 47.184 45.9718 47.28C46.8358 47.344 47.8278 47.312 48.9478 47.184C50.0678 47.024 51.2678 46.832 52.5478 46.608C53.8278 46.352 55.0758 46.144 56.2918 45.984C57.5398 45.792 58.6918 45.696 59.7478 45.696C60.8358 45.664 61.7478 45.824 62.4838 46.176C63.2198 46.528 63.7158 47.136 63.9718 48C64.2278 48.832 64.3078 49.776 64.2118 50.832C64.1158 51.856 63.8438 52.88 63.3958 53.904C62.9798 54.928 62.4678 55.776 61.8598 56.448C61.4758 55.616 60.8838 55.008 60.0838 54.624C59.3158 54.24 58.4038 54 57.3478 53.904C56.2918 53.776 55.1398 53.76 53.8918 53.856C52.6438 53.92 51.3798 54 50.0998 54.096C50.4838 55.408 50.7078 56.704 50.7718 57.984C50.8678 59.232 50.8838 60.416 50.8198 61.536C50.7878 62.656 50.7238 63.712 50.6278 64.704C50.5638 65.664 50.5638 66.544 50.6278 67.344C50.7238 68.144 50.9478 68.832 51.2998 69.408C51.6518 69.984 52.2438 70.432 53.0758 70.752C52.6598 71.104 51.9398 71.424 50.9158 71.712C49.9238 72 48.8518 72.112 47.6998 72.048C46.5798 71.984 45.5078 71.696 44.4838 71.184C43.4918 70.672 42.8038 69.792 42.4198 68.544C42.1318 67.648 42.0998 66.64 42.3238 65.52C42.5478 64.4 42.8678 63.216 43.2838 61.968C43.7318 60.688 44.1958 59.392 44.6758 58.08C45.1878 56.736 45.5878 55.424 45.8758 54.144C45.0758 53.952 44.4358 53.6 43.9558 53.088C43.4758 52.544 43.1558 51.904 42.9958 51.168C42.8358 50.432 42.8358 49.648 42.9958 48.816C43.1878 47.984 43.5398 47.184 44.0518 46.416ZM71.6165 64.224C71.4245 65.472 71.3125 66.72 71.2805 67.968C71.2805 69.216 71.4245 70.384 71.7125 71.472C72.0005 72.56 72.4485 73.504 73.0565 74.304C73.6965 75.104 74.5765 75.68 75.6965 76.032C75.0565 77.28 74.2565 78.304 73.2965 79.104C72.3685 79.904 71.3925 80.464 70.3685 80.784C69.3445 81.136 68.3525 81.216 67.3925 81.024C66.4325 80.864 65.6165 80.432 64.9445 79.728C64.1125 78.832 63.6325 77.632 63.5045 76.128C63.3765 74.656 63.4085 73.008 63.6005 71.184C63.8245 69.328 64.1125 67.376 64.4645 65.328C64.8485 63.28 65.1365 61.248 65.3285 59.232C65.4565 57.952 65.5685 56.784 65.6645 55.728C65.7605 54.672 65.7605 53.728 65.6645 52.896C65.6005 52.064 65.4085 51.376 65.0885 50.832C64.7685 50.256 64.2405 49.824 63.5045 49.536C64.0165 48.576 64.6885 47.792 65.5205 47.184C66.3845 46.544 67.2485 46.096 68.1125 45.84C69.0085 45.584 69.8405 45.52 70.6085 45.648C71.4085 45.744 72.0165 46.048 72.4325 46.56C72.7525 46.976 72.9605 47.376 73.0565 47.76C73.1525 48.112 73.1685 48.496 73.1045 48.912C73.0405 49.296 72.9125 49.712 72.7205 50.16C72.5605 50.608 72.3845 51.104 72.1925 51.648C72.9605 49.984 73.9525 48.688 75.1685 47.76C76.3845 46.8 77.6645 46.176 79.0085 45.888C80.3525 45.6 81.6805 45.616 82.9925 45.936C84.3365 46.256 85.4885 46.832 86.4485 47.664C87.5365 48.624 88.4005 49.872 89.0405 51.408C89.6805 52.944 90.0805 54.592 90.2405 56.352C90.4005 58.08 90.3205 59.84 90.0005 61.632C89.6805 63.424 89.1045 65.056 88.2725 66.528C87.4725 68 86.4165 69.232 85.1045 70.224C83.7925 71.216 82.2245 71.792 80.4005 71.952C79.0565 72.08 77.8565 71.968 76.8005 71.616C75.7765 71.232 74.9125 70.688 74.2085 69.984C73.5045 69.28 72.9765 68.448 72.6245 67.488C72.2725 66.528 72.1125 65.504 72.1445 64.416L71.6165 64.224ZM83.8085 55.344C83.1365 54.576 82.2405 54.064 81.1205 53.808C80.0005 53.552 78.8485 53.632 77.6645 54.048C76.4805 54.464 75.3605 55.232 74.3045 56.352C73.2805 57.472 72.5125 59.008 72.0005 60.96C72.5125 61.664 73.1525 62.224 73.9205 62.64C74.7205 63.024 75.5525 63.312 76.4165 63.504C77.2805 63.664 78.1445 63.712 79.0085 63.648C79.8725 63.552 80.6565 63.376 81.3605 63.12C82.2565 62.8 82.9765 62.32 83.5205 61.68C84.0965 61.04 84.4805 60.352 84.6725 59.616C84.8965 58.88 84.9285 58.128 84.7685 57.36C84.6405 56.592 84.3205 55.92 83.8085 55.344ZM96.8158 47.664C97.6478 46.992 98.4798 46.544 99.3118 46.32C100.176 46.096 100.96 46.048 101.664 46.176C103.776 45.536 105.824 45.392 107.808 45.744C109.792 46.096 111.568 46.976 113.136 48.384C114.384 49.472 115.328 50.88 115.968 52.608C116.608 54.304 116.944 56.096 116.976 57.984C117.008 59.84 116.704 61.68 116.064 63.504C115.456 65.328 114.48 66.912 113.136 68.256C111.888 69.504 110.464 70.448 108.864 71.088C107.264 71.696 105.632 72 103.968 72C102.336 72 100.752 71.68 99.2158 71.04C97.6798 70.4 96.3678 69.44 95.2798 68.16C93.8398 66.528 92.8798 64.72 92.3998 62.736C91.9198 60.752 91.8078 58.816 92.0638 56.928C92.3198 55.008 92.8638 53.232 93.6958 51.6C94.5598 49.936 95.5998 48.624 96.8158 47.664ZM99.6478 57.216C99.4878 57.152 99.2958 57.008 99.0718 56.784C98.8798 56.56 98.6878 56.272 98.4958 55.92C98.1118 56.848 97.8878 57.664 97.8238 58.368C97.7918 59.072 97.9838 59.824 98.3997 60.624C98.8798 61.552 99.5678 62.288 100.464 62.832C101.392 63.376 102.384 63.728 103.44 63.888C104.496 64.048 105.536 64.048 106.56 63.888C107.584 63.696 108.432 63.36 109.104 62.88C109.776 62.4 110.304 61.84 110.688 61.2C111.104 60.56 111.36 59.904 111.456 59.232C111.584 58.56 111.552 57.904 111.36 57.264C111.168 56.592 110.832 55.984 110.352 55.44C109.616 54.64 108.72 54.112 107.664 53.856C106.608 53.568 105.552 53.52 104.496 53.712C103.44 53.904 102.464 54.304 101.568 54.912C100.672 55.488 100.032 56.256 99.6478 57.216ZM121.323 50.976C120.811 50.592 120.411 50.016 120.123 49.248C119.835 48.448 119.691 47.6 119.691 46.704C119.723 45.776 119.899 44.864 120.219 43.968C120.571 43.04 121.099 42.256 121.803 41.616C122.731 40.784 123.931 40.144 125.403 39.696C126.907 39.248 128.459 39.04 130.059 39.072C131.691 39.072 133.275 39.328 134.811 39.84C136.379 40.352 137.723 41.136 138.843 42.192C140.667 43.984 141.979 45.952 142.779 48.096C143.579 50.208 143.979 52.336 143.979 54.48C143.979 56.592 143.627 58.624 142.923 60.576C142.251 62.528 141.339 64.224 140.187 65.664C138.779 67.424 137.131 68.832 135.243 69.888C133.387 70.944 131.515 71.648 129.627 72C127.771 72.352 125.995 72.384 124.299 72.096C122.635 71.808 121.291 71.2 120.267 70.272C119.403 69.504 118.811 68.608 118.491 67.584C118.203 66.56 118.155 65.536 118.347 64.512C118.539 63.456 118.955 62.448 119.595 61.488C120.235 60.528 121.067 59.728 122.091 59.088C122.379 60.496 123.035 61.6 124.059 62.4C125.115 63.2 126.331 63.696 127.707 63.888C129.083 64.08 130.555 63.952 132.123 63.504C133.691 63.056 135.147 62.304 136.491 61.248C137.035 60.832 137.483 60.384 137.835 59.904C138.187 59.424 138.491 58.912 138.747 58.368C137.851 58.368 136.683 58.352 135.243 58.32C133.835 58.288 132.379 58.272 130.875 58.272C129.371 58.272 127.931 58.336 126.555 58.464C125.211 58.56 124.171 58.752 123.435 59.04C123.339 58.176 123.355 57.312 123.483 56.448C123.611 55.584 123.851 54.8 124.203 54.096C124.555 53.36 125.019 52.736 125.595 52.224C126.171 51.712 126.843 51.376 127.611 51.216C128.187 51.088 128.891 51.072 129.723 51.168C130.587 51.264 131.499 51.392 132.459 51.552C133.419 51.712 134.411 51.904 135.435 52.128C136.491 52.32 137.515 52.464 138.507 52.56C137.931 51.344 137.147 50.32 136.155 49.488C135.195 48.72 134.043 48.112 132.699 47.664C131.355 47.216 129.963 47.024 128.523 47.088C127.115 47.12 125.755 47.44 124.443 48.048C123.163 48.656 122.123 49.632 121.323 50.976ZM145.313 48.672C145.601 48.192 146.065 47.744 146.705 47.328C147.345 46.88 148.065 46.512 148.865 46.224C149.697 45.936 150.561 45.728 151.457 45.6C152.353 45.472 153.201 45.456 154.001 45.552C154.801 45.648 155.505 45.872 156.113 46.224C156.721 46.544 157.153 47.024 157.409 47.664C157.729 48.464 157.857 49.296 157.793 50.16C157.761 50.992 157.617 51.84 157.361 52.704C157.105 53.536 156.753 54.384 156.305 55.248C155.889 56.112 155.457 56.976 155.009 57.84C156.161 56.88 157.249 55.856 158.273 54.768C159.329 53.68 160.209 52.608 160.913 51.552C161.649 50.464 162.161 49.424 162.449 48.432C162.769 47.408 162.785 46.496 162.497 45.696C163.745 45.504 164.929 45.504 166.049 45.696C167.201 45.856 168.177 46.192 168.977 46.704C169.809 47.216 170.433 47.856 170.849 48.624C171.265 49.392 171.361 50.256 171.137 51.216C170.945 52.144 170.433 53.008 169.601 53.808C168.769 54.608 167.777 55.344 166.625 56.016C165.505 56.688 164.289 57.296 162.977 57.84C161.697 58.352 160.481 58.8 159.329 59.184C160.673 60.528 161.937 61.584 163.121 62.352C164.337 63.12 165.457 63.632 166.481 63.888C167.505 64.144 168.449 64.176 169.313 63.984C170.177 63.76 170.945 63.344 171.617 62.736C171.713 63.728 171.633 64.736 171.377 65.76C171.121 66.784 170.705 67.728 170.129 68.592C169.585 69.456 168.897 70.208 168.065 70.848C167.265 71.456 166.353 71.84 165.329 72C164.497 72.16 163.537 72.144 162.449 71.952C161.393 71.728 160.289 71.28 159.137 70.608C157.985 69.904 156.833 68.928 155.681 67.68C154.561 66.432 153.505 64.848 152.513 62.928C152.097 64.08 151.969 65.168 152.129 66.192C152.289 67.216 152.977 68.128 154.193 68.928C153.617 69.824 152.881 70.544 151.985 71.088C151.121 71.6 150.241 71.904 149.345 72C148.449 72.096 147.601 71.968 146.801 71.616C146.033 71.264 145.457 70.656 145.073 69.792C144.625 68.8 144.449 67.648 144.545 66.336C144.641 64.992 144.849 63.6 145.169 62.16C145.521 60.688 145.889 59.232 146.273 57.792C146.657 56.32 146.929 54.976 147.089 53.76C147.281 52.512 147.265 51.44 147.041 50.544C146.817 49.648 146.241 49.024 145.313 48.672ZM177.206 47.664C178.038 46.992 178.87 46.544 179.702 46.32C180.566 46.096 181.35 46.048 182.054 46.176C184.166 45.536 186.214 45.392 188.198 45.744C190.182 46.096 191.958 46.976 193.526 48.384C194.774 49.472 195.718 50.88 196.358 52.608C196.998 54.304 197.334 56.096 197.366 57.984C197.398 59.84 197.094 61.68 196.454 63.504C195.846 65.328 194.87 66.912 193.526 68.256C192.278 69.504 190.854 70.448 189.254 71.088C187.654 71.696 186.022 72 184.358 72C182.726 72 181.142 71.68 179.606 71.04C178.07 70.4 176.758 69.44 175.67 68.16C174.23 66.528 173.27 64.72 172.79 62.736C172.31 60.752 172.198 58.816 172.454 56.928C172.71 55.008 173.254 53.232 174.086 51.6C174.95 49.936 175.99 48.624 177.206 47.664ZM180.038 57.216C179.878 57.152 179.686 57.008 179.462 56.784C179.27 56.56 179.078 56.272 178.886 55.92C178.502 56.848 178.278 57.664 178.214 58.368C178.182 59.072 178.374 59.824 178.79 60.624C179.27 61.552 179.958 62.288 180.854 62.832C181.782 63.376 182.774 63.728 183.83 63.888C184.886 64.048 185.926 64.048 186.95 63.888C187.974 63.696 188.822 63.36 189.494 62.88C190.166 62.4 190.694 61.84 191.078 61.2C191.494 60.56 191.75 59.904 191.846 59.232C191.974 58.56 191.942 57.904 191.75 57.264C191.558 56.592 191.222 55.984 190.742 55.44C190.006 54.64 189.11 54.112 188.054 53.856C186.998 53.568 185.942 53.52 184.886 53.712C183.83 53.904 182.854 54.304 181.958 54.912C181.062 55.488 180.422 56.256 180.038 57.216ZM198.498 45.792C198.402 43.776 198.642 42.16 199.218 40.944C199.826 39.696 200.77 38.944 202.05 38.688C203.202 38.464 204.53 38.352 206.034 38.352C207.57 38.32 209.154 38.336 210.786 38.4C212.418 38.464 214.034 38.544 215.634 38.64C217.266 38.736 218.77 38.784 220.146 38.784C221.522 38.752 222.706 38.64 223.698 38.448C224.69 38.224 225.362 37.856 225.714 37.344C225.714 38.336 225.634 39.328 225.474 40.32C225.346 41.312 225.09 42.24 224.706 43.104C224.354 43.968 223.89 44.768 223.314 45.504C222.738 46.208 222.018 46.768 221.154 47.184L220.77 47.376C220.514 48.976 220.306 50.672 220.146 52.464C220.018 54.256 219.922 56.032 219.858 57.792C219.826 59.552 219.842 61.248 219.906 62.88C219.97 64.48 220.082 65.904 220.242 67.152C220.434 68.4 220.674 69.424 220.962 70.224C221.25 70.992 221.586 71.408 221.97 71.472C221.01 71.792 219.986 71.968 218.898 72C217.81 72.032 216.77 71.936 215.778 71.712C214.818 71.488 213.954 71.12 213.186 70.608C212.45 70.096 211.938 69.456 211.65 68.688C211.362 67.92 211.266 66.704 211.362 65.04C211.49 63.376 211.746 61.536 212.13 59.52C212.514 57.472 212.994 55.392 213.57 53.28C214.146 51.136 214.77 49.232 215.442 47.568C214.098 47.344 212.674 47.056 211.17 46.704C209.698 46.32 208.21 46 206.706 45.744C207.186 47.184 207.474 48.768 207.57 50.496C207.698 52.192 207.73 53.92 207.666 55.68C207.634 57.408 207.57 59.104 207.474 60.768C207.41 62.432 207.41 63.952 207.474 65.328C207.57 66.672 207.794 67.84 208.146 68.832C208.498 69.792 209.09 70.432 209.922 70.752C209.506 71.104 208.786 71.424 207.762 71.712C206.77 72 205.698 72.112 204.546 72.048C203.426 71.984 202.354 71.696 201.33 71.184C200.338 70.672 199.65 69.792 199.266 68.544C199.042 67.872 198.978 67.008 199.074 65.952C199.17 64.896 199.33 63.712 199.554 62.4C199.81 61.088 200.114 59.696 200.466 58.224C200.85 56.72 201.202 55.216 201.522 53.712C201.874 52.208 202.178 50.736 202.434 49.296C202.722 47.856 202.914 46.512 203.01 45.264C202.178 45.2 201.378 45.216 200.61 45.312C199.842 45.376 199.138 45.536 198.498 45.792ZM229.425 47.664C230.257 46.992 231.089 46.544 231.921 46.32C232.785 46.096 233.569 46.048 234.273 46.176C236.385 45.536 238.433 45.392 240.417 45.744C242.401 46.096 244.177 46.976 245.745 48.384C246.993 49.472 247.937 50.88 248.577 52.608C249.217 54.304 249.553 56.096 249.585 57.984C249.617 59.84 249.313 61.68 248.673 63.504C248.065 65.328 247.089 66.912 245.745 68.256C244.497 69.504 243.073 70.448 241.473 71.088C239.873 71.696 238.241 72 236.577 72C234.945 72 233.361 71.68 231.825 71.04C230.289 70.4 228.977 69.44 227.889 68.16C226.449 66.528 225.489 64.72 225.009 62.736C224.529 60.752 224.417 58.816 224.673 56.928C224.929 55.008 225.473 53.232 226.305 51.6C227.169 49.936 228.209 48.624 229.425 47.664ZM232.257 57.216C232.097 57.152 231.905 57.008 231.681 56.784C231.489 56.56 231.297 56.272 231.105 55.92C230.721 56.848 230.497 57.664 230.433 58.368C230.401 59.072 230.593 59.824 231.009 60.624C231.489 61.552 232.177 62.288 233.073 62.832C234.001 63.376 234.993 63.728 236.049 63.888C237.105 64.048 238.145 64.048 239.169 63.888C240.193 63.696 241.041 63.36 241.713 62.88C242.385 62.4 242.913 61.84 243.297 61.2C243.713 60.56 243.969 59.904 244.065 59.232C244.193 58.56 244.161 57.904 243.969 57.264C243.777 56.592 243.441 55.984 242.961 55.44C242.225 54.64 241.329 54.112 240.273 53.856C239.217 53.568 238.161 53.52 237.105 53.712C236.049 53.904 235.073 54.304 234.177 54.912C233.281 55.488 232.641 56.256 232.257 57.216ZM251.677 52.992C251.581 50.976 251.821 49.36 252.396 48.144C253.005 46.896 253.949 46.144 255.229 45.888C256.381 45.664 257.677 45.552 259.117 45.552C260.557 45.52 262.045 45.536 263.581 45.6C265.117 45.664 266.637 45.744 268.141 45.84C269.645 45.936 271.021 45.984 272.269 45.984C273.517 45.952 274.605 45.84 275.533 45.648C276.461 45.424 277.101 45.056 277.453 44.544C277.453 46.304 277.213 48.016 276.733 49.68C276.253 51.312 275.373 52.64 274.093 53.664C273.677 55.936 273.405 58.128 273.277 60.24C273.181 62.32 273.197 64.176 273.325 65.808C273.485 67.44 273.757 68.768 274.141 69.792C274.525 70.784 275.021 71.344 275.629 71.472C274.669 71.792 273.645 71.968 272.557 72C271.469 72.032 270.429 71.936 269.437 71.712C268.477 71.488 267.613 71.12 266.845 70.608C266.109 70.096 265.597 69.456 265.309 68.688C265.021 67.952 264.909 67.072 264.973 66.048C265.037 64.992 265.213 63.856 265.501 62.64C265.821 61.424 266.221 60.16 266.701 58.848C267.213 57.504 267.789 56.176 268.429 54.864C267.309 54.736 266.141 54.528 264.924 54.24C263.709 53.952 262.461 53.648 261.181 53.328C261.373 54.352 261.661 55.616 262.045 57.12C262.429 58.624 262.685 60.176 262.812 61.776C262.941 63.376 262.829 64.928 262.477 66.432C262.125 67.936 261.309 69.216 260.029 70.272C258.621 71.424 257.245 72.032 255.901 72.096C254.589 72.16 253.405 71.92 252.349 71.376C251.293 70.832 250.412 70.096 249.708 69.168C249.004 68.24 248.588 67.36 248.46 66.528C249.868 66.656 251.005 66.48 251.869 66C252.765 65.52 253.469 64.864 253.98 64.032C254.493 63.168 254.861 62.192 255.085 61.104C255.309 60.016 255.469 58.928 255.565 57.84C255.661 56.752 255.741 55.728 255.805 54.768C255.869 53.808 255.997 53.04 256.189 52.464C255.357 52.4 254.557 52.416 253.789 52.512C253.053 52.576 252.349 52.736 251.677 52.992ZM284.574 71.616C282.558 71.68 280.814 71.296 279.342 70.464C277.87 69.6 276.926 68.464 276.51 67.056C276.414 66.864 276.334 66.64 276.27 66.384C276.238 66.096 276.254 65.728 276.318 65.28C276.318 65.216 276.318 65.184 276.318 65.184C276.35 65.152 276.366 65.104 276.366 65.04C276.398 64.784 276.446 64.544 276.51 64.32C276.606 64.096 276.718 63.856 276.846 63.6C277.838 60.72 278.478 58.304 278.766 56.352C279.054 54.4 279.118 52.832 278.958 51.648C278.798 50.432 278.462 49.568 277.95 49.056C277.438 48.512 276.878 48.24 276.27 48.24C276.782 47.472 277.454 46.864 278.286 46.416C279.118 45.968 279.982 45.712 280.878 45.648C281.774 45.552 282.606 45.664 283.374 45.984C284.174 46.272 284.766 46.768 285.15 47.472C285.63 48.368 285.742 49.632 285.486 51.264C285.23 52.864 284.782 54.624 284.142 56.544C285.23 55.68 286.302 54.8 287.358 53.904C288.446 52.976 289.39 52.064 290.19 51.168C291.022 50.24 291.662 49.328 292.11 48.432C292.59 47.504 292.782 46.576 292.686 45.648C293.71 45.648 294.734 45.776 295.758 46.032C296.814 46.256 297.742 46.608 298.542 47.088C299.374 47.536 300.014 48.08 300.462 48.72C300.91 49.36 301.054 50.064 300.894 50.832C300.766 51.376 300.19 52.208 299.166 53.328C299.134 54.256 299.118 55.312 299.118 56.496C299.15 57.68 299.198 58.896 299.262 60.144C299.358 61.392 299.486 62.608 299.646 63.792C299.806 64.944 300.014 65.984 300.27 66.912C300.558 67.808 300.91 68.528 301.326 69.072C301.742 69.584 302.254 69.808 302.862 69.744C302.382 70.544 301.694 71.12 300.798 71.472C299.902 71.824 298.974 72 298.014 72C297.086 71.968 296.222 71.776 295.422 71.424C294.654 71.072 294.142 70.576 293.886 69.936C293.214 68.304 293.054 66.48 293.406 64.464C293.758 62.416 294.334 60.048 295.134 57.36C293.822 58.64 292.462 59.968 291.054 61.344C289.646 62.72 288.398 64.064 287.31 65.376C286.222 66.656 285.39 67.84 284.814 68.928C284.27 70.016 284.19 70.912 284.574 71.616ZM322.529 56.784C321.921 55.664 321.137 54.832 320.177 54.288C319.217 53.712 318.193 53.376 317.105 53.28C316.017 53.184 314.945 53.312 313.889 53.664C312.833 53.984 311.921 54.464 311.153 55.104C310.545 55.584 310.065 56.144 309.713 56.784C309.393 57.424 309.185 58.08 309.089 58.752C309.025 59.392 309.073 60.016 309.233 60.624C309.393 61.2 309.665 61.68 310.049 62.064C310.913 62.96 311.921 63.568 313.073 63.888C314.257 64.176 315.441 64.224 316.625 64.032C317.809 63.84 318.929 63.44 319.985 62.832C321.041 62.192 321.889 61.392 322.529 60.432C322.817 60.784 323.105 61.328 323.393 62.064C323.713 62.768 323.937 63.568 324.065 64.464C324.225 65.328 324.241 66.224 324.113 67.152C323.985 68.048 323.601 68.848 322.961 69.552C322.385 70.224 321.505 70.8 320.321 71.28C319.169 71.728 317.857 71.968 316.385 72C314.913 72.064 313.377 71.872 311.777 71.424C310.177 70.976 308.657 70.176 307.217 69.024C306.097 68.096 305.169 66.912 304.433 65.472C303.729 64.032 303.313 62.464 303.185 60.768C303.089 59.04 303.329 57.248 303.905 55.392C304.481 53.536 305.505 51.744 306.977 50.016C308.161 48.576 309.537 47.504 311.105 46.8C312.673 46.064 314.225 45.648 315.761 45.552C317.297 45.456 318.737 45.648 320.081 46.128C321.457 46.608 322.561 47.344 323.393 48.336C323.873 48.944 324.209 49.616 324.401 50.352C324.625 51.056 324.689 51.792 324.593 52.56C324.529 53.296 324.321 54.032 323.969 54.768C323.649 55.504 323.169 56.176 322.529 56.784Z" fill="url(#paint0_linear)"/>
<path d="M141.974 26.4C141.974 26.9856 141.883 27.5641 141.718 28.1316C141.584 28.5958 141.4 29.0526 141.176 29.5C140.949 29.9535 140.681 30.3972 140.382 30.8289C139.918 31.4989 139.378 32.1402 138.8 32.7443C135.812 35.8676 131.79 38 131.79 38C131.79 38 128.739 34.9723 127.067 31.0733C126.78 30.4042 126.533 29.7095 126.35 29C126.129 28.1483 126 27.2754 126 26.4C126.062 25.9173 126.162 25.4507 126.296 25C126.589 24.0157 127.042 23.1075 127.603 22.2738C128.4 21.0886 129.416 20.0541 130.5 19.1661C130.814 18.9089 131.133 18.6641 131.455 18.4314C131.706 18.25 131.958 18.0761 132.209 17.9094C132.817 17.5068 133.422 17.147 134 16.8295C134.815 16.3815 135.577 16.0175 136.216 15.7357C137.336 15.2417 138.08 15 138.08 15C138.08 15 138.758 15.6161 139.551 16.8295C139.822 17.2451 140.107 17.7309 140.382 18.286C140.655 18.835 140.918 19.4518 141.15 20.1357C141.345 20.71 141.518 21.3315 141.657 22C141.755 22.4763 141.836 22.9763 141.894 23.5C141.913 23.6643 141.929 23.831 141.943 24C141.982 24.4812 142.002 24.9812 142 25.5C141.999 25.794 141.99 26.094 141.974 26.4Z" fill="#1A936F"/>
<path d="M131.79 38C133.095 27.7878 134.383 22.6563 138.08 15M131.79 38C131.79 38 128.739 34.9723 127.067 31.0733C126.78 30.4042 126.533 29.7095 126.35 29C126.129 28.1483 126 27.2754 126 26.4C126.062 25.9173 126.162 25.4507 126.296 25C126.589 24.0157 127.042 23.1075 127.603 22.2738C128.4 21.0886 129.416 20.0541 130.5 19.1661C130.814 18.9089 131.133 18.6641 131.455 18.4314C131.706 18.25 131.958 18.0761 132.209 17.9094C132.817 17.5068 133.422 17.147 134 16.8295C134.815 16.3815 135.577 16.0175 136.216 15.7357C137.336 15.2417 138.08 15 138.08 15M131.79 38C131.79 38 135.812 35.8676 138.8 32.7443C139.378 32.1402 139.918 31.4989 140.382 30.8289C140.681 30.3972 140.949 29.9535 141.176 29.5C141.4 29.0526 141.584 28.5958 141.718 28.1316C141.883 27.5641 141.974 26.9856 141.974 26.4C141.99 26.094 141.999 25.794 142 25.5C142.002 24.9812 141.982 24.4812 141.943 24C141.929 23.831 141.913 23.6643 141.894 23.5C141.836 22.9763 141.755 22.4763 141.657 22C141.518 21.3315 141.345 20.71 141.15 20.1357C140.918 19.4518 140.655 18.835 140.382 18.286C140.107 17.7309 139.822 17.2451 139.551 16.8295C138.758 15.6161 138.08 15 138.08 15" stroke="#114B5F" stroke-width="0.2"/>
<path fill-rule="evenodd" clip-rule="evenodd" d="M210.465 35.4139V31.9766H207.758V40.5703H210.465V35.4139Z" fill="url(#paint1_linear)"/>
<path fill-rule="evenodd" clip-rule="evenodd" d="M210.465 35.4139V31.9766H207.758V40.5703H210.465V35.4139Z" fill="url(#paint2_linear)"/>
<path fill-rule="evenodd" clip-rule="evenodd" d="M219.811 35.5869C219.238 35.8659 218.844 36.453 218.844 37.1326C218.844 37.8122 219.238 38.3995 219.811 38.6785C220.383 38.3995 220.777 37.8122 220.777 37.1326C220.777 36.453 220.383 35.8659 219.811 35.5869Z" fill="#1A936F"/>
<path d="M207.887 34.125H207.897C208.134 34.125 208.326 33.9325 208.326 33.6953C208.326 33.458 208.134 33.2656 207.897 33.2656H207.887C207.649 33.2656 207.457 33.458 207.457 33.6953C207.457 33.9326 207.649 34.125 207.887 34.125Z" fill="black"/>
<path d="M203.6 40.1406H203.59C203.353 40.1406 203.16 40.333 203.16 40.5703C203.16 40.8076 203.353 41 203.59 41H203.6C203.837 41 204.03 40.8076 204.03 40.5703C204.03 40.333 203.837 40.1406 203.6 40.1406Z" fill="black"/>
<path d="M222.496 40.1406H222.486C222.249 40.1406 222.056 40.333 222.056 40.5703C222.056 40.8076 222.249 41 222.486 41H222.496C222.733 41 222.926 40.8076 222.926 40.5703C222.926 40.333 222.733 40.1406 222.496 40.1406Z" fill="black"/>
<path fill-rule="evenodd" clip-rule="evenodd" d="M221.251 40.1406H219.488V39.2379C220.468 39.0384 221.207 38.1703 221.207 37.1326C221.207 35.948 220.243 34.984 219.059 34.984C217.874 34.984 216.91 35.948 216.91 37.1326C216.91 38.1701 217.649 39.0382 218.629 39.2379V40.1406H215.191H210.895V31.9766L210.035 31.5469H205.309C205.071 31.5469 204.879 31.7392 204.879 31.9766V40.1406H204.834C204.597 40.1406 204.405 40.333 204.405 40.5703C204.405 40.8076 204.597 41 204.834 41H221.251C221.489 41 221.681 40.8076 221.681 40.5703C221.681 40.333 221.489 40.1406 221.251 40.1406ZM219.059 35.8434C218.348 35.8434 217.77 36.4218 217.77 37.1326C217.77 37.6927 218.129 38.1704 218.629 38.3479V37.992C218.629 37.7549 218.821 37.5623 219.058 37.5623C219.296 37.5623 219.488 37.7549 219.488 37.992V38.3479C219.988 38.1704 220.348 37.6929 220.348 37.1326C220.348 36.4218 219.769 35.8434 219.059 35.8434ZM210.035 32.4062H205.738V40.1406H210.035V39.2811H207.887C207.649 39.2811 207.457 39.0887 207.457 38.8514C207.457 38.6142 207.649 38.4217 207.887 38.4217H210.035V37.5625H207.887C207.649 37.5625 207.457 37.37 207.457 37.1328C207.457 36.8955 207.649 36.7031 207.887 36.7031H210.035V35.8436H207.887C207.649 35.8436 207.457 35.6512 207.457 35.4139C207.457 35.1767 207.649 34.9842 207.887 34.9842H210.035V34.125H209.131C208.894 34.125 208.702 33.9325 208.702 33.6953C208.702 33.458 208.894 33.2656 209.131 33.2656H210.035V32.4062Z" fill="black"/>
<path fill-rule="evenodd" clip-rule="evenodd" d="M267.535 43.4139V39.9766H270.242V48.5703H267.535V43.4139Z" fill="url(#paint3_linear)"/>
<path fill-rule="evenodd" clip-rule="evenodd" d="M267.535 43.4139V39.9766H270.242V48.5703H267.535V43.4139Z" fill="url(#paint4_linear)"/>
<path fill-rule="evenodd" clip-rule="evenodd" d="M258.189 43.5869C258.762 43.8659 259.156 44.453 259.156 45.1326C259.156 45.8122 258.762 46.3995 258.189 46.6785C257.617 46.3995 257.223 45.8122 257.223 45.1326C257.223 44.453 257.617 43.8659 258.189 43.5869Z" fill="#1A936F"/>
<path d="M270.113 42.125H270.103C269.866 42.125 269.674 41.9325 269.674 41.6953C269.674 41.458 269.866 41.2656 270.103 41.2656H270.113C270.351 41.2656 270.543 41.458 270.543 41.6953C270.543 41.9326 270.351 42.125 270.113 42.125Z" fill="black"/>
<path d="M274.4 48.1406H274.41C274.647 48.1406 274.84 48.333 274.84 48.5703C274.84 48.8076 274.647 49 274.41 49H274.4C274.163 49 273.97 48.8076 273.97 48.5703C273.97 48.333 274.163 48.1406 274.4 48.1406Z" fill="black"/>
<path d="M255.504 48.1406H255.514C255.751 48.1406 255.944 48.333 255.944 48.5703C255.944 48.8076 255.751 49 255.514 49H255.504C255.267 49 255.074 48.8076 255.074 48.5703C255.074 48.333 255.267 48.1406 255.504 48.1406Z" fill="black"/>
<path fill-rule="evenodd" clip-rule="evenodd" d="M256.749 48.1406H258.512V47.2379C257.532 47.0384 256.793 46.1703 256.793 45.1326C256.793 43.948 257.757 42.984 258.941 42.984C260.126 42.984 261.09 43.948 261.09 45.1326C261.09 46.1701 260.351 47.0382 259.371 47.2379V48.1406H262.809H267.105V39.9766L267.965 39.5469H272.691C272.929 39.5469 273.121 39.7392 273.121 39.9766V48.1406H273.166C273.403 48.1406 273.595 48.333 273.595 48.5703C273.595 48.8076 273.403 49 273.166 49H256.749C256.511 49 256.319 48.8076 256.319 48.5703C256.319 48.333 256.511 48.1406 256.749 48.1406ZM258.941 43.8434C259.652 43.8434 260.23 44.4218 260.23 45.1326C260.23 45.6927 259.871 46.1704 259.371 46.3479V45.992C259.371 45.7549 259.179 45.5623 258.942 45.5623C258.704 45.5623 258.512 45.7549 258.512 45.992V46.3479C258.012 46.1704 257.652 45.6929 257.652 45.1326C257.652 44.4218 258.231 43.8434 258.941 43.8434ZM267.965 40.4062H272.262V48.1406H267.965V47.2811H270.113C270.351 47.2811 270.543 47.0887 270.543 46.8514C270.543 46.6142 270.351 46.4217 270.113 46.4217H267.965V45.5625H270.113C270.351 45.5625 270.543 45.37 270.543 45.1328C270.543 44.8955 270.351 44.7031 270.113 44.7031H267.965V43.8436H270.113C270.351 43.8436 270.543 43.6512 270.543 43.4139C270.543 43.1767 270.351 42.9842 270.113 42.9842H267.965V42.125H268.869C269.106 42.125 269.298 41.9325 269.298 41.6953C269.298 41.458 269.106 41.2656 268.869 41.2656H267.965V40.4062Z" fill="black"/>
<path d="M69.7972 11.4515C69.9166 11.2214 69.9091 10.9808 69.7805 10.914C69.6519 10.8473 69.4509 10.9797 69.3315 11.2098L60.4668 28.291C60.3474 28.5211 60.3548 28.7618 60.4834 28.8285C60.612 28.8952 60.8131 28.7628 60.9325 28.5327L69.7972 11.4515Z" fill="black"/>
<path d="M62.7952 29.4994C63.034 29.0392 63.0191 28.558 62.7619 28.4245L59.5021 26.7328C59.2449 26.5993 58.8428 26.8641 58.604 27.3243L58.1716 28.1576C57.9328 28.6177 57.9477 29.099 58.2049 29.2325L61.4647 30.9242C61.7219 31.0577 62.124 30.7928 62.3628 30.3327L62.7952 29.4994Z" fill="black"/>
<path d="M62.4218 30.2873C62.5124 30.0744 62.4932 29.8715 62.3777 29.8116C62.2376 29.7388 62.0147 29.9041 61.9026 30.1618C60.3373 33.7608 59.1063 36.0915 56.7573 40.059C56.6157 40.2981 56.6122 40.5688 56.7505 40.6406C56.8686 40.7019 57.0505 40.595 57.1731 40.3922C59.6237 36.3386 60.8419 34.0015 62.4218 30.2873Z" fill="black"/>
<path d="M60.8619 29.2652C60.9112 29.1551 60.9035 29.0465 60.8435 29.0153C60.7749 28.9798 60.666 29.0578 60.6079 29.1828C58.6873 33.3168 57.4526 35.6548 55.2216 39.5594C55.1535 39.6786 55.1528 39.8115 55.2211 39.8469C55.2815 39.8782 55.3754 39.8211 55.437 39.7165C57.755 35.7801 58.9951 33.4363 60.8619 29.2652Z" fill="black"/>
<path d="M61.5633 29.6253C61.6111 29.5162 61.6029 29.4095 61.5435 29.3787C61.4745 29.3428 61.3646 29.4223 61.307 29.5487C59.4565 33.6087 58.222 35.9553 55.9229 39.9205C55.8536 40.04 55.8522 40.1745 55.9209 40.2101C55.9808 40.2412 56.0737 40.1853 56.1353 40.0821C58.5112 36.105 59.751 33.7568 61.5633 29.6253Z" fill="black"/>
<path d="M59.4697 28.5371C59.5165 28.428 59.5078 28.3222 59.4486 28.2914C59.3791 28.2554 59.2686 28.3352 59.2106 28.4622C57.3297 32.5761 56.1146 34.9272 53.8297 38.831C53.7593 38.9513 53.7575 39.0874 53.8269 39.1233C53.8861 39.1541 53.9779 39.1 54.0398 38.9986C56.4452 35.0658 57.6733 32.7155 59.4697 28.5371Z" fill="black"/>
<path d="M60.1637 28.9019C60.2128 28.7923 60.2052 28.6841 60.1454 28.6531C60.0768 28.6175 59.9677 28.6961 59.9102 28.8215C58.0189 32.9425 56.7861 35.2671 54.5242 39.1966C54.4557 39.3157 54.4546 39.4491 54.523 39.4846C54.5832 39.5158 54.6767 39.4591 54.7382 39.3549C57.0605 35.4208 58.2948 33.0729 60.1637 28.9019Z" fill="black"/>
<path d="M58.6821 28.3645C58.7796 28.1478 58.7636 27.9359 58.6453 27.8745C58.5078 27.8032 58.2898 27.9619 58.1771 28.2139C56.4281 32.125 55.2246 34.4469 53.0321 38.1281C52.8908 38.3654 52.8864 38.6353 53.024 38.7067C53.1422 38.768 53.3245 38.6595 53.4456 38.4551C55.6789 34.6877 56.8853 32.3566 58.6821 28.3645Z" fill="black"/>
<path d="M54.6751 34.9707C52.8728 35.4265 51.5391 37.0588 51.5391 39.0028C51.5391 40.9467 52.8728 42.5791 54.6751 43.035C56.4774 42.5791 57.8113 40.9468 57.8113 39.0028C57.8113 37.0588 56.4774 35.4265 54.6751 34.9707Z" fill="#FFC943"/>
<path d="M56.1644 39.0028C56.1644 37.8149 55.3397 36.8203 54.2316 36.5585C53.1237 36.8203 52.299 37.8149 52.299 39.0028C52.299 40.1907 53.1237 41.1854 54.2316 41.447C55.3397 41.1854 56.1644 40.1907 56.1644 39.0028Z" fill="#D8902A"/>
<path d="M58.8383 42.1818C57.0359 42.6376 55.7021 44.2699 55.7021 46.2139C55.7021 48.1579 57.0359 49.7902 58.8383 50.246C60.6406 49.7902 61.9744 48.1579 61.9744 46.2139C61.9744 44.2699 60.6406 42.6376 58.8383 42.1818Z" fill="#FFC943"/>
<path d="M60.3275 46.214C60.3275 45.026 59.5027 44.0314 58.3947 43.7698C57.2867 44.0314 56.462 45.026 56.462 46.214C56.462 47.402 57.2867 48.3965 58.3947 48.6582C59.5027 48.3965 60.3275 47.402 60.3275 46.214Z" fill="#D8902A"/>
<path d="M58.9762 46.2139C58.9762 46.8551 58.4565 47.3748 57.8153 47.3748C57.1742 47.3748 56.6544 46.8551 56.6544 46.2139C56.6544 45.5728 57.1742 45.053 57.8153 45.053C58.4565 45.053 58.9762 45.5728 58.9762 46.2139Z" fill="#FFC943"/>
<path d="M54.8131 39.0029C54.8131 39.644 54.2933 40.1636 53.6523 40.1636C53.0112 40.1636 52.4914 39.644 52.4914 39.0029C52.4914 38.3617 53.0112 37.842 53.6523 37.842C54.2933 37.842 54.8131 38.3617 54.8131 39.0029Z" fill="#FFC943"/>
<path d="M50.5161 42.1819C48.7138 42.6377 47.38 44.27 47.38 46.214C47.38 48.158 48.7138 49.7903 50.5161 50.2461C52.3184 49.7903 53.6523 48.158 53.6523 46.214C53.6523 44.27 52.3184 42.6377 50.5161 42.1819Z" fill="#FFC943"/>
<path d="M56.462 46.2139C56.462 45.0259 57.2867 44.0313 58.3948 43.7697C58.2087 43.7257 58.0149 43.7017 57.8153 43.7017C56.4279 43.7017 55.3031 44.8265 55.3031 46.2139C55.3031 47.6013 56.4279 48.7261 57.8153 48.7261C58.0149 48.7261 58.2087 48.7021 58.3948 48.6581C57.2867 48.3965 56.462 47.4019 56.462 46.2139Z" fill="white"/>
<path d="M52.299 39.0028C52.299 37.8149 53.1237 36.8203 54.2316 36.5585C54.0456 36.5146 53.8517 36.4906 53.6523 36.4906C52.2647 36.4906 51.14 37.6153 51.14 39.0028C51.14 40.3903 52.2647 41.5149 53.6523 41.5149C53.8517 41.5149 54.0456 41.491 54.2316 41.4471C53.1237 41.1854 52.299 40.1907 52.299 39.0028Z" fill="white"/>
<path d="M48.1399 46.2139C48.1399 45.0259 48.9646 44.0313 50.0726 43.7697C49.8866 43.7257 49.6927 43.7017 49.4932 43.7017C48.1057 43.7017 46.981 44.8265 46.981 46.2139C46.981 47.6013 48.1057 48.7261 49.4932 48.7261C49.6927 48.7261 49.8866 48.7021 50.0726 48.6581C48.9646 48.3965 48.1399 47.4019 48.1399 46.2139Z" fill="white"/>
<path d="M52.0053 46.214C52.0053 45.026 51.1806 44.0314 50.0726 43.7698C48.9646 44.0314 48.1399 45.026 48.1399 46.214C48.1399 47.402 48.9646 48.3965 50.0726 48.6582C51.1806 48.3965 52.0053 47.402 52.0053 46.214Z" fill="#D8902A"/>
<path d="M50.654 46.2139C50.654 46.8551 50.1342 47.3748 49.4932 47.3748C48.8521 47.3748 48.3324 46.8551 48.3324 46.2139C48.3324 45.5728 48.8521 45.053 49.4932 45.053C50.1342 45.053 50.654 45.5728 50.654 46.2139Z" fill="#FFC943"/>
<path d="M53.6562 35.1859H53.6605C53.8472 35.1859 53.9986 35.0345 53.9986 34.8477C53.9986 34.661 53.8472 34.5096 53.6605 34.5096H53.6562C53.4695 34.5096 53.3181 34.661 53.3181 34.8477C53.3181 35.0345 53.4695 35.1859 53.6562 35.1859Z" fill="black"/>
<path d="M54.6353 49.394C54.7013 49.4599 54.7879 49.4929 54.8745 49.4929C54.961 49.4929 55.0475 49.4599 55.1135 49.394C55.2456 49.2619 55.2456 49.0478 55.1135 48.9157L55.1105 48.9127C54.9785 48.7807 54.7644 48.7807 54.6323 48.9127C54.5003 49.0447 54.5003 49.2589 54.6323 49.3909L54.6353 49.394Z" fill="black"/>
<path d="M52.1961 48.9186C52.064 49.0507 52.064 49.2648 52.1961 49.3969C52.2621 49.4629 52.3486 49.4959 52.4351 49.4959C52.5216 49.4959 52.6082 49.4629 52.6742 49.3969L52.6772 49.394C52.8092 49.2619 52.8092 49.0478 52.6772 48.9157C52.5452 48.7836 52.3311 48.7836 52.199 48.9157L52.1961 48.9186Z" fill="black"/>
<path d="M57.8153 49.0589C58.5441 49.0589 59.273 48.7814 59.8279 48.2265C60.569 47.4855 60.8425 46.401 60.542 45.3961C60.4886 45.2171 60.3001 45.1155 60.1212 45.169C59.9423 45.2225 59.8407 45.411 59.8942 45.5898C60.1233 46.3562 59.9148 47.1833 59.3497 47.7484C58.5036 48.5944 57.1269 48.5944 56.2809 47.7484C55.4348 46.9022 55.4348 45.5255 56.2809 44.6795C56.8718 44.0886 57.7302 43.89 58.5214 44.1613C58.698 44.222 58.8903 44.1279 58.951 43.9512C59.0116 43.7746 58.9174 43.5823 58.7408 43.5217C57.7034 43.1658 56.5777 43.4263 55.8026 44.2012C54.6928 45.311 54.6928 47.1167 55.8026 48.2265C56.3576 48.7814 57.0865 49.0589 57.8153 49.0589Z" fill="black"/>
<path d="M59.3508 44.6806C59.4167 44.746 59.5028 44.7786 59.5888 44.7786C59.6758 44.7786 59.7629 44.7452 59.8291 44.6785C59.9605 44.5458 59.9594 44.3317 59.8268 44.2002L59.8223 44.1957C59.6904 44.0637 59.4763 44.0637 59.3442 44.1957C59.2121 44.3278 59.2121 44.5419 59.3442 44.674L59.3508 44.6806Z" fill="black"/>
<path d="M57.8153 44.7288C56.9986 44.7288 56.3342 45.3932 56.3342 46.21C56.3342 47.0266 56.9986 47.691 57.8153 47.691C58.632 47.691 59.2964 47.0265 59.2964 46.21C59.2964 45.3933 58.632 44.7288 57.8153 44.7288ZM57.8153 47.0148C57.3715 47.0148 57.0105 46.6536 57.0105 46.21C57.0105 45.7662 57.3715 45.405 57.8153 45.405C58.2591 45.405 58.6201 45.7662 58.6201 46.21C58.6201 46.6536 58.2591 47.0148 57.8153 47.0148Z" fill="black"/>
<path d="M54.7572 41.5993C54.807 41.5993 54.8577 41.5882 54.9055 41.5649C55.8906 41.083 56.5025 40.1028 56.5025 39.0068C56.5025 37.4374 55.2257 36.1605 53.6562 36.1605C52.0868 36.1605 50.81 37.4374 50.81 39.0068C50.81 40.0547 51.3833 41.0153 52.3065 41.5132C52.4708 41.602 52.6759 41.5405 52.7647 41.3762C52.8533 41.2118 52.7919 41.0068 52.6276 40.918C51.9236 40.5382 51.4862 39.8059 51.4862 39.0068C51.4862 37.8102 52.4597 36.8368 53.6562 36.8368C54.8528 36.8368 55.8263 37.8102 55.8263 39.0068C55.8263 39.8425 55.3596 40.5899 54.6083 40.9574C54.4406 41.0396 54.3711 41.242 54.4531 41.4098C54.5119 41.5297 54.6321 41.5993 54.7572 41.5993Z" fill="black"/>
<path d="M53.6562 41.1768C53.4695 41.1768 53.3181 41.3281 53.3181 41.5149C53.3181 41.7017 53.4695 41.853 53.6562 41.853H53.664C53.8508 41.853 54.0022 41.7017 54.0022 41.5149C54.0022 41.3281 53.8508 41.1768 53.664 41.1768H53.6562Z" fill="black"/>
<path d="M55.1402 39.0097C55.1402 38.614 54.9861 38.2421 54.7065 37.9624C54.4267 37.6826 54.0547 37.5285 53.6592 37.5285C53.2636 37.5285 52.8916 37.6826 52.6119 37.9624C52.0344 38.5399 52.0344 39.4794 52.6119 40.0569C52.9006 40.3457 53.2798 40.4901 53.6592 40.4901C54.0384 40.49 54.4177 40.3456 54.7065 40.0569C54.9861 39.7772 55.1402 39.4053 55.1402 39.0097ZM54.2282 39.5787C53.9145 39.8925 53.4038 39.8925 53.09 39.5787C52.7762 39.265 52.7762 38.7544 53.09 38.4405C53.242 38.2885 53.4441 38.2049 53.6592 38.2049C53.8741 38.2049 54.0761 38.2886 54.2282 38.4405C54.3802 38.5926 54.4639 38.7947 54.4639 39.0097C54.4639 39.2246 54.3802 39.4267 54.2282 39.5787Z" fill="black"/>
<path d="M51.5098 48.2265C52.6195 47.1167 52.6195 45.3111 51.5098 44.2014C50.7688 43.4602 49.6842 43.1866 48.6793 43.4872C48.5004 43.5407 48.3988 43.7292 48.4523 43.908C48.5058 44.087 48.6943 44.1887 48.8731 44.1351C49.6395 43.9059 50.4666 44.1145 51.0316 44.6795C51.8776 45.5256 51.8776 46.9024 51.0316 47.7484C50.6086 48.1716 50.0529 48.383 49.4972 48.383C48.9415 48.3829 48.3857 48.1714 47.9628 47.7485C47.3718 47.1574 47.1733 46.299 47.4446 45.5079C47.5052 45.3312 47.4112 45.1389 47.2346 45.0783C47.058 45.0178 46.8656 45.1118 46.8049 45.2884C46.4491 46.3257 46.7096 47.4516 47.4845 48.2266C48.0394 48.7815 48.7684 49.0589 49.4972 49.0589C50.226 49.0589 50.9549 48.7814 51.5098 48.2265Z" fill="black"/>
<path d="M47.7182 44.7841C47.8047 44.7841 47.8912 44.7511 47.9572 44.6851L47.9628 44.6795C48.0949 44.5474 48.0949 44.3333 47.9628 44.2012C47.8307 44.0693 47.6166 44.0693 47.4845 44.2012L47.4789 44.2068C47.347 44.3389 47.347 44.553 47.4789 44.6851C47.545 44.7511 47.6316 44.7841 47.7182 44.7841Z" fill="black"/>
<path d="M49.4932 47.695C50.3098 47.695 50.9743 47.0306 50.9743 46.2139C50.9743 45.3973 50.3098 44.7329 49.4932 44.7329C48.6766 44.7329 48.012 45.3973 48.012 46.2139C48.012 47.0306 48.6766 47.695 49.4932 47.695ZM49.4932 45.4091C49.9369 45.4091 50.298 45.7701 50.298 46.2139C50.298 46.6577 49.9369 47.0187 49.4932 47.0187C49.0494 47.0187 48.6883 46.6577 48.6883 46.2139C48.6883 45.7701 49.0494 45.4091 49.4932 45.4091Z" fill="black"/>
<path d="M61.9744 50.0348H60.1881C60.476 49.8557 60.7473 49.6419 60.9954 49.394C61.8447 48.5445 62.3125 47.4151 62.3125 46.2139C62.3125 45.0128 61.8448 43.8833 60.9954 43.0339C60.1459 42.1846 59.0166 41.7167 57.8153 41.7167C57.6118 41.7167 57.4105 41.7305 57.2121 41.7569C57.8018 40.9961 58.1534 40.0418 58.1534 39.0068C58.1534 36.9534 56.7662 35.1622 54.7799 34.6512C54.5991 34.6047 54.4147 34.7135 54.3682 34.8943C54.3217 35.0753 54.4305 35.2596 54.6113 35.3061C56.2987 35.7403 57.4772 37.2621 57.4772 39.0068C57.4772 41.1136 55.7631 42.8277 53.6562 42.8277C51.5494 42.8277 49.8353 41.1136 49.8353 39.0068C49.8353 37.2621 51.0138 35.7403 52.7011 35.3062C52.882 35.2596 52.9908 35.0753 52.9443 34.8945C52.8978 34.7137 52.7134 34.6048 52.5326 34.6512C50.5463 35.1622 49.1591 36.9534 49.1591 39.0068C49.1591 40.0418 49.5107 40.9961 50.1005 41.7569C49.9022 41.7305 49.7007 41.7167 49.4972 41.7167C48.296 41.7167 47.1666 42.1844 46.3171 43.0339C45.4678 43.8833 45 45.0126 45 46.2139C45 47.4152 45.4678 48.5445 46.3171 49.394C46.5652 49.6419 46.8365 49.8557 47.1244 50.0348H45.3381C45.1514 50.0348 45 50.1862 45 50.373C45 50.5597 45.1514 50.7111 45.3381 50.7111H61.9744C62.1611 50.7111 62.3125 50.5597 62.3125 50.373C62.3125 50.1862 62.1611 50.0348 61.9744 50.0348ZM54.2566 43.4638C54.0077 43.7853 53.8072 44.1344 53.6562 44.5005C53.5053 44.1344 53.3048 43.7853 53.0559 43.4638C53.2523 43.4901 53.4527 43.504 53.6562 43.504C53.8598 43.504 54.0602 43.4901 54.2566 43.4638ZM46.7954 48.9157C45.3056 47.4259 45.3056 45.0019 46.7954 43.5122C48.2852 42.0222 50.7092 42.0222 52.199 43.5122C52.9121 44.2251 53.2933 45.1639 53.3176 46.1188C53.3163 46.185 53.3163 46.251 53.3177 46.3172C53.3011 46.9494 53.1278 47.5822 52.7892 48.1552C52.6943 48.316 52.7476 48.5234 52.9085 48.6184C53.0693 48.7133 53.2766 48.66 53.3716 48.4991C53.4811 48.3138 53.5758 48.1229 53.6562 47.9284C53.7367 48.1229 53.8314 48.3138 53.9409 48.4991C54.0359 48.66 54.2432 48.7132 54.404 48.6184C54.5647 48.5234 54.6181 48.316 54.5231 48.1552C54.1846 47.5822 54.0114 46.9492 53.9946 46.3172C53.9961 46.251 53.9962 46.185 53.9948 46.1188C54.0192 45.1639 54.4004 44.2251 55.1135 43.5122C56.6033 42.0222 59.0273 42.0222 60.5171 43.5122C62.0068 45.0019 62.0068 47.4259 60.5171 48.9157C59.7993 49.6334 58.8528 50.015 57.8912 50.0348H57.7337C57.0944 50.0215 56.4535 49.8485 55.8739 49.506C55.7132 49.411 55.5058 49.4644 55.4108 49.6253C55.3309 49.7604 55.3563 49.9283 55.4618 50.0348H51.8507C51.9562 49.9283 51.9816 49.7604 51.9016 49.6253C51.8067 49.4644 51.5993 49.411 51.4386 49.506C50.8594 49.8482 50.2192 50.0214 49.5804 50.0348H49.4202C48.459 50.0148 47.5129 49.6332 46.7954 48.9157Z" fill="black"/>
</g>
<defs>
<filter id="filter0_d" x="0.234863" y="0.896729" width="335.765" height="93.1033" filterUnits="userSpaceOnUse" color-interpolation-filters="sRGB">
<feFlood flood-opacity="0" result="BackgroundImageFix"/>
<feColorMatrix in="SourceAlpha" type="matrix" values="0 0 0 0 0 0 0 0 0 0 0 0 0 0 0 0 0 0 127 0"/>
<feOffset/>
<feGaussianBlur stdDeviation="5"/>
<feColorMatrix type="matrix" values="0 0 0 0 0 0 0 0 0 0 0 0 0 0 0 0 0 0 1 0"/>
<feBlend mode="normal" in2="BackgroundImageFix" result="effect1_dropShadow"/>
<feBlend mode="normal" in="SourceGraphic" in2="effect1_dropShadow" result="shape"/>
</filter>
<linearGradient id="paint0_linear" x1="168.5" y1="36" x2="168.5" y2="84" gradientUnits="userSpaceOnUse">
<stop offset="0.169792" stop-color="#FFB600"/>
<stop offset="0.684492" stop-color="#88D498"/>
</linearGradient>
<linearGradient id="paint1_linear" x1="209.111" y1="31.9766" x2="209.111" y2="40.5703" gradientUnits="userSpaceOnUse">
<stop offset="0.169792" stop-color="#FFB600"/>
<stop offset="0.684492" stop-color="#88D498"/>
</linearGradient>
<linearGradient id="paint2_linear" x1="209.111" y1="31.9766" x2="209.111" y2="40.5703" gradientUnits="userSpaceOnUse">
<stop stop-color="white"/>
<stop offset="1" stop-color="white" stop-opacity="0"/>
</linearGradient>
<linearGradient id="paint3_linear" x1="268.889" y1="39.9766" x2="268.889" y2="48.5703" gradientUnits="userSpaceOnUse">
<stop offset="0.169792" stop-color="#FFB600"/>
<stop offset="0.684492" stop-color="#88D498"/>
</linearGradient>
<linearGradient id="paint4_linear" x1="268.889" y1="39.9766" x2="268.889" y2="48.5703" gradientUnits="userSpaceOnUse">
<stop stop-color="white"/>
<stop offset="1" stop-color="white" stop-opacity="0"/>
</linearGradient>
</defs>
</svg>
