<svg width="335" height="65" viewBox="0 0 335 65" fill="none" xmlns="http://www.w3.org/2000/svg">
<g filter="url(#filter0_d)">
<path d="M10.7052 26.904C11.1533 27.32 11.9533 27.72 13.1053 28.104C14.2573 28.488 15.5853 28.824 17.0893 29.112C18.0173 26.968 18.9933 24.792 20.0173 22.584C21.0733 20.344 22.0973 18.168 23.0893 16.056C22.7373 15.512 22.3693 15.08 21.9853 14.76C21.6013 14.408 21.2173 14.2 20.8333 14.136C22.3693 12.696 23.8733 11.816 25.3453 11.496C26.8493 11.176 28.0653 11.192 28.9933 11.544C29.6013 11.768 30.1933 12.344 30.7693 13.272C31.3453 14.2 31.9213 15.368 32.4973 16.776C33.0733 18.184 33.6493 19.752 34.2253 21.48C34.8013 23.208 35.3773 24.968 35.9532 26.76C36.5293 28.52 37.1053 30.264 37.6813 31.992C38.2573 33.688 38.8333 35.208 39.4093 36.552C40.0173 37.896 40.6253 39 41.2333 39.864C41.8413 40.728 42.4493 41.208 43.0573 41.304C42.3853 42.136 41.5853 42.872 40.6573 43.512C39.7613 44.152 38.8493 44.616 37.9213 44.904C36.9933 45.192 36.1133 45.288 35.2812 45.192C34.4493 45.096 33.7773 44.728 33.2653 44.088C32.5933 43.256 31.9213 41.896 31.2493 40.008C30.5773 38.088 29.9053 35.944 29.2333 33.576C27.7613 34.152 26.1933 34.664 24.5293 35.112C22.8653 35.56 21.2493 35.896 19.6813 36.12C19.2333 37.944 18.9773 39.528 18.9133 40.872C18.8493 42.216 19.0093 43.384 19.3933 44.376C19.0093 44.536 18.4973 44.68 17.8573 44.808C17.2173 44.936 16.5613 45 15.8893 45C15.2493 44.968 14.6413 44.824 14.0653 44.568C13.5213 44.28 13.1213 43.816 12.8652 43.176C12.6413 42.632 12.6573 41.752 12.9133 40.536C13.2013 39.288 13.6493 37.8 14.2573 36.072C13.3613 35.88 12.6733 35.56 12.1933 35.112C11.5533 34.536 11.0892 33.896 10.8012 33.192C10.5132 32.456 10.3372 31.72 10.2732 30.984C10.2092 30.216 10.2252 29.48 10.3212 28.776C10.4172 28.072 10.5452 27.448 10.7052 26.904ZM28.2253 30.024C27.7453 28.392 27.2653 26.792 26.7853 25.224C26.3053 23.624 25.8093 22.136 25.2973 20.76C23.8893 24.056 22.6733 27.064 21.6493 29.784C22.8653 29.944 24.0333 30.04 25.1533 30.072C26.3053 30.104 27.3293 30.088 28.2253 30.024ZM44.0518 19.416C44.4678 19.896 45.1078 20.184 45.9718 20.28C46.8358 20.344 47.8278 20.312 48.9478 20.184C50.0678 20.024 51.2678 19.832 52.5478 19.608C53.8278 19.352 55.0758 19.144 56.2918 18.984C57.5398 18.792 58.6918 18.696 59.7478 18.696C60.8358 18.664 61.7478 18.824 62.4838 19.176C63.2198 19.528 63.7158 20.136 63.9718 21C64.2278 21.832 64.3078 22.776 64.2118 23.832C64.1158 24.856 63.8438 25.88 63.3958 26.904C62.9798 27.928 62.4678 28.776 61.8598 29.448C61.4758 28.616 60.8838 28.008 60.0838 27.624C59.3158 27.24 58.4038 27 57.3478 26.904C56.2918 26.776 55.1398 26.76 53.8918 26.856C52.6438 26.92 51.3798 27 50.0998 27.096C50.4838 28.408 50.7078 29.704 50.7718 30.984C50.8678 32.232 50.8838 33.416 50.8198 34.536C50.7878 35.656 50.7238 36.712 50.6278 37.704C50.5638 38.664 50.5638 39.544 50.6278 40.344C50.7238 41.144 50.9478 41.832 51.2998 42.408C51.6518 42.984 52.2438 43.432 53.0758 43.752C52.6598 44.104 51.9398 44.424 50.9158 44.712C49.9238 45 48.8518 45.112 47.6998 45.048C46.5798 44.984 45.5078 44.696 44.4838 44.184C43.4918 43.672 42.8038 42.792 42.4198 41.544C42.1318 40.648 42.0998 39.64 42.3238 38.52C42.5478 37.4 42.8678 36.216 43.2838 34.968C43.7318 33.688 44.1958 32.392 44.6758 31.08C45.1878 29.736 45.5878 28.424 45.8758 27.144C45.0758 26.952 44.4358 26.6 43.9558 26.088C43.4758 25.544 43.1558 24.904 42.9958 24.168C42.8358 23.432 42.8358 22.648 42.9958 21.816C43.1878 20.984 43.5398 20.184 44.0518 19.416ZM71.6165 37.224C71.4245 38.472 71.3125 39.72 71.2805 40.968C71.2805 42.216 71.4245 43.384 71.7125 44.472C72.0005 45.56 72.4485 46.504 73.0565 47.304C73.6965 48.104 74.5765 48.68 75.6965 49.032C75.0565 50.28 74.2565 51.304 73.2965 52.104C72.3685 52.904 71.3925 53.464 70.3685 53.784C69.3445 54.136 68.3525 54.216 67.3925 54.024C66.4325 53.864 65.6165 53.432 64.9445 52.728C64.1125 51.832 63.6325 50.632 63.5045 49.128C63.3765 47.656 63.4085 46.008 63.6005 44.184C63.8245 42.328 64.1125 40.376 64.4645 38.328C64.8485 36.28 65.1365 34.248 65.3285 32.232C65.4565 30.952 65.5685 29.784 65.6645 28.728C65.7605 27.672 65.7605 26.728 65.6645 25.896C65.6005 25.064 65.4085 24.376 65.0885 23.832C64.7685 23.256 64.2405 22.824 63.5045 22.536C64.0165 21.576 64.6885 20.792 65.5205 20.184C66.3845 19.544 67.2485 19.096 68.1125 18.84C69.0085 18.584 69.8405 18.52 70.6085 18.648C71.4085 18.744 72.0165 19.048 72.4325 19.56C72.7525 19.976 72.9605 20.376 73.0565 20.76C73.1525 21.112 73.1685 21.496 73.1045 21.912C73.0405 22.296 72.9125 22.712 72.7205 23.16C72.5605 23.608 72.3845 24.104 72.1925 24.648C72.9605 22.984 73.9525 21.688 75.1685 20.76C76.3845 19.8 77.6645 19.176 79.0085 18.888C80.3525 18.6 81.6805 18.616 82.9925 18.936C84.3365 19.256 85.4885 19.832 86.4485 20.664C87.5365 21.624 88.4005 22.872 89.0405 24.408C89.6805 25.944 90.0805 27.592 90.2405 29.352C90.4005 31.08 90.3205 32.84 90.0005 34.632C89.6805 36.424 89.1045 38.056 88.2725 39.528C87.4725 41 86.4165 42.232 85.1045 43.224C83.7925 44.216 82.2245 44.792 80.4005 44.952C79.0565 45.08 77.8565 44.968 76.8005 44.616C75.7765 44.232 74.9125 43.688 74.2085 42.984C73.5045 42.28 72.9765 41.448 72.6245 40.488C72.2725 39.528 72.1125 38.504 72.1445 37.416L71.6165 37.224ZM83.8085 28.344C83.1365 27.576 82.2405 27.064 81.1205 26.808C80.0005 26.552 78.8485 26.632 77.6645 27.048C76.4805 27.464 75.3605 28.232 74.3045 29.352C73.2805 30.472 72.5125 32.008 72.0005 33.96C72.5125 34.664 73.1525 35.224 73.9205 35.64C74.7205 36.024 75.5525 36.312 76.4165 36.504C77.2805 36.664 78.1445 36.712 79.0085 36.648C79.8725 36.552 80.6565 36.376 81.3605 36.12C82.2565 35.8 82.9765 35.32 83.5205 34.68C84.0965 34.04 84.4805 33.352 84.6725 32.616C84.8965 31.88 84.9285 31.128 84.7685 30.36C84.6405 29.592 84.3205 28.92 83.8085 28.344ZM96.8158 20.664C97.6478 19.992 98.4798 19.544 99.3118 19.32C100.176 19.096 100.96 19.048 101.664 19.176C103.776 18.536 105.824 18.392 107.808 18.744C109.792 19.096 111.568 19.976 113.136 21.384C114.384 22.472 115.328 23.88 115.968 25.608C116.608 27.304 116.944 29.096 116.976 30.984C117.008 32.84 116.704 34.68 116.064 36.504C115.456 38.328 114.48 39.912 113.136 41.256C111.888 42.504 110.464 43.448 108.864 44.088C107.264 44.696 105.632 45 103.968 45C102.336 45 100.752 44.68 99.2158 44.04C97.6798 43.4 96.3678 42.44 95.2798 41.16C93.8398 39.528 92.8798 37.72 92.3998 35.736C91.9198 33.752 91.8078 31.816 92.0638 29.928C92.3198 28.008 92.8638 26.232 93.6958 24.6C94.5598 22.936 95.5998 21.624 96.8158 20.664ZM99.6478 30.216C99.4878 30.152 99.2958 30.008 99.0718 29.784C98.8798 29.56 98.6878 29.272 98.4958 28.92C98.1118 29.848 97.8878 30.664 97.8238 31.368C97.7918 32.072 97.9838 32.824 98.3997 33.624C98.8798 34.552 99.5678 35.288 100.464 35.832C101.392 36.376 102.384 36.728 103.44 36.888C104.496 37.048 105.536 37.048 106.56 36.888C107.584 36.696 108.432 36.36 109.104 35.88C109.776 35.4 110.304 34.84 110.688 34.2C111.104 33.56 111.36 32.904 111.456 32.232C111.584 31.56 111.552 30.904 111.36 30.264C111.168 29.592 110.832 28.984 110.352 28.44C109.616 27.64 108.72 27.112 107.664 26.856C106.608 26.568 105.552 26.52 104.496 26.712C103.44 26.904 102.464 27.304 101.568 27.912C100.672 28.488 100.032 29.256 99.6478 30.216ZM121.323 23.976C120.811 23.592 120.411 23.016 120.123 22.248C119.835 21.448 119.691 20.6 119.691 19.704C119.723 18.776 119.899 17.864 120.219 16.968C120.571 16.04 121.099 15.256 121.803 14.616C122.731 13.784 123.931 13.144 125.403 12.696C126.907 12.248 128.459 12.04 130.059 12.072C131.691 12.072 133.275 12.328 134.811 12.84C136.379 13.352 137.723 14.136 138.843 15.192C140.667 16.984 141.979 18.952 142.779 21.096C143.579 23.208 143.979 25.336 143.979 27.48C143.979 29.592 143.627 31.624 142.923 33.576C142.251 35.528 141.339 37.224 140.187 38.664C138.779 40.424 137.131 41.832 135.243 42.888C133.387 43.944 131.515 44.648 129.627 45C127.771 45.352 125.995 45.384 124.299 45.096C122.635 44.808 121.291 44.2 120.267 43.272C119.403 42.504 118.811 41.608 118.491 40.584C118.203 39.56 118.155 38.536 118.347 37.512C118.539 36.456 118.955 35.448 119.595 34.488C120.235 33.528 121.067 32.728 122.091 32.088C122.379 33.496 123.035 34.6 124.059 35.4C125.115 36.2 126.331 36.696 127.707 36.888C129.083 37.08 130.555 36.952 132.123 36.504C133.691 36.056 135.147 35.304 136.491 34.248C137.035 33.832 137.483 33.384 137.835 32.904C138.187 32.424 138.491 31.912 138.747 31.368C137.851 31.368 136.683 31.352 135.243 31.32C133.835 31.288 132.379 31.272 130.875 31.272C129.371 31.272 127.931 31.336 126.555 31.464C125.211 31.56 124.171 31.752 123.435 32.04C123.339 31.176 123.355 30.312 123.483 29.448C123.611 28.584 123.851 27.8 124.203 27.096C124.555 26.36 125.019 25.736 125.595 25.224C126.171 24.712 126.843 24.376 127.611 24.216C128.187 24.088 128.891 24.072 129.723 24.168C130.587 24.264 131.499 24.392 132.459 24.552C133.419 24.712 134.411 24.904 135.435 25.128C136.491 25.32 137.515 25.464 138.507 25.56C137.931 24.344 137.147 23.32 136.155 22.488C135.195 21.72 134.043 21.112 132.699 20.664C131.355 20.216 129.963 20.024 128.523 20.088C127.115 20.12 125.755 20.44 124.443 21.048C123.163 21.656 122.123 22.632 121.323 23.976ZM145.313 21.672C145.601 21.192 146.065 20.744 146.705 20.328C147.345 19.88 148.065 19.512 148.865 19.224C149.697 18.936 150.561 18.728 151.457 18.6C152.353 18.472 153.201 18.456 154.001 18.552C154.801 18.648 155.505 18.872 156.113 19.224C156.721 19.544 157.153 20.024 157.409 20.664C157.729 21.464 157.857 22.296 157.793 23.16C157.761 23.992 157.617 24.84 157.361 25.704C157.105 26.536 156.753 27.384 156.305 28.248C155.889 29.112 155.457 29.976 155.009 30.84C156.161 29.88 157.249 28.856 158.273 27.768C159.329 26.68 160.209 25.608 160.913 24.552C161.649 23.464 162.161 22.424 162.449 21.432C162.769 20.408 162.785 19.496 162.497 18.696C163.745 18.504 164.929 18.504 166.049 18.696C167.201 18.856 168.177 19.192 168.977 19.704C169.809 20.216 170.433 20.856 170.849 21.624C171.265 22.392 171.361 23.256 171.137 24.216C170.945 25.144 170.433 26.008 169.601 26.808C168.769 27.608 167.777 28.344 166.625 29.016C165.505 29.688 164.289 30.296 162.977 30.84C161.697 31.352 160.481 31.8 159.329 32.184C160.673 33.528 161.937 34.584 163.121 35.352C164.337 36.12 165.457 36.632 166.481 36.888C167.505 37.144 168.449 37.176 169.313 36.984C170.177 36.76 170.945 36.344 171.617 35.736C171.713 36.728 171.633 37.736 171.377 38.76C171.121 39.784 170.705 40.728 170.129 41.592C169.585 42.456 168.897 43.208 168.065 43.848C167.265 44.456 166.353 44.84 165.329 45C164.497 45.16 163.537 45.144 162.449 44.952C161.393 44.728 160.289 44.28 159.137 43.608C157.985 42.904 156.833 41.928 155.681 40.68C154.561 39.432 153.505 37.848 152.513 35.928C152.097 37.08 151.969 38.168 152.129 39.192C152.289 40.216 152.977 41.128 154.193 41.928C153.617 42.824 152.881 43.544 151.985 44.088C151.121 44.6 150.241 44.904 149.345 45C148.449 45.096 147.601 44.968 146.801 44.616C146.033 44.264 145.457 43.656 145.073 42.792C144.625 41.8 144.449 40.648 144.545 39.336C144.641 37.992 144.849 36.6 145.169 35.16C145.521 33.688 145.889 32.232 146.273 30.792C146.657 29.32 146.929 27.976 147.089 26.76C147.281 25.512 147.265 24.44 147.041 23.544C146.817 22.648 146.241 22.024 145.313 21.672ZM177.206 20.664C178.038 19.992 178.87 19.544 179.702 19.32C180.566 19.096 181.35 19.048 182.054 19.176C184.166 18.536 186.214 18.392 188.198 18.744C190.182 19.096 191.958 19.976 193.526 21.384C194.774 22.472 195.718 23.88 196.358 25.608C196.998 27.304 197.334 29.096 197.366 30.984C197.398 32.84 197.094 34.68 196.454 36.504C195.846 38.328 194.87 39.912 193.526 41.256C192.278 42.504 190.854 43.448 189.254 44.088C187.654 44.696 186.022 45 184.358 45C182.726 45 181.142 44.68 179.606 44.04C178.07 43.4 176.758 42.44 175.67 41.16C174.23 39.528 173.27 37.72 172.79 35.736C172.31 33.752 172.198 31.816 172.454 29.928C172.71 28.008 173.254 26.232 174.086 24.6C174.95 22.936 175.99 21.624 177.206 20.664ZM180.038 30.216C179.878 30.152 179.686 30.008 179.462 29.784C179.27 29.56 179.078 29.272 178.886 28.92C178.502 29.848 178.278 30.664 178.214 31.368C178.182 32.072 178.374 32.824 178.79 33.624C179.27 34.552 179.958 35.288 180.854 35.832C181.782 36.376 182.774 36.728 183.83 36.888C184.886 37.048 185.926 37.048 186.95 36.888C187.974 36.696 188.822 36.36 189.494 35.88C190.166 35.4 190.694 34.84 191.078 34.2C191.494 33.56 191.75 32.904 191.846 32.232C191.974 31.56 191.942 30.904 191.75 30.264C191.558 29.592 191.222 28.984 190.742 28.44C190.006 27.64 189.11 27.112 188.054 26.856C186.998 26.568 185.942 26.52 184.886 26.712C183.83 26.904 182.854 27.304 181.958 27.912C181.062 28.488 180.422 29.256 180.038 30.216ZM198.498 18.792C198.402 16.776 198.642 15.16 199.218 13.944C199.826 12.696 200.77 11.944 202.05 11.688C203.202 11.464 204.53 11.352 206.034 11.352C207.57 11.32 209.154 11.336 210.786 11.4C212.418 11.464 214.034 11.544 215.634 11.64C217.266 11.736 218.77 11.784 220.146 11.784C221.522 11.752 222.706 11.64 223.698 11.448C224.69 11.224 225.362 10.856 225.714 10.344C225.714 11.336 225.634 12.328 225.474 13.32C225.346 14.312 225.09 15.24 224.706 16.104C224.354 16.968 223.89 17.768 223.314 18.504C222.738 19.208 222.018 19.768 221.154 20.184L220.77 20.376C220.514 21.976 220.306 23.672 220.146 25.464C220.018 27.256 219.922 29.032 219.858 30.792C219.826 32.552 219.842 34.248 219.906 35.88C219.97 37.48 220.082 38.904 220.242 40.152C220.434 41.4 220.674 42.424 220.962 43.224C221.25 43.992 221.586 44.408 221.97 44.472C221.01 44.792 219.986 44.968 218.898 45C217.81 45.032 216.77 44.936 215.778 44.712C214.818 44.488 213.954 44.12 213.186 43.608C212.45 43.096 211.938 42.456 211.65 41.688C211.362 40.92 211.266 39.704 211.362 38.04C211.49 36.376 211.746 34.536 212.13 32.52C212.514 30.472 212.994 28.392 213.57 26.28C214.146 24.136 214.77 22.232 215.442 20.568C214.098 20.344 212.674 20.056 211.17 19.704C209.698 19.32 208.21 19 206.706 18.744C207.186 20.184 207.474 21.768 207.57 23.496C207.698 25.192 207.73 26.92 207.666 28.68C207.634 30.408 207.57 32.104 207.474 33.768C207.41 35.432 207.41 36.952 207.474 38.328C207.57 39.672 207.794 40.84 208.146 41.832C208.498 42.792 209.09 43.432 209.922 43.752C209.506 44.104 208.786 44.424 207.762 44.712C206.77 45 205.698 45.112 204.546 45.048C203.426 44.984 202.354 44.696 201.33 44.184C200.338 43.672 199.65 42.792 199.266 41.544C199.042 40.872 198.978 40.008 199.074 38.952C199.17 37.896 199.33 36.712 199.554 35.4C199.81 34.088 200.114 32.696 200.466 31.224C200.85 29.72 201.202 28.216 201.522 26.712C201.874 25.208 202.178 23.736 202.434 22.296C202.722 20.856 202.914 19.512 203.01 18.264C202.178 18.2 201.378 18.216 200.61 18.312C199.842 18.376 199.138 18.536 198.498 18.792ZM229.425 20.664C230.257 19.992 231.089 19.544 231.921 19.32C232.785 19.096 233.569 19.048 234.273 19.176C236.385 18.536 238.433 18.392 240.417 18.744C242.401 19.096 244.177 19.976 245.745 21.384C246.993 22.472 247.937 23.88 248.577 25.608C249.217 27.304 249.553 29.096 249.585 30.984C249.617 32.84 249.313 34.68 248.673 36.504C248.065 38.328 247.089 39.912 245.745 41.256C244.497 42.504 243.073 43.448 241.473 44.088C239.873 44.696 238.241 45 236.577 45C234.945 45 233.361 44.68 231.825 44.04C230.289 43.4 228.977 42.44 227.889 41.16C226.449 39.528 225.489 37.72 225.009 35.736C224.529 33.752 224.417 31.816 224.673 29.928C224.929 28.008 225.473 26.232 226.305 24.6C227.169 22.936 228.209 21.624 229.425 20.664ZM232.257 30.216C232.097 30.152 231.905 30.008 231.681 29.784C231.489 29.56 231.297 29.272 231.105 28.92C230.721 29.848 230.497 30.664 230.433 31.368C230.401 32.072 230.593 32.824 231.009 33.624C231.489 34.552 232.177 35.288 233.073 35.832C234.001 36.376 234.993 36.728 236.049 36.888C237.105 37.048 238.145 37.048 239.169 36.888C240.193 36.696 241.041 36.36 241.713 35.88C242.385 35.4 242.913 34.84 243.297 34.2C243.713 33.56 243.969 32.904 244.065 32.232C244.193 31.56 244.161 30.904 243.969 30.264C243.777 29.592 243.441 28.984 242.961 28.44C242.225 27.64 241.329 27.112 240.273 26.856C239.217 26.568 238.161 26.52 237.105 26.712C236.049 26.904 235.073 27.304 234.177 27.912C233.281 28.488 232.641 29.256 232.257 30.216ZM251.677 25.992C251.581 23.976 251.821 22.36 252.396 21.144C253.005 19.896 253.949 19.144 255.229 18.888C256.381 18.664 257.677 18.552 259.117 18.552C260.557 18.52 262.045 18.536 263.581 18.6C265.117 18.664 266.637 18.744 268.141 18.84C269.645 18.936 271.021 18.984 272.269 18.984C273.517 18.952 274.605 18.84 275.533 18.648C276.461 18.424 277.101 18.056 277.453 17.544C277.453 19.304 277.213 21.016 276.733 22.68C276.253 24.312 275.373 25.64 274.093 26.664C273.677 28.936 273.405 31.128 273.277 33.24C273.181 35.32 273.197 37.176 273.325 38.808C273.485 40.44 273.757 41.768 274.141 42.792C274.525 43.784 275.021 44.344 275.629 44.472C274.669 44.792 273.645 44.968 272.557 45C271.469 45.032 270.429 44.936 269.437 44.712C268.477 44.488 267.613 44.12 266.845 43.608C266.109 43.096 265.597 42.456 265.309 41.688C265.021 40.952 264.909 40.072 264.973 39.048C265.037 37.992 265.213 36.856 265.501 35.64C265.821 34.424 266.221 33.16 266.701 31.848C267.213 30.504 267.789 29.176 268.429 27.864C267.309 27.736 266.141 27.528 264.924 27.24C263.709 26.952 262.461 26.648 261.181 26.328C261.373 27.352 261.661 28.616 262.045 30.12C262.429 31.624 262.685 33.176 262.812 34.776C262.941 36.376 262.829 37.928 262.477 39.432C262.125 40.936 261.309 42.216 260.029 43.272C258.621 44.424 257.245 45.032 255.901 45.096C254.589 45.16 253.405 44.92 252.349 44.376C251.293 43.832 250.412 43.096 249.708 42.168C249.004 41.24 248.588 40.36 248.46 39.528C249.868 39.656 251.005 39.48 251.869 39C252.765 38.52 253.469 37.864 253.98 37.032C254.493 36.168 254.861 35.192 255.085 34.104C255.309 33.016 255.469 31.928 255.565 30.84C255.661 29.752 255.741 28.728 255.805 27.768C255.869 26.808 255.997 26.04 256.189 25.464C255.357 25.4 254.557 25.416 253.789 25.512C253.053 25.576 252.349 25.736 251.677 25.992ZM284.574 44.616C282.558 44.68 280.814 44.296 279.342 43.464C277.87 42.6 276.926 41.464 276.51 40.056C276.414 39.864 276.334 39.64 276.27 39.384C276.238 39.096 276.254 38.728 276.318 38.28C276.318 38.216 276.318 38.184 276.318 38.184C276.35 38.152 276.366 38.104 276.366 38.04C276.398 37.784 276.446 37.544 276.51 37.32C276.606 37.096 276.718 36.856 276.846 36.6C277.838 33.72 278.478 31.304 278.766 29.352C279.054 27.4 279.118 25.832 278.958 24.648C278.798 23.432 278.462 22.568 277.95 22.056C277.438 21.512 276.878 21.24 276.27 21.24C276.782 20.472 277.454 19.864 278.286 19.416C279.118 18.968 279.982 18.712 280.878 18.648C281.774 18.552 282.606 18.664 283.374 18.984C284.174 19.272 284.766 19.768 285.15 20.472C285.63 21.368 285.742 22.632 285.486 24.264C285.23 25.864 284.782 27.624 284.142 29.544C285.23 28.68 286.302 27.8 287.358 26.904C288.446 25.976 289.39 25.064 290.19 24.168C291.022 23.24 291.662 22.328 292.11 21.432C292.59 20.504 292.782 19.576 292.686 18.648C293.71 18.648 294.734 18.776 295.758 19.032C296.814 19.256 297.742 19.608 298.542 20.088C299.374 20.536 300.014 21.08 300.462 21.72C300.91 22.36 301.054 23.064 300.894 23.832C300.766 24.376 300.19 25.208 299.166 26.328C299.134 27.256 299.118 28.312 299.118 29.496C299.15 30.68 299.198 31.896 299.262 33.144C299.358 34.392 299.486 35.608 299.646 36.792C299.806 37.944 300.014 38.984 300.27 39.912C300.558 40.808 300.91 41.528 301.326 42.072C301.742 42.584 302.254 42.808 302.862 42.744C302.382 43.544 301.694 44.12 300.798 44.472C299.902 44.824 298.974 45 298.014 45C297.086 44.968 296.222 44.776 295.422 44.424C294.654 44.072 294.142 43.576 293.886 42.936C293.214 41.304 293.054 39.48 293.406 37.464C293.758 35.416 294.334 33.048 295.134 30.36C293.822 31.64 292.462 32.968 291.054 34.344C289.646 35.72 288.398 37.064 287.31 38.376C286.222 39.656 285.39 40.84 284.814 41.928C284.27 43.016 284.19 43.912 284.574 44.616ZM322.529 29.784C321.921 28.664 321.137 27.832 320.177 27.288C319.217 26.712 318.193 26.376 317.105 26.28C316.017 26.184 314.945 26.312 313.889 26.664C312.833 26.984 311.921 27.464 311.153 28.104C310.545 28.584 310.065 29.144 309.713 29.784C309.393 30.424 309.185 31.08 309.089 31.752C309.025 32.392 309.073 33.016 309.233 33.624C309.393 34.2 309.665 34.68 310.049 35.064C310.913 35.96 311.921 36.568 313.073 36.888C314.257 37.176 315.441 37.224 316.625 37.032C317.809 36.84 318.929 36.44 319.985 35.832C321.041 35.192 321.889 34.392 322.529 33.432C322.817 33.784 323.105 34.328 323.393 35.064C323.713 35.768 323.937 36.568 324.065 37.464C324.225 38.328 324.241 39.224 324.113 40.152C323.985 41.048 323.601 41.848 322.961 42.552C322.385 43.224 321.505 43.8 320.321 44.28C319.169 44.728 317.857 44.968 316.385 45C314.913 45.064 313.377 44.872 311.777 44.424C310.177 43.976 308.657 43.176 307.217 42.024C306.097 41.096 305.169 39.912 304.433 38.472C303.729 37.032 303.313 35.464 303.185 33.768C303.089 32.04 303.329 30.248 303.905 28.392C304.481 26.536 305.505 24.744 306.977 23.016C308.161 21.576 309.537 20.504 311.105 19.8C312.673 19.064 314.225 18.648 315.761 18.552C317.297 18.456 318.737 18.648 320.081 19.128C321.457 19.608 322.561 20.344 323.393 21.336C323.873 21.944 324.209 22.616 324.401 23.352C324.625 24.056 324.689 24.792 324.593 25.56C324.529 26.296 324.321 27.032 323.969 27.768C323.649 28.504 323.169 29.176 322.529 29.784Z" fill="url(#paint0_linear)"/>
</g>
<defs>
<filter id="filter0_d" x="0.234848" y="0.343994" width="334.402" height="63.7817" filterUnits="userSpaceOnUse" color-interpolation-filters="sRGB">
<feFlood flood-opacity="0" result="BackgroundImageFix"/>
<feColorMatrix in="SourceAlpha" type="matrix" values="0 0 0 0 0 0 0 0 0 0 0 0 0 0 0 0 0 0 127 0"/>
<feOffset/>
<feGaussianBlur stdDeviation="5"/>
<feColorMatrix type="matrix" values="0 0 0 0 0 0 0 0 0 0 0 0 0 0 0 0 0 0 1 0"/>
<feBlend mode="normal" in2="BackgroundImageFix" result="effect1_dropShadow"/>
<feBlend mode="normal" in="SourceGraphic" in2="effect1_dropShadow" result="shape"/>
</filter>
<linearGradient id="paint0_linear" x1="168.5" y1="9" x2="168.5" y2="57" gradientUnits="userSpaceOnUse">
<stop offset="0.169792" stop-color="#FFB600"/>
<stop offset="0.684492" stop-color="#88D498"/>
</linearGradient>
</defs>
</svg>
