<?xml version="1.0" ?><svg height="512pt" viewBox="-26 0 511 512" width="512pt" xmlns="http://www.w3.org/2000/svg"><path d="m243.5 34.957031c-10.058594 4.84375-17 15.132813-17 27.039063h34c0-11.90625-6.941406-22.195313-17-27.039063zm0 0" fill="#ffdaae" fill-rule="evenodd"/><path d="m260.5 61.996094h-35v40.003906h45v-40.003906zm0 0" fill="#96c8eb" fill-rule="evenodd"/><path d="m270.5 102h-43v400h63v-400zm0 0" fill="#ffdaae" fill-rule="evenodd"/><path d="m170.5 381.996094v-79.996094h-63v200h63zm0 0" fill="#96c8eb" fill-rule="evenodd"/><path d="m388 386.023438c-13.320312 6.492187-22.5 20.15625-22.5 35.972656s9.179688 29.484375 22.5 35.976562c13.320312-6.492187 22.496094-20.160156 22.496094-35.976562s-9.175782-29.480469-22.496094-35.972656zm0 0" fill="#54ba9d" fill-rule="evenodd"/><g fill="#000001"><path d="m210.5 132c-5.523438 0-10 4.476562-10 10v320.003906c0 5.519532 4.476562 10 10 10s10-4.480468 10-10v-320.003906c0-5.523438-4.476562-10-10-10zm0 0"/><path d="m110.5 352h.234375c5.523437 0 10-4.480469 10-10 0-5.523438-4.476563-10-10-10h-.234375c-5.523438 0-10 4.476562-10 10s4.476562 10 10 10zm0 0"/><path d="m260.496094 170.964844c0-5.519532-4.476563-10-10-10-5.519532 0-10 4.480468-10 10v31.035156l.003906 260.003906c0 5.519532 4.480469 10 10 10 5.523438 0 10-4.480468 10-10l-.003906-260.003906zm0 0"/><path d="m250.496094 152.234375c5.523437 0 10-4.476563 10-10v-.234375c0-5.523438-4.476563-10-10-10-5.519532 0-10 4.476562-10 10v.234375c0 5.523437 4.480468 10 10 10zm0 0"/><path d="m10.734375 492h-.234375c-5.523438 0-10 4.476562-10 10s4.476562 10 10 10h.234375c5.523437 0 10-4.476562 10-10s-4.472656-10-10-10zm0 0"/><path d="m450.496094 492h-.234375c-5.523438 0-10 4.476562-10 10s4.476562 10 10 10h.234375c5.523437 0 10-4.476562 10-10s-4.476563-10-10-10zm0 0"/><path d="m421.53125 492h-41.035156v-21.007812c22.796875-4.644532 40.003906-24.847657 40.003906-48.996094 0-27.570313-22.429688-50.003906-50-50.003906s-50 22.433593-50 50.003906c0 24.144531 17.203125 44.347656 39.996094 48.996094v21.007812h-59.996094v-390c0-5.519531-4.476562-10-10-10h-10v-30.003906c0-5.519532-4.476562-10-10-10h-1.265625c-3.625-14.03125-14.699219-25.105469-28.734375-28.730469v-13.265625c0-5.523438-4.476562-10-10-10s-10 4.476562-10 10v13.265625c-14.035156 3.628906-25.105469 14.699219-28.730469 28.734375h-1.269531c-5.523438 0-10 4.476562-10 10v30.003906h-10c-5.523438 0-10 4.476563-10 10v189.996094h-110c-5.519531 0-10 4.476562-10 10v190h-1.035156c-5.519532 0-10 4.476562-10 10s4.480468 10 10 10h382.066406c5.523438 0 10-4.476562 10-10s-4.476562-10-10-10zm-81.03125-70.003906c0-16.542969 13.457031-30.003906 30-30.003906s30 13.460937 30 30.003906c0 13.039062-8.359375 24.152344-20.003906 28.28125v-8.28125c0-5.519532-4.476563-10-10-10-5.523438 0-10 4.480468-10 10v8.28125c-11.636719-4.128906-19.996094-15.246094-19.996094-28.28125zm-110-379.996094c7.382812 0 13.828125 4.03125 17.292969 9.996094h-34.585938c3.464844-5.964844 9.910157-9.996094 17.292969-9.996094zm-30 29.996094h60v20.003906h-60zm-140 240.003906h100v20h-21.03125c-5.523438 0-10 4.476562-10 10 0 5.519531 4.476562 10 10 10h21.03125v19.996094h-50c-5.523438 0-10 4.480468-10 10 0 5.523437 4.476562 10 10 10h50v20.003906h-50c-5.523438 0-10 4.476562-10 10 0 5.519531 4.476562 10 10 10h50v19.996094h-50c-5.523438 0-10 4.480468-10 10 0 5.523437 4.476562 10 10 10h50v20.003906h-100zm120-10v-190h100v380h-100zm0 0"/></g></svg>