<svg height="512pt" viewBox="0 -16 512.001 512" width="512pt" xmlns="http://www.w3.org/2000/svg"><path d="m286.132812 13.636719c-53.300781 13.480469-92.746093 61.753906-92.746093 119.246093 0 57.488282 39.445312 105.765626 92.746093 119.246094 53.300782-13.480468 92.75-61.753906 92.75-119.246094 0-57.492187-39.449218-105.765624-92.75-119.246093zm0 0" fill="#ffc943"/><path d="m330.175781 132.882812c0-35.132812-24.390625-64.546874-57.160156-72.289062-32.765625 7.742188-57.15625 37.15625-57.15625 72.289062 0 35.128907 24.390625 64.546876 57.15625 72.285157 32.769531-7.738281 57.160156-37.15625 57.160156-72.285157zm0 0" fill="#d8902a"/><path d="m409.253906 226.898438c-53.304687 13.480468-92.75 61.753906-92.75 119.246093 0 57.492188 39.445313 105.765625 92.75 119.246094 53.300782-13.480469 92.746094-61.753906 92.746094-119.246094 0-57.492187-39.445312-105.765625-92.746094-119.246093zm0 0" fill="#ffc943"/><path d="m453.296875 346.144531c0-35.132812-24.394531-64.546875-57.160156-72.285156-32.769531 7.738281-57.160157 37.152344-57.160157 72.285156 0 35.132813 24.390626 64.546875 57.160157 72.285157 32.765625-7.738282 57.160156-37.152344 57.160156-72.285157zm0 0" fill="#d8902a"/><g fill="#ffc943"><path d="m413.332031 346.144531c0 18.960938-15.371093 34.332031-34.332031 34.332031s-34.332031-15.371093-34.332031-34.332031c0-18.960937 15.371093-34.332031 34.332031-34.332031s34.332031 15.371094 34.332031 34.332031zm0 0"/><path d="m290.210938 132.882812c0 18.960938-15.371094 34.328126-34.328126 34.328126-18.960937 0-34.332031-15.367188-34.332031-34.328126 0-18.960937 15.371094-34.332031 34.332031-34.332031 18.957032 0 34.328126 15.371094 34.328126 34.332031zm0 0"/><path d="m163.132812 226.898438c-53.300781 13.480468-92.746093 61.753906-92.746093 119.246093 0 57.492188 39.445312 105.765625 92.746093 119.246094 53.300782-13.480469 92.75-61.753906 92.75-119.246094 0-57.492187-39.449218-105.765625-92.75-119.246093zm0 0"/></g><path d="m338.976562 346.144531c0-35.132812 24.390626-64.546875 57.160157-72.285156-5.503907-1.300781-11.234375-2.011719-17.136719-2.011719-41.03125 0-74.296875 33.265625-74.296875 74.296875s33.265625 74.296875 74.296875 74.296875c5.902344 0 11.632812-.710937 17.136719-2.011718-32.769531-7.738282-57.160157-37.152344-57.160157-72.285157zm0 0" fill="#fff"/><path d="m215.859375 132.882812c0-35.132812 24.390625-64.546874 57.15625-72.289062-5.5-1.296875-11.234375-2.007812-17.132813-2.007812-41.035156 0-74.296874 33.261718-74.296874 74.296874 0 41.03125 33.261718 74.292969 74.296874 74.292969 5.898438 0 11.632813-.707031 17.132813-2.007812-32.765625-7.738281-57.15625-37.15625-57.15625-72.285157zm0 0" fill="#fff"/><path d="m92.859375 346.144531c0-35.132812 24.390625-64.546875 57.15625-72.285156-5.5-1.300781-11.234375-2.011719-17.132813-2.011719-41.035156 0-74.296874 33.265625-74.296874 74.296875s33.261718 74.296875 74.296874 74.296875c5.898438 0 11.632813-.710937 17.132813-2.011718-32.765625-7.738282-57.15625-37.152344-57.15625-72.285157zm0 0" fill="#fff"/><path d="m207.175781 346.144531c0-35.132812-24.390625-64.546875-57.160156-72.285156-32.765625 7.738281-57.15625 37.152344-57.15625 72.285156 0 35.132813 24.390625 64.546875 57.15625 72.285157 32.769531-7.738282 57.160156-37.152344 57.160156-72.285157zm0 0" fill="#d8902a"/><path d="m167.210938 346.144531c0 18.960938-15.371094 34.332031-34.328126 34.332031-18.960937 0-34.332031-15.371093-34.332031-34.332031 0-18.960937 15.371094-34.332031 34.332031-34.332031 18.957032 0 34.328126 15.371094 34.328126 34.332031zm0 0" fill="#ffc943"/><path d="m379 430.28125c21.554688 0 43.109375-8.207031 59.519531-24.617188 21.917969-21.914062 30.007813-53.988281 21.121094-83.707031-1.582031-5.292969-7.15625-8.296875-12.445313-6.714843-5.292968 1.582031-8.296874 7.15625-6.714843 12.445312 6.777343 22.664062.609375 47.125-16.101563 63.835938-25.023437 25.019531-65.738281 25.019531-90.757812 0-25.023438-25.023438-25.023438-65.738282 0-90.757813 17.476562-17.476563 42.863281-23.347656 66.261718-15.324219 5.222657 1.792969 10.910157-.988281 12.703126-6.214844 1.792968-5.222656-.992188-10.910156-6.214844-12.703124-30.679688-10.523438-63.972656-2.820313-86.894532 20.097656-32.820312 32.820312-32.820312 86.222656 0 119.042968 16.414063 16.410157 37.96875 24.617188 59.523438 24.617188zm0 0"/><path d="m424.410156 300.796875c1.949219 1.933594 4.496094 2.898437 7.039063 2.898437 2.574219 0 5.148437-.988281 7.105469-2.960937 3.886718-3.921875 3.855468-10.253906-.066407-14.144531l-.132812-.132813c-3.902344-3.902343-10.234375-3.902343-14.140625 0-3.90625 3.90625-3.90625 10.238281 0 14.144531zm0 0"/><path d="m284.953125 440.191406c1.953125 1.949219 4.515625 2.925782 7.074219 2.925782s5.117187-.976563 7.070312-2.925782c3.90625-3.90625 3.90625-10.238281 0-14.144531l-.089844-.089844c-3.902343-3.902343-10.234374-3.902343-14.140624 0-3.90625 3.90625-3.90625 10.238281 0 14.144531zm0 0"/><path d="m379 302.222656c-24.152344 0-43.800781 19.648438-43.800781 43.804688 0 24.152344 19.648437 43.800781 43.800781 43.800781s43.800781-19.652344 43.800781-43.800781c0-24.152344-19.648437-43.804688-43.800781-43.804688zm0 67.605469c-13.125 0-23.800781-10.679687-23.800781-23.800781 0-13.125 10.675781-23.804688 23.800781-23.804688s23.800781 10.679688 23.800781 23.804688c0 13.121094-10.675781 23.800781-23.800781 23.800781zm0 0"/><path d="m288.558594 209.671875c1.472656 0 2.972656-.328125 4.386718-1.019531 29.132813-14.25 47.230469-43.238282 47.230469-75.652344 0-46.414062-37.761719-84.175781-84.175781-84.175781s-84.175781 37.761719-84.175781 84.175781c0 30.992188 16.957031 59.398438 44.257812 74.125 4.859375 2.625 10.925781.808594 13.550781-4.050781 2.621094-4.863281.804688-10.925781-4.054687-13.550781-20.820313-11.234376-33.753906-32.890626-33.753906-56.523438 0-35.386719 28.789062-64.175781 64.175781-64.175781s64.175781 28.789062 64.175781 64.175781c0 24.714844-13.800781 46.820312-36.019531 57.6875-4.960938 2.429688-7.015625 8.417969-4.589844 13.378906 1.738282 3.546875 5.292969 5.605469 8.992188 5.605469zm0 0"/><path d="m256 197.175781c-5.523438 0-10 4.476563-10 10 0 5.523438 4.476562 10 10 10h.230469c5.523437 0 10-4.476562 10-10 0-5.523437-4.476563-10-10-10zm0 0"/><path d="m256 20h.125c5.523438 0 10-4.476562 10-10s-4.476562-10-10-10h-.125c-5.523438 0-10 4.476562-10 10s4.476562 10 10 10zm0 0"/><path d="m299.886719 133.085938c0-11.703126-4.558594-22.699219-12.828125-30.972657-8.273438-8.273437-19.273438-12.832031-30.972656-12.832031-11.699219 0-22.699219 4.558594-30.972657 12.832031-17.078125 17.078125-17.078125 44.863281 0 61.941407 8.539063 8.542968 19.753907 12.8125 30.972657 12.8125 11.214843-.003907 22.433593-4.273438 30.972656-12.8125 8.269531-8.269532 12.828125-19.269532 12.828125-30.96875zm-26.972657 16.828124c-9.277343 9.28125-24.378906 9.28125-33.660156 0-9.28125-9.277343-9.28125-24.378906 0-33.660156 4.496094-4.496094 10.472656-6.96875 16.832032-6.96875 6.355468 0 12.332031 2.476563 16.828124 6.96875 4.496094 4.496094 6.972657 10.472656 6.972657 16.832032 0 6.355468-2.476563 12.332031-6.972657 16.828124zm0 0"/><path d="m192.519531 405.664062c32.820313-32.820312 32.820313-86.21875 0-119.039062-21.914062-21.917969-53.988281-30.011719-83.707031-21.121094-5.292969 1.582032-8.296875 7.15625-6.714844 12.445313 1.582032 5.292969 7.15625 8.300781 12.445313 6.714843 22.664062-6.777343 47.125-.609374 63.835937 16.101563 25.019532 25.023437 25.019532 65.738281 0 90.757813-12.511718 12.515624-28.945312 18.769531-45.378906 18.769531-16.433594-.003907-32.871094-6.257813-45.378906-18.765625-17.476563-17.480469-23.347656-42.867188-15.324219-66.261719 1.792969-5.226563-.988281-10.914063-6.210937-12.707031-5.222657-1.789063-10.914063.992187-12.707032 6.214844-10.523437 30.675781-2.820312 63.972656 20.097656 86.894531 16.410157 16.410156 37.96875 24.613281 59.523438 24.613281s43.109375-8.207031 59.519531-24.617188zm0 0"/><path d="m80.386719 303.859375c2.558593 0 5.117187-.976563 7.070312-2.929687l.164063-.164063c3.90625-3.90625 3.90625-10.238281 0-14.144531-3.90625-3.902344-10.238282-3.902344-14.144532 0l-.164062.164062c-3.902344 3.90625-3.902344 10.238282 0 14.144532 1.953125 1.953124 4.515625 2.929687 7.074219 2.929687zm0 0"/><path d="m212.816406 426.132812c-3.90625 3.90625-3.90625 10.238282 0 14.144532 1.953125 1.953125 4.511719 2.929687 7.070313 2.929687 2.558593 0 5.117187-.976562 7.070312-2.929687l.089844-.085938c3.902344-3.90625 3.902344-10.238281 0-14.144531-3.90625-3.90625-10.238281-3.90625-14.144531 0zm0 0"/><path d="m132.882812 389.945312c24.148438 0 43.800782-19.648437 43.800782-43.800781 0-24.152343-19.652344-43.800781-43.800782-43.800781-24.152343 0-43.804687 19.648438-43.804687 43.800781 0 24.152344 19.652344 43.800781 43.804687 43.800781zm0-67.601562c13.121094 0 23.800782 10.675781 23.800782 23.800781s-10.679688 23.800781-23.800782 23.800781c-13.125 0-23.804687-10.675781-23.804687-23.800781s10.679687-23.800781 23.804687-23.800781zm0 0"/><path d="m502 459.144531h-52.828125c8.515625-5.296875 16.539063-11.621093 23.875-18.953125 25.117187-25.121094 38.953125-58.523437 38.953125-94.046875 0-35.523437-13.832031-68.925781-38.953125-94.046875-25.121094-25.117187-58.519531-38.953125-94.046875-38.953125-6.019531 0-11.972656.40625-17.839844 1.1875 17.441406-22.5 27.839844-50.722656 27.839844-81.332031 0-60.726562-41.027344-113.699219-99.769531-128.8125-5.347657-1.375-10.800781 1.84375-12.175781 7.191406-1.375 5.351563 1.84375 10.800782 7.191406 12.175782 49.902344 12.84375 84.753906 57.847656 84.753906 109.445312 0 62.308594-50.691406 113-113 113s-113-50.691406-113-113c0-51.597656 34.851562-96.601562 84.753906-109.441406 5.347656-1.378906 8.566406-6.828125 7.191406-12.175782-1.375-5.347656-6.828124-8.566406-12.175781-7.195312-58.742187 15.113281-99.769531 68.085938-99.769531 128.8125 0 30.609375 10.398438 58.832031 27.84375 81.332031-5.867188-.78125-11.824219-1.1875-17.84375-1.1875-35.523438 0-68.925781 13.832031-94.046875 38.953125-25.117187 25.121094-38.953125 58.519532-38.953125 94.046875 0 35.527344 13.835938 68.925781 38.953125 94.046875 7.335937 7.332032 15.359375 13.65625 23.875 18.953125h-52.828125c-5.523438 0-10 4.476563-10 10 0 5.523438 4.476562 10 10 10h492c5.523438 0 10-4.476562 10-10 0-5.523437-4.476562-10-10-10zm-228.246094-194.332031c-7.359375 9.507812-13.289062 19.832031-17.753906 30.660156-4.464844-10.828125-10.394531-21.152344-17.753906-30.660156 5.808594.777344 11.734375 1.1875 17.753906 1.1875s11.945312-.410156 17.753906-1.1875zm-220.65625 161.234375c-44.058594-44.058594-44.058594-115.746094 0-159.804687 44.058594-44.0625 115.746094-44.0625 159.804688 0 21.089844 21.085937 32.363281 48.847656 33.082031 77.089843-.039063 1.957031-.039063 3.910157.003906 5.867188-.492187 18.695312-5.617187 37.410156-15.628906 54.355469-2.808594 4.757812-1.230469 10.890624 3.527344 13.699218 4.753906 2.808594 10.886719 1.230469 13.695312-3.527344 3.238281-5.480468 6.039063-11.125 8.417969-16.878906 2.378906 5.753906 5.179688 11.398438 8.417969 16.878906 2.808593 4.757813 8.941406 6.332032 13.695312 3.527344 4.753907-2.808594 6.332031-8.941406 3.523438-13.699218-10.011719-16.945313-15.132813-35.664063-15.628907-54.355469.042969-1.957031.046876-3.910157.003907-5.867188.722656-28.242187 11.996093-56.003906 33.085937-77.089843 44.058594-44.0625 115.746094-44.0625 159.804688 0 44.058594 44.058593 44.058594 115.746093 0 159.804687-21.226563 21.226563-49.21875 32.511719-77.65625 33.097656h-4.660156c-18.90625-.394531-37.859376-5.511719-55-15.640625-4.753907-2.808594-10.886719-1.230468-13.695313 3.527344-2.363281 3.996094-1.613281 8.960938 1.507813 12.113281h-106.796876c3.121094-3.152343 3.871094-8.117187 1.507813-12.113281-2.808594-4.757812-8.941406-6.335938-13.695313-3.527344-17.128906 10.121094-36.0625 15.242188-54.953124 15.640625h-4.738282c-28.425781-.59375-56.40625-11.878906-77.625-33.097656zm0 0"/></svg>