<svg width="65" height="18" viewBox="0 0 65 18" fill="none" xmlns="http://www.w3.org/2000/svg">
<path d="M4.81563 7.256C4.94363 7.384 5.22363 7.528 5.65563 7.688C6.08763 7.832 6.59963 7.952 7.19163 8.048C7.78363 8.144 8.41563 8.2 9.08763 8.216C9.77563 8.216 10.4236 8.144 11.0316 8C11.4956 7.888 11.8636 7.792 12.1356 7.712C12.4076 7.616 12.6156 7.576 12.7596 7.592C12.9196 7.608 13.0316 7.696 13.0956 7.856C13.1756 8.016 13.2556 8.272 13.3356 8.624C13.3836 8.848 13.4316 9.168 13.4796 9.584C13.5276 10 13.5756 10.456 13.6236 10.952C13.6716 11.448 13.7116 11.968 13.7436 12.512C13.7756 13.04 13.7916 13.544 13.7916 14.024C13.7916 14.504 13.7676 14.936 13.7196 15.32C13.6716 15.704 13.5996 15.984 13.5036 16.16C13.3596 16.4 13.1276 16.592 12.8076 16.736C12.5036 16.864 12.1516 16.952 11.7516 17C11.3516 17.032 10.9276 17.016 10.4796 16.952C10.0316 16.888 9.60763 16.776 9.20763 16.616C9.51163 16.44 9.75963 16.168 9.95163 15.8C10.1596 15.416 10.3196 14.992 10.4316 14.528C9.87163 15.344 9.11963 15.984 8.17563 16.448C7.24763 16.912 6.23963 17.096 5.15163 17C3.95163 16.904 2.96763 16.496 2.19963 15.776C1.44763 15.04 0.927625 14.12 0.639625 13.016C0.351625 11.912 0.303625 10.688 0.495625 9.344C0.703625 7.984 1.16763 6.624 1.88763 5.264C2.49563 4.128 3.27163 3.192 4.21563 2.456C5.15963 1.704 6.13563 1.144 7.14363 0.775999C8.15163 0.407999 9.11963 0.231999 10.0476 0.248C10.9756 0.263999 11.7276 0.463999 12.3036 0.847999C12.6396 1.072 12.8876 1.416 13.0476 1.88C13.2236 2.344 13.3116 2.84 13.3116 3.368C13.3116 3.896 13.2396 4.416 13.0956 4.928C12.9516 5.44 12.7436 5.848 12.4716 6.152C12.2476 5.688 11.8236 5.336 11.1996 5.096C10.5756 4.84 9.87163 4.704 9.08763 4.688C8.30363 4.672 7.50363 4.792 6.68763 5.048C5.88763 5.288 5.19963 5.672 4.62363 6.2C4.14363 6.648 3.76763 7.136 3.49563 7.664C3.22363 8.176 3.05563 8.704 2.99163 9.248C2.92763 9.792 2.97563 10.32 3.13563 10.832C3.31163 11.344 3.60763 11.816 4.02363 12.248C4.35963 12.6 4.80763 12.832 5.36763 12.944C5.94363 13.04 6.55163 13.032 7.19163 12.92C7.83163 12.792 8.44763 12.56 9.03963 12.224C9.64763 11.888 10.1516 11.44 10.5516 10.88C10.4876 10.592 10.3996 10.352 10.2876 10.16C10.1436 10.288 9.91963 10.44 9.61563 10.616C9.31163 10.792 8.95963 10.968 8.55963 11.144C8.15963 11.304 7.73563 11.448 7.28763 11.576C6.85563 11.688 6.43963 11.736 6.03963 11.72C5.67163 11.704 5.35163 11.56 5.07963 11.288C4.80763 11.016 4.60763 10.672 4.47963 10.256C4.36763 9.824 4.33563 9.344 4.38363 8.816C4.43163 8.288 4.57563 7.768 4.81563 7.256ZM24.5438 10.88C23.9998 11.264 23.3918 11.552 22.7198 11.744C22.0638 11.936 21.3838 12.048 20.6798 12.08C19.9918 12.112 19.3118 12.064 18.6398 11.936C17.9678 11.808 17.3598 11.624 16.8158 11.384C16.8798 11.896 17.1038 12.304 17.4878 12.608C17.8718 12.896 18.3358 13.096 18.8798 13.208C19.4238 13.32 20.0078 13.352 20.6318 13.304C21.2718 13.256 21.8718 13.152 22.4318 12.992C23.0078 12.832 23.5118 12.624 23.9438 12.368C24.3918 12.096 24.6958 11.8 24.8558 11.48C25.1438 11.528 25.3678 11.688 25.5278 11.96C25.7038 12.232 25.7998 12.552 25.8158 12.92C25.8478 13.288 25.7918 13.68 25.6478 14.096C25.5198 14.512 25.3038 14.888 24.9998 15.224C24.5678 15.704 23.9678 16.104 23.1998 16.424C22.4318 16.744 21.6078 16.928 20.7278 16.976C19.8638 17.024 19.0078 16.92 18.1598 16.664C17.3118 16.408 16.5998 15.952 16.0238 15.296C15.6238 14.848 15.2798 14.28 14.9918 13.592C14.7198 12.888 14.5598 12.12 14.5118 11.288C14.4798 10.456 14.5918 9.6 14.8478 8.72C15.1198 7.824 15.5998 6.96 16.2878 6.128C16.8958 5.392 17.5678 4.848 18.3038 4.496C19.0558 4.128 19.7998 3.912 20.5358 3.848C21.2878 3.768 21.9998 3.816 22.6718 3.992C23.3438 4.152 23.8958 4.392 24.3278 4.712C24.8398 5.096 25.2398 5.56 25.5278 6.104C25.8158 6.648 25.9758 7.216 26.0078 7.808C26.0398 8.384 25.9358 8.944 25.6958 9.488C25.4718 10.032 25.0878 10.496 24.5438 10.88ZM22.4798 7.856C22.2398 7.792 21.8958 7.736 21.4478 7.688C21.0158 7.64 20.5518 7.648 20.0558 7.712C19.5598 7.776 19.0718 7.912 18.5918 8.12C18.1118 8.328 17.7118 8.656 17.3918 9.104C17.6478 9.28 17.9598 9.424 18.3278 9.536C18.7118 9.632 19.1118 9.696 19.5278 9.728C19.9438 9.76 20.3598 9.76 20.7758 9.728C21.2078 9.68 21.6158 9.6 21.9998 9.488C22.3838 9.376 22.6718 9.248 22.8638 9.104C23.0718 8.944 23.1918 8.784 23.2238 8.624C23.2558 8.464 23.2078 8.32 23.0798 8.192C22.9678 8.048 22.7678 7.936 22.4798 7.856ZM36.4131 9.392C36.1091 8.832 35.7171 8.416 35.2371 8.144C34.7571 7.856 34.2451 7.688 33.7011 7.64C33.1571 7.592 32.6211 7.656 32.0931 7.832C31.5651 7.992 31.1091 8.232 30.7251 8.552C30.4211 8.792 30.1811 9.072 30.0051 9.392C29.8451 9.712 29.7411 10.04 29.6931 10.376C29.6611 10.696 29.6851 11.008 29.7651 11.312C29.8451 11.6 29.9811 11.84 30.1731 12.032C30.6051 12.48 31.1091 12.784 31.6851 12.944C32.2771 13.088 32.8691 13.112 33.4611 13.016C34.0531 12.92 34.6131 12.72 35.1411 12.416C35.6691 12.096 36.0931 11.696 36.4131 11.216C36.5571 11.392 36.7011 11.664 36.8451 12.032C37.0051 12.384 37.1171 12.784 37.1811 13.232C37.2611 13.664 37.2691 14.112 37.2051 14.576C37.1411 15.024 36.9491 15.424 36.6291 15.776C36.3411 16.112 35.9011 16.4 35.3091 16.64C34.7331 16.864 34.0771 16.984 33.3411 17C32.6051 17.032 31.8371 16.936 31.0371 16.712C30.2371 16.488 29.4771 16.088 28.7571 15.512C28.1971 15.048 27.7331 14.456 27.3651 13.736C27.0131 13.016 26.8051 12.232 26.7411 11.384C26.6931 10.52 26.8131 9.624 27.1011 8.696C27.3891 7.768 27.9011 6.872 28.6371 6.008C29.2291 5.288 29.9171 4.752 30.7011 4.4C31.4851 4.032 32.2611 3.824 33.0291 3.776C33.7971 3.728 34.5171 3.824 35.1891 4.064C35.8771 4.304 36.4291 4.672 36.8451 5.168C37.0851 5.472 37.2531 5.808 37.3491 6.176C37.4611 6.528 37.4931 6.896 37.4451 7.28C37.4131 7.648 37.3091 8.016 37.1331 8.384C36.9731 8.752 36.7331 9.088 36.4131 9.392ZM38.3438 1.736C38.4878 1.496 38.7198 1.272 39.0398 1.064C39.3598 0.839999 39.7198 0.655999 40.1198 0.511999C40.5358 0.367999 40.9678 0.263999 41.4158 0.199999C41.8638 0.135999 42.2878 0.127999 42.6878 0.175999C43.0878 0.224 43.4398 0.335999 43.7438 0.511999C44.0478 0.671999 44.2638 0.911999 44.3918 1.232C44.6158 1.808 44.6718 2.472 44.5598 3.224C44.4478 3.976 44.2478 4.776 43.9598 5.624C43.6878 6.456 43.3758 7.312 43.0238 8.192C42.6878 9.056 42.3998 9.896 42.1598 10.712C42.8478 10.216 43.5118 9.664 44.1518 9.056C44.7918 8.448 45.3438 7.84 45.8078 7.232C46.2878 6.608 46.6318 6.008 46.8398 5.432C47.0638 4.84 47.0958 4.312 46.9358 3.848C47.5598 3.752 48.1518 3.752 48.7118 3.848C49.2878 3.928 49.7758 4.096 50.1758 4.352C50.5918 4.608 50.9038 4.928 51.1118 5.312C51.3198 5.696 51.3678 6.128 51.2558 6.608C51.1598 7.072 50.9038 7.504 50.4878 7.904C50.0718 8.304 49.5758 8.672 48.9998 9.008C48.4398 9.344 47.8318 9.648 47.1758 9.92C46.5358 10.176 45.9278 10.4 45.3518 10.592C46.0238 11.264 46.6558 11.792 47.2478 12.176C47.8558 12.56 48.4158 12.816 48.9278 12.944C49.4398 13.072 49.9118 13.088 50.3438 12.992C50.7758 12.88 51.1598 12.672 51.4958 12.368C51.5438 12.864 51.5038 13.368 51.3758 13.88C51.2478 14.392 51.0398 14.864 50.7518 15.296C50.4798 15.728 50.1358 16.104 49.7198 16.424C49.3198 16.728 48.8638 16.92 48.3518 17C47.9198 17.08 47.4238 17.064 46.8638 16.952C46.3198 16.84 45.7518 16.608 45.1598 16.256C44.5678 15.888 43.9838 15.376 43.4078 14.72C42.8318 14.064 42.2958 13.224 41.7998 12.2C41.6878 12.92 41.6958 13.56 41.8238 14.12C41.9518 14.664 42.2718 15.112 42.7838 15.464C42.4958 15.912 42.1278 16.272 41.6798 16.544C41.2478 16.8 40.8078 16.952 40.3598 17C39.9118 17.048 39.4878 16.984 39.0878 16.808C38.7038 16.632 38.4158 16.328 38.2238 15.896C37.9998 15.4 37.9118 14.736 37.9598 13.904C38.0078 13.056 38.1118 12.136 38.2718 11.144C38.4478 10.152 38.6318 9.136 38.8238 8.096C39.0158 7.056 39.1518 6.096 39.2318 5.216C39.3278 4.32 39.3198 3.56 39.2078 2.936C39.0958 2.312 38.8078 1.912 38.3438 1.736ZM54.2907 4.832C54.7067 4.496 55.1227 4.272 55.5387 4.16C55.9707 4.048 56.3627 4.024 56.7147 4.088C57.7707 3.768 58.7947 3.696 59.7867 3.872C60.7787 4.048 61.6667 4.488 62.4507 5.192C63.0747 5.736 63.5467 6.44 63.8667 7.304C64.1867 8.152 64.3547 9.048 64.3707 9.992C64.3867 10.92 64.2347 11.84 63.9147 12.752C63.6107 13.664 63.1227 14.456 62.4507 15.128C61.8267 15.752 61.1147 16.224 60.3147 16.544C59.5147 16.848 58.6987 17 57.8667 17C57.0507 17 56.2587 16.84 55.4907 16.52C54.7227 16.2 54.0667 15.72 53.5227 15.08C52.8027 14.264 52.3227 13.36 52.0827 12.368C51.8427 11.376 51.7867 10.408 51.9147 9.464C52.0427 8.504 52.3147 7.616 52.7307 6.8C53.1627 5.968 53.6827 5.312 54.2907 4.832ZM55.7067 9.608C55.6267 9.576 55.5307 9.504 55.4187 9.392C55.3227 9.28 55.2267 9.136 55.1307 8.96C54.9387 9.424 54.8267 9.832 54.7947 10.184C54.7787 10.536 54.8747 10.912 55.0827 11.312C55.3227 11.776 55.6667 12.144 56.1147 12.416C56.5787 12.688 57.0747 12.864 57.6027 12.944C58.1307 13.024 58.6507 13.024 59.1627 12.944C59.6747 12.848 60.0987 12.68 60.4347 12.44C60.7707 12.2 61.0347 11.92 61.2267 11.6C61.4347 11.28 61.5627 10.952 61.6107 10.616C61.6747 10.28 61.6587 9.952 61.5627 9.632C61.4667 9.296 61.2987 8.992 61.0587 8.72C60.6907 8.32 60.2427 8.056 59.7147 7.928C59.1867 7.784 58.6587 7.76 58.1307 7.856C57.6027 7.952 57.1147 8.152 56.6667 8.456C56.2187 8.744 55.8987 9.128 55.7067 9.608Z" fill="black"/>
</svg>
