<svg width="77" height="110" viewBox="0 0 77 110" fill="none" xmlns="http://www.w3.org/2000/svg">
<path d="M75.8771 54.5304C75.8771 57.2803 75.4512 59.9966 74.6799 62.6612C74.049 64.841 73.1868 66.9863 72.1376 69.087C71.0741 71.2162 69.8183 73.2997 68.4161 75.327C66.24 78.4732 63.7114 81.4842 61.0016 84.3211C46.9926 98.987 28.1429 109 28.1429 109C28.1429 109 13.8403 94.7831 5.9997 76.4746C4.65426 73.3329 3.4991 70.0707 2.63916 66.7391C1.60688 62.7399 1 58.6409 1 54.5304C1.28961 52.2638 1.76024 50.0727 2.38838 47.9565C3.76023 43.3347 5.88336 39.07 8.5128 35.1553C12.251 29.59 17.0126 24.7323 22.0938 20.5623C23.5649 19.355 25.0629 18.2052 26.5705 17.1127C27.7458 16.261 28.9269 15.4441 30.1058 14.6617C32.9548 12.7709 35.7909 11.0816 38.5 9.59063C42.3223 7.48692 45.8918 5.7779 48.8876 4.45445C54.1376 2.13514 57.6258 1 57.6258 1C57.6258 1 60.8048 3.89303 64.5181 9.59063C65.7902 11.5424 67.125 13.8233 68.4161 16.4297C69.6932 19.0076 70.9276 21.904 72.0164 25.1154C72.9308 27.812 73.7425 30.7307 74.3908 33.8696C74.8526 36.1059 75.2315 38.454 75.5053 40.913C75.5913 41.6847 75.6669 42.4673 75.7314 43.2609C75.9153 45.5204 76.0098 47.8684 75.9992 50.3043C75.9932 51.6848 75.9534 53.0936 75.8771 54.5304Z" fill="#1A936F"/>
<path d="M28.1429 109L28.3389 108.189L33.8125 85.5217M28.1429 109L18.3333 82.5888M28.1429 109C28.1429 109 13.8403 94.7831 5.9997 76.4746M28.1429 109C28.1429 109 46.9926 98.987 61.0016 84.3211M57.6258 1L53.0485 16.4297M57.6258 1C57.6258 1 54.1376 2.13514 48.8876 4.45445M57.6258 1C57.6258 1 60.8048 3.89303 64.5181 9.59063M47.875 33.8696L43.1875 47.9565M47.875 33.8696L53.0485 16.4297M47.875 33.8696L44.4947 25.1154M47.875 33.8696L54.5669 28.188M68.4161 16.4297C67.125 13.8233 65.7902 11.5424 64.5181 9.59063M68.4161 16.4297L61.2588 22.5065M68.4161 16.4297C69.6932 19.0076 70.9275 21.904 72.0164 25.1154M43.1875 47.9565L38.5 59.6957M43.1875 47.9565L37.0147 39.94M43.1875 47.9565L49.4327 45.1371M74.3908 33.8696C73.7425 30.7307 72.9308 27.812 72.0164 25.1154M74.3908 33.8696C74.8526 36.1059 75.2315 38.454 75.5053 40.913M74.3908 33.8696L68.4161 36.5669M36.1562 69.087L38.5 59.6957M36.1562 69.087L34.9844 76.1304M36.1562 69.087L49.787 62.6612M75.9992 50.3043C75.9932 51.6848 75.9534 53.0936 75.8771 54.5304C75.8771 57.2803 75.4512 59.9966 74.6799 62.6612M75.9992 50.3043L70.0507 53.1086M75.9992 50.3043C76.0098 47.8684 75.9153 45.5204 75.7314 43.2609M33.8125 85.5217L34.9844 76.1304M33.8125 85.5217L42.2129 83.0468M68.4161 75.327C66.24 78.4732 63.7114 81.4842 61.0016 84.3211M68.4161 75.327L62.26 77.1407M68.4161 75.327C69.8183 73.2997 71.0741 71.2162 72.1376 69.087M38.5 59.6957L8.5128 35.1553M8.5128 35.1553C12.251 29.59 17.0126 24.7323 22.0938 20.5623M8.5128 35.1553C5.88336 39.07 3.76023 43.3347 2.38838 47.9565M22.0938 20.5623L26.0111 25.6497M22.0938 20.5623C23.5649 19.355 25.0629 18.2052 26.5705 17.1127M38.5 9.59063C42.3223 7.48692 45.8918 5.7779 48.8876 4.45445M38.5 9.59063L40.6223 15.087M38.5 9.59063C35.7909 11.0816 32.9548 12.7709 30.1058 14.6617M34.9844 76.1304L25.6094 52.6522L29.6897 62.8707L15.0625 62.0435M2.38838 47.9565C1.76024 50.0727 1.28961 52.2638 1 54.5304C1 58.6409 1.60688 62.7399 2.63916 66.7391C3.4991 70.0707 4.65426 73.3329 5.9997 76.4746M2.38838 47.9565H19.75L31.4688 57.3478M15.0625 73.7826L16.4052 77.3976M18.3333 82.5888L25.6094 72.6243M18.3333 82.5888L16.4052 77.3976M16.4052 77.3976L5.9997 76.4746M56.696 59.4042L59.5938 52.6522M56.696 59.4042L61.9375 56.9333M56.696 59.4042L49.787 62.6612M61.9375 56.9333L59.5938 64.3913M61.9375 56.9333L67.0345 54.5304M49.787 62.6612L61.9375 66.7391M67.0345 54.5304L74.6799 62.6612M67.0345 54.5304L70.0507 53.1086M74.6799 62.6612C74.049 64.841 73.1868 66.9863 72.1376 69.087M70.0507 53.1086L75.7314 43.2609M75.7314 43.2609C75.6669 42.4673 75.5913 41.6847 75.5053 40.913M53.9518 79.5884L61.0016 84.3211M53.9518 79.5884L62.26 77.1407M53.9518 79.5884L45.5312 82.0692M62.26 77.1407L72.1376 69.087M45.5312 82.0692L48.466 75.327M45.5312 82.0692L42.2129 83.0468M42.2129 83.0468L47.875 90.2174M33.8125 35.7813L36.1562 24.4783M33.8125 35.7813L37.0147 39.94M33.8125 35.7813L27.242 27.2483M37.0147 39.94H22.7517M27.242 27.2483L17.4062 31.5217M27.242 27.2483L26.0111 25.6497M26.0111 25.6497L26.5705 17.1127M26.5705 17.1127C27.7458 16.261 28.9269 15.4441 30.1058 14.6617M53.0485 16.4297L48.8876 4.45445M53.0485 16.4297L64.5181 9.59063M61.2588 22.5065L72.0164 25.1154M61.2588 22.5065L54.5669 28.188M72.0164 25.1154L68.4161 36.5669M63.1041 20.5623L64.2812 15.087M41.8798 18.3435L36.1562 17.4348M41.8798 18.3435L40.6223 15.087M41.8798 18.3435L44.4947 25.1154M40.6223 15.087L45.5312 8.04348M44.4947 25.1154L30.1058 14.6617M54.5669 28.188L57.0803 31.0288M59.5938 33.8696L57.0803 31.0288M57.0803 31.0288L55.6779 42.3176M55.6779 42.3176L57.6258 41.4382M55.6779 42.3176L49.4327 45.1371M57.6258 41.4382L75.5053 40.913M57.6258 41.4382L68.4161 36.5669M49.4327 45.1371L51.4862 47.9565M54.9062 52.6522L52.7373 49.6742M52.7373 49.6742L57.25 50.3043L51.4862 47.9565M52.7373 49.6742L51.4862 47.9565M51.4862 47.9565L48.466 58.4649" stroke="#114B5F"/>
</svg>
