<svg width="88" height="97" viewBox="0 0 88 97" fill="none" xmlns="http://www.w3.org/2000/svg">
<path fill-rule="evenodd" clip-rule="evenodd" d="M46.0371 6.62244C44.1315 7.5401 42.8164 9.4894 42.8164 11.7451H49.2578C49.2578 9.4894 47.9427 7.5401 46.0371 6.62244Z" fill="url(#paint0_linear)"/>
<path fill-rule="evenodd" clip-rule="evenodd" d="M46.0371 6.62244C44.1315 7.5401 42.8164 9.4894 42.8164 11.7451H49.2578C49.2578 9.4894 47.9427 7.5401 46.0371 6.62244Z" fill="url(#paint1_linear)"/>
<path fill-rule="evenodd" clip-rule="evenodd" d="M49.2578 11.7452H42.627V19.3241H51.1523V11.7452H49.2578Z" fill="url(#paint2_linear)"/>
<path fill-rule="evenodd" clip-rule="evenodd" d="M49.2578 11.7452H42.627V19.3241H51.1523V11.7452H49.2578Z" fill="url(#paint3_linear)"/>
<path fill-rule="evenodd" clip-rule="evenodd" d="M51.1523 19.3242H43.0059V95.1055H54.9414V19.3242H51.1523Z" fill="url(#paint4_linear)"/>
<path fill-rule="evenodd" clip-rule="evenodd" d="M51.1523 19.3242H43.0059V95.1055H54.9414V19.3242H51.1523Z" fill="url(#paint5_linear)"/>
<path fill-rule="evenodd" clip-rule="evenodd" d="M32.207 72.3704V57.2148H20.2715V95.1055H32.207V72.3704Z" fill="url(#paint6_linear)"/>
<path fill-rule="evenodd" clip-rule="evenodd" d="M32.207 72.3704V57.2148H20.2715V95.1055H32.207V72.3704Z" fill="url(#paint7_linear)"/>
<path fill-rule="evenodd" clip-rule="evenodd" d="M73.4131 73.1332C70.8895 74.3631 69.1504 76.9518 69.1504 79.9483C69.1504 82.9448 70.8895 85.5342 73.4131 86.7642C75.9367 85.5342 77.675 82.9448 77.675 79.9483C77.675 76.9518 75.9367 74.3631 73.4131 73.1332Z" fill="#1A936F"/>
<path d="M39.7852 25.0078C38.7387 25.0078 37.8906 25.8559 37.8906 26.9023V87.5281C37.8906 88.5738 38.7387 89.4226 39.7852 89.4226C40.8316 89.4226 41.6797 88.5738 41.6797 87.5281V26.9023C41.6797 25.8559 40.8316 25.0078 39.7852 25.0078Z" fill="black"/>
<path d="M20.8398 66.6875H20.8842C21.9307 66.6875 22.7788 65.8387 22.7788 64.793C22.7788 63.7465 21.9307 62.8984 20.8842 62.8984H20.8398C19.7934 62.8984 18.9453 63.7465 18.9453 64.793C18.9453 65.8394 19.7934 66.6875 20.8398 66.6875Z" fill="black"/>
<path d="M49.257 32.3898C49.257 31.3441 48.4089 30.4952 47.3625 30.4952C46.3168 30.4952 45.468 31.3441 45.468 32.3898V38.2695L45.4687 87.528C45.4687 88.5737 46.3175 89.4226 47.3632 89.4226C48.4097 89.4226 49.2578 88.5737 49.2578 87.528L49.257 38.2695V32.3898Z" fill="black"/>
<path d="M47.3625 28.8413C48.4089 28.8413 49.257 27.9932 49.257 26.9467V26.9023C49.257 25.8559 48.4089 25.0078 47.3625 25.0078C46.3168 25.0078 45.468 25.8559 45.468 26.9023V26.9467C45.468 27.9932 46.3168 28.8413 47.3625 28.8413Z" fill="black"/>
<path d="M1.93893 93.2109H1.89453C0.848099 93.2109 0 94.059 0 95.1055C0 96.1519 0.848099 97 1.89453 97H1.93893C2.98537 97 3.83347 96.1519 3.83347 95.1055C3.83347 94.059 2.98611 93.2109 1.93893 93.2109Z" fill="black"/>
<path d="M85.2531 93.2109H85.2087C84.1623 93.2109 83.3142 94.059 83.3142 95.1055C83.3142 96.1519 84.1623 97 85.2087 97H85.2531C86.2996 97 87.1477 96.1519 87.1477 95.1055C87.1477 94.059 86.2996 93.2109 85.2531 93.2109Z" fill="black"/>
<path d="M79.7657 93.2109H71.9914V89.2309C76.3104 88.351 79.5703 84.5235 79.5703 79.9485C79.5703 74.7252 75.3209 70.4751 70.0976 70.4751C64.8743 70.4751 60.625 74.7252 60.625 79.9485C60.625 84.5227 63.8842 88.3503 68.2024 89.2309V93.2109H56.8359V19.3242C56.8359 18.2785 55.9878 17.4297 54.9414 17.4297H53.0468V11.7454C53.0468 10.6997 52.1987 9.85082 51.1523 9.85082H50.9125C50.2258 7.19256 48.1277 5.09451 45.4687 4.40775V1.89453C45.4687 0.848099 44.6206 0 43.5742 0C42.5278 0 41.6797 0.848099 41.6797 1.89453V4.40775C39.0206 5.09525 36.9233 7.19256 36.2366 9.85156H35.9961C34.9496 9.85156 34.1015 10.6997 34.1015 11.7461V17.4304H32.207C31.1606 17.4304 30.3125 18.2785 30.3125 19.325V55.3203H9.47262C8.42693 55.3203 7.57809 56.1684 7.57809 57.2148V93.2109H7.38197C6.33628 93.2109 5.48744 94.059 5.48744 95.1055C5.48744 96.1519 6.33628 97 7.38197 97H79.7657C80.8121 97 81.6602 96.1519 81.6602 95.1055C81.6602 94.059 80.8121 93.2109 79.7657 93.2109ZM64.414 79.9485C64.414 76.8144 66.9635 74.2641 70.0976 74.2641C73.2317 74.2641 75.7812 76.8144 75.7812 79.9485C75.7812 82.4188 74.1975 84.5242 71.9914 85.3064V83.7375C71.9914 82.6918 71.1433 81.843 70.0969 81.843C69.0504 81.843 68.2024 82.6918 68.2024 83.7375V85.3064C65.9977 84.5242 64.414 82.418 64.414 79.9485ZM43.5742 7.95703C44.9729 7.95703 46.194 8.72076 46.8504 9.85082H40.298C40.9544 8.72076 42.1755 7.95703 43.5742 7.95703ZM37.8906 13.6399H49.2578V17.4297H37.8906V13.6399ZM11.3671 59.1094H30.3125V62.8984H26.328C25.2816 62.8984 24.4335 63.7465 24.4335 64.793C24.4335 65.8387 25.2816 66.6875 26.328 66.6875H30.3125V70.4758H20.8398C19.7934 70.4758 18.9453 71.3247 18.9453 72.3704C18.9453 73.4168 19.7934 74.2649 20.8398 74.2649H30.3125V78.0547H20.8398C19.7934 78.0547 18.9453 78.9028 18.9453 79.9492C18.9453 80.9949 19.7934 81.8438 20.8398 81.8438H30.3125V85.6321H20.8398C19.7934 85.6321 18.9453 86.4809 18.9453 87.5266C18.9453 88.573 19.7934 89.4211 20.8398 89.4211H30.3125V93.2109H11.3671V59.1094ZM34.1015 57.2148V21.2188H53.0468V93.2109H34.1015V57.2148Z" fill="black"/>
<defs>
<linearGradient id="paint0_linear" x1="46.0371" y1="6.62244" x2="46.0371" y2="11.7451" gradientUnits="userSpaceOnUse">
<stop offset="0.169792" stop-color="#FFB600"/>
<stop offset="0.684492" stop-color="#88D498"/>
</linearGradient>
<linearGradient id="paint1_linear" x1="46.0371" y1="6.62244" x2="46.0371" y2="11.7451" gradientUnits="userSpaceOnUse">
<stop stop-color="white"/>
<stop offset="1" stop-color="white" stop-opacity="0"/>
</linearGradient>
<linearGradient id="paint2_linear" x1="46.8896" y1="11.7452" x2="46.8896" y2="19.3241" gradientUnits="userSpaceOnUse">
<stop offset="0.169792" stop-color="#FFB600"/>
<stop offset="0.684492" stop-color="#88D498"/>
</linearGradient>
<linearGradient id="paint3_linear" x1="46.8896" y1="11.7452" x2="46.8896" y2="19.3241" gradientUnits="userSpaceOnUse">
<stop stop-color="white"/>
<stop offset="1" stop-color="white" stop-opacity="0"/>
</linearGradient>
<linearGradient id="paint4_linear" x1="48.9736" y1="19.3242" x2="48.9736" y2="95.1055" gradientUnits="userSpaceOnUse">
<stop offset="0.169792" stop-color="#FFB600"/>
<stop offset="0.684492" stop-color="#88D498"/>
</linearGradient>
<linearGradient id="paint5_linear" x1="48.9736" y1="19.3242" x2="48.9736" y2="95.1055" gradientUnits="userSpaceOnUse">
<stop stop-color="white"/>
<stop offset="1" stop-color="white" stop-opacity="0"/>
</linearGradient>
<linearGradient id="paint6_linear" x1="26.2393" y1="57.2148" x2="26.2393" y2="95.1055" gradientUnits="userSpaceOnUse">
<stop offset="0.169792" stop-color="#FFB600"/>
<stop offset="0.684492" stop-color="#88D498"/>
</linearGradient>
<linearGradient id="paint7_linear" x1="26.2393" y1="57.2148" x2="26.2393" y2="95.1055" gradientUnits="userSpaceOnUse">
<stop stop-color="white"/>
<stop offset="1" stop-color="white" stop-opacity="0"/>
</linearGradient>
</defs>
</svg>
