<svg width="170" height="257" viewBox="0 0 170 257" fill="none" xmlns="http://www.w3.org/2000/svg">
<path d="M155.511 10.191C156.26 8.748 156.213 7.23895 155.407 6.82042C154.601 6.40188 153.34 7.23235 152.591 8.67533L96.9974 115.797C96.2485 117.24 96.2952 118.749 97.1017 119.168C97.9081 119.586 99.169 118.756 99.9178 117.313L155.511 10.191Z" fill="black"/>
<path d="M111.6 123.376C113.097 120.49 113.004 117.472 111.391 116.635L90.9478 106.025C89.3349 105.188 86.8132 106.849 85.3155 109.735L82.6036 114.96C81.1059 117.846 81.1993 120.864 82.8122 121.701L103.256 132.311C104.868 133.148 107.39 131.487 108.888 128.601L111.6 123.376Z" fill="black"/>
<path d="M109.258 128.317C109.826 126.981 109.706 125.709 108.981 125.333C108.103 124.877 106.705 125.913 106.002 127.529C96.1856 150.1 88.4657 164.717 73.734 189.598C72.8459 191.098 72.8237 192.796 73.6914 193.246C74.432 193.63 75.5727 192.96 76.3415 191.688C91.7099 166.267 99.3499 151.609 109.258 128.317Z" fill="black"/>
<path d="M99.4755 121.907C99.7845 121.217 99.7363 120.535 99.3597 120.34C98.9298 120.117 98.247 120.606 97.8827 121.39C85.8379 147.316 78.0942 161.978 64.1033 186.465C63.6763 187.213 63.672 188.046 64.0998 188.268C64.4787 188.465 65.0677 188.106 65.4541 187.45C79.9909 162.764 87.7679 148.065 99.4755 121.907Z" fill="black"/>
<path d="M103.874 124.165C104.174 123.481 104.122 122.812 103.75 122.618C103.317 122.393 102.628 122.892 102.267 123.684C90.6618 149.146 82.9199 163.863 68.5012 188.73C68.0667 189.479 68.0581 190.322 68.4888 190.546C68.8641 190.741 69.4467 190.39 69.8332 189.743C84.7334 164.801 92.5087 150.075 103.874 124.165Z" fill="black"/>
<path d="M90.7442 117.34C91.0382 116.656 90.9832 115.993 90.6118 115.8C90.1762 115.574 89.4835 116.074 89.1193 116.871C77.3236 142.67 69.7032 157.415 55.3742 181.897C54.9327 182.651 54.9216 183.505 55.3564 183.73C55.728 183.923 56.3032 183.584 56.6919 182.948C71.7768 158.284 79.4788 143.545 90.7442 117.34Z" fill="black"/>
<path d="M95.0965 119.628C95.4044 118.941 95.3567 118.262 94.9817 118.068C94.5516 117.845 93.8676 118.338 93.5069 119.124C81.6459 144.968 73.9145 159.547 59.7298 184.19C59.2997 184.937 59.2933 185.774 59.7219 185.996C60.0994 186.192 60.6861 185.836 61.0717 185.182C75.6353 160.51 83.3761 145.786 95.0965 119.628Z" fill="black"/>
<path d="M85.8049 116.258C86.4168 114.899 86.316 113.571 85.574 113.185C84.7121 112.738 83.3446 113.733 82.638 115.314C71.6695 139.841 64.1222 154.403 50.372 177.489C49.4857 178.977 49.4586 180.67 50.321 181.117C51.0625 181.502 52.2057 180.821 52.9653 179.54C66.9712 155.913 74.5368 141.294 85.8049 116.258Z" fill="black"/>
<path d="M60.676 157.688C49.3733 160.546 41.0087 170.783 41.0087 182.975C41.0087 195.165 49.3733 205.403 60.676 208.262C71.9787 205.403 80.3442 195.166 80.3442 182.975C80.3442 170.783 71.9787 160.546 60.676 157.688Z" fill="#FFC943"/>
<path d="M70.0156 182.975C70.0156 175.525 64.8435 169.287 57.8945 167.645C50.9463 169.287 45.7742 175.525 45.7742 182.975C45.7742 190.424 50.9463 196.662 57.8945 198.303C64.8435 196.662 70.0156 190.424 70.0156 182.975V182.975Z" fill="#D8902A"/>
<path d="M86.7845 202.911C75.4809 205.769 67.1163 216.006 67.1163 228.198C67.1163 240.389 75.4809 250.626 86.7845 253.485C98.0872 250.626 106.452 240.389 106.452 228.198C106.452 216.006 98.0872 205.769 86.7845 202.911V202.911Z" fill="#FFC943"/>
<path d="M96.1241 228.198C96.1241 220.748 90.9511 214.511 84.003 212.87C77.054 214.511 71.8818 220.748 71.8818 228.198C71.8818 235.648 77.054 241.886 84.003 243.527C90.9511 241.886 96.1241 235.648 96.1241 228.198V228.198Z" fill="#D8902A"/>
<path d="M87.6493 228.198C87.6493 232.219 84.3898 235.478 80.369 235.478C76.3482 235.478 73.0887 232.219 73.0887 228.198C73.0887 224.177 76.3482 220.917 80.369 220.917C84.3898 220.917 87.6493 224.177 87.6493 228.198V228.198Z" fill="#FFC943"/>
<path d="M61.5409 182.975C61.5409 186.996 58.2813 190.254 54.2614 190.254C50.2406 190.254 46.9811 186.996 46.9811 182.975C46.9811 178.954 50.2406 175.695 54.2614 175.695C58.2813 175.695 61.5409 178.954 61.5409 182.975Z" fill="#FFC943"/>
<path d="M34.5932 202.911C23.2904 205.77 14.9258 216.007 14.9258 228.198C14.9258 240.39 23.2904 250.627 34.5932 253.485C45.8959 250.627 54.2614 240.39 54.2614 228.198C54.2614 216.007 45.8959 205.77 34.5932 202.911V202.911Z" fill="#FFC943"/>
<path d="M71.8817 228.198C71.8817 220.747 77.0539 214.51 84.0028 212.869C82.8357 212.593 81.6205 212.443 80.3689 212.443C71.668 212.443 64.6138 219.497 64.6138 228.198C64.6138 236.899 71.668 243.953 80.3689 243.953C81.6205 243.953 82.8357 243.802 84.0028 243.526C77.0539 241.885 71.8817 235.648 71.8817 228.198V228.198Z" fill="white"/>
<path d="M45.7744 182.975C45.7744 175.525 50.9466 169.287 57.8947 167.645C56.7284 167.37 55.5124 167.22 54.2616 167.22C45.5598 167.22 38.5065 174.273 38.5065 182.975C38.5065 191.676 45.5598 198.729 54.2616 198.729C55.5124 198.729 56.7284 198.579 57.8947 198.303C50.9466 196.662 45.7744 190.424 45.7744 182.975Z" fill="white"/>
<path d="M19.6915 228.198C19.6915 220.747 24.8637 214.51 31.8118 212.869C30.6455 212.593 29.4295 212.443 28.1787 212.443C19.477 212.443 12.4236 219.497 12.4236 228.198C12.4236 236.899 19.477 243.953 28.1787 243.953C29.4295 243.953 30.6455 243.802 31.8118 243.526C24.8637 241.885 19.6915 235.648 19.6915 228.198V228.198Z" fill="white"/>
<path d="M43.9328 228.198C43.9328 220.748 38.7606 214.511 31.8117 212.87C24.8635 214.511 19.6913 220.748 19.6913 228.198C19.6913 235.648 24.8635 241.886 31.8117 243.527C38.7606 241.886 43.9328 235.648 43.9328 228.198V228.198Z" fill="#D8902A"/>
<path d="M35.458 228.198C35.458 232.219 32.1985 235.478 28.1785 235.478C24.1578 235.478 20.8982 232.219 20.8982 228.198C20.8982 224.177 24.1578 220.917 28.1785 220.917C32.1985 220.917 35.458 224.177 35.458 228.198V228.198Z" fill="#FFC943"/>
<path d="M54.2862 159.037H54.3127C55.484 159.037 56.4333 158.088 56.4333 156.917C56.4333 155.745 55.484 154.796 54.3127 154.796H54.2862C53.1149 154.796 52.1656 155.745 52.1656 156.917C52.1656 158.088 53.1149 159.037 54.2862 159.037Z" fill="black"/>
<path d="M60.4258 248.141C60.84 248.554 61.3834 248.762 61.926 248.762C62.4685 248.762 63.0111 248.554 63.4253 248.141C64.2536 247.313 64.2536 245.97 63.4253 245.142L63.4062 245.123C62.5787 244.295 61.236 244.295 60.4076 245.123C59.5793 245.951 59.5793 247.294 60.4076 248.122L60.4258 248.141Z" fill="black"/>
<path d="M45.1289 245.16C44.3005 245.988 44.3005 247.331 45.1289 248.159C45.543 248.574 46.0856 248.781 46.6282 248.781C47.1707 248.781 47.7133 248.574 48.1275 248.159L48.1465 248.141C48.974 247.313 48.974 245.97 48.1465 245.142C47.3182 244.313 45.9754 244.313 45.1471 245.142L45.1289 245.16Z" fill="black"/>
<path d="M80.369 246.04C84.9398 246.04 89.5106 244.299 92.9905 240.819C97.6383 236.172 99.3538 229.371 97.4693 223.069C97.1338 221.946 95.9518 221.31 94.8302 221.645C93.7078 221.98 93.0708 223.163 93.4063 224.284C94.8435 229.09 93.5355 234.277 89.9919 237.821C84.6855 243.126 76.0517 243.126 70.7462 237.821C65.4398 232.514 65.4398 223.881 70.7462 218.575C74.4522 214.869 79.8356 213.624 84.7973 215.326C85.9048 215.706 87.1109 215.116 87.4911 214.008C87.8713 212.9 87.2807 211.694 86.1732 211.314C79.6674 209.082 72.6074 210.716 67.7467 215.576C60.787 222.535 60.787 233.86 67.7467 240.819C71.2274 244.299 75.7982 246.04 80.369 246.04Z" fill="black"/>
<path d="M89.9985 218.582C90.4118 218.992 90.9519 219.196 91.4911 219.196C92.037 219.196 92.5829 218.987 92.9979 218.569C93.8221 217.737 93.8155 216.394 92.9838 215.569L92.9556 215.541C92.1281 214.713 90.7854 214.713 89.957 215.541C89.1287 216.369 89.1287 217.712 89.957 218.54L89.9985 218.582Z" fill="black"/>
<path d="M80.369 218.884C75.2474 218.884 71.0808 223.051 71.0808 228.173C71.0808 233.295 75.2474 237.461 80.369 237.461C85.4907 237.461 89.6572 233.294 89.6572 228.173C89.6572 223.051 85.4907 218.884 80.369 218.884ZM80.369 233.22C77.5858 233.22 75.3219 230.956 75.3219 228.173C75.3219 225.39 77.5858 223.125 80.369 223.125C83.1522 223.125 85.4161 225.39 85.4161 228.173C85.4161 230.956 83.1522 233.22 80.369 233.22Z" fill="black"/>
<path d="M61.1905 199.258C61.5027 199.258 61.8208 199.189 62.1207 199.042C68.2985 196.02 72.1362 189.873 72.1362 183C72.1362 173.157 64.1286 165.15 54.2862 165.15C44.4438 165.15 36.4362 173.157 36.4362 183C36.4362 189.572 40.0321 195.595 45.8214 198.718C46.8518 199.275 48.1382 198.89 48.6949 197.859C49.2507 196.828 48.8655 195.542 47.8351 194.986C43.42 192.603 40.6774 188.011 40.6774 183C40.6774 175.496 46.7823 169.391 54.2862 169.391C61.7902 169.391 67.8951 175.496 67.8951 183C67.8951 188.24 64.9685 192.928 60.2569 195.233C59.2049 195.748 58.7692 197.018 59.2836 198.07C59.6522 198.822 60.406 199.258 61.1905 199.258Z" fill="black"/>
<path d="M54.2862 196.608C53.1149 196.608 52.1656 197.558 52.1656 198.729C52.1656 199.9 53.1149 200.849 54.2862 200.849H54.3351C55.5063 200.849 56.4556 199.9 56.4556 198.729C56.4556 197.558 55.5063 196.608 54.3351 196.608H54.2862Z" fill="black"/>
<path d="M63.5926 183.018C63.5926 180.536 62.626 178.204 60.8724 176.45C59.1179 174.695 56.7853 173.729 54.3044 173.729C51.8235 173.729 49.4909 174.695 47.7365 176.45C44.115 180.071 44.115 185.963 47.7365 189.585C49.5473 191.396 51.9254 192.302 54.3044 192.302C56.6826 192.301 59.0616 191.396 60.8724 189.585C62.626 187.831 63.5926 185.499 63.5926 183.018ZM57.8729 186.586C55.9056 188.554 52.7032 188.554 50.7351 186.586C48.767 184.619 48.767 181.417 50.7351 179.448C51.6885 178.495 52.9559 177.971 54.3044 177.971C55.6521 177.971 56.9195 178.496 57.8729 179.448C58.8264 180.402 59.3515 181.669 59.3515 183.018C59.3515 184.366 58.8264 185.633 57.8729 186.586Z" fill="black"/>
<path d="M40.8249 240.819C47.7846 233.86 47.7846 222.536 40.8249 215.577C36.1779 210.929 29.3763 209.212 23.0743 211.098C21.9519 211.433 21.3149 212.615 21.6504 213.737C21.9859 214.859 23.1679 215.497 24.2895 215.161C29.0955 213.724 34.2826 215.032 37.8263 218.575C43.1318 223.882 43.1318 232.515 37.8263 237.821C35.1731 240.475 31.6882 241.801 28.2034 241.801C24.7186 241.8 21.2329 240.474 18.5805 237.822C14.8745 234.115 13.6295 228.731 15.331 223.771C15.7112 222.662 15.1214 221.456 14.0139 221.076C12.9064 220.697 11.6995 221.286 11.3193 222.394C9.08773 228.899 10.7212 235.96 15.5811 240.82C19.061 244.3 23.6326 246.04 28.2034 246.04C32.7742 246.04 37.345 244.299 40.8249 240.819Z" fill="black"/>
<path d="M17.0464 219.231C17.589 219.231 18.1316 219.024 18.5457 218.61L18.5805 218.575C19.4089 217.747 19.4089 216.404 18.5805 215.576C17.7522 214.748 16.4094 214.748 15.5811 215.576L15.5463 215.611C14.7188 216.439 14.7188 217.782 15.5463 218.61C15.9605 219.024 16.5039 219.231 17.0464 219.231Z" fill="black"/>
<path d="M28.1785 237.486C33.2994 237.486 37.4667 233.32 37.4667 228.198C37.4667 223.076 33.2994 218.91 28.1785 218.91C23.0569 218.91 18.8895 223.076 18.8895 228.198C18.8895 233.32 23.0569 237.486 28.1785 237.486ZM28.1785 223.151C30.9609 223.151 33.2256 225.415 33.2256 228.198C33.2256 230.981 30.9609 233.245 28.1785 233.245C25.3953 233.245 23.1306 230.981 23.1306 228.198C23.1306 225.415 25.3953 223.151 28.1785 223.151Z" fill="black"/>
<path d="M106.452 252.16H95.2493C97.0551 251.037 98.7565 249.696 100.312 248.141C105.638 242.814 108.572 235.731 108.572 228.198C108.572 220.665 105.639 213.582 100.312 208.255C94.9851 202.929 87.9028 199.995 80.369 199.995C79.0925 199.995 77.8301 200.081 76.586 200.246C80.2845 195.475 82.4895 189.49 82.4895 183C82.4895 170.122 73.7895 158.889 61.3329 155.684C60.1989 155.393 59.0425 156.075 58.7509 157.209C58.4594 158.344 59.1419 159.499 60.2759 159.791C70.858 162.515 78.2484 172.058 78.2484 183C78.2484 196.212 67.4991 206.962 54.2862 206.962C41.0733 206.962 30.3239 196.212 30.3239 183C30.3239 172.058 37.7144 162.515 48.2964 159.792C49.4304 159.499 50.113 158.344 49.8214 157.21C49.5298 156.076 48.3735 155.393 47.2395 155.684C34.7829 158.889 26.0828 170.122 26.0828 183C26.0828 189.49 28.2879 195.475 31.9872 200.246C30.7431 200.081 29.4798 199.995 28.2034 199.995C20.6704 199.995 13.5873 202.928 8.26022 208.255C2.93399 213.582 0 220.664 0 228.198C0 235.732 2.93399 242.814 8.26022 248.141C9.81584 249.696 11.5173 251.037 13.323 252.16H2.12055C0.949279 252.16 0 253.109 0 254.281C0 255.452 0.949279 256.401 2.12055 256.401H106.452C107.623 256.401 108.572 255.452 108.572 254.281C108.572 253.109 107.623 252.16 106.452 252.16ZM58.051 210.951C56.4904 212.967 55.233 215.157 54.2862 217.453C53.3394 215.157 52.082 212.967 50.5214 210.951C51.7531 211.116 53.0097 211.203 54.2862 211.203C55.5627 211.203 56.8192 211.116 58.051 210.951ZM11.2596 245.142C1.91678 235.799 1.91678 220.597 11.2596 211.254C20.6025 201.911 35.8042 201.911 45.1471 211.254C49.6193 215.726 52.0099 221.613 52.1623 227.602C52.154 228.017 52.154 228.431 52.1631 228.846C52.0588 232.81 50.972 236.779 48.8489 240.372C48.2534 241.381 48.588 242.682 49.5969 243.277C50.605 243.873 51.9055 243.538 52.5011 242.529C53.1878 241.367 53.7817 240.17 54.2862 238.95C54.7906 240.17 55.3846 241.367 56.0713 242.529C56.6668 243.538 57.9673 243.872 58.9754 243.277C59.9835 242.682 60.3182 241.381 59.7226 240.372C57.5995 236.779 56.5136 232.809 56.4084 228.846C56.4175 228.431 56.4183 228.017 56.4092 227.602C56.5625 221.613 58.953 215.726 63.4253 211.254C72.7681 201.911 87.9698 201.911 97.3127 211.254C106.656 220.597 106.656 235.799 97.3127 245.142C92.8115 249.643 86.8756 252.036 80.8453 252.16H79.8571C75.8479 252.077 71.8288 250.991 68.194 248.844C67.1859 248.248 65.8854 248.583 65.2899 249.592C64.7887 250.439 64.9478 251.492 65.6096 252.16H42.9628C43.6246 251.492 43.7836 250.439 43.2825 249.592C42.6869 248.583 41.3864 248.248 40.3783 248.844C36.7461 250.99 32.7311 252.076 28.7252 252.16H27.7204C21.6926 252.034 15.7592 249.641 11.2596 245.142Z" fill="black"/>
</svg>