<svg width="485" height="52" viewBox="0 0 485 52" fill="none" xmlns="http://www.w3.org/2000/svg">
<path d="M9.89041 19.24C8.59441 19.24 7.37841 18.992 6.24241 18.496C5.12241 18 4.13041 17.312 3.26641 16.432C2.41841 15.536 1.75441 14.512 1.27441 13.36C0.794406 12.192 0.554406 10.944 0.554406 9.616C0.554406 8.304 0.786406 7.072 1.25041 5.92C1.73041 4.752 2.39441 3.728 3.24241 2.848C4.10641 1.968 5.09841 1.28 6.21841 0.783998C7.35441 0.271999 8.57841 0.0159998 9.89041 0.0159998C11.0424 0.0159998 12.0904 0.184 13.0344 0.519999C13.9784 0.855999 14.8904 1.392 15.7704 2.128C15.9784 2.288 16.0664 2.496 16.0344 2.752C16.0024 2.992 15.8824 3.16 15.6744 3.256C15.6264 3.448 15.4744 3.568 15.2184 3.616C14.9784 3.664 14.7384 3.592 14.4984 3.4C13.8744 2.856 13.1944 2.456 12.4584 2.2C11.7224 1.928 10.8664 1.792 9.89041 1.792C8.85041 1.792 7.87441 2 6.96241 2.416C6.06641 2.832 5.27441 3.4 4.58641 4.12C3.89841 4.84 3.35441 5.672 2.95441 6.616C2.57041 7.56 2.37841 8.56 2.37841 9.616C2.37841 10.704 2.57041 11.72 2.95441 12.664C3.35441 13.608 3.89841 14.44 4.58641 15.16C5.27441 15.88 6.06641 16.448 6.96241 16.864C7.87441 17.264 8.85041 17.464 9.89041 17.464C11.6184 17.464 13.1944 16.904 14.6184 15.784C14.9064 15.56 15.2104 15.528 15.5304 15.688C15.8664 15.848 16.0344 16.12 16.0344 16.504C16.0344 16.76 15.9464 16.984 15.7704 17.176C14.9544 17.928 14.0424 18.464 13.0344 18.784C12.0264 19.088 10.9784 19.24 9.89041 19.24ZM27.518 19.168C26.478 19.168 25.558 18.952 24.758 18.52C23.974 18.088 23.358 17.504 22.91 16.768C22.478 16.032 22.262 15.2 22.262 14.272V7.552H18.902C18.662 7.552 18.462 7.48 18.302 7.336C18.142 7.176 18.062 6.968 18.062 6.712C18.062 6.472 18.142 6.272 18.302 6.112C18.462 5.952 18.662 5.872 18.902 5.872H23.198C23.47 5.872 23.694 5.96 23.87 6.136C24.046 6.296 24.134 6.52 24.134 6.808L24.11 10.144H27.398C28.39 10.144 29.278 10.312 30.062 10.648C30.846 10.984 31.462 11.48 31.91 12.136C32.358 12.792 32.582 13.608 32.582 14.584C32.582 16.008 32.118 17.128 31.19 17.944C30.262 18.76 29.038 19.168 27.518 19.168ZM27.518 17.464C28.526 17.464 29.318 17.224 29.894 16.744C30.486 16.248 30.782 15.528 30.782 14.584C30.782 13.656 30.454 12.952 29.798 12.472C29.158 11.992 28.358 11.752 27.398 11.752H24.11V14.272C24.11 15.184 24.414 15.944 25.022 16.552C25.646 17.16 26.478 17.464 27.518 17.464ZM41.655 19.12C40.359 19.12 39.207 18.84 38.199 18.28C37.207 17.704 36.423 16.912 35.847 15.904C35.287 14.896 35.007 13.744 35.007 12.448C35.007 11.136 35.271 9.984 35.799 8.992C36.343 7.984 37.087 7.192 38.031 6.616C38.975 6.04 40.063 5.752 41.295 5.752C42.511 5.752 43.567 6.032 44.463 6.592C45.375 7.136 46.079 7.896 46.575 8.872C47.071 9.848 47.319 10.96 47.319 12.208C47.319 12.464 47.239 12.672 47.079 12.832C46.919 12.976 46.711 13.048 46.455 13.048H36.759C36.855 13.912 37.119 14.68 37.551 15.352C37.983 16.008 38.551 16.528 39.255 16.912C39.959 17.28 40.759 17.464 41.655 17.464C42.231 17.464 42.807 17.368 43.383 17.176C43.975 16.968 44.447 16.712 44.799 16.408C44.975 16.264 45.175 16.192 45.399 16.192C45.623 16.176 45.815 16.232 45.975 16.36C46.183 16.552 46.287 16.76 46.287 16.984C46.303 17.208 46.215 17.4 46.023 17.56C45.495 18.008 44.823 18.384 44.007 18.688C43.191 18.976 42.407 19.12 41.655 19.12ZM41.295 7.408C40.063 7.408 39.047 7.792 38.247 8.56C37.447 9.312 36.967 10.296 36.807 11.512H45.591C45.463 10.296 45.015 9.312 44.247 8.56C43.495 7.792 42.511 7.408 41.295 7.408ZM55.0292 19.168C54.0852 19.168 53.2452 18.944 52.5092 18.496C51.7892 18.048 51.2212 17.416 50.8052 16.6C50.4052 15.784 50.2052 14.824 50.2052 13.72V6.808C50.2052 6.52 50.2852 6.296 50.4452 6.136C50.6212 5.96 50.8452 5.872 51.1172 5.872C51.3892 5.872 51.6132 5.96 51.7892 6.136C51.9652 6.296 52.0532 6.52 52.0532 6.808V13.72C52.0532 14.856 52.3412 15.752 52.9172 16.408C53.5092 17.064 54.2772 17.392 55.2212 17.392C56.2132 17.392 57.0212 17.064 57.6452 16.408C58.2852 15.752 58.5972 14.88 58.5812 13.792V13.72V6.808C58.5812 6.52 58.6612 6.296 58.8212 6.136C58.9972 5.96 59.2212 5.872 59.4932 5.872C59.7652 5.872 59.9892 5.96 60.1652 6.136C60.3412 6.296 60.4292 6.52 60.4292 6.808V13.72C60.4292 14.856 60.7172 15.752 61.2932 16.408C61.8852 17.064 62.6532 17.392 63.5972 17.392C64.5892 17.392 65.4052 17.072 66.0452 16.432C66.6852 15.776 67.0052 14.944 67.0052 13.936V6.808C67.0052 6.52 67.0852 6.296 67.2452 6.136C67.4212 5.96 67.6452 5.872 67.9172 5.872C68.1892 5.872 68.4132 5.96 68.5892 6.136C68.7652 6.296 68.8532 6.52 68.8532 6.808V18.064C68.8532 18.352 68.7652 18.584 68.5892 18.76C68.4132 18.92 68.1892 19 67.9172 19C67.6452 19 67.4212 18.92 67.2452 18.76C67.0852 18.584 67.0052 18.352 67.0052 18.064V17.224C66.5892 17.832 66.0692 18.312 65.4452 18.664C64.8372 19 64.1572 19.168 63.4052 19.168C62.3972 19.168 61.5172 18.92 60.7652 18.424C60.0132 17.912 59.4452 17.208 59.0612 16.312C58.6932 17.192 58.1572 17.888 57.4532 18.4C56.7492 18.912 55.9412 19.168 55.0292 19.168ZM78.7475 19.24C77.6435 19.24 76.6755 19.032 75.8435 18.616C75.0115 18.2 74.3555 17.632 73.8755 16.912C73.4115 16.176 73.1795 15.32 73.1795 14.344V6.784C73.1955 6.512 73.2915 6.296 73.4675 6.136C73.6435 5.96 73.8595 5.872 74.1155 5.872C74.3715 5.872 74.5875 5.96 74.7635 6.136C74.9395 6.312 75.0275 6.536 75.0275 6.808V10.216H78.9395C79.9795 10.216 80.8915 10.4 81.6755 10.768C82.4755 11.136 83.0915 11.656 83.5235 12.328C83.9715 13 84.1955 13.776 84.1955 14.656C84.1955 15.536 83.9635 16.328 83.4995 17.032C83.0515 17.72 82.4195 18.264 81.6035 18.664C80.7875 19.048 79.8355 19.24 78.7475 19.24ZM78.7475 17.536C79.7875 17.536 80.6515 17.296 81.3395 16.816C82.0275 16.336 82.3715 15.616 82.3715 14.656C82.3715 13.76 82.0675 13.064 81.4595 12.568C80.8515 12.072 80.0115 11.824 78.9395 11.824H75.0275V14.344C75.0275 15.272 75.3635 16.04 76.0355 16.648C76.7235 17.24 77.6275 17.536 78.7475 17.536ZM100.272 19.12C98.9762 19.12 97.8242 18.84 96.8162 18.28C95.8242 17.704 95.0402 16.912 94.4642 15.904C93.9042 14.896 93.6242 13.744 93.6242 12.448C93.6242 11.136 93.8882 9.984 94.4162 8.992C94.9602 7.984 95.7042 7.192 96.6482 6.616C97.5922 6.04 98.6802 5.752 99.9122 5.752C101.128 5.752 102.184 6.032 103.08 6.592C103.992 7.136 104.696 7.896 105.192 8.872C105.688 9.848 105.936 10.96 105.936 12.208C105.936 12.464 105.856 12.672 105.696 12.832C105.536 12.976 105.328 13.048 105.072 13.048H95.3762C95.4722 13.912 95.7362 14.68 96.1682 15.352C96.6002 16.008 97.1682 16.528 97.8722 16.912C98.5762 17.28 99.3762 17.464 100.272 17.464C100.848 17.464 101.424 17.368 102 17.176C102.592 16.968 103.064 16.712 103.416 16.408C103.592 16.264 103.792 16.192 104.016 16.192C104.24 16.176 104.432 16.232 104.592 16.36C104.8 16.552 104.904 16.76 104.904 16.984C104.92 17.208 104.832 17.4 104.64 17.56C104.112 18.008 103.44 18.384 102.624 18.688C101.808 18.976 101.024 19.12 100.272 19.12ZM99.9122 7.408C98.6802 7.408 97.6642 7.792 96.8642 8.56C96.0642 9.312 95.5842 10.296 95.4242 11.512H104.208C104.08 10.296 103.632 9.312 102.864 8.56C102.112 7.792 101.128 7.408 99.9122 7.408ZM113.646 19.168C112.702 19.168 111.862 18.944 111.126 18.496C110.406 18.048 109.838 17.416 109.422 16.6C109.022 15.784 108.822 14.824 108.822 13.72V6.808C108.822 6.52 108.902 6.296 109.062 6.136C109.238 5.96 109.462 5.872 109.734 5.872C110.006 5.872 110.23 5.96 110.406 6.136C110.582 6.296 110.67 6.52 110.67 6.808V13.72C110.67 14.856 110.958 15.752 111.534 16.408C112.126 17.064 112.894 17.392 113.838 17.392C114.83 17.392 115.638 17.064 116.262 16.408C116.902 15.752 117.214 14.88 117.198 13.792V13.72V6.808C117.198 6.52 117.278 6.296 117.438 6.136C117.614 5.96 117.838 5.872 118.11 5.872C118.382 5.872 118.606 5.96 118.782 6.136C118.958 6.296 119.046 6.52 119.046 6.808V13.72C119.046 14.856 119.334 15.752 119.91 16.408C120.502 17.064 121.27 17.392 122.214 17.392C123.206 17.392 124.022 17.072 124.662 16.432C125.302 15.776 125.622 14.944 125.622 13.936V6.784C125.622 6.512 125.702 6.296 125.862 6.136C126.038 5.96 126.262 5.872 126.534 5.872C126.806 5.872 127.03 5.96 127.206 6.136C127.382 6.296 127.47 6.512 127.47 6.784V17.392H128.862C129.15 17.392 129.374 17.48 129.534 17.656C129.71 17.816 129.798 18.04 129.798 18.328V22.168C129.798 22.792 129.51 23.104 128.934 23.104C128.662 23.104 128.446 23.016 128.286 22.84C128.126 22.68 128.046 22.456 128.046 22.168V19H127.422C126.798 19 126.342 18.856 126.054 18.568C125.766 18.28 125.622 17.832 125.622 17.224C125.206 17.832 124.686 18.312 124.062 18.664C123.454 19 122.774 19.168 122.022 19.168C121.014 19.168 120.134 18.92 119.382 18.424C118.63 17.912 118.062 17.208 117.678 16.312C117.31 17.192 116.774 17.888 116.07 18.4C115.366 18.912 114.558 19.168 113.646 19.168ZM138.405 19.12C137.109 19.12 135.957 18.84 134.949 18.28C133.957 17.704 133.173 16.912 132.597 15.904C132.037 14.896 131.757 13.744 131.757 12.448C131.757 11.136 132.021 9.984 132.549 8.992C133.093 7.984 133.837 7.192 134.781 6.616C135.725 6.04 136.813 5.752 138.045 5.752C139.261 5.752 140.317 6.032 141.213 6.592C142.125 7.136 142.829 7.896 143.325 8.872C143.821 9.848 144.069 10.96 144.069 12.208C144.069 12.464 143.989 12.672 143.829 12.832C143.669 12.976 143.461 13.048 143.205 13.048H133.509C133.605 13.912 133.869 14.68 134.301 15.352C134.733 16.008 135.301 16.528 136.005 16.912C136.709 17.28 137.509 17.464 138.405 17.464C138.981 17.464 139.557 17.368 140.133 17.176C140.725 16.968 141.197 16.712 141.549 16.408C141.725 16.264 141.925 16.192 142.149 16.192C142.373 16.176 142.565 16.232 142.725 16.36C142.933 16.552 143.037 16.76 143.037 16.984C143.053 17.208 142.965 17.4 142.773 17.56C142.245 18.008 141.573 18.384 140.757 18.688C139.941 18.976 139.157 19.12 138.405 19.12ZM138.045 7.408C136.813 7.408 135.797 7.792 134.997 8.56C134.197 9.312 133.717 10.296 133.557 11.512H142.341C142.213 10.296 141.765 9.312 140.997 8.56C140.245 7.792 139.261 7.408 138.045 7.408ZM135.597 3.472C135.213 3.472 134.893 3.352 134.637 3.112C134.397 2.856 134.277 2.536 134.277 2.152C134.277 1.8 134.397 1.496 134.637 1.24C134.893 0.967999 135.213 0.831999 135.597 0.831999C135.965 0.831999 136.277 0.967999 136.533 1.24C136.789 1.496 136.917 1.8 136.917 2.152C136.917 2.536 136.789 2.856 136.533 3.112C136.277 3.352 135.965 3.472 135.597 3.472ZM140.613 3.472C140.229 3.472 139.909 3.352 139.653 3.112C139.413 2.856 139.293 2.536 139.293 2.152C139.293 1.8 139.413 1.496 139.653 1.24C139.909 0.967999 140.229 0.831999 140.613 0.831999C140.981 0.831999 141.293 0.967999 141.549 1.24C141.805 1.496 141.933 1.8 141.933 2.152C141.933 2.536 141.805 2.856 141.549 3.112C141.293 3.352 140.981 3.472 140.613 3.472ZM158.354 19.12C156.61 19.12 155.162 18.584 154.01 17.512C153.818 17.352 153.73 17.16 153.746 16.936C153.778 16.712 153.898 16.512 154.106 16.336C154.266 16.192 154.45 16.128 154.658 16.144C154.882 16.16 155.09 16.248 155.282 16.408C156.05 17.096 157.074 17.44 158.354 17.44C159.218 17.44 159.986 17.256 160.658 16.888C161.346 16.504 161.898 15.984 162.314 15.328C162.73 14.672 162.986 13.92 163.082 13.072H157.586C157.33 13.072 157.122 13.008 156.962 12.88C156.818 12.736 156.746 12.552 156.746 12.328C156.746 12.104 156.818 11.928 156.962 11.8C157.122 11.656 157.33 11.584 157.586 11.584H163.058C162.898 10.352 162.418 9.352 161.618 8.584C160.818 7.816 159.818 7.432 158.618 7.432C157.21 7.432 156.042 7.96 155.114 9.016C154.938 9.208 154.738 9.328 154.514 9.376C154.306 9.408 154.114 9.36 153.938 9.232C153.714 9.072 153.578 8.888 153.53 8.68C153.498 8.456 153.562 8.248 153.722 8.056C154.97 6.52 156.602 5.752 158.618 5.752C159.834 5.752 160.914 6.048 161.858 6.64C162.818 7.216 163.562 8.008 164.09 9.016C164.634 10.024 164.906 11.168 164.906 12.448C164.906 13.712 164.626 14.848 164.066 15.856C163.506 16.864 162.73 17.664 161.738 18.256C160.746 18.832 159.618 19.12 158.354 19.12ZM169.459 19C169.171 19 168.939 18.92 168.763 18.76C168.603 18.584 168.523 18.36 168.523 18.088V6.808C168.523 6.536 168.603 6.312 168.763 6.136C168.939 5.96 169.171 5.872 169.459 5.872C169.731 5.872 169.947 5.96 170.107 6.136C170.283 6.312 170.371 6.536 170.371 6.808V7.336C170.819 6.824 171.347 6.432 171.955 6.16C172.563 5.872 173.235 5.728 173.971 5.728C174.867 5.728 175.659 5.928 176.347 6.328C177.051 6.728 177.611 7.28 178.027 7.984C178.475 7.28 179.075 6.728 179.827 6.328C180.579 5.928 181.419 5.728 182.347 5.728C183.291 5.728 184.123 5.952 184.843 6.4C185.579 6.848 186.147 7.48 186.547 8.296C186.963 9.112 187.171 10.072 187.171 11.176V18.088C187.171 18.36 187.083 18.584 186.907 18.76C186.747 18.92 186.531 19 186.259 19C185.987 19 185.763 18.92 185.587 18.76C185.411 18.584 185.323 18.36 185.323 18.088V11.176C185.323 10.04 185.027 9.144 184.435 8.488C183.843 7.816 183.083 7.48 182.155 7.48C181.163 7.48 180.347 7.816 179.707 8.488C179.083 9.144 178.779 10.024 178.795 11.128V11.176V18.088C178.795 18.36 178.707 18.584 178.531 18.76C178.371 18.92 178.155 19 177.883 19C177.611 19 177.387 18.92 177.211 18.76C177.035 18.584 176.947 18.36 176.947 18.088V11.176C176.947 10.04 176.651 9.144 176.059 8.488C175.467 7.816 174.707 7.48 173.779 7.48C172.787 7.48 171.971 7.808 171.331 8.464C170.691 9.104 170.371 9.944 170.371 10.984V18.088C170.371 18.36 170.283 18.584 170.107 18.76C169.947 18.92 169.731 19 169.459 19ZM196.97 19.144C195.834 19.144 194.818 18.912 193.922 18.448C193.026 17.968 192.314 17.272 191.786 16.36C191.274 15.448 191.018 14.336 191.018 13.024V6.784C191.018 6.528 191.106 6.312 191.282 6.136C191.458 5.96 191.674 5.872 191.93 5.872C192.202 5.872 192.426 5.96 192.602 6.136C192.778 6.312 192.866 6.528 192.866 6.784V13.024C192.866 14.496 193.274 15.592 194.09 16.312C194.906 17.032 195.93 17.392 197.162 17.392C197.946 17.392 198.65 17.24 199.274 16.936C199.914 16.632 200.418 16.216 200.786 15.688C201.154 15.16 201.338 14.56 201.338 13.888V6.784C201.338 6.512 201.418 6.296 201.578 6.136C201.754 5.96 201.978 5.872 202.25 5.872C202.522 5.872 202.746 5.96 202.922 6.136C203.098 6.296 203.186 6.512 203.186 6.784V18.064C203.186 18.352 203.098 18.584 202.922 18.76C202.746 18.92 202.522 19 202.25 19C201.978 19 201.754 18.92 201.578 18.76C201.418 18.584 201.338 18.352 201.338 18.064V17.248C200.81 17.84 200.17 18.304 199.418 18.64C198.666 18.976 197.85 19.144 196.97 19.144ZM206.437 19C206.053 19 205.789 18.832 205.645 18.496C205.517 18.16 205.581 17.84 205.837 17.536L209.989 12.352L206.053 7.36C205.797 7.056 205.733 6.736 205.861 6.4C205.989 6.048 206.253 5.872 206.653 5.872C206.925 5.872 207.157 5.968 207.349 6.16L211.213 11.104L215.029 6.304C215.253 6.016 215.517 5.872 215.821 5.872C216.237 5.872 216.493 6.048 216.589 6.4C216.701 6.752 216.637 7.08 216.397 7.384L212.389 12.328L216.493 17.56C216.701 17.816 216.789 18.056 216.757 18.28C216.725 18.504 216.621 18.68 216.445 18.808C216.285 18.936 216.117 19 215.941 19C215.605 19 215.325 18.856 215.101 18.568L211.141 13.552L207.085 18.712C206.941 18.904 206.725 19 206.437 19ZM227.889 19C227.601 19 227.369 18.92 227.193 18.76C227.033 18.584 226.953 18.352 226.953 18.064V6.808C226.953 6.52 227.033 6.296 227.193 6.136C227.369 5.96 227.601 5.872 227.889 5.872C228.305 5.872 228.641 6.064 228.897 6.448L234.201 14.128L239.505 6.448C239.761 6.064 240.097 5.872 240.513 5.872C240.801 5.872 241.025 5.96 241.185 6.136C241.361 6.296 241.449 6.52 241.449 6.808V18.064C241.449 18.352 241.361 18.584 241.185 18.76C241.025 18.92 240.801 19 240.513 19C240.225 19 240.001 18.92 239.841 18.76C239.681 18.584 239.601 18.352 239.601 18.064V9.088L235.065 15.616C234.809 15.984 234.513 16.168 234.177 16.168C233.841 16.168 233.553 15.984 233.313 15.616L228.801 9.16V18.064C228.801 18.688 228.497 19 227.889 19ZM245.461 18.76C245.269 18.584 245.173 18.392 245.173 18.184C245.189 17.976 245.269 17.776 245.413 17.584L248.245 14.008C247.413 13.752 246.749 13.288 246.253 12.616C245.757 11.928 245.509 11.112 245.509 10.168C245.509 9.336 245.701 8.6 246.085 7.96C246.485 7.304 247.037 6.792 247.741 6.424C248.445 6.056 249.253 5.872 250.165 5.872H254.437C254.725 5.872 254.949 5.96 255.109 6.136C255.285 6.296 255.373 6.52 255.373 6.808V18.088C255.357 18.36 255.261 18.584 255.085 18.76C254.925 18.92 254.709 19 254.437 19C254.181 19 253.965 18.92 253.789 18.76C253.629 18.584 253.549 18.352 253.549 18.064V14.464H250.237L246.829 18.664C246.637 18.904 246.397 19.016 246.109 19C245.837 19 245.621 18.92 245.461 18.76ZM250.165 12.88H253.549V7.576H250.165C249.349 7.576 248.669 7.816 248.125 8.296C247.581 8.76 247.309 9.384 247.309 10.168C247.309 11.016 247.581 11.68 248.125 12.16C248.669 12.64 249.349 12.88 250.165 12.88ZM263.703 19.12C262.759 19.12 261.911 18.976 261.159 18.688C260.407 18.4 259.807 17.992 259.359 17.464C258.927 16.936 258.711 16.312 258.711 15.592C258.711 14.68 259.087 13.896 259.839 13.24C260.607 12.584 261.879 12.064 263.655 11.68C264.727 11.44 265.463 11.136 265.863 10.768C266.279 10.384 266.487 9.904 266.487 9.328C266.487 8.768 266.247 8.312 265.767 7.96C265.287 7.592 264.623 7.408 263.775 7.408C262.383 7.408 261.295 7.856 260.511 8.752C260.335 8.944 260.135 9.064 259.911 9.112C259.687 9.16 259.495 9.136 259.335 9.04C259.079 8.896 258.927 8.712 258.879 8.488C258.831 8.248 258.887 8.032 259.047 7.84C259.511 7.216 260.143 6.712 260.943 6.328C261.743 5.944 262.679 5.752 263.751 5.752C265.079 5.752 266.167 6.064 267.015 6.688C267.863 7.312 268.287 8.216 268.287 9.4C268.287 10.232 267.967 10.976 267.327 11.632C266.687 12.272 265.623 12.76 264.135 13.096C262.775 13.4 261.839 13.744 261.327 14.128C260.815 14.512 260.559 14.992 260.559 15.568C260.575 16.816 261.607 17.44 263.655 17.44C264.455 17.44 265.167 17.344 265.791 17.152C266.431 16.96 266.959 16.624 267.375 16.144C267.535 15.968 267.727 15.856 267.951 15.808C268.175 15.744 268.399 15.8 268.623 15.976C268.831 16.152 268.943 16.352 268.959 16.576C268.975 16.8 268.895 17.008 268.719 17.2C268.175 17.792 267.439 18.264 266.511 18.616C265.583 18.952 264.647 19.12 263.703 19.12ZM272.982 19C272.71 19 272.494 18.92 272.334 18.76C272.174 18.584 272.094 18.36 272.094 18.088V6.808C272.094 6.52 272.174 6.296 272.334 6.136C272.494 5.96 272.71 5.872 272.982 5.872C273.27 5.872 273.494 5.96 273.654 6.136C273.83 6.296 273.918 6.52 273.918 6.808V11.56H276.054L280.782 6.16C280.942 5.984 281.142 5.888 281.382 5.872C281.622 5.856 281.83 5.92 282.006 6.064C282.198 6.24 282.302 6.44 282.318 6.664C282.334 6.872 282.262 7.072 282.102 7.264L277.59 12.352L282.342 17.584C282.502 17.76 282.582 17.96 282.582 18.184C282.582 18.392 282.486 18.584 282.294 18.76C282.134 18.92 281.918 19 281.646 19C281.39 19 281.182 18.912 281.022 18.736L276.03 13.24H273.918V18.088C273.918 18.36 273.83 18.584 273.654 18.76C273.494 18.92 273.27 19 272.982 19ZM291.282 19.144C290.146 19.144 289.13 18.912 288.234 18.448C287.338 17.968 286.626 17.272 286.098 16.36C285.586 15.448 285.33 14.336 285.33 13.024V6.784C285.33 6.528 285.418 6.312 285.594 6.136C285.77 5.96 285.986 5.872 286.242 5.872C286.514 5.872 286.738 5.96 286.914 6.136C287.09 6.312 287.178 6.528 287.178 6.784V13.024C287.178 14.496 287.586 15.592 288.402 16.312C289.218 17.032 290.242 17.392 291.474 17.392C292.258 17.392 292.962 17.24 293.586 16.936C294.226 16.632 294.73 16.216 295.098 15.688C295.466 15.16 295.65 14.56 295.65 13.888V6.784C295.65 6.512 295.73 6.296 295.89 6.136C296.066 5.96 296.29 5.872 296.562 5.872C296.834 5.872 297.058 5.96 297.234 6.136C297.41 6.296 297.498 6.512 297.498 6.784V18.064C297.498 18.352 297.41 18.584 297.234 18.76C297.058 18.92 296.834 19 296.562 19C296.29 19 296.066 18.92 295.89 18.76C295.73 18.584 295.65 18.352 295.65 18.064V17.248C295.122 17.84 294.482 18.304 293.73 18.64C292.978 18.976 292.162 19.144 291.282 19.144ZM300.75 19C300.366 19 300.102 18.832 299.958 18.496C299.83 18.16 299.894 17.84 300.15 17.536L304.302 12.352L300.366 7.36C300.11 7.056 300.046 6.736 300.174 6.4C300.302 6.048 300.566 5.872 300.966 5.872C301.238 5.872 301.47 5.968 301.662 6.16L305.526 11.104L309.342 6.304C309.566 6.016 309.83 5.872 310.134 5.872C310.55 5.872 310.806 6.048 310.902 6.4C311.014 6.752 310.95 7.08 310.71 7.384L306.702 12.328L310.806 17.56C311.014 17.816 311.102 18.056 311.07 18.28C311.038 18.504 310.934 18.68 310.758 18.808C310.598 18.936 310.43 19 310.254 19C309.918 19 309.638 18.856 309.414 18.568L305.454 13.552L301.398 18.712C301.254 18.904 301.038 19 300.75 19ZM322.369 12.448C322.369 13.424 322.577 14.288 322.993 15.04C323.409 15.792 323.977 16.384 324.697 16.816C325.433 17.232 326.273 17.44 327.217 17.44V7.432C326.273 7.432 325.433 7.648 324.697 8.08C323.977 8.512 323.409 9.104 322.993 9.856C322.577 10.608 322.369 11.472 322.369 12.448ZM333.913 12.448C333.913 11.472 333.705 10.608 333.289 9.856C332.873 9.104 332.297 8.512 331.561 8.08C330.841 7.648 330.009 7.432 329.065 7.432V17.44C330.009 17.44 330.841 17.232 331.561 16.816C332.297 16.384 332.873 15.792 333.289 15.04C333.705 14.288 333.913 13.424 333.913 12.448ZM327.217 19.12C325.905 19.12 324.745 18.832 323.737 18.256C322.745 17.68 321.969 16.896 321.409 15.904C320.849 14.896 320.569 13.744 320.569 12.448C320.569 11.136 320.849 9.984 321.409 8.992C321.969 7.984 322.745 7.192 323.737 6.616C324.745 6.04 325.905 5.752 327.217 5.752V1.192C327.217 0.903999 327.297 0.679999 327.457 0.519999C327.633 0.343999 327.857 0.256 328.129 0.256C328.417 0.256 328.641 0.343999 328.801 0.519999C328.977 0.679999 329.065 0.903999 329.065 1.192V5.752C330.361 5.752 331.505 6.04 332.497 6.616C333.505 7.192 334.297 7.984 334.873 8.992C335.449 9.984 335.737 11.136 335.737 12.448C335.737 13.744 335.449 14.896 334.873 15.904C334.313 16.896 333.529 17.68 332.521 18.256C331.513 18.832 330.361 19.12 329.065 19.12V23.68C329.065 23.968 328.977 24.192 328.801 24.352C328.641 24.528 328.417 24.616 328.129 24.616C327.857 24.616 327.633 24.528 327.457 24.352C327.297 24.192 327.217 23.968 327.217 23.68V19.12ZM340.272 24.616C339.984 24.616 339.752 24.528 339.576 24.352C339.416 24.192 339.336 23.968 339.336 23.68V12.352C339.352 11.104 339.648 9.984 340.224 8.992C340.816 7.984 341.608 7.192 342.6 6.616C343.608 6.04 344.736 5.752 345.984 5.752C347.264 5.752 348.408 6.048 349.416 6.64C350.424 7.216 351.216 8.008 351.792 9.016C352.384 10.024 352.68 11.168 352.68 12.448C352.68 13.712 352.392 14.848 351.816 15.856C351.256 16.864 350.488 17.664 349.512 18.256C348.536 18.832 347.432 19.12 346.2 19.12C345.128 19.12 344.152 18.896 343.272 18.448C342.408 17.984 341.712 17.376 341.184 16.624V23.68C341.184 23.968 341.096 24.192 340.92 24.352C340.76 24.528 340.544 24.616 340.272 24.616ZM345.984 17.44C346.912 17.44 347.744 17.224 348.48 16.792C349.216 16.36 349.792 15.768 350.208 15.016C350.64 14.248 350.856 13.392 350.856 12.448C350.856 11.488 350.64 10.632 350.208 9.88C349.792 9.128 349.216 8.536 348.48 8.104C347.744 7.656 346.912 7.432 345.984 7.432C345.072 7.432 344.248 7.656 343.512 8.104C342.776 8.536 342.2 9.128 341.784 9.88C341.368 10.632 341.16 11.488 341.16 12.448C341.16 13.392 341.368 14.248 341.784 15.016C342.2 15.768 342.776 16.36 343.512 16.792C344.248 17.224 345.072 17.44 345.984 17.44ZM362.089 19.12C360.857 19.12 359.753 18.832 358.777 18.256C357.801 17.664 357.025 16.864 356.449 15.856C355.889 14.848 355.609 13.712 355.609 12.448C355.609 11.168 355.897 10.024 356.473 9.016C357.065 8.008 357.865 7.216 358.873 6.64C359.881 6.048 361.017 5.752 362.281 5.752C363.545 5.752 364.673 6.048 365.665 6.64C366.673 7.216 367.465 8.008 368.041 9.016C368.633 10.024 368.937 11.168 368.953 12.448V18.088C368.953 18.36 368.865 18.584 368.689 18.76C368.513 18.92 368.289 19 368.017 19C367.745 19 367.521 18.92 367.345 18.76C367.169 18.584 367.081 18.36 367.081 18.088V16.624C366.537 17.392 365.833 18 364.969 18.448C364.105 18.896 363.145 19.12 362.089 19.12ZM362.281 17.44C363.209 17.44 364.033 17.224 364.753 16.792C365.489 16.36 366.065 15.768 366.481 15.016C366.913 14.248 367.129 13.392 367.129 12.448C367.129 11.488 366.913 10.632 366.481 9.88C366.065 9.128 365.489 8.536 364.753 8.104C364.033 7.656 363.209 7.432 362.281 7.432C361.369 7.432 360.545 7.656 359.809 8.104C359.073 8.536 358.489 9.128 358.057 9.88C357.625 10.632 357.409 11.488 357.409 12.448C357.409 13.392 357.625 14.248 358.057 15.016C358.489 15.768 359.073 16.36 359.809 16.792C360.545 17.224 361.369 17.44 362.281 17.44ZM373.459 19C373.187 19 372.963 18.92 372.787 18.76C372.627 18.584 372.547 18.352 372.547 18.064V6.808C372.547 6.52 372.627 6.296 372.787 6.136C372.963 5.96 373.187 5.872 373.459 5.872C373.731 5.872 373.947 5.96 374.107 6.136C374.283 6.296 374.371 6.52 374.371 6.808V11.56H382.843V6.808C382.843 6.52 382.931 6.296 383.107 6.136C383.283 5.96 383.507 5.872 383.779 5.872C384.051 5.872 384.267 5.96 384.427 6.136C384.587 6.296 384.667 6.52 384.667 6.808V18.064C384.667 18.352 384.587 18.584 384.427 18.76C384.267 18.92 384.051 19 383.779 19C383.507 19 383.283 18.92 383.107 18.76C382.931 18.584 382.843 18.352 382.843 18.064V13.216H374.371V18.064C374.371 18.352 374.283 18.584 374.107 18.76C373.947 18.92 373.731 19 373.459 19ZM394.688 19.144C393.52 19.144 392.488 18.888 391.592 18.376C390.696 17.848 389.992 17.12 389.48 16.192C388.984 15.264 388.736 14.208 388.736 13.024V6.784C388.736 6.512 388.816 6.296 388.976 6.136C389.152 5.96 389.376 5.872 389.648 5.872C389.92 5.872 390.144 5.96 390.32 6.136C390.496 6.296 390.584 6.512 390.584 6.784V13.024C390.584 13.872 390.768 14.624 391.136 15.28C391.504 15.936 392.008 16.456 392.648 16.84C393.288 17.208 394.032 17.392 394.88 17.392C395.696 17.392 396.416 17.248 397.04 16.96C397.664 16.656 398.152 16.24 398.504 15.712C398.872 15.184 399.056 14.576 399.056 13.888V6.784C399.056 6.512 399.136 6.296 399.296 6.136C399.472 5.96 399.696 5.872 399.968 5.872C400.24 5.872 400.464 5.96 400.64 6.136C400.816 6.296 400.904 6.512 400.904 6.784V17.392H402.296C402.584 17.392 402.808 17.48 402.968 17.656C403.144 17.816 403.232 18.04 403.232 18.328V22.168C403.232 22.792 402.944 23.104 402.368 23.104C402.096 23.104 401.872 23.016 401.696 22.84C401.536 22.68 401.456 22.456 401.456 22.168V19H400.856C400.216 19 399.752 18.856 399.464 18.568C399.192 18.28 399.056 17.824 399.056 17.2V17.104C398.56 17.744 397.936 18.248 397.184 18.616C396.432 18.968 395.6 19.144 394.688 19.144ZM405.802 24.736C405.114 24.752 404.426 24.56 403.738 24.16C403.482 24 403.322 23.792 403.258 23.536C403.178 23.296 403.226 23.064 403.402 22.84C403.562 22.632 403.754 22.52 403.978 22.504C404.218 22.504 404.466 22.568 404.722 22.696C404.898 22.808 405.074 22.888 405.25 22.936C405.426 22.984 405.626 23.008 405.85 23.008C406.954 22.976 407.906 22.032 408.706 20.176L409.618 18.088L404.29 7.096C404.178 6.856 404.162 6.632 404.242 6.424C404.322 6.216 404.482 6.056 404.722 5.944C405.234 5.704 405.618 5.84 405.874 6.352L410.506 16.048L414.682 6.376C414.778 6.136 414.938 5.976 415.162 5.896C415.402 5.8 415.642 5.808 415.882 5.92C416.106 6.016 416.25 6.176 416.314 6.4C416.394 6.624 416.378 6.864 416.266 7.12L410.266 20.896C409.754 22.048 409.106 22.976 408.322 23.68C407.554 24.384 406.714 24.736 405.802 24.736ZM423.48 19.216C422.44 19.216 421.456 19.016 420.528 18.616C419.6 18.2 418.904 17.688 418.44 17.08C418.28 16.872 418.216 16.648 418.248 16.408C418.296 16.168 418.44 15.976 418.68 15.832C418.856 15.72 419.064 15.696 419.304 15.76C419.56 15.808 419.768 15.92 419.928 16.096C420.328 16.512 420.832 16.856 421.44 17.128C422.048 17.4 422.72 17.536 423.456 17.536C424.416 17.536 425.192 17.336 425.784 16.936C426.392 16.536 426.696 15.968 426.696 15.232C426.696 14.592 426.456 14.056 425.976 13.624C425.512 13.192 424.928 12.96 424.224 12.928H423C422.696 12.928 422.448 12.856 422.256 12.712C422.064 12.552 421.968 12.36 421.968 12.136C421.968 11.912 422.064 11.728 422.256 11.584C422.448 11.44 422.696 11.368 423 11.368H424.224C424.816 11.352 425.296 11.152 425.664 10.768C426.032 10.384 426.216 9.912 426.216 9.352C426.216 8.776 425.96 8.304 425.448 7.936C424.952 7.568 424.28 7.384 423.432 7.384C422.648 7.384 421.992 7.512 421.464 7.768C420.936 8.024 420.512 8.352 420.192 8.752C420.016 8.944 419.808 9.064 419.568 9.112C419.344 9.144 419.128 9.096 418.92 8.968C418.712 8.856 418.592 8.68 418.56 8.44C418.544 8.2 418.616 7.976 418.776 7.768C419.288 7.176 419.936 6.68 420.72 6.28C421.52 5.88 422.416 5.68 423.408 5.68C424.304 5.68 425.096 5.84 425.784 6.16C426.488 6.464 427.04 6.888 427.44 7.432C427.84 7.96 428.04 8.552 428.04 9.208C428.04 9.88 427.824 10.472 427.392 10.984C426.976 11.48 426.432 11.84 425.76 12.064C426.576 12.224 427.24 12.6 427.752 13.192C428.264 13.784 428.52 14.48 428.52 15.28C428.52 16.032 428.296 16.704 427.848 17.296C427.416 17.888 426.816 18.36 426.048 18.712C425.296 19.048 424.44 19.216 423.48 19.216ZM437.512 19.12C436.248 19.12 435.12 18.832 434.128 18.256C433.152 17.664 432.376 16.864 431.8 15.856C431.24 14.848 430.96 13.712 430.96 12.448C430.96 11.168 431.232 10.024 431.776 9.016C432.32 8.008 433.064 7.216 434.008 6.64C434.952 6.048 436.04 5.752 437.272 5.752C439.272 5.752 440.896 6.52 442.144 8.056C442.32 8.248 442.384 8.456 442.336 8.68C442.288 8.888 442.152 9.072 441.928 9.232C441.752 9.36 441.552 9.408 441.328 9.376C441.12 9.328 440.936 9.208 440.776 9.016C439.848 7.96 438.68 7.432 437.272 7.432C436.376 7.432 435.584 7.648 434.896 8.08C434.224 8.512 433.696 9.104 433.312 9.856C432.944 10.608 432.76 11.472 432.76 12.448C432.76 13.408 432.96 14.264 433.36 15.016C433.76 15.768 434.32 16.36 435.04 16.792C435.76 17.224 436.584 17.44 437.512 17.44C438.792 17.44 439.824 17.096 440.608 16.408C440.8 16.248 441 16.16 441.208 16.144C441.416 16.128 441.608 16.192 441.784 16.336C441.976 16.512 442.08 16.712 442.096 16.936C442.128 17.16 442.056 17.352 441.88 17.512C440.712 18.584 439.256 19.12 437.512 19.12ZM446.841 19C446.569 19 446.353 18.92 446.193 18.76C446.033 18.584 445.953 18.36 445.953 18.088V6.808C445.953 6.52 446.033 6.296 446.193 6.136C446.353 5.96 446.569 5.872 446.841 5.872C447.129 5.872 447.353 5.96 447.513 6.136C447.689 6.296 447.777 6.52 447.777 6.808V11.56H449.913L454.641 6.16C454.801 5.984 455.001 5.888 455.241 5.872C455.481 5.856 455.689 5.92 455.865 6.064C456.057 6.24 456.161 6.44 456.177 6.664C456.193 6.872 456.121 7.072 455.961 7.264L451.449 12.352L456.201 17.584C456.361 17.76 456.441 17.96 456.441 18.184C456.441 18.392 456.345 18.584 456.153 18.76C455.993 18.92 455.777 19 455.505 19C455.249 19 455.041 18.912 454.881 18.736L449.889 13.24H447.777V18.088C447.777 18.36 447.689 18.584 447.513 18.76C447.353 18.92 447.129 19 446.841 19ZM465.142 19.144C464.006 19.144 462.99 18.912 462.094 18.448C461.198 17.968 460.486 17.272 459.958 16.36C459.446 15.448 459.19 14.336 459.19 13.024V6.784C459.19 6.528 459.278 6.312 459.454 6.136C459.63 5.96 459.846 5.872 460.102 5.872C460.374 5.872 460.598 5.96 460.774 6.136C460.95 6.312 461.038 6.528 461.038 6.784V13.024C461.038 14.496 461.446 15.592 462.262 16.312C463.078 17.032 464.102 17.392 465.334 17.392C466.118 17.392 466.822 17.24 467.446 16.936C468.086 16.632 468.59 16.216 468.958 15.688C469.326 15.16 469.51 14.56 469.51 13.888V6.784C469.51 6.512 469.59 6.296 469.75 6.136C469.926 5.96 470.15 5.872 470.422 5.872C470.694 5.872 470.918 5.96 471.094 6.136C471.27 6.296 471.358 6.512 471.358 6.784V18.064C471.358 18.352 471.27 18.584 471.094 18.76C470.918 18.92 470.694 19 470.422 19C470.15 19 469.926 18.92 469.75 18.76C469.59 18.584 469.51 18.352 469.51 18.064V17.248C468.982 17.84 468.342 18.304 467.59 18.64C466.838 18.976 466.022 19.144 465.142 19.144ZM474.609 19C474.225 19 473.961 18.832 473.817 18.496C473.689 18.16 473.753 17.84 474.009 17.536L478.161 12.352L474.225 7.36C473.969 7.056 473.905 6.736 474.033 6.4C474.161 6.048 474.425 5.872 474.825 5.872C475.097 5.872 475.329 5.968 475.521 6.16L479.385 11.104L483.201 6.304C483.425 6.016 483.689 5.872 483.993 5.872C484.409 5.872 484.665 6.048 484.761 6.4C484.873 6.752 484.809 7.08 484.569 7.384L480.561 12.328L484.665 17.56C484.873 17.816 484.961 18.056 484.929 18.28C484.897 18.504 484.793 18.68 484.617 18.808C484.457 18.936 484.289 19 484.113 19C483.777 19 483.497 18.856 483.273 18.568L479.313 13.552L475.257 18.712C475.113 18.904 474.897 19 474.609 19ZM25.5522 39.448V39.4V39.376V37.48C25.5682 35.352 26.1362 33.448 27.2562 31.768C28.3762 30.072 30.1202 28.768 32.4882 27.856L36.0162 26.464C36.5762 26.288 36.9442 26.44 37.1202 26.92C37.2002 27.176 37.2002 27.4 37.1202 27.592C37.0562 27.784 36.8722 27.936 36.5682 28.048L32.8242 29.584C30.8722 30.352 29.4482 31.376 28.5522 32.656C27.6562 33.936 27.1442 35.352 27.0162 36.904C27.4482 35.88 28.1202 35.072 29.0322 34.48C29.9442 33.872 31.0082 33.568 32.2242 33.568C33.4242 33.568 34.4882 33.832 35.4162 34.36C36.3602 34.888 37.0962 35.624 37.6242 36.568C38.1522 37.512 38.4162 38.592 38.4162 39.808C38.4162 41.04 38.1442 42.136 37.6002 43.096C37.0562 44.04 36.3042 44.784 35.3442 45.328C34.3842 45.856 33.2802 46.12 32.0322 46.12C30.7682 46.12 29.6482 45.832 28.6722 45.256C27.6962 44.68 26.9282 43.896 26.3682 42.904C25.8242 41.896 25.5522 40.744 25.5522 39.448ZM32.0322 44.44C32.9282 44.44 33.7202 44.248 34.4082 43.864C35.0962 43.464 35.6322 42.92 36.0162 42.232C36.4162 41.528 36.6162 40.72 36.6162 39.808C36.6162 38.912 36.4162 38.12 36.0162 37.432C35.6322 36.744 35.0962 36.208 34.4082 35.824C33.7202 35.44 32.9282 35.248 32.0322 35.248C31.1202 35.248 30.3122 35.44 29.6082 35.824C28.9042 36.208 28.3522 36.744 27.9522 37.432C27.5682 38.12 27.3762 38.912 27.3762 39.808C27.3762 40.72 27.5682 41.528 27.9522 42.232C28.3522 42.92 28.9042 43.464 29.6082 43.864C30.3122 44.248 31.1202 44.44 32.0322 44.44ZM41.2203 51.736C40.5323 51.752 39.8443 51.56 39.1562 51.16C38.9002 51 38.7402 50.792 38.6762 50.536C38.5962 50.296 38.6442 50.064 38.8202 49.84C38.9802 49.632 39.1723 49.52 39.3963 49.504C39.6363 49.504 39.8843 49.568 40.1403 49.696C40.3163 49.808 40.4923 49.888 40.6683 49.936C40.8443 49.984 41.0443 50.008 41.2683 50.008C42.3723 49.976 43.3243 49.032 44.1243 47.176L45.0363 45.088L39.7083 34.096C39.5963 33.856 39.5803 33.632 39.6603 33.424C39.7403 33.216 39.9003 33.056 40.1403 32.944C40.6523 32.704 41.0363 32.84 41.2923 33.352L45.9243 43.048L50.1003 33.376C50.1963 33.136 50.3563 32.976 50.5803 32.896C50.8203 32.8 51.0603 32.808 51.3003 32.92C51.5243 33.016 51.6683 33.176 51.7323 33.4C51.8123 33.624 51.7963 33.864 51.6843 34.12L45.6843 47.896C45.1723 49.048 44.5243 49.976 43.7403 50.68C42.9723 51.384 42.1323 51.736 41.2203 51.736ZM59.6419 32.872C60.0579 32.872 60.3619 33.08 60.5539 33.496L65.7619 44.824C65.8739 45.048 65.8819 45.264 65.7859 45.472C65.7059 45.664 65.5539 45.816 65.3299 45.928C64.7859 46.168 64.3859 46.032 64.1299 45.52L59.7139 35.632L55.1779 45.496C55.0659 45.736 54.8899 45.896 54.6499 45.976C54.4259 46.04 54.1939 46.016 53.9539 45.904C53.7299 45.792 53.5699 45.64 53.4739 45.448C53.3939 45.24 53.4019 45.024 53.4979 44.8L58.7779 33.496C58.9699 33.08 59.2579 32.872 59.6419 32.872ZM74.8313 46.12C73.5513 46.12 72.4073 45.832 71.3993 45.256C70.3913 44.68 69.5993 43.888 69.0233 42.88C68.4473 41.872 68.1593 40.728 68.1593 39.448C68.1593 38.152 68.4473 37 69.0233 35.992C69.5993 34.984 70.3913 34.192 71.3993 33.616C72.4073 33.04 73.5513 32.752 74.8313 32.752C76.1113 32.752 77.2473 33.04 78.2393 33.616C79.2473 34.192 80.0393 34.984 80.6153 35.992C81.1913 37 81.4873 38.152 81.5033 39.448C81.5033 40.728 81.2073 41.872 80.6153 42.88C80.0393 43.888 79.2473 44.68 78.2393 45.256C77.2473 45.832 76.1113 46.12 74.8313 46.12ZM74.8313 44.44C75.7593 44.44 76.5913 44.224 77.3273 43.792C78.0633 43.36 78.6393 42.768 79.0553 42.016C79.4713 41.264 79.6793 40.408 79.6793 39.448C79.6793 38.488 79.4713 37.632 79.0553 36.88C78.6393 36.112 78.0633 35.512 77.3273 35.08C76.5913 34.648 75.7593 34.432 74.8313 34.432C73.9033 34.432 73.0713 34.648 72.3353 35.08C71.5993 35.512 71.0153 36.112 70.5833 36.88C70.1673 37.632 69.9593 38.488 69.9593 39.448C69.9593 40.408 70.1673 41.264 70.5833 42.016C71.0153 42.768 71.5993 43.36 72.3353 43.792C73.0713 44.224 73.9033 44.44 74.8313 44.44ZM89.3935 41.944C87.6495 41.944 86.3135 41.416 85.3855 40.36C84.4735 39.288 84.0175 37.864 84.0175 36.088V33.808C84.0175 33.52 84.0975 33.296 84.2575 33.136C84.4335 32.96 84.6655 32.872 84.9535 32.872C85.2255 32.872 85.4415 32.96 85.6015 33.136C85.7775 33.296 85.8655 33.52 85.8655 33.808V36.088C85.8655 37.352 86.1695 38.352 86.7775 39.088C87.4015 39.824 88.3375 40.192 89.5855 40.192C90.5935 40.192 91.4095 40.016 92.0335 39.664C92.6735 39.296 92.9935 38.832 92.9935 38.272V33.808C92.9935 33.52 93.0735 33.296 93.2335 33.136C93.4095 32.96 93.6415 32.872 93.9295 32.872C94.2015 32.872 94.4175 32.96 94.5775 33.136C94.7535 33.296 94.8415 33.52 94.8415 33.808V45.064C94.8415 45.352 94.7535 45.584 94.5775 45.76C94.4175 45.92 94.2015 46 93.9295 46C93.6415 46 93.4095 45.92 93.2335 45.76C93.0735 45.584 92.9935 45.352 92.9935 45.064V40.552C92.5935 40.984 92.0815 41.328 91.4575 41.584C90.8335 41.824 90.1455 41.944 89.3935 41.944ZM105.112 46.12C103.816 46.12 102.664 45.84 101.656 45.28C100.664 44.704 99.88 43.912 99.304 42.904C98.744 41.896 98.464 40.744 98.464 39.448C98.464 38.136 98.728 36.984 99.256 35.992C99.8 34.984 100.544 34.192 101.488 33.616C102.432 33.04 103.52 32.752 104.752 32.752C105.968 32.752 107.024 33.032 107.92 33.592C108.832 34.136 109.536 34.896 110.032 35.872C110.528 36.848 110.776 37.96 110.776 39.208C110.776 39.464 110.696 39.672 110.536 39.832C110.376 39.976 110.168 40.048 109.912 40.048H100.216C100.312 40.912 100.576 41.68 101.008 42.352C101.44 43.008 102.008 43.528 102.712 43.912C103.416 44.28 104.216 44.464 105.112 44.464C105.688 44.464 106.264 44.368 106.84 44.176C107.432 43.968 107.904 43.712 108.256 43.408C108.432 43.264 108.632 43.192 108.856 43.192C109.08 43.176 109.272 43.232 109.432 43.36C109.64 43.552 109.744 43.76 109.744 43.984C109.76 44.208 109.672 44.4 109.48 44.56C108.952 45.008 108.28 45.384 107.464 45.688C106.648 45.976 105.864 46.12 105.112 46.12ZM104.752 34.408C103.52 34.408 102.504 34.792 101.704 35.56C100.904 36.312 100.424 37.296 100.264 38.512H109.048C108.92 37.296 108.472 36.312 107.704 35.56C106.952 34.792 105.968 34.408 104.752 34.408ZM114.79 46C114.518 46 114.302 45.92 114.142 45.76C113.982 45.584 113.902 45.36 113.902 45.088V33.808C113.902 33.52 113.982 33.296 114.142 33.136C114.302 32.96 114.518 32.872 114.79 32.872C115.078 32.872 115.302 32.96 115.462 33.136C115.638 33.296 115.726 33.52 115.726 33.808V38.56H117.862L122.59 33.16C122.75 32.984 122.95 32.888 123.19 32.872C123.43 32.856 123.638 32.92 123.814 33.064C124.006 33.24 124.11 33.44 124.126 33.664C124.142 33.872 124.07 34.072 123.91 34.264L119.398 39.352L124.15 44.584C124.31 44.76 124.39 44.96 124.39 45.184C124.39 45.392 124.294 45.584 124.102 45.76C123.942 45.92 123.726 46 123.454 46C123.198 46 122.99 45.912 122.83 45.736L117.838 40.24H115.726V45.088C115.726 45.36 115.638 45.584 115.462 45.76C115.302 45.92 115.078 46 114.79 46ZM127.163 49.888C126.827 49.888 126.659 49.728 126.659 49.408C126.659 49.168 126.731 48.944 126.875 48.736C127.019 48.544 127.163 48.336 127.307 48.112C127.467 47.888 127.547 47.616 127.547 47.296C127.547 46.912 127.451 46.608 127.259 46.384C127.083 46.16 126.899 45.944 126.707 45.736C126.515 45.528 126.419 45.24 126.419 44.872C126.419 44.472 126.547 44.152 126.803 43.912C127.075 43.672 127.411 43.552 127.811 43.552C128.291 43.552 128.683 43.744 128.987 44.128C129.291 44.496 129.443 45.016 129.443 45.688C129.443 46.136 129.379 46.608 129.251 47.104C129.123 47.6 128.947 48.056 128.723 48.472C128.499 48.904 128.251 49.248 127.979 49.504C127.707 49.76 127.435 49.888 127.163 49.888ZM145.608 46.12C144.344 46.12 143.224 45.84 142.248 45.28C141.272 44.704 140.504 43.912 139.944 42.904C139.4 41.896 139.128 40.744 139.128 39.448C139.128 38.136 139.416 36.976 139.992 35.968C140.568 34.96 141.36 34.176 142.368 33.616C143.376 33.04 144.52 32.752 145.8 32.752C147.096 32.752 148.24 33.04 149.232 33.616C150.24 34.176 151.024 34.96 151.584 35.968C152.16 36.976 152.456 38.136 152.472 39.448V44.344C152.472 45.64 152.184 46.8 151.608 47.824C151.032 48.864 150.248 49.68 149.256 50.272C148.264 50.88 147.128 51.184 145.848 51.184C144.584 51.184 143.472 50.944 142.512 50.464C141.552 50 140.76 49.36 140.136 48.544C139.96 48.352 139.88 48.144 139.896 47.92C139.928 47.696 140.048 47.512 140.256 47.368C140.464 47.224 140.696 47.176 140.952 47.224C141.208 47.272 141.408 47.392 141.552 47.584C142.016 48.16 142.608 48.624 143.328 48.976C144.064 49.328 144.912 49.504 145.872 49.504C146.768 49.504 147.576 49.288 148.296 48.856C149.016 48.424 149.584 47.816 150 47.032C150.432 46.248 150.648 45.328 150.648 44.272V43.168C150.168 44.08 149.488 44.8 148.608 45.328C147.744 45.856 146.744 46.12 145.608 46.12ZM145.8 44.44C146.744 44.44 147.576 44.232 148.296 43.816C149.032 43.384 149.608 42.792 150.024 42.04C150.44 41.288 150.648 40.424 150.648 39.448C150.648 38.472 150.44 37.608 150.024 36.856C149.608 36.088 149.032 35.496 148.296 35.08C147.576 34.648 146.744 34.432 145.8 34.432C144.856 34.432 144.016 34.648 143.28 35.08C142.544 35.496 141.968 36.088 141.552 36.856C141.136 37.608 140.928 38.472 140.928 39.448C140.928 40.424 141.136 41.288 141.552 42.04C141.968 42.792 142.544 43.384 143.28 43.816C144.016 44.232 144.856 44.44 145.8 44.44ZM161.85 46.12C160.618 46.12 159.514 45.832 158.538 45.256C157.562 44.664 156.786 43.864 156.21 42.856C155.65 41.848 155.37 40.712 155.37 39.448C155.37 38.168 155.658 37.024 156.234 36.016C156.826 35.008 157.626 34.216 158.634 33.64C159.642 33.048 160.778 32.752 162.042 32.752C163.306 32.752 164.434 33.048 165.426 33.64C166.434 34.216 167.226 35.008 167.802 36.016C168.394 37.024 168.698 38.168 168.714 39.448V45.088C168.714 45.36 168.626 45.584 168.45 45.76C168.274 45.92 168.05 46 167.778 46C167.506 46 167.282 45.92 167.106 45.76C166.93 45.584 166.842 45.36 166.842 45.088V43.624C166.298 44.392 165.594 45 164.73 45.448C163.866 45.896 162.906 46.12 161.85 46.12ZM162.042 44.44C162.97 44.44 163.794 44.224 164.514 43.792C165.25 43.36 165.826 42.768 166.242 42.016C166.674 41.248 166.89 40.392 166.89 39.448C166.89 38.488 166.674 37.632 166.242 36.88C165.826 36.128 165.25 35.536 164.514 35.104C163.794 34.656 162.97 34.432 162.042 34.432C161.13 34.432 160.306 34.656 159.57 35.104C158.834 35.536 158.25 36.128 157.818 36.88C157.386 37.632 157.17 38.488 157.17 39.448C157.17 40.392 157.386 41.248 157.818 42.016C158.25 42.768 158.834 43.36 159.57 43.792C160.306 44.224 161.13 44.44 162.042 44.44ZM180.276 46C179.988 46 179.756 45.92 179.58 45.76C179.42 45.584 179.34 45.352 179.34 45.064V33.784C179.356 33.512 179.444 33.296 179.604 33.136C179.78 32.96 180.004 32.872 180.276 32.872H180.3H186.156C187.26 32.872 188.164 33.192 188.868 33.832C189.588 34.472 189.948 35.296 189.948 36.304C189.948 36.992 189.788 37.568 189.468 38.032C189.148 38.48 188.724 38.816 188.196 39.04C188.916 39.312 189.484 39.736 189.9 40.312C190.316 40.872 190.524 41.52 190.524 42.256C190.524 42.992 190.34 43.64 189.972 44.2C189.62 44.76 189.116 45.2 188.46 45.52C187.82 45.84 187.084 46 186.252 46H180.276ZM186.156 34.552H181.188V38.368H186.252C186.812 38.368 187.268 38.184 187.62 37.816C187.972 37.448 188.148 36.976 188.148 36.4C188.148 35.888 187.956 35.456 187.572 35.104C187.204 34.736 186.732 34.552 186.156 34.552ZM181.188 44.296H186.252C186.972 44.296 187.564 44.112 188.028 43.744C188.492 43.376 188.724 42.848 188.724 42.16C188.724 41.44 188.492 40.896 188.028 40.528C187.564 40.144 186.972 39.952 186.252 39.952H181.188V44.296ZM198.964 46.24C197.924 46.24 197.004 46.032 196.204 45.616C195.42 45.2 194.796 44.624 194.332 43.888C193.884 43.152 193.66 42.304 193.66 41.344V33.784C193.676 33.512 193.764 33.296 193.924 33.136C194.1 32.96 194.324 32.872 194.596 32.872C194.868 32.872 195.084 32.96 195.244 33.136C195.42 33.296 195.508 33.52 195.508 33.808V37.216H199.06C200.02 37.216 200.868 37.4 201.604 37.768C202.356 38.12 202.94 38.632 203.356 39.304C203.772 39.96 203.98 40.744 203.98 41.656C203.98 42.584 203.764 43.392 203.332 44.08C202.916 44.768 202.324 45.304 201.556 45.688C200.804 46.056 199.94 46.24 198.964 46.24ZM206.98 46C206.708 46 206.484 45.92 206.308 45.76C206.148 45.584 206.068 45.352 206.068 45.064V33.808C206.068 33.52 206.148 33.296 206.308 33.136C206.484 32.96 206.708 32.872 206.98 32.872C207.268 32.872 207.492 32.96 207.652 33.136C207.828 33.296 207.916 33.52 207.916 33.808V45.064C207.916 45.352 207.828 45.584 207.652 45.76C207.492 45.92 207.268 46 206.98 46ZM198.964 44.536C199.892 44.536 200.66 44.296 201.268 43.816C201.876 43.336 202.18 42.616 202.18 41.656C202.18 40.696 201.884 39.984 201.292 39.52C200.716 39.056 199.972 38.824 199.06 38.824H195.508V41.344C195.508 42.272 195.828 43.04 196.468 43.648C197.124 44.24 197.956 44.536 198.964 44.536ZM213.182 46C212.894 46 212.662 45.92 212.486 45.76C212.326 45.584 212.246 45.36 212.246 45.088V33.808C212.246 33.52 212.326 33.296 212.486 33.136C212.662 32.96 212.894 32.872 213.182 32.872C213.454 32.872 213.67 32.96 213.83 33.136C214.006 33.296 214.094 33.52 214.094 33.808V34.624C214.606 34.032 215.238 33.568 215.99 33.232C216.758 32.896 217.582 32.728 218.462 32.728C219.598 32.728 220.614 32.968 221.51 33.448C222.406 33.912 223.11 34.6 223.622 35.512C224.15 36.424 224.414 37.536 224.414 38.848V45.088C224.414 45.344 224.326 45.56 224.15 45.736C223.974 45.912 223.758 46 223.502 46C223.23 46 223.006 45.912 222.83 45.736C222.654 45.56 222.566 45.344 222.566 45.088V38.848C222.566 37.36 222.15 36.264 221.318 35.56C220.502 34.84 219.486 34.48 218.27 34.48C217.486 34.48 216.774 34.632 216.134 34.936C215.51 35.24 215.014 35.656 214.646 36.184C214.278 36.712 214.094 37.312 214.094 37.984V45.088C214.094 45.36 214.006 45.584 213.83 45.76C213.67 45.92 213.454 46 213.182 46ZM234.44 46.12C233.144 46.12 231.992 45.84 230.984 45.28C229.992 44.704 229.208 43.912 228.632 42.904C228.072 41.896 227.792 40.744 227.792 39.448C227.792 38.136 228.056 36.984 228.584 35.992C229.128 34.984 229.872 34.192 230.816 33.616C231.76 33.04 232.848 32.752 234.08 32.752C235.296 32.752 236.352 33.032 237.248 33.592C238.16 34.136 238.864 34.896 239.36 35.872C239.856 36.848 240.104 37.96 240.104 39.208C240.104 39.464 240.024 39.672 239.864 39.832C239.704 39.976 239.496 40.048 239.24 40.048H229.544C229.64 40.912 229.904 41.68 230.336 42.352C230.768 43.008 231.336 43.528 232.04 43.912C232.744 44.28 233.544 44.464 234.44 44.464C235.016 44.464 235.592 44.368 236.168 44.176C236.76 43.968 237.232 43.712 237.584 43.408C237.76 43.264 237.96 43.192 238.184 43.192C238.408 43.176 238.6 43.232 238.76 43.36C238.968 43.552 239.072 43.76 239.072 43.984C239.088 44.208 239 44.4 238.808 44.56C238.28 45.008 237.608 45.384 236.792 45.688C235.976 45.976 235.192 46.12 234.44 46.12ZM234.08 34.408C232.848 34.408 231.832 34.792 231.032 35.56C230.232 36.312 229.752 37.296 229.592 38.512H238.376C238.248 37.296 237.8 36.312 237.032 35.56C236.28 34.792 235.296 34.408 234.08 34.408ZM248.942 46.144C247.806 46.144 246.79 45.912 245.894 45.448C244.998 44.968 244.286 44.272 243.758 43.36C243.246 42.448 242.99 41.336 242.99 40.024V33.784C242.99 33.528 243.078 33.312 243.254 33.136C243.43 32.96 243.646 32.872 243.902 32.872C244.174 32.872 244.398 32.96 244.574 33.136C244.75 33.312 244.838 33.528 244.838 33.784V40.024C244.838 41.496 245.246 42.592 246.062 43.312C246.878 44.032 247.902 44.392 249.134 44.392C249.918 44.392 250.622 44.24 251.246 43.936C251.886 43.632 252.39 43.216 252.758 42.688C253.126 42.16 253.31 41.56 253.31 40.888V33.784C253.31 33.512 253.39 33.296 253.55 33.136C253.726 32.96 253.95 32.872 254.222 32.872C254.494 32.872 254.718 32.96 254.894 33.136C255.07 33.296 255.158 33.512 255.158 33.784V45.064C255.158 45.352 255.07 45.584 254.894 45.76C254.718 45.92 254.494 46 254.222 46C253.95 46 253.726 45.92 253.55 45.76C253.39 45.584 253.31 45.352 253.31 45.064V44.248C252.782 44.84 252.142 45.304 251.39 45.64C250.638 45.976 249.822 46.144 248.942 46.144ZM249.206 31.168C248.422 31.168 247.718 31.04 247.094 30.784C246.47 30.512 245.974 30.144 245.606 29.68C245.254 29.216 245.078 28.696 245.078 28.12C245.078 27.864 245.158 27.648 245.318 27.472C245.494 27.296 245.702 27.208 245.942 27.208C246.198 27.208 246.406 27.296 246.566 27.472C246.726 27.648 246.806 27.888 246.806 28.192C246.806 28.64 247.038 29 247.502 29.272C247.966 29.544 248.534 29.68 249.206 29.68C249.894 29.68 250.462 29.544 250.91 29.272C251.374 29 251.606 28.64 251.606 28.192C251.606 27.888 251.686 27.648 251.846 27.472C252.022 27.296 252.23 27.208 252.47 27.208C252.726 27.208 252.934 27.296 253.094 27.472C253.254 27.648 253.334 27.864 253.334 28.12C253.334 28.696 253.15 29.216 252.782 29.68C252.43 30.144 251.942 30.512 251.318 30.784C250.694 31.04 249.99 31.168 249.206 31.168ZM270.8 41.944C269.056 41.944 267.72 41.416 266.792 40.36C265.88 39.288 265.424 37.864 265.424 36.088V33.808C265.424 33.52 265.504 33.296 265.664 33.136C265.84 32.96 266.072 32.872 266.36 32.872C266.632 32.872 266.848 32.96 267.008 33.136C267.184 33.296 267.272 33.52 267.272 33.808V36.088C267.272 37.352 267.576 38.352 268.184 39.088C268.808 39.824 269.744 40.192 270.992 40.192C272 40.192 272.816 40.016 273.44 39.664C274.08 39.296 274.4 38.832 274.4 38.272V33.808C274.4 33.52 274.48 33.296 274.64 33.136C274.816 32.96 275.048 32.872 275.336 32.872C275.608 32.872 275.824 32.96 275.984 33.136C276.16 33.296 276.248 33.52 276.248 33.808V45.064C276.248 45.352 276.16 45.584 275.984 45.76C275.824 45.92 275.608 46 275.336 46C275.048 46 274.816 45.92 274.64 45.76C274.48 45.584 274.4 45.352 274.4 45.064V40.552C274 40.984 273.488 41.328 272.864 41.584C272.24 41.824 271.552 41.944 270.8 41.944ZM286.35 46.12C285.118 46.12 284.014 45.832 283.038 45.256C282.062 44.664 281.286 43.864 280.71 42.856C280.15 41.848 279.87 40.712 279.87 39.448C279.87 38.168 280.158 37.024 280.734 36.016C281.326 35.008 282.126 34.216 283.134 33.64C284.142 33.048 285.278 32.752 286.542 32.752C287.806 32.752 288.934 33.048 289.926 33.64C290.934 34.216 291.726 35.008 292.302 36.016C292.894 37.024 293.198 38.168 293.214 39.448V45.088C293.214 45.36 293.126 45.584 292.95 45.76C292.774 45.92 292.55 46 292.278 46C292.006 46 291.782 45.92 291.606 45.76C291.43 45.584 291.342 45.36 291.342 45.088V43.624C290.798 44.392 290.094 45 289.23 45.448C288.366 45.896 287.406 46.12 286.35 46.12ZM286.542 44.44C287.47 44.44 288.294 44.224 289.014 43.792C289.75 43.36 290.326 42.768 290.742 42.016C291.174 41.248 291.39 40.392 291.39 39.448C291.39 38.488 291.174 37.632 290.742 36.88C290.326 36.128 289.75 35.536 289.014 35.104C288.294 34.656 287.47 34.432 286.542 34.432C285.63 34.432 284.806 34.656 284.07 35.104C283.334 35.536 282.75 36.128 282.318 36.88C281.886 37.632 281.67 38.488 281.67 39.448C281.67 40.392 281.886 41.248 282.318 42.016C282.75 42.768 283.334 43.36 284.07 43.792C284.806 44.224 285.63 44.44 286.542 44.44ZM297.744 46C297.456 46 297.224 45.92 297.048 45.76C296.888 45.584 296.808 45.36 296.808 45.088V33.808C296.808 33.52 296.888 33.296 297.048 33.136C297.224 32.96 297.456 32.872 297.744 32.872C298.016 32.872 298.232 32.96 298.392 33.136C298.568 33.296 298.656 33.52 298.656 33.808V38.56H301.344C301.488 37.424 301.856 36.424 302.448 35.56C303.056 34.68 303.832 33.992 304.776 33.496C305.72 33 306.792 32.752 307.992 32.752C309.256 32.752 310.384 33.04 311.376 33.616C312.384 34.192 313.176 34.984 313.752 35.992C314.344 37 314.64 38.152 314.64 39.448C314.64 40.728 314.352 41.872 313.776 42.88C313.2 43.888 312.408 44.68 311.4 45.256C310.392 45.832 309.256 46.12 307.992 46.12C306.792 46.12 305.712 45.872 304.752 45.376C303.792 44.864 303.008 44.168 302.4 43.288C301.808 42.408 301.456 41.392 301.344 40.24H298.656V45.088C298.656 45.36 298.568 45.584 298.392 45.76C298.232 45.92 298.016 46 297.744 46ZM307.992 44.44C308.92 44.44 309.744 44.224 310.464 43.792C311.2 43.36 311.776 42.768 312.192 42.016C312.608 41.264 312.816 40.408 312.816 39.448C312.816 38.488 312.608 37.632 312.192 36.88C311.776 36.112 311.2 35.512 310.464 35.08C309.744 34.648 308.92 34.432 307.992 34.432C307.048 34.432 306.208 34.648 305.472 35.08C304.752 35.512 304.176 36.112 303.744 36.88C303.328 37.632 303.12 38.488 303.12 39.448C303.12 40.408 303.328 41.264 303.744 42.016C304.176 42.768 304.752 43.36 305.472 43.792C306.208 44.224 307.048 44.44 307.992 44.44ZM318.686 46.384C318.302 46.384 317.974 46.248 317.702 45.976C317.43 45.704 317.294 45.376 317.294 44.992C317.294 44.592 317.43 44.256 317.702 43.984C317.99 43.712 318.318 43.576 318.686 43.576C319.07 43.576 319.398 43.72 319.67 44.008C319.942 44.28 320.078 44.608 320.078 44.992C320.078 45.36 319.942 45.688 319.67 45.976C319.414 46.248 319.086 46.384 318.686 46.384ZM334.041 46C333.785 46 333.561 45.912 333.369 45.736C333.193 45.56 333.105 45.336 333.105 45.064V29.464L330.705 30.304C330.529 30.384 330.369 30.424 330.225 30.424C329.953 30.424 329.729 30.336 329.553 30.16C329.377 29.984 329.289 29.768 329.289 29.512C329.289 29.32 329.329 29.144 329.409 28.984C329.505 28.824 329.665 28.704 329.889 28.624L333.585 27.352C333.665 27.32 333.745 27.296 333.825 27.28C333.921 27.248 334.001 27.232 334.065 27.232C334.337 27.232 334.553 27.328 334.713 27.52C334.889 27.696 334.977 27.912 334.977 28.168V45.064C334.977 45.336 334.889 45.56 334.713 45.736C334.537 45.912 334.313 46 334.041 46ZM340.015 46C339.759 46 339.535 45.912 339.343 45.736C339.167 45.56 339.079 45.336 339.079 45.064C339.079 44.824 339.167 44.608 339.343 44.416L346.615 35.824C347.015 35.392 347.335 34.912 347.575 34.384C347.815 33.84 347.935 33.336 347.935 32.872C347.935 31.752 347.607 30.832 346.951 30.112C346.295 29.392 345.447 29.032 344.407 29.032C343.735 29.032 343.119 29.208 342.559 29.56C342.015 29.896 341.583 30.352 341.263 30.928C340.959 31.504 340.807 32.152 340.807 32.872C340.807 33.128 340.719 33.344 340.543 33.52C340.367 33.696 340.143 33.784 339.871 33.784C339.615 33.784 339.391 33.696 339.199 33.52C339.023 33.344 338.935 33.128 338.935 32.872C338.935 31.8 339.175 30.84 339.655 29.992C340.135 29.144 340.783 28.472 341.599 27.976C342.431 27.48 343.367 27.232 344.407 27.232C345.447 27.232 346.367 27.472 347.167 27.952C347.983 28.432 348.615 29.096 349.063 29.944C349.527 30.792 349.759 31.768 349.759 32.872C349.759 33.656 349.567 34.4 349.183 35.104C348.815 35.792 348.383 36.424 347.887 37L341.743 44.128H349.255C349.511 44.128 349.727 44.224 349.903 44.416C350.095 44.608 350.191 44.824 350.191 45.064C350.191 45.336 350.095 45.56 349.903 45.736C349.727 45.912 349.511 46 349.255 46H340.015ZM358.52 46.12C357.4 46.12 356.392 45.88 355.496 45.4C354.616 44.904 353.92 44.232 353.408 43.384C352.896 42.536 352.64 41.576 352.64 40.504C352.64 40.232 352.72 40 352.88 39.808C353.04 39.616 353.256 39.52 353.528 39.52C353.8 39.52 354.016 39.616 354.176 39.808C354.336 40 354.416 40.232 354.416 40.504C354.416 41.24 354.592 41.904 354.944 42.496C355.296 43.072 355.776 43.536 356.384 43.888C357.008 44.224 357.696 44.392 358.448 44.392C359.696 44.392 360.672 44.048 361.376 43.36C362.08 42.656 362.432 41.752 362.432 40.648C362.432 39.864 362.264 39.184 361.928 38.608C361.592 38.016 361.136 37.56 360.56 37.24C359.984 36.904 359.336 36.736 358.616 36.736C358.36 36.736 358.144 36.648 357.968 36.472C357.792 36.296 357.704 36.072 357.704 35.8C357.704 35.544 357.792 35.328 357.968 35.152C358.144 34.976 358.36 34.888 358.616 34.888C359.176 34.888 359.688 34.752 360.152 34.48C360.632 34.192 361.016 33.816 361.304 33.352C361.592 32.888 361.736 32.376 361.736 31.816C361.736 30.968 361.448 30.264 360.872 29.704C360.296 29.128 359.528 28.84 358.568 28.84C357.56 28.84 356.728 29.128 356.072 29.704C355.416 30.264 355.088 30.96 355.088 31.792C355.088 32.064 355 32.296 354.824 32.488C354.664 32.664 354.456 32.752 354.2 32.752C353.928 32.752 353.712 32.664 353.552 32.488C353.392 32.296 353.312 32.072 353.312 31.816C353.312 30.936 353.536 30.144 353.984 29.44C354.448 28.72 355.072 28.16 355.856 27.76C356.64 27.344 357.544 27.136 358.568 27.136C359.496 27.136 360.328 27.344 361.064 27.76C361.816 28.16 362.408 28.72 362.84 29.44C363.288 30.144 363.512 30.936 363.512 31.816C363.512 32.36 363.376 32.888 363.104 33.4C362.848 33.912 362.504 34.376 362.072 34.792C361.64 35.192 361.168 35.504 360.656 35.728C361.888 36.096 362.8 36.736 363.392 37.648C363.984 38.56 364.28 39.56 364.28 40.648C364.28 41.704 364.024 42.648 363.512 43.48C363.016 44.296 362.328 44.944 361.448 45.424C360.568 45.888 359.592 46.12 358.52 46.12ZM376.111 46C375.871 46 375.663 45.912 375.487 45.736C375.311 45.56 375.223 45.336 375.223 45.064V41.512H366.631C366.247 41.512 365.967 41.344 365.791 41.008C365.631 40.656 365.663 40.336 365.887 40.048L375.391 27.616C375.583 27.36 375.839 27.232 376.159 27.232C376.415 27.232 376.623 27.328 376.783 27.52C376.959 27.696 377.047 27.92 377.047 28.192V39.832H378.943C379.199 39.832 379.415 39.896 379.591 40.024C379.767 40.152 379.855 40.376 379.855 40.696C379.855 40.904 379.767 41.096 379.591 41.272C379.415 41.432 379.199 41.512 378.943 41.512H377.047V45.064C377.047 45.336 376.959 45.56 376.783 45.736C376.607 45.912 376.383 46 376.111 46ZM375.223 39.832V30.664L368.167 39.832H375.223ZM387.335 46C386.183 46 385.151 45.736 384.239 45.208C383.327 44.664 382.599 43.936 382.055 43.024C381.527 42.096 381.263 41.056 381.263 39.904C381.263 39.632 381.351 39.408 381.527 39.232C381.703 39.056 381.919 38.968 382.175 38.968C382.447 38.968 382.671 39.056 382.847 39.232C383.039 39.408 383.135 39.632 383.135 39.904C383.135 40.704 383.319 41.424 383.687 42.064C384.055 42.704 384.551 43.208 385.175 43.576C385.815 43.944 386.535 44.128 387.335 44.128C388.135 44.128 388.855 43.944 389.495 43.576C390.135 43.208 390.639 42.704 391.007 42.064C391.375 41.424 391.559 40.704 391.559 39.904C391.559 39.104 391.375 38.384 391.007 37.744C390.639 37.104 390.135 36.6 389.495 36.232C388.855 35.864 388.135 35.68 387.335 35.68H383.135C382.863 35.68 382.639 35.592 382.463 35.416C382.287 35.224 382.199 35 382.199 34.744V28.168C382.199 27.912 382.287 27.696 382.463 27.52C382.639 27.328 382.863 27.232 383.135 27.232H391.559C391.815 27.232 392.031 27.328 392.207 27.52C392.399 27.696 392.495 27.912 392.495 28.168C392.495 28.424 392.407 28.648 392.231 28.84C392.055 29.016 391.831 29.104 391.559 29.104H384.047V33.808H387.335C388.503 33.808 389.543 34.08 390.455 34.624C391.367 35.152 392.087 35.88 392.615 36.808C393.159 37.72 393.431 38.752 393.431 39.904C393.431 41.056 393.159 42.096 392.615 43.024C392.087 43.936 391.367 44.664 390.455 45.208C389.543 45.736 388.503 46 387.335 46ZM401.95 46C400.862 46 399.894 45.76 399.046 45.28C398.198 44.784 397.526 44.112 397.03 43.264C396.55 42.416 396.31 41.448 396.31 40.36C396.31 39.32 396.55 38.368 397.03 37.504H397.006L397.054 37.432C397.102 37.352 397.15 37.272 397.198 37.192L402.934 27.76C403.142 27.424 403.422 27.256 403.774 27.256C404.142 27.256 404.414 27.416 404.59 27.736C404.782 28.04 404.782 28.352 404.59 28.672L400.822 34.816C401.19 34.752 401.566 34.72 401.95 34.72C403.022 34.72 403.982 34.968 404.83 35.464C405.678 35.944 406.342 36.616 406.822 37.48C407.318 38.328 407.566 39.288 407.566 40.36C407.566 41.448 407.318 42.416 406.822 43.264C406.342 44.112 405.678 44.784 404.83 45.28C403.982 45.76 403.022 46 401.95 46ZM401.926 44.272C402.662 44.272 403.318 44.104 403.894 43.768C404.486 43.432 404.95 42.968 405.286 42.376C405.622 41.784 405.79 41.112 405.79 40.36C405.79 39.608 405.622 38.936 405.286 38.344C404.95 37.752 404.486 37.288 403.894 36.952C403.318 36.6 402.662 36.424 401.926 36.424C401.19 36.424 400.534 36.6 399.958 36.952C399.382 37.288 398.926 37.752 398.59 38.344C398.254 38.936 398.086 39.608 398.086 40.36C398.086 41.112 398.254 41.784 398.59 42.376C398.926 42.968 399.382 43.432 399.958 43.768C400.534 44.104 401.19 44.272 401.926 44.272ZM411.6 46C411.344 46 411.12 45.912 410.928 45.736C410.752 45.56 410.664 45.336 410.664 45.064C410.664 44.936 410.728 44.736 410.855 44.464L418.008 29.104H409.752C409.48 29.104 409.248 29.016 409.056 28.84C408.88 28.648 408.792 28.424 408.792 28.168C408.792 27.912 408.88 27.696 409.056 27.52C409.248 27.328 409.48 27.232 409.752 27.232H419.52C419.776 27.232 419.992 27.328 420.168 27.52C420.344 27.696 420.432 27.912 420.432 28.168C420.432 28.248 420.416 28.336 420.384 28.432C420.352 28.512 420.32 28.592 420.288 28.672L412.44 45.472C412.264 45.824 411.984 46 411.6 46ZM427.261 46.096C426.189 46.096 425.229 45.848 424.381 45.352C423.533 44.84 422.861 44.152 422.365 43.288C421.885 42.424 421.645 41.448 421.645 40.36C421.645 39.272 421.901 38.304 422.413 37.456C422.941 36.608 423.645 35.952 424.525 35.488C423.933 35.088 423.469 34.568 423.133 33.928C422.797 33.272 422.629 32.544 422.629 31.744C422.629 30.896 422.829 30.128 423.229 29.44C423.629 28.752 424.181 28.208 424.885 27.808C425.589 27.408 426.381 27.208 427.261 27.208C428.141 27.192 428.933 27.384 429.637 27.784C430.341 28.168 430.893 28.712 431.293 29.416C431.693 30.104 431.885 30.88 431.869 31.744C431.869 32.544 431.693 33.264 431.341 33.904C431.005 34.544 430.549 35.072 429.973 35.488C430.853 35.936 431.549 36.592 432.061 37.456C432.589 38.304 432.853 39.272 432.853 40.36C432.837 41.448 432.581 42.424 432.085 43.288C431.605 44.152 430.941 44.84 430.093 45.352C429.261 45.848 428.317 46.096 427.261 46.096ZM427.261 34.72C428.061 34.72 428.725 34.432 429.253 33.856C429.797 33.28 430.077 32.568 430.093 31.72C430.109 30.92 429.845 30.256 429.301 29.728C428.757 29.184 428.077 28.912 427.261 28.912C426.445 28.912 425.765 29.184 425.221 29.728C424.693 30.256 424.421 30.92 424.405 31.72C424.389 32.568 424.653 33.28 425.197 33.856C425.741 34.432 426.429 34.72 427.261 34.72ZM427.261 44.416C427.965 44.416 428.597 44.24 429.157 43.888C429.717 43.52 430.157 43.032 430.477 42.424C430.813 41.816 430.981 41.128 430.981 40.36C430.981 39.624 430.821 38.968 430.501 38.392C430.181 37.8 429.741 37.336 429.181 37C428.621 36.664 427.981 36.496 427.261 36.496C426.541 36.496 425.901 36.664 425.341 37C424.781 37.336 424.333 37.8 423.997 38.392C423.677 38.968 423.517 39.624 423.517 40.36C423.517 41.128 423.677 41.816 423.997 42.424C424.317 43.032 424.757 43.52 425.317 43.888C425.893 44.24 426.541 44.416 427.261 44.416ZM440.094 27.232C441.182 27.232 442.15 27.48 442.998 27.976C443.846 28.456 444.51 29.12 444.99 29.968C445.486 30.816 445.734 31.784 445.734 32.872C445.734 33.912 445.494 34.864 445.014 35.728H445.038L444.99 35.8C444.942 35.88 444.894 35.96 444.846 36.04L439.11 45.472C438.902 45.808 438.622 45.976 438.27 45.976C437.902 45.976 437.622 45.824 437.43 45.52C437.254 45.2 437.262 44.88 437.454 44.56L441.222 38.416C440.854 38.48 440.478 38.512 440.094 38.512C439.022 38.512 438.062 38.272 437.214 37.792C436.366 37.296 435.694 36.624 435.198 35.776C434.718 34.912 434.478 33.944 434.478 32.872C434.478 31.784 434.718 30.816 435.198 29.968C435.694 29.12 436.366 28.456 437.214 27.976C438.062 27.48 439.022 27.232 440.094 27.232ZM440.118 28.96C439.382 28.96 438.718 29.128 438.126 29.464C437.55 29.8 437.094 30.264 436.758 30.856C436.422 31.448 436.254 32.12 436.254 32.872C436.254 33.624 436.422 34.296 436.758 34.888C437.094 35.48 437.55 35.952 438.126 36.304C438.718 36.64 439.382 36.808 440.118 36.808C440.854 36.808 441.51 36.64 442.086 36.304C442.662 35.952 443.118 35.48 443.454 34.888C443.79 34.296 443.958 33.624 443.958 32.872C443.958 32.12 443.79 31.448 443.454 30.856C443.118 30.264 442.662 29.8 442.086 29.464C441.51 29.128 440.854 28.96 440.118 28.96ZM454.137 46C452.345 46 450.953 45.168 449.961 43.504C448.985 41.84 448.497 39.536 448.497 36.592C448.497 34.656 448.713 32.984 449.145 31.576C449.593 30.168 450.241 29.088 451.089 28.336C451.937 27.584 452.953 27.208 454.137 27.208C455.353 27.208 456.377 27.592 457.209 28.36C458.057 29.112 458.697 30.192 459.129 31.6C459.577 33.008 459.801 34.672 459.801 36.592C459.801 38.544 459.577 40.224 459.129 41.632C458.697 43.024 458.057 44.104 457.209 44.872C456.377 45.624 455.353 46 454.137 46ZM454.137 44.128C455.001 44.128 455.713 43.808 456.273 43.168C456.833 42.512 457.249 41.616 457.521 40.48C457.793 39.344 457.929 38.048 457.929 36.592C457.929 35.152 457.785 33.872 457.497 32.752C457.225 31.616 456.809 30.72 456.249 30.064C455.689 29.408 454.985 29.08 454.137 29.08C453.289 29.08 452.585 29.408 452.025 30.064C451.481 30.704 451.065 31.592 450.777 32.728C450.505 33.864 450.369 35.152 450.369 36.592C450.369 38.064 450.505 39.368 450.777 40.504C451.065 41.624 451.481 42.512 452.025 43.168C452.585 43.808 453.289 44.128 454.137 44.128Z" fill="black"/>
</svg>
