<svg width="133" height="20" viewBox="0 0 133 20" fill="none" xmlns="http://www.w3.org/2000/svg">
<path d="M10.2107 19.24C8.91472 19.24 7.69872 18.992 6.56272 18.496C5.44272 18 4.45072 17.312 3.58672 16.432C2.73872 15.536 2.07472 14.512 1.59472 13.36C1.11472 12.192 0.874719 10.944 0.874719 9.616C0.874719 8.304 1.10672 7.072 1.57072 5.92C2.05072 4.752 2.71472 3.728 3.56272 2.848C4.42672 1.968 5.41872 1.28 6.53872 0.783998C7.67472 0.271999 8.89872 0.0159998 10.2107 0.0159998C11.3627 0.0159998 12.4107 0.184 13.3547 0.519999C14.2987 0.855999 15.2107 1.392 16.0907 2.128C16.2987 2.288 16.3867 2.496 16.3547 2.752C16.3227 2.992 16.2027 3.16 15.9947 3.256C15.9467 3.448 15.7947 3.568 15.5387 3.616C15.2987 3.664 15.0587 3.592 14.8187 3.4C14.1947 2.856 13.5147 2.456 12.7787 2.2C12.0427 1.928 11.1867 1.792 10.2107 1.792C9.17072 1.792 8.19472 2 7.28272 2.416C6.38672 2.832 5.59472 3.4 4.90672 4.12C4.21872 4.84 3.67472 5.672 3.27472 6.616C2.89072 7.56 2.69872 8.56 2.69872 9.616C2.69872 10.704 2.89072 11.72 3.27472 12.664C3.67472 13.608 4.21872 14.44 4.90672 15.16C5.59472 15.88 6.38672 16.448 7.28272 16.864C8.19472 17.264 9.17072 17.464 10.2107 17.464C11.9387 17.464 13.5147 16.904 14.9387 15.784C15.2267 15.56 15.5307 15.528 15.8507 15.688C16.1867 15.848 16.3547 16.12 16.3547 16.504C16.3547 16.76 16.2667 16.984 16.0907 17.176C15.2747 17.928 14.3627 18.464 13.3547 18.784C12.3467 19.088 11.2987 19.24 10.2107 19.24ZM25.0774 19.12C23.7974 19.12 22.6534 18.832 21.6454 18.256C20.6374 17.68 19.8454 16.888 19.2694 15.88C18.6934 14.872 18.4054 13.728 18.4054 12.448C18.4054 11.152 18.6934 10 19.2694 8.992C19.8454 7.984 20.6374 7.192 21.6454 6.616C22.6534 6.04 23.7974 5.752 25.0774 5.752C26.3574 5.752 27.4934 6.04 28.4854 6.616C29.4934 7.192 30.2854 7.984 30.8614 8.992C31.4374 10 31.7334 11.152 31.7494 12.448C31.7494 13.728 31.4534 14.872 30.8614 15.88C30.2854 16.888 29.4934 17.68 28.4854 18.256C27.4934 18.832 26.3574 19.12 25.0774 19.12ZM25.0774 17.44C26.0054 17.44 26.8374 17.224 27.5734 16.792C28.3094 16.36 28.8854 15.768 29.3014 15.016C29.7174 14.264 29.9254 13.408 29.9254 12.448C29.9254 11.488 29.7174 10.632 29.3014 9.88C28.8854 9.112 28.3094 8.512 27.5734 8.08C26.8374 7.648 26.0054 7.432 25.0774 7.432C24.1494 7.432 23.3174 7.648 22.5814 8.08C21.8454 8.512 21.2614 9.112 20.8294 9.88C20.4134 10.632 20.2054 11.488 20.2054 12.448C20.2054 13.408 20.4134 14.264 20.8294 15.016C21.2614 15.768 21.8454 16.36 22.5814 16.792C23.3174 17.224 24.1494 17.44 25.0774 17.44ZM36.2796 19C35.9916 19 35.7596 18.92 35.5836 18.76C35.4236 18.584 35.3436 18.36 35.3436 18.088V6.808C35.3436 6.536 35.4236 6.312 35.5836 6.136C35.7596 5.96 35.9916 5.872 36.2796 5.872C36.5516 5.872 36.7676 5.96 36.9276 6.136C37.1036 6.312 37.1916 6.536 37.1916 6.808V7.336C37.6396 6.824 38.1676 6.432 38.7756 6.16C39.3836 5.872 40.0556 5.728 40.7916 5.728C41.6876 5.728 42.4796 5.928 43.1676 6.328C43.8716 6.728 44.4316 7.28 44.8476 7.984C45.2956 7.28 45.8956 6.728 46.6476 6.328C47.3996 5.928 48.2396 5.728 49.1676 5.728C50.1116 5.728 50.9436 5.952 51.6636 6.4C52.3996 6.848 52.9676 7.48 53.3676 8.296C53.7836 9.112 53.9916 10.072 53.9916 11.176V18.088C53.9916 18.36 53.9036 18.584 53.7276 18.76C53.5676 18.92 53.3516 19 53.0796 19C52.8076 19 52.5836 18.92 52.4076 18.76C52.2316 18.584 52.1436 18.36 52.1436 18.088V11.176C52.1436 10.04 51.8476 9.144 51.2556 8.488C50.6636 7.816 49.9036 7.48 48.9756 7.48C47.9836 7.48 47.1676 7.816 46.5276 8.488C45.9036 9.144 45.5996 10.024 45.6156 11.128V11.176V18.088C45.6156 18.36 45.5276 18.584 45.3516 18.76C45.1916 18.92 44.9756 19 44.7036 19C44.4316 19 44.2076 18.92 44.0316 18.76C43.8556 18.584 43.7676 18.36 43.7676 18.088V11.176C43.7676 10.04 43.4716 9.144 42.8796 8.488C42.2876 7.816 41.5276 7.48 40.5996 7.48C39.6076 7.48 38.7916 7.808 38.1516 8.464C37.5116 9.104 37.1916 9.944 37.1916 10.984V18.088C37.1916 18.36 37.1036 18.584 36.9276 18.76C36.7676 18.92 36.5516 19 36.2796 19ZM59.71 19C59.47 19 59.262 18.92 59.086 18.76C58.91 18.584 58.822 18.352 58.822 18.064V7.96H57.286C57.03 7.96 56.822 7.888 56.662 7.744C56.518 7.584 56.446 7.392 56.446 7.168C56.446 6.928 56.518 6.736 56.662 6.592C56.822 6.432 57.03 6.352 57.286 6.352H58.822V5.896C58.822 4.216 59.254 2.856 60.118 1.816C60.982 0.776 62.23 0.256 63.862 0.256C64.134 0.256 64.358 0.335999 64.534 0.495999C64.71 0.655999 64.798 0.855999 64.798 1.096C64.798 1.336 64.71 1.536 64.534 1.696C64.358 1.856 64.134 1.936 63.862 1.936C62.774 1.936 61.966 2.304 61.438 3.04C60.926 3.76 60.67 4.68 60.67 5.8V6.352H63.55C63.806 6.352 64.006 6.432 64.15 6.592C64.31 6.736 64.39 6.928 64.39 7.168C64.39 7.392 64.31 7.584 64.15 7.744C64.006 7.888 63.806 7.96 63.55 7.96H60.67V18.064C60.67 18.352 60.582 18.584 60.406 18.76C60.246 18.92 60.014 19 59.71 19ZM72.3743 19.12C71.0943 19.12 69.9503 18.832 68.9423 18.256C67.9343 17.68 67.1423 16.888 66.5663 15.88C65.9903 14.872 65.7023 13.728 65.7023 12.448C65.7023 11.152 65.9903 10 66.5663 8.992C67.1423 7.984 67.9343 7.192 68.9423 6.616C69.9503 6.04 71.0943 5.752 72.3743 5.752C73.6543 5.752 74.7903 6.04 75.7823 6.616C76.7903 7.192 77.5823 7.984 78.1583 8.992C78.7343 10 79.0303 11.152 79.0463 12.448C79.0463 13.728 78.7503 14.872 78.1583 15.88C77.5823 16.888 76.7903 17.68 75.7823 18.256C74.7903 18.832 73.6543 19.12 72.3743 19.12ZM72.3743 17.44C73.3023 17.44 74.1343 17.224 74.8703 16.792C75.6063 16.36 76.1823 15.768 76.5983 15.016C77.0143 14.264 77.2223 13.408 77.2223 12.448C77.2223 11.488 77.0143 10.632 76.5983 9.88C76.1823 9.112 75.6063 8.512 74.8703 8.08C74.1343 7.648 73.3023 7.432 72.3743 7.432C71.4463 7.432 70.6143 7.648 69.8783 8.08C69.1423 8.512 68.5583 9.112 68.1263 9.88C67.7103 10.632 67.5023 11.488 67.5023 12.448C67.5023 13.408 67.7103 14.264 68.1263 15.016C68.5583 15.768 69.1423 16.36 69.8783 16.792C70.6143 17.224 71.4463 17.44 72.3743 17.44ZM83.5525 19C82.9445 19 82.6405 18.696 82.6405 18.088V6.784C82.6405 6.176 82.9445 5.872 83.5525 5.872C84.1605 5.872 84.4645 6.176 84.4645 6.784V7.816C84.9445 7.176 85.5365 6.672 86.2405 6.304C86.9445 5.92 87.7205 5.728 88.5685 5.728C89.3045 5.728 89.8725 5.832 90.2725 6.04C90.6725 6.248 90.8245 6.552 90.7285 6.952C90.6485 7.32 90.4565 7.512 90.1525 7.528C89.8645 7.528 89.5205 7.512 89.1205 7.48C88.2245 7.4 87.4245 7.496 86.7205 7.768C86.0325 8.024 85.4805 8.424 85.0645 8.968C84.6645 9.512 84.4645 10.16 84.4645 10.912V18.088C84.4645 18.696 84.1605 19 83.5525 19ZM98.7687 19C97.9207 19 97.1607 18.8 96.4887 18.4C95.8327 18 95.3127 17.456 94.9287 16.768C94.5447 16.064 94.3527 15.264 94.3527 14.368V7.96H92.7927C92.5527 7.96 92.3527 7.888 92.1927 7.744C92.0327 7.584 91.9527 7.392 91.9527 7.168C91.9527 6.928 92.0327 6.736 92.1927 6.592C92.3527 6.432 92.5527 6.352 92.7927 6.352H94.3527V2.632C94.3527 2.36 94.4327 2.136 94.5927 1.96C94.7687 1.784 94.9927 1.696 95.2647 1.696C95.5367 1.696 95.7607 1.784 95.9367 1.96C96.1127 2.136 96.2007 2.36 96.2007 2.632V6.352H98.9127C99.1527 6.352 99.3527 6.432 99.5127 6.592C99.6727 6.736 99.7527 6.928 99.7527 7.168C99.7527 7.392 99.6727 7.584 99.5127 7.744C99.3527 7.888 99.1527 7.96 98.9127 7.96H96.2007V14.368C96.2007 15.184 96.4407 15.856 96.9207 16.384C97.4007 16.896 98.0167 17.152 98.7687 17.152H99.4167C99.6727 17.152 99.8807 17.24 100.041 17.416C100.201 17.592 100.281 17.816 100.281 18.088C100.281 18.36 100.185 18.584 99.9927 18.76C99.8007 18.92 99.5607 19 99.2727 19H98.7687ZM109.073 19.12C107.841 19.12 106.737 18.832 105.761 18.256C104.785 17.664 104.009 16.864 103.433 15.856C102.873 14.848 102.593 13.712 102.593 12.448C102.593 11.168 102.881 10.024 103.457 9.016C104.049 8.008 104.849 7.216 105.857 6.64C106.865 6.048 108.001 5.752 109.265 5.752C110.529 5.752 111.657 6.048 112.649 6.64C113.657 7.216 114.449 8.008 115.025 9.016C115.617 10.024 115.921 11.168 115.937 12.448V18.088C115.937 18.36 115.849 18.584 115.673 18.76C115.497 18.92 115.273 19 115.001 19C114.729 19 114.505 18.92 114.329 18.76C114.153 18.584 114.065 18.36 114.065 18.088V16.624C113.521 17.392 112.817 18 111.953 18.448C111.089 18.896 110.129 19.12 109.073 19.12ZM109.265 17.44C110.193 17.44 111.017 17.224 111.737 16.792C112.473 16.36 113.049 15.768 113.465 15.016C113.897 14.248 114.113 13.392 114.113 12.448C114.113 11.488 113.897 10.632 113.465 9.88C113.049 9.128 112.473 8.536 111.737 8.104C111.017 7.656 110.193 7.432 109.265 7.432C108.353 7.432 107.529 7.656 106.793 8.104C106.057 8.536 105.473 9.128 105.041 9.88C104.609 10.632 104.393 11.488 104.393 12.448C104.393 13.392 104.609 14.248 105.041 15.016C105.473 15.768 106.057 16.36 106.793 16.792C107.529 17.224 108.353 17.44 109.265 17.44ZM125.315 19.12C124.083 19.12 122.979 18.832 122.003 18.256C121.027 17.664 120.251 16.864 119.675 15.856C119.115 14.848 118.835 13.712 118.835 12.448C118.835 11.168 119.123 10.024 119.699 9.016C120.291 8.008 121.091 7.216 122.099 6.64C123.107 6.048 124.243 5.752 125.507 5.752C126.771 5.752 127.899 6.048 128.891 6.64C129.899 7.216 130.691 8.008 131.267 9.016C131.859 10.024 132.163 11.168 132.179 12.448V18.088C132.179 18.36 132.091 18.584 131.915 18.76C131.739 18.92 131.515 19 131.243 19C130.971 19 130.747 18.92 130.571 18.76C130.395 18.584 130.307 18.36 130.307 18.088V16.624C129.763 17.392 129.059 18 128.195 18.448C127.331 18.896 126.371 19.12 125.315 19.12ZM125.507 17.44C126.435 17.44 127.259 17.224 127.979 16.792C128.715 16.36 129.291 15.768 129.707 15.016C130.139 14.248 130.355 13.392 130.355 12.448C130.355 11.488 130.139 10.632 129.707 9.88C129.291 9.128 128.715 8.536 127.979 8.104C127.259 7.656 126.435 7.432 125.507 7.432C124.595 7.432 123.771 7.656 123.035 8.104C122.299 8.536 121.715 9.128 121.283 9.88C120.851 10.632 120.635 11.488 120.635 12.448C120.635 13.392 120.851 14.248 121.283 15.016C121.715 15.768 122.299 16.36 123.035 16.792C123.771 17.224 124.595 17.44 125.507 17.44Z" fill="black"/>
</svg>
